<svg width="38" height="38" viewBox="0 0 38 38" fill="none" xmlns="http://www.w3.org/2000/svg">
<g clip-path="url(#clip0)">
<path d="M10.8672 18.485C10.8733 20.2928 11.0997 22.0932 11.5414 23.8462H18.5881V13.5371H11.4435C11.0676 15.1598 10.8743 16.8194 10.8672 18.485Z" fill="#086DB5"/>
<path d="M20.4375 23.8571H27.4842C27.9451 22.1028 28.1898 20.2987 28.2128 18.485C28.2093 16.8198 28.0196 15.1602 27.6473 13.5371H20.4375V23.8571Z" fill="#086DB5"/>
<path d="M35.9532 12.841C35.2958 13.1427 34.6009 13.3548 33.8871 13.4717H33.6478C32.9019 13.5871 32.1427 13.5871 31.3968 13.4717H29.4394C29.8086 15.1176 30.0019 16.7981 30.0157 18.4849C30.0101 20.2895 29.8022 22.0878 29.3959 23.8461H33.7457C33.4921 24.5228 33.1905 25.1806 32.8431 25.8143H28.863C28.1187 28.1445 27.0182 30.3455 25.6007 32.3391C24.5546 32.795 23.4601 33.1306 22.3383 33.3395C24.3473 31.1565 25.8936 28.5893 26.8839 25.7926H20.4461V33.5679H18.6083V25.7817H12.138C13.1269 28.5823 14.6732 31.1533 16.6835 33.3395C15.5848 33.1329 14.5125 32.8046 13.4864 32.3608C12.0638 30.3506 10.9632 28.1309 10.224 25.7817H6.22221C5.87481 25.148 5.57318 24.4902 5.31962 23.8134H9.66944C9.26185 22.0662 9.0503 20.279 9.03871 18.4849C9.03931 16.8219 9.21426 15.1635 9.56069 13.537H5.113C5.34169 12.8622 5.61787 12.2045 5.93947 11.5687H10.0827C10.8601 8.9795 12.0657 6.53883 13.6495 4.34798C14.6539 3.93183 15.7003 3.62556 16.7705 3.43452C14.6072 5.75629 12.9746 8.52065 11.9857 11.5361H18.6083V3.26053H20.4461V11.5687H27.0687V11.4273C25.6078 10.0747 24.6946 8.23266 24.5023 6.25103C23.8522 5.2704 23.1249 4.34313 22.3274 3.47802C23.0883 3.62463 23.8372 3.8282 24.5676 4.08699C24.6848 3.38855 24.8932 2.70851 25.1874 2.06433C21.4534 0.773202 17.392 0.786328 13.6664 2.10156C9.94079 3.4168 6.77125 5.95641 4.67541 9.30563C2.57957 12.6549 1.68129 16.6158 2.12728 20.5414C2.57327 24.4671 4.33717 28.1256 7.13089 30.9193C9.92462 33.713 13.5831 35.4769 17.5087 35.9229C21.4344 36.3689 25.3953 35.4706 28.7445 33.3748C32.0938 31.2789 34.6334 28.1094 35.9486 24.3838C37.2639 20.6582 37.277 16.5968 35.9859 12.8628L35.9532 12.841Z" fill="#086DB5"/>
<path d="M32.5623 10.8726C35.5652 10.8726 37.9996 8.43825 37.9996 5.43532C37.9996 2.4324 35.5652 -0.00195312 32.5623 -0.00195312C29.5594 -0.00195312 27.125 2.4324 27.125 5.43532C27.125 8.43825 29.5594 10.8726 32.5623 10.8726Z" fill="#086DB5"/>
</g>
<defs>
<clipPath id="clip0">
<rect width="38" height="38" fill="white"/>
</clipPath>
</defs>
</svg>
