<svg width="21" height="20" viewBox="0 0 21 20" fill="none" xmlns="http://www.w3.org/2000/svg">
<path d="M10.5 20C9.065 20 7.70875 19.7373 6.43125 19.212C5.15375 18.6873 4.0383 17.9707 3.0849 17.062C2.1308 16.154 1.3783 15.0917 0.8274 13.875C0.2758 12.6583 0 11.3667 0 10C0 8.61667 0.2758 7.321 0.8274 6.113C1.3783 4.90433 2.1308 3.846 3.0849 2.938C4.0383 2.02933 5.15375 1.31233 6.43125 0.787C7.70875 0.262333 9.065 0 10.5 0C11.9525 0 13.3129 0.262333 14.5813 0.787C15.8504 1.31233 16.9617 2.02933 17.9151 2.938C18.8692 3.846 19.6217 4.90433 20.1726 6.113C20.7242 7.321 21 8.61667 21 10V11.45C21 12.4333 20.6458 13.2707 19.9374 13.962C19.2283 14.654 18.3575 15 17.325 15C16.695 15 16.1087 14.8667 15.5662 14.6C15.0238 14.3333 14.5775 13.9833 14.2275 13.55C13.755 14 13.1995 14.3543 12.5611 14.613C11.922 14.871 11.235 15 10.5 15C9.0475 15 7.80955 14.5123 6.78615 13.537C5.76205 12.5623 5.25 11.3833 5.25 10C5.25 8.61667 5.76205 7.43733 6.78615 6.462C7.80955 5.48733 9.0475 5 10.5 5C11.9525 5 13.1908 5.48733 14.2149 6.462C15.2383 7.43733 15.75 8.61667 15.75 10V11.45C15.75 11.9333 15.9075 12.3123 16.2225 12.587C16.5375 12.8623 16.905 13 17.325 13C17.745 13 18.1125 12.8623 18.4275 12.587C18.7425 12.3123 18.9 11.9333 18.9 11.45V10C18.9 7.81667 18.0729 5.93733 16.4188 4.362C14.7654 2.78733 12.7925 2 10.5 2C8.2075 2 6.2342 2.78733 4.5801 4.362C2.9267 5.93733 2.1 7.81667 2.1 10C2.1 12.1833 2.9267 14.0623 4.5801 15.637C6.2342 17.2123 8.2075 18 10.5 18H15.75V20H10.5ZM10.5 13C11.375 13 12.1187 12.7083 12.7312 12.125C13.3437 11.5417 13.65 10.8333 13.65 10C13.65 9.16667 13.3437 8.45833 12.7312 7.875C12.1187 7.29167 11.375 7 10.5 7C9.625 7 8.88125 7.29167 8.26875 7.875C7.65625 8.45833 7.35 9.16667 7.35 10C7.35 10.8333 7.65625 11.5417 8.26875 12.125C8.88125 12.7083 9.625 13 10.5 13Z" fill="#A9A8A8"/>
</svg>
