<svg width="15" height="15" viewBox="0 0 15 15" fill="none" xmlns="http://www.w3.org/2000/svg">
<path d="M14.7351 8.92915C15.1301 9.21225 14.9299 9.83557 14.4438 9.83557H9.87445C9.65807 9.83557 9.46625 9.97475 9.39912 10.1805L7.97533 14.5434C7.82527 15.0033 7.17473 15.0033 7.02467 14.5434L5.60088 10.1805C5.53375 9.97475 5.34193 9.83557 5.12555 9.83557H0.540192C0.0556991 9.83557 -0.145604 9.21549 0.246506 8.93091L3.94799 6.24454C4.12314 6.11742 4.19663 5.89204 4.13007 5.68611L2.72991 1.35385C2.58112 0.893462 3.10779 0.511234 3.49936 0.795424L7.20632 3.48577C7.38147 3.61289 7.61853 3.61289 7.79368 3.48577L11.4946 0.799782C11.8868 0.515168 12.414 0.898911 12.2636 1.35956L10.8436 5.71097C10.776 5.91827 10.8505 6.1455 11.0277 6.27251L14.7351 8.92915Z" fill="black"/>
</svg>
