<svg width="43" height="43" viewBox="0 0 43 43" fill="none" xmlns="http://www.w3.org/2000/svg">
<path d="M35.8346 10.7507C35.8346 6.86632 29.2718 3.58398 21.5013 3.58398C13.7308 3.58398 7.16797 6.86632 7.16797 10.7507V14.334C7.16797 18.2183 13.7308 21.5007 21.5013 21.5007C29.2718 21.5007 35.8346 18.2183 35.8346 14.334V10.7507ZM21.5013 34.0423C13.7308 34.0423 7.16797 30.76 7.16797 26.8757V32.2507C7.16797 36.135 13.7308 39.4173 21.5013 39.4173C29.2718 39.4173 35.8346 36.135 35.8346 32.2507V26.8757C35.8346 30.76 29.2718 34.0423 21.5013 34.0423Z" fill="#086DB5"/>
<path d="M35.8346 17.916C35.8346 21.8003 29.2718 25.0827 21.5013 25.0827C13.7308 25.0827 7.16797 21.8003 7.16797 17.916V23.291C7.16797 27.1753 13.7308 30.4577 21.5013 30.4577C29.2718 30.4577 35.8346 27.1753 35.8346 23.291V17.916Z" fill="#086DB5"/>
</svg>
