<svg width="51" height="58" viewBox="0 0 51 58" fill="none" xmlns="http://www.w3.org/2000/svg">
<path d="M0 46.7477V16.1242L20.3576 0.8125L40.7153 16.1242V26.332H35.6259V18.6762L20.3576 7.19239L5.08941 18.6762V41.6438H20.3576V46.7477H0Z" fill="#FF9900"/>
<path d="M38.6274 43.0937C39.4169 43.0937 40.093 42.8175 40.6557 42.265C41.2174 41.7135 41.4983 41.0502 41.4983 40.275C41.4983 39.4998 41.2174 38.836 40.6557 38.2836C40.093 37.732 39.4169 37.4562 38.6274 37.4562C37.8378 37.4562 37.1622 37.732 36.6005 38.2836C36.0378 38.836 35.7564 39.4998 35.7564 40.275C35.7564 41.0502 36.0378 41.7135 36.6005 42.265C37.1622 42.8175 37.8378 43.0937 38.6274 43.0937ZM38.6274 57.1875C34.7755 53.9694 31.8988 50.9801 29.9973 48.2196C28.0948 45.4601 27.1436 42.9058 27.1436 40.5569C27.1436 37.0334 28.2982 34.2264 30.6074 32.1359C32.9156 30.0453 35.5889 29 38.6274 29C41.6658 29 44.3391 30.0453 46.6473 32.1359C48.9565 34.2264 50.1111 37.0334 50.1111 40.5569C50.1111 42.9058 49.1604 45.4601 47.2589 48.2196C45.3564 50.9801 42.4792 53.9694 38.6274 57.1875Z" fill="#FF9900"/>
</svg>
