<svg width="24" height="19" viewBox="0 0 24 19" fill="none" xmlns="http://www.w3.org/2000/svg">
<path d="M5.0951 18.2895C4.08741 18.2896 3.10232 17.9909 2.26443 17.4311C1.42654 16.8713 0.773473 16.0756 0.387834 15.1446C0.00219474 14.2136 -0.0986965 13.1892 0.0979203 12.2009C0.294537 11.2125 0.77983 10.3047 1.49242 9.59224L6.74971 4.337C7.7052 3.38151 9.00112 2.84473 10.3524 2.84473C11.7037 2.84473 12.9996 3.38151 13.9551 4.337C14.9106 5.29249 15.4473 6.58841 15.4473 7.93968C15.4473 9.29095 14.9106 10.5869 13.9551 11.5424L13.3857 12.1107L11.9288 10.6558L12.5023 10.0823C13.0695 9.51242 13.3876 8.74085 13.3868 7.93677C13.386 7.13269 13.0664 6.36173 12.4981 5.7929C11.9197 5.2409 11.1509 4.93291 10.3514 4.93291C9.55182 4.93291 8.783 5.2409 8.20458 5.7929L2.94935 11.0481C2.66723 11.3299 2.44342 11.6646 2.29072 12.0329C2.13802 12.4013 2.05943 12.7962 2.05943 13.1949C2.05943 13.5937 2.13802 13.9885 2.29072 14.3569C2.44342 14.7252 2.66723 15.0599 2.94935 15.3417C3.52776 15.8937 4.29658 16.2017 5.09613 16.2017C5.89567 16.2017 6.66449 15.8937 7.24291 15.3417L8.6988 16.7976C8.22657 17.2722 7.66493 17.6484 7.04636 17.9044C6.42779 18.1605 5.76458 18.2914 5.0951 18.2895Z" fill="#A9A8A8"/>
<path d="M13.3334 16.23C12.3257 16.2301 11.3406 15.9313 10.5027 15.3715C9.66482 14.8117 9.01175 14.016 8.62612 13.085C8.24048 12.1541 8.13958 11.1296 8.3362 10.1413C8.53282 9.15298 9.01811 8.24516 9.7307 7.53267L10.3001 6.96431L11.756 8.42124L11.1876 8.98959C10.6184 9.55883 10.2986 10.3309 10.2986 11.1359C10.2986 11.9409 10.6184 12.7129 11.1876 13.2821C11.766 13.8341 12.5349 14.1421 13.3344 14.1421C14.134 14.1421 14.9028 13.8341 15.4812 13.2821L20.7375 8.02586C21.3056 7.45627 21.6246 6.68461 21.6246 5.88011C21.6246 5.07561 21.3056 4.30395 20.7375 3.73436C20.159 3.18236 19.3902 2.87437 18.5907 2.87437C17.7911 2.87437 17.0223 3.18236 16.4439 3.73436L14.988 2.27743C15.9435 1.32194 17.2394 0.785156 18.5907 0.785156C19.9419 0.785156 21.2379 1.32194 22.1933 2.27743C23.1488 3.23292 23.6856 4.52884 23.6856 5.88011C23.6856 7.23138 23.1488 8.5273 22.1933 9.48279L16.9381 14.737C16.4659 15.2116 15.9043 15.588 15.2857 15.8442C14.6672 16.1005 14.0039 16.2316 13.3344 16.23H13.3334Z" fill="#A9A8A8"/>
</svg>
