<svg width="18" height="18" viewBox="0 0 18 18" fill="none" xmlns="http://www.w3.org/2000/svg">
<path d="M16.2372 12.3772L15.8439 12.4279C15.664 12.4512 15.4909 12.5099 15.3351 12.6003C15.1793 12.6907 15.044 12.811 14.9374 12.9538C14.8309 13.0966 14.7553 13.259 14.7152 13.4311C14.6752 13.6032 14.6715 13.7814 14.7044 13.9549L14.7912 14.3261C14.8374 14.5673 14.8125 14.8163 14.7193 15.0442C14.626 15.2722 14.4684 15.4698 14.2644 15.6143C14.0605 15.7588 13.8187 15.8441 13.567 15.8605C13.3153 15.8769 13.0639 15.8236 12.842 15.7069L12.4256 15.4876C12.2718 15.4058 12.103 15.3543 11.9287 15.3361C11.7544 15.3179 11.5782 15.3332 11.4101 15.3813C11.2419 15.4293 11.0852 15.5092 10.9488 15.6162C10.8124 15.7232 10.699 15.8553 10.6152 16.005L10.1641 16.7615C10.0493 16.9657 9.8801 17.136 9.67427 17.2547C9.46844 17.3734 9.23356 17.4361 8.99427 17.4361C8.75497 17.4361 8.52009 17.3734 8.31426 17.2547C8.10844 17.136 7.93925 16.9657 7.82447 16.7615L7.41092 16.005C7.32709 15.8553 7.21374 15.7232 7.07735 15.6162C6.94096 15.5092 6.78421 15.4293 6.61607 15.3813C6.44792 15.3332 6.27168 15.3179 6.09743 15.3361C5.92317 15.3543 5.75433 15.4058 5.60055 15.4876L5.18411 15.7069C4.96192 15.8269 4.70914 15.8828 4.45545 15.868C4.20176 15.8531 3.95767 15.7683 3.75183 15.6233C3.54598 15.4784 3.38693 15.2793 3.29332 15.0496C3.19972 14.8198 3.17545 14.5688 3.22336 14.3261L3.29566 13.9465C3.32861 13.773 3.32495 13.5947 3.2849 13.4226C3.24485 13.2505 3.16925 13.0882 3.06268 12.9453C2.95612 12.8025 2.82082 12.6823 2.665 12.5919C2.50917 12.5015 2.33608 12.4428 2.15622 12.4194L1.77738 12.3772C1.52359 12.3472 1.28393 12.2472 1.08673 12.089C0.88954 11.9308 0.74305 11.721 0.66458 11.4843C0.586109 11.2477 0.578939 10.9942 0.643915 10.7538C0.708892 10.5133 0.843299 10.296 1.03125 10.1275L1.32045 9.86312C1.45204 9.74125 1.55681 9.59465 1.62839 9.43222C1.69998 9.2698 1.73689 9.09492 1.73689 8.91821C1.73689 8.7415 1.69998 8.56662 1.62839 8.4042C1.55681 8.24177 1.45204 8.09517 1.32045 7.9733L1.03125 7.70895C0.843372 7.54061 0.708941 7.3235 0.643828 7.08327C0.578714 6.84304 0.585636 6.58971 0.663776 6.35318C0.741916 6.11665 0.888012 5.90679 1.08482 5.74838C1.28163 5.58997 1.52093 5.48962 1.77449 5.45917L2.16779 5.41137C2.34765 5.388 2.52074 5.32934 2.67656 5.23893C2.83239 5.14853 2.96769 5.02826 3.07425 4.88545C3.18081 4.74264 3.25642 4.58025 3.29646 4.40816C3.33651 4.23606 3.34017 4.05784 3.30722 3.88433L3.22336 3.52155C3.17545 3.27884 3.19972 3.02788 3.29332 2.79811C3.38693 2.56834 3.54598 2.3693 3.75183 2.22434C3.95767 2.07938 4.20176 1.99452 4.45545 1.97971C4.70914 1.96491 4.96192 2.02077 5.18411 2.14075L5.64393 2.38541C5.94714 2.54586 6.30252 2.58569 6.63531 2.49653C6.9681 2.40736 7.25236 2.19615 7.42827 1.90734L7.8505 1.20147C7.96853 1.00796 8.13631 0.847651 8.33736 0.736304C8.53841 0.624958 8.76579 0.566406 8.99716 0.566406C9.22853 0.566406 9.45591 0.624958 9.65696 0.736304C9.858 0.847651 10.0258 1.00796 10.1438 1.20147L10.5747 1.90734C10.7506 2.19615 11.0349 2.40736 11.3677 2.49653C11.7005 2.58569 12.0559 2.54586 12.3591 2.38541L12.8189 2.14075C13.0413 2.01745 13.2955 1.95891 13.5512 1.97209C13.8069 1.98528 14.0533 2.06963 14.2611 2.21511C14.4689 2.36059 14.6294 2.56106 14.7233 2.79268C14.8173 3.0243 14.8409 3.27729 14.7912 3.52155L14.7189 3.90401C14.686 4.07753 14.6896 4.25575 14.7297 4.42784C14.7697 4.59994 14.8453 4.76232 14.9519 4.90514C15.0584 5.04795 15.1937 5.16821 15.3496 5.25862C15.5054 5.34902 15.6785 5.40769 15.8583 5.43105L16.2516 5.47886C16.5052 5.50931 16.7445 5.60966 16.9413 5.76807C17.1381 5.92648 17.2842 6.13633 17.3624 6.37286C17.4405 6.60939 17.4474 6.86272 17.3823 7.10296C17.3172 7.34319 17.1828 7.56029 16.9949 7.72864L16.7057 7.99299C16.5741 8.11486 16.4693 8.26146 16.3977 8.42388C16.3261 8.58631 16.2892 8.76118 16.2892 8.9379C16.2892 9.11461 16.3261 9.28948 16.3977 9.45191C16.4693 9.61434 16.5741 9.76093 16.7057 9.8828L16.9949 10.1472C17.1769 10.3174 17.3058 10.5341 17.3665 10.7725C17.4273 11.0109 17.4175 11.2611 17.3382 11.4942C17.259 11.7274 17.1136 11.934 16.9188 12.0903C16.724 12.2465 16.4877 12.346 16.2372 12.3772Z" fill="#FEFCEE"/>
<path d="M11.3229 12.656C12.1215 12.656 12.7689 12.0264 12.7689 11.2499C12.7689 10.4733 12.1215 9.84375 11.3229 9.84375C10.5243 9.84375 9.87695 10.4733 9.87695 11.2499C9.87695 12.0264 10.5243 12.656 11.3229 12.656Z" fill="#FEFCEE"/>
<path d="M6.68621 8.15988C7.48481 8.15988 8.13219 7.53034 8.13219 6.75377C8.13219 5.97719 7.48481 5.34766 6.68621 5.34766C5.88762 5.34766 5.24023 5.97719 5.24023 6.75377C5.24023 7.53034 5.88762 8.15988 6.68621 8.15988Z" fill="#FEFCEE"/>
<path d="M7.32408 17.0302L6.89896 16.2737C6.80107 16.1049 6.63849 15.9806 6.44669 15.9279C6.2549 15.8752 6.04947 15.8984 5.87521 15.9924L5.45877 16.2146C5.14155 16.3819 4.78216 16.4586 4.42204 16.4359C4.06192 16.4132 3.71574 16.2919 3.42341 16.0862C3.13109 15.8804 2.90453 15.5985 2.76985 15.2729C2.63518 14.9473 2.59787 14.5914 2.66224 14.2461C2.73454 13.8664 2.83287 13.6021 2.60151 13.2927C2.37015 12.9834 2.08674 13.0115 1.69633 12.9468C1.3318 12.9057 0.987062 12.7637 0.703061 12.5377C0.41906 12.3117 0.207723 12.0111 0.0941433 11.6718C-0.0194362 11.3325 -0.0304859 10.9686 0.062306 10.6233C0.155098 10.278 0.347833 9.96591 0.617627 9.724C0.906823 9.45965 1.14107 9.30217 1.14107 8.92252C1.14107 8.54287 0.906823 8.38538 0.617627 8.12104C0.354953 7.87802 0.168517 7.56756 0.0799483 7.22568C-0.00862081 6.8838 0.0043067 6.52451 0.117231 6.18948C0.230156 5.85445 0.438448 5.55743 0.717946 5.33286C0.997443 5.10829 1.33669 4.96539 1.69633 4.92072C2.08674 4.8701 2.37305 4.88135 2.60151 4.57482C2.82998 4.26829 2.73454 4.01238 2.66224 3.62148C2.59787 3.27618 2.63518 2.92022 2.76985 2.59465C2.90453 2.26907 3.13109 1.98714 3.42341 1.78137C3.71574 1.57559 4.06192 1.45435 4.42204 1.43163C4.78216 1.4089 5.14155 1.48561 5.45877 1.65292L5.91859 1.89758C6.09131 1.98798 6.29351 2.00918 6.48207 1.95664C6.67063 1.9041 6.83061 1.78199 6.92788 1.61636L7.35879 0.910494C7.52803 0.633056 7.76861 0.40322 8.05686 0.243583C8.34512 0.083945 8.67114 0 9.00287 0C9.33459 0 9.66061 0.083945 9.94887 0.243583C10.2371 0.40322 10.4777 0.633056 10.6469 0.910494L11.0778 1.61636C11.1751 1.78199 11.3351 1.9041 11.5237 1.95664C11.7122 2.00918 11.9144 1.98798 12.0871 1.89758L12.547 1.65292C12.8642 1.48561 13.2236 1.4089 13.5837 1.43163C13.9438 1.45435 14.29 1.57559 14.5823 1.78137C14.8746 1.98714 15.1012 2.26907 15.2359 2.59465C15.3706 2.92022 15.4079 3.27618 15.3435 3.62148C15.2712 4.00113 15.1729 4.26829 15.4042 4.57482C15.6356 4.88135 15.9161 4.85604 16.3094 4.92072C16.6693 4.96494 17.0089 5.10752 17.2888 5.33191C17.5686 5.5563 17.7773 5.85329 17.8906 6.18839C18.0038 6.52349 18.017 6.88296 17.9286 7.22506C17.8401 7.56715 17.6537 7.87784 17.391 8.12104C17.1018 8.38538 16.8676 8.54287 16.8676 8.92252C16.8676 9.30217 17.1018 9.45965 17.391 9.724C17.6582 9.96653 17.8485 10.2783 17.9395 10.6225C18.0306 10.9667 18.0186 11.329 17.9049 11.6668C17.7913 12.0046 17.5807 12.3037 17.298 12.529C17.0153 12.7543 16.6723 12.8963 16.3094 12.9384C16.3383 12.9384 15.945 12.9862 15.9161 12.989C15.8139 13.0018 15.7155 13.0348 15.627 13.086C15.5384 13.1371 15.4615 13.2054 15.4011 13.2865C15.3407 13.3677 15.298 13.46 15.2757 13.5578C15.2533 13.6556 15.2518 13.7568 15.2712 13.8552L15.3435 14.2376C15.4079 14.5829 15.3706 14.9389 15.2359 15.2645C15.1012 15.59 14.8746 15.872 14.5823 16.0777C14.29 16.2835 13.9438 16.4047 13.5837 16.4275C13.2236 16.4502 12.8642 16.3735 12.547 16.2062L12.1305 15.984C11.9563 15.89 11.7508 15.8667 11.559 15.9194C11.3672 15.9721 11.2047 16.0964 11.1068 16.2652L10.6816 17.0302C10.5173 17.3236 10.2746 17.5686 9.97921 17.7393C9.68378 17.9099 9.3465 18 9.00287 18C8.65923 18 8.32195 17.9099 8.02652 17.7393C7.73109 17.5686 7.48843 17.3236 7.32408 17.0302ZM6.23381 14.7804C6.57744 14.7799 6.91485 14.8695 7.21054 15.0397C7.50622 15.21 7.74925 15.4546 7.91404 15.7478L8.33916 16.5043C8.40392 16.6205 8.49978 16.7176 8.61661 16.7853C8.73343 16.853 8.86689 16.8887 9.00287 16.8887C9.13885 16.8887 9.2723 16.853 9.38913 16.7853C9.50595 16.7176 9.60181 16.6205 9.66657 16.5043L10.0917 15.7478C10.2121 15.5325 10.3751 15.3425 10.5712 15.1886C10.7673 15.0347 10.9927 14.92 11.2345 14.851C11.4764 14.7821 11.7298 14.7602 11.9803 14.7867C12.2308 14.8131 12.4735 14.8875 12.6945 15.0054C13.1138 15.2275 13.4695 15.4919 13.9149 15.1769C14.3602 14.8619 14.2041 14.4373 14.1433 14.052C14.096 13.8033 14.1011 13.5478 14.1585 13.3011C14.2159 13.0544 14.3244 12.8216 14.4772 12.6169C14.6301 12.4122 14.8242 12.2399 15.0477 12.1105C15.2712 11.9811 15.5194 11.8973 15.7773 11.8641C16.2169 11.8079 16.6246 11.8079 16.7895 11.3017C16.9543 10.7955 16.5726 10.5199 16.3036 10.2696C16.1148 10.0954 15.9644 9.8856 15.8616 9.65304C15.7588 9.42048 15.7058 9.17001 15.7058 8.91689C15.7058 8.66377 15.7588 8.41331 15.8616 8.18075C15.9644 7.94819 16.1148 7.73842 16.3036 7.56421C16.6246 7.26893 16.9572 7.02989 16.7895 6.53494C16.6217 6.03999 16.1619 6.02874 15.7773 5.9725C15.5194 5.93934 15.2712 5.85549 15.0477 5.72608C14.8242 5.59666 14.6301 5.42437 14.4772 5.21969C14.3244 5.01502 14.2159 4.78224 14.1585 4.53552C14.1011 4.28881 14.096 4.03331 14.1433 3.78459C14.2243 3.36838 14.3515 2.97748 13.9149 2.6597C13.4782 2.34192 13.0993 2.61751 12.654 2.85374C12.2216 3.09062 11.7113 3.15439 11.2313 3.03154C10.7513 2.90869 10.3395 2.60888 10.083 2.19568L9.65211 1.48981C9.58529 1.38023 9.49029 1.28945 9.37646 1.2264C9.26263 1.16334 9.13387 1.13018 9.00287 1.13018C8.87186 1.13018 8.74311 1.16334 8.62927 1.2264C8.51544 1.28945 8.42044 1.38023 8.35362 1.48981L7.92272 2.19568C7.67068 2.61028 7.26256 2.91318 6.78482 3.04021C6.30708 3.16724 5.79725 3.10843 5.36333 2.87624C4.91797 2.64001 4.55648 2.3616 4.09955 2.68219C3.64262 3.00279 3.81035 3.42462 3.87397 3.80708C3.92134 4.05581 3.91616 4.3113 3.85876 4.55802C3.80136 4.80474 3.69293 5.03752 3.54008 5.24219C3.38723 5.44687 3.19314 5.61916 2.96964 5.74857C2.74614 5.87799 2.4979 5.96183 2.24002 5.99499C1.8149 6.04843 1.39267 6.05124 1.22783 6.55744C1.06299 7.06364 1.44473 7.31393 1.71368 7.56984C1.90252 7.74404 2.05291 7.95382 2.15568 8.18637C2.25845 8.41893 2.31145 8.6694 2.31145 8.92252C2.31145 9.17564 2.25845 9.42611 2.15568 9.65866C2.05291 9.89122 1.90252 10.101 1.71368 10.2752C1.39267 10.5733 1.0601 10.8095 1.22783 11.3073C1.39556 11.805 1.85539 11.8107 2.24002 11.8697C2.4979 11.9029 2.74614 11.9867 2.96964 12.1161C3.19314 12.2456 3.38723 12.4179 3.54008 12.6225C3.69293 12.8272 3.80136 13.06 3.85876 13.3067C3.91616 13.5534 3.92134 13.8089 3.87397 14.0576C3.793 14.4738 3.66286 14.8647 4.09955 15.1825C4.7994 15.655 5.14065 14.7663 6.23381 14.7663V14.7804Z" fill="#FF9900"/>
<path d="M6.10917 12.3749C5.99513 12.3744 5.88377 12.3412 5.7891 12.2794C5.69443 12.2175 5.62067 12.1299 5.57709 12.0274C5.53352 11.9249 5.52207 11.8122 5.54419 11.7034C5.5663 11.5946 5.621 11.4946 5.7014 11.4159L11.4853 5.79149C11.596 5.69935 11.7383 5.6512 11.8839 5.65667C12.0294 5.66214 12.1675 5.72082 12.2705 5.82099C12.3735 5.92116 12.4339 6.05543 12.4395 6.19699C12.4451 6.33854 12.3956 6.47694 12.3009 6.58454C6.02241 12.6927 6.45042 12.3749 6.10917 12.3749Z" fill="#FF9900"/>
<path d="M11.3212 13.2184C10.9209 13.2184 10.5295 13.1029 10.1966 12.8866C9.86366 12.6703 9.60419 12.3628 9.45097 12.0031C9.29775 11.6434 9.25766 11.2476 9.33577 10.8658C9.41388 10.4839 9.60669 10.1331 9.8898 9.85783C10.1729 9.58252 10.5336 9.39503 10.9263 9.31908C11.319 9.24312 11.726 9.2821 12.0959 9.4311C12.4658 9.58009 12.782 9.83241 13.0045 10.1561C13.2269 10.4799 13.3456 10.8605 13.3456 11.2498C13.3456 11.7719 13.1323 12.2726 12.7527 12.6418C12.3731 13.011 11.8581 13.2184 11.3212 13.2184ZM11.3212 10.4061C11.1497 10.4061 10.9819 10.4556 10.8392 10.5483C10.6966 10.641 10.5854 10.7728 10.5197 10.927C10.454 11.0811 10.4369 11.2507 10.4703 11.4144C10.5038 11.5781 10.5864 11.7284 10.7078 11.8464C10.8291 11.9644 10.9837 12.0447 11.152 12.0773C11.3203 12.1098 11.4947 12.0931 11.6533 12.0293C11.8118 11.9654 11.9473 11.8573 12.0426 11.7185C12.138 11.5798 12.1888 11.4167 12.1888 11.2498C12.1888 11.0261 12.0974 10.8115 11.9347 10.6532C11.772 10.495 11.5513 10.4061 11.3212 10.4061Z" fill="#FF9900"/>
<path d="M6.6943 8.71836C6.29391 8.71836 5.90252 8.60291 5.56961 8.3866C5.23671 8.1703 4.97724 7.86285 4.82402 7.50314C4.6708 7.14343 4.63071 6.74762 4.70882 6.36576C4.78693 5.9839 4.97973 5.63314 5.26285 5.35783C5.54596 5.08252 5.90667 4.89503 6.29936 4.81908C6.69205 4.74312 7.09908 4.7821 7.46899 4.9311C7.8389 5.08009 8.15506 5.33241 8.3775 5.65614C8.59994 5.97986 8.71867 6.36046 8.71867 6.74981C8.71867 7.2719 8.50539 7.77261 8.12574 8.14179C7.7461 8.51096 7.23119 8.71836 6.6943 8.71836ZM6.6943 5.90614C6.5227 5.90614 6.35496 5.95562 6.21229 6.04832C6.06962 6.14103 5.95841 6.27279 5.89275 6.42695C5.82708 6.58111 5.8099 6.75074 5.84338 6.9144C5.87685 7.07805 5.95948 7.22838 6.08082 7.34637C6.20215 7.46436 6.35674 7.54471 6.52504 7.57726C6.69333 7.60982 6.86778 7.59311 7.02631 7.52925C7.18484 7.4654 7.32034 7.35726 7.41567 7.21852C7.511 7.07978 7.56188 6.91667 7.56188 6.74981C7.56188 6.52605 7.47048 6.31146 7.30777 6.15324C7.14507 5.99503 6.92439 5.90614 6.6943 5.90614Z" fill="#FF9900"/>
</svg>
