<svg width="45" height="40" viewBox="0 0 45 40" fill="none" xmlns="http://www.w3.org/2000/svg">
<g clip-path="url(#clip0)">
<path d="M21.5078 19.57C22.0547 20.1482 22.9453 20.1482 23.5 19.57L32.0078 10.6482C34.4766 8.05442 34.3359 3.75754 31.5703 1.36692C29.1641 -0.71902 25.5781 -0.344019 23.375 1.96848L22.5 2.88254L21.6328 1.97629C19.4297 -0.34402 15.8438 -0.71902 13.4375 1.36692C10.6797 3.75754 10.5312 8.05442 13 10.6482L21.5078 19.57ZM44.1641 25.6325C43.2422 24.7966 41.8047 24.8513 40.8359 25.6325L33.6172 31.406C32.7344 32.1169 31.6328 32.4997 30.4922 32.4997H21.25C20.5625 32.4997 20 31.9372 20 31.2497C20 30.5622 20.5625 29.9997 21.25 29.9997H27.3672C28.6094 29.9997 29.7656 29.1482 29.9688 27.9216C30.2266 26.3591 29.0234 24.9997 27.5 24.9997H15C12.8906 24.9997 10.8516 25.7263 9.21094 27.0544L5.57812 29.9997H1.25C0.5625 29.9997 0 30.5622 0 31.2497V38.7497C0 39.4372 0.5625 39.9997 1.25 39.9997H29.125C30.2578 39.9997 31.3594 39.6169 32.25 38.906L44.0625 29.4529C45.25 28.5075 45.3438 26.695 44.1641 25.6325Z" fill="#086DB5"/>
</g>
<defs>
<clipPath id="clip0">
<rect width="45" height="40" fill="white"/>
</clipPath>
</defs>
</svg>
