<svg width="43" height="43" viewBox="0 0 43 43" fill="none" xmlns="http://www.w3.org/2000/svg">
<path d="M29.6341 9.8C29.6341 8.246 31.3273 7 33.439 7C35.5507 7 37.2439 8.246 37.2439 9.8C37.2439 11.354 35.5507 12.6 33.439 12.6C31.3273 12.6 29.6341 11.354 29.6341 9.8ZM37.2439 35V26.6H42L37.1678 15.918C36.9133 15.3604 36.4277 14.8755 35.7794 14.5315C35.131 14.1874 34.3525 14.0016 33.5532 14H33.3249C32.5249 13.9995 31.745 14.1845 31.0961 14.5288C30.4472 14.8732 29.9622 15.3592 29.7102 15.918L28.0741 19.53C30.1288 20.37 31.5366 21.952 31.5366 23.8V35H37.2439ZM22.9756 20.3C24.5546 20.3 25.8293 19.362 25.8293 18.2C25.8293 17.038 24.5546 16.1 22.9756 16.1C21.3966 16.1 20.122 17.038 20.122 18.2C20.122 19.362 21.3966 20.3 22.9756 20.3ZM9.65854 12.6C11.7702 12.6 13.4634 11.354 13.4634 9.8C13.4634 8.246 11.7702 7 9.65854 7C7.54683 7 5.85366 8.246 5.85366 9.8C5.85366 11.354 7.54683 12.6 9.65854 12.6ZM13.4634 35V25.2H16.3171V16.8C16.3171 15.26 14.6049 14 12.5122 14H6.80488C4.7122 14 3 15.26 3 16.8V25.2H5.85366V35H13.4634ZM25.8293 35V29.4H27.7317V23.8C27.7317 22.652 26.438 21.7 24.878 21.7H21.0732C19.5132 21.7 18.2195 22.652 18.2195 23.8V29.4H20.122V35H25.8293Z" fill="#086DB5"/>
</svg>
