<svg width="14" height="16" viewBox="0 0 14 16" fill="none" xmlns="http://www.w3.org/2000/svg">
<path d="M6.64286 0C8.40465 0 10.0943 0.699871 11.3401 1.94565C12.5858 3.19143 13.2857 4.88106 13.2857 6.64286C13.2857 9.393 11.1895 12.2745 7.08571 15.3524C6.95795 15.4482 6.80256 15.5 6.64286 15.5C6.48316 15.5 6.32776 15.4482 6.2 15.3524C2.09619 12.2745 0 9.393 0 6.64286C0 4.88106 0.69987 3.19143 1.94565 1.94565C3.19142 0.699871 4.88106 0 6.64286 0ZM6.64286 4.42857C6.05559 4.42857 5.49238 4.66186 5.07712 5.07712C4.66186 5.49238 4.42857 6.05559 4.42857 6.64286C4.42857 7.23012 4.66186 7.79333 5.07712 8.20859C5.49238 8.62385 6.05559 8.85714 6.64286 8.85714C7.23012 8.85714 7.79333 8.62385 8.20859 8.20859C8.62385 7.79333 8.85714 7.23012 8.85714 6.64286C8.85714 6.05559 8.62385 5.49238 8.20859 5.07712C7.79333 4.66186 7.23012 4.42857 6.64286 4.42857Z" fill="#FF8506"/>
</svg>
