<svg width="23" height="23" viewBox="0 0 23 23" fill="none" xmlns="http://www.w3.org/2000/svg">
<path d="M5.57812 6.9873H12.4423M5.57812 11.5634H17.0185H5.57812Z" stroke="#A9A8A8" stroke-width="1.5" stroke-linecap="round" stroke-linejoin="round"/>
<path d="M1 21.0469V3.55467C1 2.94784 1.24106 2.36586 1.67016 1.93676C2.09926 1.50767 2.68123 1.2666 3.28807 1.2666H19.3045C19.9114 1.2666 20.4934 1.50767 20.9224 1.93676C21.3515 2.36586 21.5926 2.94784 21.5926 3.55467V14.995C21.5926 15.6018 21.3515 16.1838 20.9224 16.6129C20.4934 17.042 19.9114 17.2831 19.3045 17.2831H6.67555C6.33261 17.2831 5.99406 17.3603 5.68495 17.5088C5.37583 17.6573 5.10405 17.8734 4.88971 18.1411L2.22297 21.4748C2.13423 21.586 2.01311 21.6669 1.87637 21.7063C1.73964 21.7457 1.59405 21.7416 1.45974 21.6946C1.32543 21.6476 1.20905 21.5601 1.12668 21.444C1.04432 21.328 1.00005 21.1892 1 21.0469V21.0469Z" stroke="#A9A8A8" stroke-width="1.5"/>
</svg>
