<svg width="20" height="5" viewBox="0 0 20 5" fill="none" xmlns="http://www.w3.org/2000/svg">
<path d="M17.3874 4.9999C17.0976 5 16.8105 4.943 16.5427 4.83218C16.275 4.72135 16.0316 4.55887 15.8266 4.35399C15.6216 4.14912 15.459 3.90588 15.348 3.63815C15.237 3.37042 15.1798 3.08346 15.1797 2.79363C15.1796 2.5038 15.2366 2.2168 15.3474 1.949C15.4582 1.6812 15.6207 1.43785 15.8256 1.23285C16.0305 1.02785 16.2737 0.865203 16.5414 0.754206C16.8092 0.643209 17.0961 0.586031 17.386 0.585938C17.9713 0.58575 18.5327 0.81809 18.9467 1.23185C19.3608 1.6456 19.5935 2.20688 19.5937 2.79221C19.5938 3.37754 19.3615 3.93897 18.9477 4.35299C18.534 4.76701 17.9727 4.99972 17.3874 4.9999Z" fill="#A9A8A8"/>
<path d="M9.80784 4.99946C11.0263 4.99946 12.0141 4.01168 12.0141 2.79319C12.0141 1.5747 11.0263 0.586914 9.80784 0.586914C8.58935 0.586914 7.60156 1.5747 7.60156 2.79319C7.60156 4.01168 8.58935 4.99946 9.80784 4.99946Z" fill="#A9A8A8"/>
<path d="M2.23362 4.99946C3.45211 4.99946 4.43989 4.01168 4.43989 2.79319C4.43989 1.5747 3.45211 0.586914 2.23362 0.586914C1.01513 0.586914 0.0273438 1.5747 0.0273438 2.79319C0.0273438 4.01168 1.01513 4.99946 2.23362 4.99946Z" fill="#A9A8A8"/>
</svg>
