<svg width="98" height="20" viewBox="0 0 98 20" fill="none" xmlns="http://www.w3.org/2000/svg">
<path d="M18.0327 7.77284H11.3977L9.34056 0.875L7.28342 7.77284H0.648438L6.00858 12.0296L3.98042 18.8964L9.34056 14.6396L14.7007 18.8964L12.6436 11.9986L18.0327 7.77284Z" fill="#FFCE31"/>
<path d="M38.0249 7.77284H31.3899L29.3327 0.875L27.2756 7.77284H20.6406L26.0008 12.0296L23.9726 18.8964L29.3327 14.6396L34.6929 18.8964L32.6357 11.9986L38.0249 7.77284Z" fill="#FFCE31"/>
<path d="M58.019 7.77284H51.384L49.3269 0.875L47.2697 7.77284H40.6348L45.9949 12.0296L43.9667 18.8964L49.3269 14.6396L54.687 18.8964L52.6299 11.9986L58.019 7.77284Z" fill="#FFCE31"/>
<path d="M78.0112 7.77284H71.3762L69.3191 0.875L67.2619 7.77284H60.627L65.9871 12.0296L63.9589 18.8964L69.3191 14.6396L74.6792 18.8964L72.6221 11.9986L78.0112 7.77284Z" fill="#FFCE31"/>
<path d="M89.3054 1.10156L86.408 7.10868L80.6133 7.85957L84.602 12.4851L83.5107 19.1229L89.3054 16.1194L95.1001 19.1229L94.0185 12.4851L97.9975 7.85957L92.2028 7.10868L89.3054 1.10156ZM89.3054 3.34422L91.5654 8.03979L96.0563 8.62047L92.9851 12.1847L93.8253 17.3408L89.3054 14.998V3.34422Z" fill="#FFCE31"/>
</svg>
