<svg width="15" height="16" viewBox="0 0 15 16" fill="none" xmlns="http://www.w3.org/2000/svg">
<g clip-path="url(#clip0_11661_11711)">
<path d="M15.0031 7.83938C15.0031 5.76503 15.0031 3.69083 15.0031 1.61677C15.0031 0.65804 14.3683 0 13.4505 0C9.48764 0 5.5249 0 1.5623 0C0.637016 0 0.00390625 0.660654 0.00390625 1.62767C0.00390625 5.77026 0.00390625 9.91315 0.00390625 14.0563C0.00390625 15.0151 0.635766 15.6809 1.54938 15.6809C5.51726 15.6809 9.48514 15.6809 13.453 15.6809C13.5466 15.6837 13.6403 15.6783 13.7331 15.6648C14.4979 15.5302 15.0022 14.9087 15.0027 14.096C15.0029 12.01 15.0031 9.92448 15.0031 7.83938ZM14.0028 14.0463C14.0028 14.4564 13.834 14.6346 13.4455 14.6346H1.55438C1.17551 14.6346 1.00213 14.4542 1.00213 14.0568C1.00213 9.9133 1.00213 5.76983 1.00213 1.62636C1.00213 1.22805 1.17468 1.04545 1.5523 1.04545H13.4572C13.826 1.04545 13.999 1.22979 13.999 1.61634C13.999 3.69069 13.999 5.76503 13.999 7.83938C14.0015 9.9085 14.0028 11.9775 14.0028 14.0463Z" fill="#6D6D6D"/>
<path d="M12.1213 9.58996C11.7521 9.96299 11.3073 10.1404 10.7993 10.1608C10.2312 10.1839 9.68268 10.0667 9.13835 9.91462C8.23557 9.6623 7.36322 9.30844 6.46628 9.03694C5.62436 8.78201 4.77577 8.57065 3.88758 8.69093C3.22363 8.7807 2.64136 9.05394 2.16038 9.54812C2.01867 9.69324 1.96324 9.86755 2.01534 10.0685C2.1187 10.4659 2.56384 10.5914 2.8581 10.2946C3.27156 9.87932 3.76337 9.69803 4.32938 9.69934C4.71955 9.70433 5.10794 9.7552 5.48723 9.85099C6.4296 10.0785 7.3328 10.4397 8.25391 10.7383C9.01456 10.9849 9.78271 11.1954 10.5675 11.2089C11.4282 11.2032 12.1872 10.9684 12.8086 10.346C13.0462 10.1081 13.0708 9.78868 12.8687 9.56642C12.6665 9.34417 12.3589 9.34984 12.1213 9.58996Z" fill="#6D6D6D"/>
<path d="M2.8591 6.10995C3.27589 5.68854 3.77605 5.5103 4.34664 5.51422C4.77877 5.5236 5.2083 5.58665 5.62619 5.70205C6.51396 5.93171 7.36964 6.27075 8.24199 6.55271C9.00889 6.80067 9.78413 7.00897 10.5514 7.02423C11.4338 7.01769 12.1928 6.78149 12.8138 6.15701C13.0493 5.92038 13.0701 5.59702 12.8647 5.37651C12.6592 5.15601 12.3591 5.16646 12.1282 5.39918C11.7464 5.78485 11.2883 5.9657 10.7615 5.98052C10.1609 5.99795 9.58074 5.87331 9.01098 5.6929C8.12196 5.41094 7.24252 5.09674 6.35183 4.82132C5.55617 4.57597 4.74717 4.39599 3.90692 4.50537C3.2363 4.59253 2.64778 4.86185 2.16139 5.36083C2.02009 5.50594 1.96299 5.67939 2.01509 5.88072C2.11887 6.27947 2.56609 6.40541 2.8591 6.10995Z" fill="#6D6D6D"/>
</g>
<defs>
<clipPath id="clip0_11661_11711">
<rect width="15" height="15.6818" fill="white"/>
</clipPath>
</defs>
</svg>
