<svg width="16" height="16" viewBox="0 0 16 16" fill="none" xmlns="http://www.w3.org/2000/svg">
<path d="M8.37644 0.463688C8.07973 0.166881 7.67726 8.96316e-05 7.25758 0H1.58255C1.16283 0 0.760304 0.166733 0.463519 0.463519C0.166733 0.760304 0 1.16283 0 1.58255V7.25758C8.96316e-05 7.67726 0.166881 8.07973 0.463688 8.37644L6.79389 14.7066C7.09067 15.0033 7.49312 15.17 7.91276 15.17C8.33239 15.17 8.73485 15.0033 9.03162 14.7066L14.7066 9.03162C15.0033 8.73485 15.17 8.33239 15.17 7.91276C15.17 7.49312 15.0033 7.09067 14.7066 6.79389L8.37644 0.463688ZM3.95638 5.53893C3.53655 5.53883 3.13397 5.37195 2.83718 5.07502C2.5404 4.77808 2.37372 4.37541 2.37383 3.95559C2.37393 3.53576 2.54081 3.13318 2.83774 2.83639C3.13468 2.5396 3.53735 2.37293 3.95717 2.37304C4.37699 2.37314 4.77958 2.54002 5.07637 2.83695C5.37315 3.13388 5.53983 3.53655 5.53972 3.95638C5.53962 4.3762 5.37274 4.77879 5.07581 5.07558C4.77887 5.37236 4.3762 5.53903 3.95638 5.53893Z" fill="#6D6D6D"/>
</svg>
