<?xml version="1.0" encoding="utf-8"?>
<!-- Generator: Adobe Illustrator 24.0.1, SVG Export Plug-In . SVG Version: 6.00 Build 0)  -->
<svg version="1.1" id="Layer_1" xmlns="http://www.w3.org/2000/svg" xmlns:xlink="http://www.w3.org/1999/xlink" x="0px" y="0px"
	 viewBox="0 0 24 24" style="enable-background:new 0 0 24 24;" xml:space="preserve">
<style type="text/css">
	.st0{fill:#08743B;}
	.st1{fill:#FFFFFF;}
	.st2{fill:#010101;}
	.st3{fill:#ED2224;}
</style>
<path class="st0" d="M1.3,0h21.4C23.4,0,24,0.6,24,1.3V8H1.3C0.6,8,0,7.4,0,6.7V1.3C0,0.6,0.6,0,1.3,0z"/>
<path class="st1" d="M0,8h24v8H0V8z"/>
<path class="st2" d="M0,16h24v6.8c0,0.6-0.5,1.2-1.2,1.2H1.4C0.6,24,0,23.4,0,22.6V16z"/>
<path class="st3" d="M1.2,0h5.1v24H1.1C0.5,24,0,23.5,0,22.9V1.1C0,0.5,0.5,0,1.2,0z"/>
</svg>
