<svg width="102" height="30" viewBox="0 0 102 30" fill="none" xmlns="http://www.w3.org/2000/svg">
<rect width="102" height="30" rx="5" fill="black"/>
<path d="M24.5285 12.8463L21.403 11.041L18.2031 14.2409L21.4027 17.4405L24.5391 15.6292C25.0282 15.3321 25.3201 14.813 25.3201 14.2409C25.3201 13.6687 25.028 13.1496 24.5285 12.8463Z" fill="#FFCE00"/>
<path d="M18.203 14.2414L9.48724 5.46289C9.1841 5.76603 9 6.17738 9 6.63209V21.8239C9 22.2786 9.1841 22.6899 9.48724 22.9933L18.203 14.2414Z" fill="url(#paint0_linear_15453_1574)"/>
<path d="M18.203 14.239L21.4029 11.0392L21.408 11.0341L17.1206 8.56557L11.4688 5.24391C10.9599 4.92993 10.3428 4.91908 9.82298 5.21138C9.70393 5.28705 9.5955 5.36296 9.4873 5.46031L18.203 14.239Z" fill="#00F076"/>
<path d="M9.4873 22.99C9.5955 23.0874 9.70393 23.1633 9.82298 23.2389C10.0827 23.3797 10.3536 23.4556 10.6242 23.4556C10.9165 23.4556 11.198 23.369 11.458 23.2175L17.1203 19.9117L21.4077 17.4432L21.4026 17.4381L18.203 14.2383L9.4873 22.99Z" fill="#F63448"/>
<path d="M34.709 9.82031V11.4492C34.6484 11.5293 34.5537 11.6172 34.4248 11.7129C34.2979 11.8066 34.1289 11.8877 33.918 11.9561C33.707 12.0244 33.4443 12.0586 33.1299 12.0586C32.8623 12.0586 32.6172 12.0137 32.3945 11.9238C32.1719 11.832 31.9795 11.6982 31.8174 11.5225C31.6572 11.3467 31.5332 11.1328 31.4453 10.8809C31.3574 10.627 31.3135 10.3379 31.3135 10.0137V9.71777C31.3135 9.39551 31.3535 9.1084 31.4336 8.85645C31.5156 8.60254 31.6328 8.3877 31.7852 8.21191C31.9375 8.03613 32.1211 7.90332 32.3359 7.81348C32.5527 7.72168 32.7979 7.67578 33.0713 7.67578C33.4209 7.67578 33.71 7.73438 33.9385 7.85156C34.1689 7.9668 34.3467 8.12695 34.4717 8.33203C34.5967 8.53711 34.6758 8.77148 34.709 9.03516H33.9883C33.9648 8.88672 33.9189 8.75391 33.8506 8.63672C33.7842 8.51953 33.6885 8.42773 33.5635 8.36133C33.4404 8.29297 33.2803 8.25879 33.083 8.25879C32.9131 8.25879 32.7637 8.29102 32.6348 8.35547C32.5059 8.41992 32.3984 8.51465 32.3125 8.63965C32.2285 8.76465 32.165 8.91699 32.1221 9.09668C32.0791 9.27637 32.0576 9.48145 32.0576 9.71191V10.0137C32.0576 10.248 32.082 10.4561 32.1309 10.6377C32.1816 10.8193 32.2539 10.9727 32.3477 11.0977C32.4434 11.2227 32.5596 11.3174 32.6963 11.3818C32.833 11.4443 32.9873 11.4756 33.1592 11.4756C33.3271 11.4756 33.4648 11.4619 33.5723 11.4346C33.6797 11.4053 33.7646 11.3711 33.8271 11.332C33.8916 11.291 33.9414 11.252 33.9766 11.2148V10.3682H33.0889V9.82031H34.709ZM38.3154 11.417V12H36.0508V11.417H38.3154ZM36.2588 7.73438V12H35.5234V7.73438H36.2588ZM38.0195 9.51562V10.0898H36.0508V9.51562H38.0195ZM38.3008 7.73438V8.32031H36.0508V7.73438H38.3008ZM40.7295 7.73438V12H40V7.73438H40.7295ZM42.0684 7.73438V8.32031H38.6729V7.73438H42.0684ZM44.7695 7.73438V12H44.0342V7.73438H44.7695ZM47.3506 7.73438V12H46.6211V7.73438H47.3506ZM48.6895 7.73438V8.32031H45.2939V7.73438H48.6895ZM54.0068 9.75V9.98438C54.0068 10.3066 53.9648 10.5957 53.8809 10.8516C53.7969 11.1074 53.6768 11.3252 53.5205 11.5049C53.3662 11.6846 53.1807 11.8223 52.9639 11.918C52.7471 12.0117 52.5068 12.0586 52.2432 12.0586C51.9814 12.0586 51.7422 12.0117 51.5254 11.918C51.3105 11.8223 51.124 11.6846 50.9658 11.5049C50.8076 11.3252 50.6846 11.1074 50.5967 10.8516C50.5107 10.5957 50.4678 10.3066 50.4678 9.98438V9.75C50.4678 9.42773 50.5107 9.13965 50.5967 8.88574C50.6826 8.62988 50.8037 8.41211 50.96 8.23242C51.1182 8.05078 51.3047 7.91309 51.5195 7.81934C51.7363 7.72363 51.9756 7.67578 52.2373 7.67578C52.501 7.67578 52.7412 7.72363 52.958 7.81934C53.1748 7.91309 53.3613 8.05078 53.5176 8.23242C53.6738 8.41211 53.7939 8.62988 53.8779 8.88574C53.9639 9.13965 54.0068 9.42773 54.0068 9.75ZM53.2715 9.98438V9.74414C53.2715 9.50586 53.248 9.2959 53.2012 9.11426C53.1562 8.93066 53.0889 8.77734 52.999 8.6543C52.9111 8.5293 52.8027 8.43555 52.6738 8.37305C52.5449 8.30859 52.3994 8.27637 52.2373 8.27637C52.0752 8.27637 51.9307 8.30859 51.8037 8.37305C51.6768 8.43555 51.5684 8.5293 51.4785 8.6543C51.3906 8.77734 51.3232 8.93066 51.2764 9.11426C51.2295 9.2959 51.2061 9.50586 51.2061 9.74414V9.98438C51.2061 10.2227 51.2295 10.4336 51.2764 10.6172C51.3232 10.8008 51.3916 10.9561 51.4814 11.083C51.5732 11.208 51.6826 11.3027 51.8096 11.3672C51.9365 11.4297 52.0811 11.4609 52.2432 11.4609C52.4072 11.4609 52.5527 11.4297 52.6797 11.3672C52.8066 11.3027 52.9141 11.208 53.002 11.083C53.0898 10.9561 53.1562 10.8008 53.2012 10.6172C53.248 10.4336 53.2715 10.2227 53.2715 9.98438ZM58.126 7.73438V12H57.3906L55.4775 8.94434V12H54.7422V7.73438H55.4775L57.3965 10.7959V7.73438H58.126ZM37.8481 17.9556V21.001C37.7336 21.1478 37.5527 21.3071 37.3057 21.479C37.0622 21.6509 36.7435 21.7995 36.3496 21.9248C35.9557 22.0465 35.4723 22.1074 34.8994 22.1074C34.4017 22.1074 33.9469 22.0251 33.5352 21.8604C33.1234 21.6921 32.7689 21.4468 32.4717 21.1245C32.1745 20.8022 31.9453 20.4084 31.7842 19.9429C31.623 19.4774 31.5425 18.9456 31.5425 18.3477V17.832C31.5425 17.234 31.6177 16.7023 31.7681 16.2368C31.922 15.7713 32.1405 15.3774 32.4233 15.0552C32.7098 14.7329 33.0518 14.4876 33.4492 14.3193C33.8503 14.151 34.2979 14.0669 34.792 14.0669C35.4544 14.0669 35.9987 14.1761 36.4248 14.3945C36.8545 14.613 37.1839 14.9137 37.4131 15.2969C37.6423 15.6764 37.7855 16.1133 37.8428 16.6074H36.4033C36.3639 16.3353 36.2852 16.0972 36.167 15.8931C36.0488 15.6854 35.8805 15.5243 35.6621 15.4097C35.4473 15.2915 35.168 15.2324 34.8242 15.2324C34.5342 15.2324 34.2782 15.2897 34.0562 15.4043C33.8341 15.5189 33.6479 15.6854 33.4976 15.9038C33.3472 16.1222 33.2326 16.3926 33.1538 16.7148C33.0786 17.0371 33.041 17.4059 33.041 17.8213V18.3477C33.041 18.7666 33.084 19.139 33.1699 19.4648C33.2559 19.7871 33.3794 20.0592 33.5405 20.2812C33.7052 20.4997 33.9076 20.6662 34.1475 20.7808C34.391 20.8918 34.6667 20.9473 34.9746 20.9473C35.2539 20.9473 35.4849 20.924 35.6675 20.8774C35.8537 20.8273 36.0023 20.7682 36.1133 20.7002C36.2243 20.6322 36.3102 20.5659 36.3711 20.5015V19.0352H34.8188V17.9556H37.8481ZM38.8848 19.1533V19.0405C38.8848 18.6144 38.9456 18.2223 39.0674 17.8643C39.1891 17.5026 39.3664 17.1893 39.5991 16.9243C39.8319 16.6593 40.1165 16.4535 40.4531 16.3066C40.7897 16.1562 41.1729 16.0811 41.6025 16.0811C42.0394 16.0811 42.4261 16.1562 42.7627 16.3066C43.1029 16.4535 43.3893 16.6593 43.6221 16.9243C43.8548 17.1893 44.0321 17.5026 44.1538 17.8643C44.2756 18.2223 44.3364 18.6144 44.3364 19.0405V19.1533C44.3364 19.5758 44.2756 19.9679 44.1538 20.3296C44.0321 20.6877 43.8548 21.001 43.6221 21.2695C43.3893 21.5345 43.1047 21.7404 42.7681 21.8872C42.4315 22.034 42.0465 22.1074 41.6133 22.1074C41.1836 22.1074 40.7987 22.034 40.4585 21.8872C40.1183 21.7404 39.8319 21.5345 39.5991 21.2695C39.3664 21.001 39.1891 20.6877 39.0674 20.3296C38.9456 19.9679 38.8848 19.5758 38.8848 19.1533ZM40.3027 19.0405V19.1533C40.3027 19.4076 40.3278 19.6457 40.3779 19.8677C40.4281 20.0897 40.505 20.2848 40.6089 20.4531C40.7127 20.6214 40.847 20.7539 41.0117 20.8506C41.18 20.9437 41.3805 20.9902 41.6133 20.9902C41.8424 20.9902 42.0394 20.9437 42.2041 20.8506C42.3688 20.7539 42.5031 20.6214 42.6069 20.4531C42.7144 20.2848 42.7931 20.0897 42.8433 19.8677C42.8934 19.6457 42.9185 19.4076 42.9185 19.1533V19.0405C42.9185 18.7899 42.8934 18.5553 42.8433 18.3369C42.7931 18.1149 42.7144 17.9198 42.6069 17.7515C42.5031 17.5796 42.367 17.4453 42.1987 17.3486C42.034 17.2484 41.8353 17.1982 41.6025 17.1982C41.3734 17.1982 41.1764 17.2484 41.0117 17.3486C40.847 17.4453 40.7127 17.5796 40.6089 17.7515C40.505 17.9198 40.4281 18.1149 40.3779 18.3369C40.3278 18.5553 40.3027 18.7899 40.3027 19.0405ZM45.1152 19.1533V19.0405C45.1152 18.6144 45.1761 18.2223 45.2979 17.8643C45.4196 17.5026 45.5968 17.1893 45.8296 16.9243C46.0623 16.6593 46.347 16.4535 46.6836 16.3066C47.0202 16.1562 47.4033 16.0811 47.833 16.0811C48.2699 16.0811 48.6566 16.1562 48.9932 16.3066C49.3333 16.4535 49.6198 16.6593 49.8525 16.9243C50.0853 17.1893 50.2625 17.5026 50.3843 17.8643C50.506 18.2223 50.5669 18.6144 50.5669 19.0405V19.1533C50.5669 19.5758 50.506 19.9679 50.3843 20.3296C50.2625 20.6877 50.0853 21.001 49.8525 21.2695C49.6198 21.5345 49.3351 21.7404 48.9985 21.8872C48.6619 22.034 48.277 22.1074 47.8438 22.1074C47.4141 22.1074 47.0291 22.034 46.689 21.8872C46.3488 21.7404 46.0623 21.5345 45.8296 21.2695C45.5968 21.001 45.4196 20.6877 45.2979 20.3296C45.1761 19.9679 45.1152 19.5758 45.1152 19.1533ZM46.5332 19.0405V19.1533C46.5332 19.4076 46.5583 19.6457 46.6084 19.8677C46.6585 20.0897 46.7355 20.2848 46.8394 20.4531C46.9432 20.6214 47.0775 20.7539 47.2422 20.8506C47.4105 20.9437 47.611 20.9902 47.8438 20.9902C48.0729 20.9902 48.2699 20.9437 48.4346 20.8506C48.5993 20.7539 48.7336 20.6214 48.8374 20.4531C48.9448 20.2848 49.0236 20.0897 49.0737 19.8677C49.1239 19.6457 49.1489 19.4076 49.1489 19.1533V19.0405C49.1489 18.7899 49.1239 18.5553 49.0737 18.3369C49.0236 18.1149 48.9448 17.9198 48.8374 17.7515C48.7336 17.5796 48.5975 17.4453 48.4292 17.3486C48.2645 17.2484 48.0658 17.1982 47.833 17.1982C47.6038 17.1982 47.4069 17.2484 47.2422 17.3486C47.0775 17.4453 46.9432 17.5796 46.8394 17.7515C46.7355 17.9198 46.6585 18.1149 46.6084 18.3369C46.5583 18.5553 46.5332 18.7899 46.5332 19.0405ZM55.2935 16.1885H56.5825V21.8228C56.5825 22.3491 56.4679 22.7949 56.2388 23.1602C56.0132 23.529 55.6963 23.8083 55.2881 23.998C54.8799 24.1914 54.4054 24.2881 53.8647 24.2881C53.632 24.2881 53.3796 24.2559 53.1074 24.1914C52.8389 24.127 52.5793 24.0249 52.3286 23.8853C52.0815 23.7492 51.8757 23.5719 51.7109 23.3535L52.3501 22.5156C52.5435 22.7412 52.7619 22.9113 53.0054 23.0259C53.2489 23.144 53.512 23.2031 53.7949 23.2031C54.0814 23.2031 54.3249 23.1494 54.5254 23.042C54.7295 22.9382 54.8853 22.7842 54.9927 22.5801C55.1037 22.3796 55.1592 22.1325 55.1592 21.8389V17.5151L55.2935 16.1885ZM51.3672 19.1641V19.0513C51.3672 18.6073 51.4209 18.2044 51.5283 17.8428C51.6357 17.4775 51.7897 17.1642 51.9902 16.9028C52.1943 16.6414 52.4396 16.4391 52.7261 16.2959C53.0161 16.1527 53.342 16.0811 53.7036 16.0811C54.0868 16.0811 54.409 16.1509 54.6704 16.2905C54.9354 16.4302 55.1538 16.6289 55.3257 16.8867C55.5011 17.1445 55.6372 17.4507 55.7339 17.8052C55.8341 18.1561 55.9111 18.5428 55.9648 18.9653V19.2715C55.9147 19.6833 55.8341 20.061 55.7231 20.4048C55.6157 20.7485 55.4725 21.0493 55.2935 21.3071C55.1144 21.5614 54.8924 21.7583 54.6274 21.8979C54.3625 22.0376 54.0509 22.1074 53.6929 22.1074C53.3348 22.1074 53.0125 22.034 52.7261 21.8872C52.4396 21.7404 52.1943 21.5345 51.9902 21.2695C51.7897 21.0046 51.6357 20.693 51.5283 20.335C51.4209 19.9769 51.3672 19.5866 51.3672 19.1641ZM52.7852 19.0513V19.1641C52.7852 19.4147 52.8102 19.6493 52.8604 19.8677C52.9105 20.0861 52.9875 20.2795 53.0913 20.4478C53.1951 20.6125 53.3258 20.7414 53.4834 20.8345C53.641 20.9276 53.8289 20.9741 54.0474 20.9741C54.341 20.9741 54.5809 20.9132 54.7671 20.7915C54.9569 20.6662 55.1001 20.4961 55.1968 20.2812C55.297 20.0628 55.3615 19.8175 55.3901 19.5454V18.7021C55.3722 18.4873 55.3328 18.2886 55.272 18.106C55.2147 17.9233 55.1341 17.7658 55.0303 17.6333C54.9264 17.5008 54.7939 17.397 54.6328 17.3218C54.4717 17.2466 54.2801 17.209 54.0581 17.209C53.8433 17.209 53.6553 17.2573 53.4941 17.354C53.333 17.4471 53.2005 17.5778 53.0967 17.7461C52.9928 17.9144 52.9141 18.1095 52.8604 18.3315C52.8102 18.5535 52.7852 18.7935 52.7852 19.0513ZM59.3647 13.75V22H57.9414V13.75H59.3647ZM63.3286 22.1074C62.8882 22.1074 62.4925 22.0358 62.1416 21.8926C61.7907 21.7493 61.4917 21.5506 61.2446 21.2964C61.0011 21.0386 60.8132 20.7396 60.6807 20.3994C60.5518 20.0557 60.4873 19.6868 60.4873 19.293V19.0781C60.4873 18.6305 60.5518 18.2241 60.6807 17.8589C60.8096 17.4901 60.9922 17.1732 61.2285 16.9082C61.4648 16.6432 61.7477 16.4391 62.0771 16.2959C62.4066 16.1527 62.77 16.0811 63.1675 16.0811C63.5793 16.0811 63.9427 16.1509 64.2578 16.2905C64.5729 16.4266 64.8361 16.62 65.0474 16.8706C65.2586 17.1213 65.418 17.422 65.5254 17.7729C65.6328 18.1203 65.6865 18.5052 65.6865 18.9277V19.5239H61.1318V18.5464H64.29V18.439C64.2829 18.2134 64.2399 18.0075 64.1611 17.8213C64.0824 17.6315 63.9606 17.4811 63.7959 17.3701C63.6312 17.2555 63.4181 17.1982 63.1567 17.1982C62.9455 17.1982 62.7611 17.2448 62.6035 17.3379C62.4495 17.4274 62.3206 17.5563 62.2168 17.7246C62.1165 17.8893 62.0413 18.0863 61.9912 18.3154C61.9411 18.5446 61.916 18.7988 61.916 19.0781V19.293C61.916 19.5365 61.9482 19.762 62.0127 19.9697C62.0807 20.1774 62.1792 20.3582 62.3081 20.5122C62.4406 20.6626 62.5981 20.7808 62.7808 20.8667C62.967 20.9491 63.1782 20.9902 63.4146 20.9902C63.7118 20.9902 63.9803 20.9329 64.2202 20.8184C64.4637 20.7002 64.675 20.5265 64.854 20.2974L65.5684 21.0386C65.4466 21.2176 65.2819 21.3895 65.0742 21.5542C64.8701 21.7189 64.623 21.8532 64.333 21.957C64.043 22.0573 63.7082 22.1074 63.3286 22.1074ZM72.4917 19.1479H70.4775V17.9878H72.4917C72.8211 17.9878 73.0879 17.9341 73.292 17.8267C73.4997 17.7157 73.6519 17.5653 73.7485 17.3755C73.8452 17.1821 73.8936 16.9619 73.8936 16.7148C73.8936 16.4749 73.8452 16.2511 73.7485 16.0435C73.6519 15.8358 73.4997 15.6675 73.292 15.5386C73.0879 15.4097 72.8211 15.3452 72.4917 15.3452H70.9609V22H69.4839V14.1797H72.4917C73.1004 14.1797 73.6196 14.2889 74.0493 14.5073C74.4826 14.7222 74.812 15.0212 75.0376 15.4043C75.2668 15.7839 75.3813 16.2171 75.3813 16.7041C75.3813 17.209 75.2668 17.644 75.0376 18.0093C74.812 18.3745 74.4826 18.6556 74.0493 18.8525C73.6196 19.0495 73.1004 19.1479 72.4917 19.1479ZM77.938 13.75V22H76.5146V13.75H77.938ZM82.4927 20.7646V18.0845C82.4927 17.8875 82.4587 17.7174 82.3906 17.5742C82.3226 17.431 82.2188 17.32 82.0791 17.2412C81.9395 17.1624 81.7622 17.123 81.5474 17.123C81.3576 17.123 81.1911 17.1553 81.0479 17.2197C80.9082 17.2842 80.8008 17.3755 80.7256 17.4937C80.6504 17.6082 80.6128 17.7407 80.6128 17.8911H79.1895C79.1895 17.6512 79.2467 17.4238 79.3613 17.209C79.4759 16.9906 79.6388 16.7972 79.8501 16.6289C80.0649 16.457 80.321 16.3228 80.6182 16.2261C80.9189 16.1294 81.2555 16.0811 81.6279 16.0811C82.0684 16.0811 82.4604 16.1562 82.8042 16.3066C83.1515 16.4535 83.4237 16.6755 83.6206 16.9727C83.8211 17.2699 83.9214 17.644 83.9214 18.0952V20.6304C83.9214 20.9204 83.9393 21.1693 83.9751 21.377C84.0145 21.5811 84.0718 21.7583 84.147 21.9087V22H82.7021C82.6341 21.8532 82.5822 21.667 82.5464 21.4414C82.5106 21.2122 82.4927 20.9867 82.4927 20.7646ZM82.6914 18.4604L82.7021 19.3037H81.8052C81.5832 19.3037 81.388 19.327 81.2197 19.3735C81.0514 19.4165 80.9136 19.481 80.8062 19.5669C80.6987 19.6493 80.6182 19.7495 80.5645 19.8677C80.5107 19.9823 80.4839 20.113 80.4839 20.2598C80.4839 20.403 80.5161 20.5319 80.5806 20.6465C80.6486 20.7611 80.7453 20.8524 80.8706 20.9204C80.9995 20.9849 81.1499 21.0171 81.3218 21.0171C81.5724 21.0171 81.7909 20.967 81.9771 20.8667C82.1632 20.7629 82.3083 20.6375 82.4121 20.4907C82.516 20.3439 82.5715 20.2043 82.5786 20.0718L82.9868 20.6841C82.9367 20.8309 82.8615 20.9867 82.7612 21.1514C82.661 21.3161 82.5321 21.4701 82.3745 21.6133C82.217 21.7565 82.0272 21.8747 81.8052 21.9678C81.5832 22.0609 81.3254 22.1074 81.0317 22.1074C80.6558 22.1074 80.3192 22.0322 80.022 21.8818C79.7248 21.7314 79.4902 21.5256 79.3184 21.2642C79.1465 21.0028 79.0605 20.7056 79.0605 20.3726C79.0605 20.0646 79.1178 19.7925 79.2324 19.5562C79.347 19.3198 79.5171 19.1211 79.7427 18.96C79.9683 18.7952 80.2476 18.6717 80.5806 18.5894C80.9172 18.5034 81.3021 18.4604 81.7354 18.4604H82.6914ZM86.8164 21.3555L88.374 16.1885H89.894L87.563 22.8809C87.5093 23.0241 87.4395 23.1799 87.3535 23.3481C87.2712 23.5164 87.1602 23.6758 87.0205 23.8262C86.8809 23.9801 86.7054 24.1055 86.4941 24.2021C86.2865 24.2988 86.034 24.3472 85.7368 24.3472C85.6079 24.3472 85.4933 24.3382 85.3931 24.3203C85.2928 24.3024 85.1872 24.2791 85.0762 24.2505V23.187C85.112 23.1906 85.1532 23.1924 85.1997 23.1924C85.2498 23.196 85.2928 23.1978 85.3286 23.1978C85.5363 23.1978 85.7082 23.1727 85.8442 23.1226C85.9803 23.076 86.0895 22.999 86.1719 22.8916C86.2578 22.7878 86.3294 22.6517 86.3867 22.4834L86.8164 21.3555ZM86.0483 16.1885L87.3643 20.4692L87.5952 21.9678L86.6177 22.145L84.5176 16.1885H86.0483Z" fill="white"/>
<defs>
<linearGradient id="paint0_linear_15453_1574" x1="5.10481" y1="18.6106" x2="13.8699" y2="9.84532" gradientUnits="userSpaceOnUse">
<stop stop-color="#00E2FF"/>
<stop offset="1" stop-color="#00C5FF"/>
</linearGradient>
</defs>
</svg>
