<svg width="114" height="114" viewBox="0 0 114 114" fill="none" xmlns="http://www.w3.org/2000/svg">
<circle cx="57" cy="57" r="57" fill="#FF7E07" fill-opacity="0.1"/>
<path d="M54.678 32.6786C55.9137 30.4405 59.003 30.4405 60.2387 32.6786L82.4818 72.9643C83.7175 75.2024 82.1728 78 79.7014 78H35.2153C32.7438 78 31.1992 75.2024 32.4349 72.9643L54.678 32.6786Z" fill="#F06024"/>
<path d="M59.218 48.625L58.8774 65.043H55.9541L55.5993 48.625H59.218ZM55.5 70.0787C55.5 69.4926 55.6703 69.0023 56.0109 68.608C56.3609 68.203 56.8434 68.0005 57.4583 68.0005C58.0638 68.0005 58.5416 68.203 58.8916 68.608C59.2416 69.0023 59.4167 69.4926 59.4167 70.0787C59.4167 70.6436 59.2416 71.1285 58.8916 71.5335C58.5416 71.9278 58.0638 72.125 57.4583 72.125C56.8434 72.125 56.3609 71.9278 56.0109 71.5335C55.6703 71.1285 55.5 70.6436 55.5 70.0787Z" fill="white"/>
</svg>
