<svg width="19" height="20" viewBox="0 0 19 20" fill="none" xmlns="http://www.w3.org/2000/svg">
<path d="M1.14 18.905C1.14 19.3254 1.47962 19.665 1.9 19.665H8.6925V10.735H1.14V18.905ZM10.3075 19.665H17.1C17.5204 19.665 17.86 19.3254 17.86 18.905V10.735H10.3075V19.665ZM18.24 5.035H14.7345C15.0575 4.52675 15.2475 3.9235 15.2475 3.2775C15.2475 1.47013 13.7774 0 11.97 0C10.9867 0 10.1009 0.437 9.5 1.12575C8.89913 0.437 8.01325 0 7.03 0C5.22262 0 3.7525 1.47013 3.7525 3.2775C3.7525 3.9235 3.94012 4.52675 4.2655 5.035H0.76C0.339625 5.035 0 5.37463 0 5.795V9.12H8.6925V5.035H10.3075V9.12H19V5.795C19 5.37463 18.6604 5.035 18.24 5.035ZM8.6925 4.94H7.03C6.11325 4.94 5.3675 4.19425 5.3675 3.2775C5.3675 2.36075 6.11325 1.615 7.03 1.615C7.94675 1.615 8.6925 2.36075 8.6925 3.2775V4.94ZM11.97 4.94H10.3075V3.2775C10.3075 2.36075 11.0533 1.615 11.97 1.615C12.8868 1.615 13.6325 2.36075 13.6325 3.2775C13.6325 4.19425 12.8868 4.94 11.97 4.94Z" fill="url(#paint0_linear_9254_12188)"/>
<defs>
<linearGradient id="paint0_linear_9254_12188" x1="9.5" y1="0" x2="9.5" y2="19.665" gradientUnits="userSpaceOnUse">
<stop stop-color="#FF9900"/>
<stop offset="1" stop-color="#FF7E07"/>
</linearGradient>
</defs>
</svg>
