<svg width="101" height="38" viewBox="0 0 101 38" fill="none" xmlns="http://www.w3.org/2000/svg">
<path d="M12.16 33.28C10.2933 33.28 8.61333 32.96 7.12 32.32C5.62667 31.6533 4.45333 30.72 3.6 29.52C2.74667 28.32 2.32 26.92 2.32 25.32H7.2C7.30667 26.52 7.77333 27.5067 8.6 28.28C9.45333 29.0533 10.64 29.44 12.16 29.44C13.7333 29.44 14.96 29.0667 15.84 28.32C16.72 27.5467 17.16 26.56 17.16 25.36C17.16 24.4267 16.88 23.6667 16.32 23.08C15.7867 22.4933 15.1067 22.04 14.28 21.72C13.48 21.4 12.36 21.0533 10.92 20.68C9.10667 20.2 7.62667 19.72 6.48 19.24C5.36 18.7333 4.4 17.96 3.6 16.92C2.8 15.88 2.4 14.4933 2.4 12.76C2.4 11.16 2.8 9.76 3.6 8.56C4.4 7.36 5.52 6.44 6.96 5.8C8.4 5.16 10.0667 4.84 11.96 4.84C14.6533 4.84 16.8533 5.52 18.56 6.88C20.2933 8.21333 21.2533 10.0533 21.44 12.4H16.4C16.32 11.3867 15.84 10.52 14.96 9.8C14.08 9.08 12.92 8.72 11.48 8.72C10.1733 8.72 9.10667 9.05333 8.28 9.72C7.45333 10.3867 7.04 11.3467 7.04 12.6C7.04 13.4533 7.29333 14.16 7.8 14.72C8.33333 15.2533 9 15.68 9.8 16C10.6 16.32 11.6933 16.6667 13.08 17.04C14.92 17.5467 16.4133 18.0533 17.56 18.56C18.7333 19.0667 19.72 19.8533 20.52 20.92C21.3467 21.96 21.76 23.36 21.76 25.12C21.76 26.5333 21.3733 27.8667 20.6 29.12C19.8533 30.3733 18.7467 31.3867 17.28 32.16C15.84 32.9067 14.1333 33.28 12.16 33.28ZM28.4606 8.04C27.634 8.04 26.9406 7.76 26.3806 7.2C25.8206 6.64 25.5406 5.94667 25.5406 5.12C25.5406 4.29333 25.8206 3.6 26.3806 3.04C26.9406 2.48 27.634 2.2 28.4606 2.2C29.2606 2.2 29.9406 2.48 30.5006 3.04C31.0606 3.6 31.3406 4.29333 31.3406 5.12C31.3406 5.94667 31.0606 6.64 30.5006 7.2C29.9406 7.76 29.2606 8.04 28.4606 8.04ZM30.7006 10.96V33H26.1406V10.96H30.7006ZM34.1675 21.88C34.1675 19.6667 34.6208 17.7067 35.5275 16C36.4608 14.2933 37.7142 12.9733 39.2875 12.04C40.8875 11.08 42.6608 10.6 44.6075 10.6C46.0475 10.6 47.4608 10.92 48.8475 11.56C50.2608 12.1733 51.3808 13 52.2075 14.04V3.4H56.8075V33H52.2075V29.68C51.4608 30.7467 50.4208 31.6267 49.0875 32.32C47.7808 33.0133 46.2742 33.36 44.5675 33.36C42.6475 33.36 40.8875 32.88 39.2875 31.92C37.7142 30.9333 36.4608 29.5733 35.5275 27.84C34.6208 26.08 34.1675 24.0933 34.1675 21.88ZM52.2075 21.96C52.2075 20.44 51.8875 19.12 51.2475 18C50.6342 16.88 49.8208 16.0267 48.8075 15.44C47.7942 14.8533 46.7008 14.56 45.5275 14.56C44.3542 14.56 43.2608 14.8533 42.2475 15.44C41.2342 16 40.4075 16.84 39.7675 17.96C39.1542 19.0533 38.8475 20.36 38.8475 21.88C38.8475 23.4 39.1542 24.7333 39.7675 25.88C40.4075 27.0267 41.2342 27.9067 42.2475 28.52C43.2875 29.1067 44.3808 29.4 45.5275 29.4C46.7008 29.4 47.7942 29.1067 48.8075 28.52C49.8208 27.9333 50.6342 27.08 51.2475 25.96C51.8875 24.8133 52.2075 23.48 52.2075 21.96ZM66.3569 14.16C67.0235 13.04 67.9035 12.1733 68.9969 11.56C70.1169 10.92 71.4369 10.6 72.9569 10.6V15.32H71.7969C70.0102 15.32 68.6502 15.7733 67.7169 16.68C66.8102 17.5867 66.3569 19.16 66.3569 21.4V33H61.7969V10.96H66.3569V14.16ZM74.6284 21.88C74.6284 19.6667 75.0818 17.7067 75.9884 16C76.9218 14.2933 78.1751 12.9733 79.7484 12.04C81.3484 11.08 83.1084 10.6 85.0284 10.6C86.7618 10.6 88.2684 10.9467 89.5484 11.64C90.8551 12.3067 91.8951 13.1467 92.6684 14.16V10.96H97.2684V33H92.6684V29.72C91.8951 30.76 90.8418 31.6267 89.5084 32.32C88.1751 33.0133 86.6551 33.36 84.9484 33.36C83.0551 33.36 81.3218 32.88 79.7484 31.92C78.1751 30.9333 76.9218 29.5733 75.9884 27.84C75.0818 26.08 74.6284 24.0933 74.6284 21.88ZM92.6684 21.96C92.6684 20.44 92.3484 19.12 91.7084 18C91.0951 16.88 90.2818 16.0267 89.2684 15.44C88.2551 14.8533 87.1618 14.56 85.9884 14.56C84.8151 14.56 83.7218 14.8533 82.7084 15.44C81.6951 16 80.8684 16.84 80.2284 17.96C79.6151 19.0533 79.3084 20.36 79.3084 21.88C79.3084 23.4 79.6151 24.7333 80.2284 25.88C80.8684 27.0267 81.6951 27.9067 82.7084 28.52C83.7484 29.1067 84.8418 29.4 85.9884 29.4C87.1618 29.4 88.2551 29.1067 89.2684 28.52C90.2818 27.9333 91.0951 27.08 91.7084 25.96C92.3484 24.8133 92.6684 23.48 92.6684 21.96Z" fill="white"/>
<circle cx="28.5" cy="4.5" r="4.5" fill="url(#paint0_linear_2_80)"/>
<defs>
<linearGradient id="paint0_linear_2_80" x1="28.5" y1="0" x2="28.5" y2="9" gradientUnits="userSpaceOnUse">
<stop stop-color="#FF9900"/>
<stop offset="1" stop-color="#FF7E07"/>
</linearGradient>
</defs>
</svg>
