<svg width="87" height="31" viewBox="0 0 87 31" fill="none" xmlns="http://www.w3.org/2000/svg">
<path d="M10.336 29.9589C8.74933 29.9589 7.32133 29.6869 6.052 29.1429C4.78267 28.5763 3.78533 27.7829 3.06 26.7629C2.33467 25.7429 1.972 24.5529 1.972 23.1929H6.12C6.21067 24.2129 6.60733 25.0516 7.31 25.7089C8.03533 26.3663 9.044 26.6949 10.336 26.6949C11.6733 26.6949 12.716 26.3776 13.464 25.7429C14.212 25.0856 14.586 24.2469 14.586 23.2269C14.586 22.4336 14.348 21.7876 13.872 21.2889C13.4187 20.7903 12.8407 20.4049 12.138 20.1329C11.458 19.8609 10.506 19.5663 9.282 19.2489C7.74067 18.8409 6.48267 18.4329 5.508 18.0249C4.556 17.5943 3.74 16.9369 3.06 16.0529C2.38 15.1689 2.04 13.9903 2.04 12.5169C2.04 11.1569 2.38 9.96695 3.06 8.94695C3.74 7.92695 4.692 7.14495 5.916 6.60095C7.14 6.05695 8.55667 5.78495 10.166 5.78495C12.4553 5.78495 14.3253 6.36295 15.776 7.51895C17.2493 8.65228 18.0653 10.2163 18.224 12.2109H13.94C13.872 11.3496 13.464 10.6129 12.716 10.0009C11.968 9.38895 10.982 9.08295 9.758 9.08295C8.64733 9.08295 7.74067 9.36628 7.038 9.93295C6.33533 10.4996 5.984 11.3156 5.984 12.3809C5.984 13.1063 6.19933 13.7069 6.63 14.1829C7.08333 14.6363 7.65 14.9989 8.33 15.2709C9.01 15.5429 9.93933 15.8376 11.118 16.1549C12.682 16.5856 13.9513 17.0163 14.926 17.4469C15.9233 17.8776 16.762 18.5463 17.442 19.4529C18.1447 20.3369 18.496 21.5269 18.496 23.0229C18.496 24.2243 18.1673 25.3576 17.51 26.4229C16.8753 27.4883 15.9347 28.3496 14.688 29.0069C13.464 29.6416 12.0133 29.9589 10.336 29.9589ZM24.0415 8.50495C23.3389 8.50495 22.7495 8.26695 22.2735 7.79095C21.7975 7.31495 21.5595 6.72561 21.5595 6.02295C21.5595 5.32028 21.7975 4.73095 22.2735 4.25495C22.7495 3.77895 23.3389 3.54095 24.0415 3.54095C24.7215 3.54095 25.2995 3.77895 25.7755 4.25495C26.2515 4.73095 26.4895 5.32028 26.4895 6.02295C26.4895 6.72561 26.2515 7.31495 25.7755 7.79095C25.2995 8.26695 24.7215 8.50495 24.0415 8.50495ZM25.9455 10.9869V29.7209H22.0695V10.9869H25.9455ZM28.7424 20.2689C28.7424 18.3876 29.1277 16.7216 29.8984 15.2709C30.6917 13.8203 31.757 12.6983 33.0944 11.9049C34.4544 11.0889 35.9617 10.6809 37.6164 10.6809C38.8404 10.6809 40.0417 10.9529 41.2204 11.4969C42.4217 12.0183 43.3737 12.7209 44.0764 13.6049V4.56095H47.9864V29.7209H44.0764V26.8989C43.4417 27.8056 42.5577 28.5536 41.4244 29.1429C40.3137 29.7323 39.033 30.0269 37.5824 30.0269C35.9504 30.0269 34.4544 29.6189 33.0944 28.8029C31.757 27.9643 30.6917 26.8083 29.8984 25.3349C29.1277 23.8389 28.7424 22.1503 28.7424 20.2689ZM44.0764 20.3369C44.0764 19.0449 43.8044 17.9229 43.2604 16.9709C42.739 16.0189 42.0477 15.2936 41.1864 14.7949C40.325 14.2963 39.3957 14.0469 38.3984 14.0469C37.401 14.0469 36.4717 14.2963 35.6104 14.7949C34.749 15.2709 34.0464 15.9849 33.5024 16.9369C32.981 17.8663 32.7204 18.9769 32.7204 20.2689C32.7204 21.5609 32.981 22.6943 33.5024 23.6689C34.0464 24.6436 34.749 25.3916 35.6104 25.9129C36.4944 26.4116 37.4237 26.6609 38.3984 26.6609C39.3957 26.6609 40.325 26.4116 41.1864 25.9129C42.0477 25.4143 42.739 24.6889 43.2604 23.7369C43.8044 22.7623 44.0764 21.6289 44.0764 20.3369ZM55.9533 13.7069C56.52 12.7549 57.268 12.0183 58.1973 11.4969C59.1493 10.9529 60.2713 10.6809 61.5633 10.6809V14.6929H60.5773C59.0587 14.6929 57.9027 15.0783 57.1093 15.8489C56.3387 16.6196 55.9533 17.9569 55.9533 19.8609V29.7209H52.0773V10.9869H55.9533V13.7069ZM62.8342 20.2689C62.8342 18.3876 63.2195 16.7216 63.9902 15.2709C64.7835 13.8203 65.8488 12.6983 67.1862 11.9049C68.5462 11.0889 70.0422 10.6809 71.6742 10.6809C73.1475 10.6809 74.4282 10.9756 75.5162 11.5649C76.6268 12.1316 77.5108 12.8456 78.1682 13.7069V10.9869H82.0782V29.7209H78.1682V26.9329C77.5108 27.8169 76.6155 28.5536 75.4822 29.1429C74.3488 29.7323 73.0568 30.0269 71.6062 30.0269C69.9968 30.0269 68.5235 29.6189 67.1862 28.8029C65.8488 27.9643 64.7835 26.8083 63.9902 25.3349C63.2195 23.8389 62.8342 22.1503 62.8342 20.2689ZM78.1682 20.3369C78.1682 19.0449 77.8962 17.9229 77.3522 16.9709C76.8308 16.0189 76.1395 15.2936 75.2782 14.7949C74.4168 14.2963 73.4875 14.0469 72.4902 14.0469C71.4928 14.0469 70.5635 14.2963 69.7022 14.7949C68.8408 15.2709 68.1382 15.9849 67.5942 16.9369C67.0728 17.8663 66.8122 18.9769 66.8122 20.2689C66.8122 21.5609 67.0728 22.6943 67.5942 23.6689C68.1382 24.6436 68.8408 25.3916 69.7022 25.9129C70.5862 26.4116 71.5155 26.6609 72.4902 26.6609C73.4875 26.6609 74.4168 26.4116 75.2782 25.9129C76.1395 25.4143 76.8308 24.6889 77.3522 23.7369C77.8962 22.7623 78.1682 21.6289 78.1682 20.3369Z" fill="#2C2C2C"/>
<ellipse cx="24" cy="4.74415" rx="4" ry="4.09302" fill="url(#paint0_linear_2_65)"/>
<defs>
<linearGradient id="paint0_linear_2_65" x1="24" y1="0.651123" x2="24" y2="8.83717" gradientUnits="userSpaceOnUse">
<stop stop-color="#FF9900"/>
<stop offset="1" stop-color="#FF7E07"/>
</linearGradient>
</defs>
</svg>
