<svg width="2913" height="1177" viewBox="0 0 2913 1177" fill="none" xmlns="http://www.w3.org/2000/svg">
<path d="M1125.18 183L1071.09 223.268L1084.92 354.289L1064.48 222.667L1014 193.217L1038.64 336.86L1059.07 451.653L1117.37 788.221L1136 894L1125.18 183Z" fill="#FBB042"/>
<path d="M509.46 338.908C511.265 350.319 522.093 357.527 533.522 355.725C544.952 353.923 552.171 343.112 550.366 331.7C549.163 323.292 542.546 316.685 534.124 314.883C522.093 219.987 582.249 105.871 677.295 89.0538C772.342 72.2368 867.389 159.926 888.443 253.02C881.224 257.225 877.615 265.633 878.818 274.042C880.623 285.453 891.451 292.661 902.881 290.859C914.31 289.057 921.529 278.246 919.724 266.834C918.521 259.026 912.506 253.02 905.287 250.618C883.029 147.914 778.959 54.2184 674.889 72.2367C570.218 90.255 504.647 213.981 518.483 317.886C511.265 323.292 507.655 331.1 509.46 338.908Z" fill="#FFDE12"/>
<path d="M149.966 510.479L241.717 493.193C256.808 490.212 266.466 475.906 263.448 461.004C260.43 446.102 245.943 436.565 230.852 439.545L139.1 456.831C124.613 459.812 114.955 473.522 117.37 487.828V488.424C120.388 503.326 134.875 513.459 149.966 510.479Z" fill="#FFDE12"/>
<path d="M394.941 912.478L431.734 905.309C446.814 902.323 456.464 887.986 453.449 873.051C450.433 858.117 435.957 848.559 420.877 851.546L384.084 858.715C369.608 861.701 359.957 875.441 362.369 889.778V890.375C365.385 905.309 379.861 915.465 394.941 912.478Z" fill="#FFDE12"/>
<path d="M368.838 693.645C383.847 690.64 393.453 676.214 390.451 661.188C387.449 646.161 373.041 636.544 358.032 639.549L270.981 656.379C256.572 659.385 246.966 673.209 249.368 687.634V688.235C251.769 703.262 266.178 713.48 281.187 710.475L368.838 693.645Z" fill="#FFDE12"/>
<path d="M1013.95 193L933.988 206.825C961.644 413.601 943.006 693.109 744 963L878.675 938.956L1136 893.874L1117.36 788.082L1038.6 337.262L1013.95 193Z" fill="#FFDE12"/>
<path d="M933.886 207L902.608 212.408C906.818 223.224 910.427 234.041 912.833 244.857C923.059 250.265 929.675 260.481 929.074 272.499C928.472 284.517 921.254 295.333 909.826 299.54C891.18 306.751 871.932 295.333 868.323 276.705C866.518 267.091 869.526 257.476 876.744 250.265C873.736 239.449 870.127 229.234 865.315 218.417L542.314 274.903C541.712 286.32 541.712 297.737 542.314 308.553C553.14 313.961 560.358 325.379 559.155 338.599C558.554 350.016 550.734 359.63 540.509 363.837C521.863 371.048 502.615 359.63 499.006 341.002C497.202 331.388 500.209 322.374 506.826 315.163C505.623 304.347 505.021 292.93 505.623 281.512L394.346 300.741C394.346 300.741 397.354 318.769 402.767 349.415L443.067 341.603C457.503 338.599 471.939 347.011 476.149 360.832C480.961 376.456 470.736 392.68 455.097 395.685L334.799 419.12C320.363 422.125 310.137 434.744 311.34 449.166C313.145 465.39 328.182 476.807 343.821 473.803L573.591 429.336C588.027 426.331 602.463 434.744 606.673 448.565C611.485 464.188 601.26 480.413 585.621 483.417L22.0222 592.782C7.58637 595.787 -2.03751 609.608 0.36846 624.029V624.63C2.77443 639.653 17.2103 649.868 32.2476 646.864L512.84 553.723C527.276 550.719 541.712 559.131 545.923 572.952C550.735 588.576 540.509 604.8 524.87 607.805L461.112 620.424C446.075 623.429 436.451 637.85 439.458 652.873C442.466 667.896 456.902 677.51 471.939 674.506L717.95 627.034C732.385 624.029 746.821 632.442 751.032 646.263C755.844 661.887 745.618 678.111 729.979 681.116L172.997 789.279C158.561 792.283 148.937 806.104 151.343 820.526V821.127C153.749 836.15 168.185 846.365 183.222 843.36L615.696 759.233C630.132 756.229 644.567 764.642 648.778 778.463C653.59 794.086 643.364 810.311 627.726 813.315L524.87 833.145C510.435 836.15 500.209 848.769 501.412 863.19C503.217 879.415 518.254 890.832 533.893 887.828L548.93 884.823C563.366 881.819 577.802 890.231 582.012 904.052C586.824 919.676 576.599 935.9 560.96 938.905L403.369 969.551C388.933 972.555 379.309 986.376 381.715 1000.8V1001.4C384.121 1016.42 398.557 1026.04 413.594 1023.63L743.814 964.143C942.908 693.134 961.554 413.712 933.886 207Z" fill="#FFDE12"/>
<path d="M2209.72 563L2913 819.012L487 1060L2379.23 745.093L2209.72 563Z" fill="#BCBEC0"/>
<path d="M1583.52 83.4112L1627.17 75L1606.24 326.735L1678 313.517L1674.41 355.573L1559 376L1583.52 83.4112Z" fill="white"/>
<path d="M1290.89 133.841L1220 438L1260.85 430.772L1269.26 393.43L1245.23 376.566L1324.54 362.111V361.509L1327.54 418.727L1372 410.897L1350.97 123L1290.89 133.841ZM1314.32 180.218H1314.92L1322.13 322.962L1282.48 330.189L1314.32 180.218Z" fill="white"/>
<path d="M1769.89 47.8413L1699 352L1739.85 344.772L1748.26 307.43L1724.23 290.566L1803.54 276.111V275.509L1806.54 332.727L1851 324.897L1829.97 37L1769.89 47.8413ZM1793.32 94.8203H1793.92L1801.13 237.564L1761.48 244.792L1793.32 94.8203Z" fill="white"/>
<path d="M1422.39 110.662L1397 406L1441.73 398.18L1450.8 289.308L1423.6 270.06L1500.97 256.827L1489.49 389.759L1534.22 381.338L1559 86L1514.87 93.8195L1504.6 214.12L1456.84 223.143L1467.12 102.842L1422.39 110.662Z" fill="white"/>
<path d="M1901.57 24.6616L1957.3 15.0376L1986.07 173.835L2001.05 7.21805L2040 0L2015.43 295.338L1969.89 303.759L1932.73 120.301L1915.95 313.383L1877 320L1901.57 24.6616Z" fill="white"/>
<path d="M1551.68 432.414L1459 827L1512.56 817.391L1523.4 769.344L1491.5 747.122L1595.01 728.504V727.303L1599.22 801.775L1657 791.565L1629.92 418L1551.68 432.414ZM1581.77 493.073H1582.98L1592.6 678.054L1540.85 687.063L1581.77 493.073Z" fill="white"/>
<path d="M1724.53 401.836L1692 785L1749.84 774.806L1757.67 681.264L1763.69 610.507L1783.57 606.91C1796.83 604.511 1805.86 606.31 1810.68 612.306C1815.5 618.303 1817.31 630.295 1816.11 647.685L1815.5 658.478L1814.3 671.67L1806.47 765.212L1864.3 755.018L1872.13 661.476L1873.34 648.284L1873.94 641.089C1875.75 618.303 1874.54 600.913 1869.72 588.321C1865.51 575.729 1856.47 568.533 1842.61 566.734V565.535C1868.52 550.544 1883.58 522.961 1886.59 483.386L1888.4 460C1890.81 430.019 1885.99 409.032 1873.34 397.639C1860.69 385.646 1839.6 382.048 1810.08 387.445L1724.53 401.836ZM1740.2 452.805L1804.66 441.412C1814.9 439.613 1822.13 441.412 1825.75 446.808C1829.96 452.205 1831.77 461.799 1830.56 475.591L1828.15 504.973C1826.95 519.364 1823.34 530.757 1816.71 537.952C1810.68 545.148 1801.65 549.945 1790.2 551.744L1769.11 555.341L1775.74 476.79L1740.2 452.805Z" fill="white"/>
<path d="M1394.61 449.909C1366.86 454.708 1345.14 466.708 1328.85 485.907C1313.16 505.106 1304.11 529.105 1301.09 559.104L1283.6 764.895C1281.18 794.893 1286.01 816.492 1299.28 830.892C1312.56 844.691 1333.07 848.891 1360.83 844.091C1388.58 839.292 1410.3 827.292 1425.99 808.093C1442.28 788.894 1451.33 764.295 1453.74 734.296L1458.57 680.299L1403.66 689.898L1398.84 748.695C1397.03 772.094 1386.17 785.294 1366.86 788.894C1347.55 792.494 1339.11 782.294 1340.92 758.895L1359.02 544.705C1359.02 543.505 1359.02 542.305 1359.62 541.105L1323.42 515.906L1391.6 503.906C1410.9 500.306 1419.35 510.506 1417.54 534.505L1413.92 578.903L1468.82 569.303L1472.44 528.505C1474.86 498.507 1469.43 476.908 1456.15 463.108C1442.88 449.309 1422.37 445.109 1394.61 449.909Z" fill="white"/>
<path d="M1915.82 366.847L1911 421.528L1971.2 410.712L1943.51 740L2000.69 729.785L2025.98 431.743L1991.06 407.107L2089.18 389.681L2094 335L1915.82 366.847Z" fill="white"/>
<path d="M850.039 1175.21L832 1177L841.02 1100.1L857.255 1098.31L856.654 1104.87C859.66 1101.89 862.065 1099.5 865.072 1097.71C868.078 1095.92 871.085 1094.73 874.091 1094.73C878.301 1094.14 881.307 1094.73 883.712 1095.92C886.118 1097.12 887.922 1099.5 889.124 1102.48C892.131 1098.9 895.137 1095.92 898.144 1094.14C901.15 1092.35 904.157 1091.16 907.765 1091.16C912.575 1090.56 916.183 1091.75 919.19 1093.54C922.196 1095.92 923.399 1098.9 924 1103.67C924 1104.87 924 1106.06 924 1107.85C924 1109.64 924 1111.42 923.399 1113.21L916.784 1168.65L898.745 1170.44L904.758 1116.79C904.758 1115 905.359 1113.81 905.359 1112.62C905.359 1112.02 905.359 1110.83 905.359 1110.23C905.359 1108.44 904.758 1106.65 903.556 1105.46C902.353 1104.27 900.549 1104.27 898.745 1104.27C895.739 1104.27 893.935 1106.06 892.131 1108.44C890.327 1110.83 889.725 1114.4 889.124 1119.17L883.111 1171.63L865.673 1173.42L871.686 1119.77C871.686 1117.98 872.288 1116.79 872.288 1115.6C872.288 1115 872.288 1113.81 872.288 1113.21C872.288 1111.42 871.686 1109.64 870.484 1108.44C869.281 1107.25 867.477 1107.25 865.673 1107.25C862.667 1107.25 860.863 1109.04 859.059 1111.42C857.255 1113.81 856.654 1117.39 856.052 1122.15L850.039 1175.21Z" fill="white"/>
<path d="M936 1145.08C936 1142.68 936 1140.28 936 1136.69C936 1133.69 936.599 1129.5 936.599 1125.3C937.199 1118.11 938.397 1112.12 938.996 1108.52C940.195 1104.33 941.394 1101.33 942.592 1098.33C944.39 1094.74 947.386 1091.74 950.982 1089.34C954.578 1086.95 958.773 1085.75 964.166 1085.15C972.556 1084.55 979.149 1085.75 983.943 1089.34C988.737 1092.94 991.134 1098.93 991.734 1106.72C991.734 1109.12 992.333 1112.12 991.734 1115.71C991.734 1119.31 991.134 1122.9 991.134 1127.1C990.535 1133.09 989.337 1138.49 988.737 1143.28C987.539 1147.48 986.34 1151.67 984.542 1154.67C982.744 1158.26 979.748 1161.86 976.152 1163.66C972.556 1166.05 967.762 1167.25 962.968 1167.85C954.578 1168.45 947.986 1167.25 943.791 1163.66C939.596 1158.86 936.599 1152.87 936 1145.08ZM965.365 1097.73C962.369 1097.73 960.571 1098.93 959.372 1101.33C958.174 1103.13 956.975 1106.72 955.776 1112.12C954.578 1119.31 953.979 1125.9 953.379 1131.89C952.78 1137.89 952.78 1142.08 952.78 1145.08C953.379 1148.67 953.979 1151.07 955.776 1152.27C956.975 1153.47 959.372 1154.07 962.369 1154.07C965.365 1154.07 967.163 1152.87 968.961 1150.47C970.759 1148.08 971.358 1144.48 972.557 1139.68C973.755 1132.49 974.354 1126.5 974.954 1120.51C975.553 1114.51 975.553 1110.32 975.553 1107.32C974.954 1103.73 974.354 1101.33 972.557 1100.13C970.759 1098.33 968.362 1097.73 965.365 1097.73Z" fill="white"/>
<path d="M1026.54 1081.61L1024.72 1094.24H1025.32C1027.15 1088.83 1028.97 1085.22 1032.01 1082.81C1035.05 1080.41 1038.7 1078.6 1042.96 1078C1043.57 1078 1044.18 1078 1044.78 1078C1045.39 1078 1045.39 1078 1046 1078L1044.18 1097.85C1043.57 1097.85 1042.35 1097.85 1041.74 1097.85C1041.14 1097.85 1039.92 1097.85 1039.31 1097.85C1034.45 1098.45 1030.8 1099.65 1028.97 1102.06C1026.54 1104.46 1025.32 1108.07 1024.72 1113.49L1019.24 1159.2L1001 1161L1010.12 1083.41L1026.54 1081.61Z" fill="white"/>
<path d="M1086.49 1127.01L1103.33 1125.21C1103.33 1134.82 1101.52 1142.03 1097.31 1146.84C1093.1 1151.64 1087.09 1154.65 1078.07 1155.85C1069.65 1156.45 1063.03 1155.25 1058.82 1152.25C1054.61 1148.64 1051.6 1143.23 1051 1136.03C1051 1134.22 1051 1132.42 1051 1130.62C1051 1128.22 1051 1126.41 1051 1124.01C1051 1117.4 1051.6 1112 1052.2 1107.19C1052.8 1102.38 1053.41 1098.18 1054.61 1095.18C1056.41 1088.57 1060.02 1083.76 1063.63 1080.16C1067.84 1077.15 1073.25 1074.75 1080.47 1074.15C1088.29 1073.55 1094.91 1074.75 1098.52 1077.75C1102.73 1080.76 1105.13 1086.16 1105.73 1093.37C1105.73 1096.38 1106.33 1099.38 1105.73 1102.99C1105.73 1106.59 1105.13 1110.79 1104.53 1115L1068.44 1118.6C1067.84 1122.21 1067.84 1125.81 1067.84 1128.22C1067.84 1131.22 1067.84 1133.02 1067.84 1134.82C1068.44 1137.83 1069.04 1140.23 1070.85 1141.43C1072.65 1142.63 1074.46 1143.23 1077.46 1143.23C1080.47 1143.23 1082.88 1141.43 1084.08 1139.03C1085.88 1136.03 1086.49 1132.42 1086.49 1127.01ZM1088.89 1104.19C1088.89 1101.78 1089.49 1099.98 1089.49 1098.18C1089.49 1096.38 1089.49 1095.18 1089.49 1093.97C1089.49 1091.57 1088.29 1089.77 1087.09 1088.57C1085.88 1087.37 1083.48 1086.77 1081.07 1087.37C1077.46 1087.97 1075.06 1089.17 1073.25 1092.17C1071.45 1095.18 1070.85 1099.98 1070.25 1106.59L1088.89 1104.19Z" fill="white"/>
<path d="M1181.71 1142.62L1161.24 1145L1148 1069.96L1166.06 1068.17L1172.68 1123.56L1188.34 1065.79L1207 1064L1181.71 1142.62Z" fill="white"/>
<path d="M1244.04 1130.72C1242.23 1133.7 1239.81 1136.09 1237.39 1137.87C1234.97 1139.66 1231.95 1140.26 1228.92 1140.85C1222.88 1141.45 1218.04 1140.26 1213.8 1136.68C1210.18 1133.7 1207.76 1128.34 1207.15 1122.38C1206.55 1115.23 1207.76 1109.86 1210.78 1105.1C1213.8 1100.33 1219.85 1096.75 1227.11 1094.37C1227.71 1094.37 1228.32 1093.77 1229.53 1093.77C1241.62 1089.6 1247.67 1084.24 1247.07 1078.28C1247.07 1075.89 1245.86 1074.11 1244.65 1072.91C1242.83 1071.72 1241.02 1071.13 1238.6 1071.72C1235.58 1072.32 1233.16 1072.91 1231.34 1075.3C1229.53 1077.09 1228.92 1080.07 1228.32 1084.24L1210.78 1086.03C1211.38 1077.68 1213.2 1071.72 1218.04 1066.96C1222.27 1062.78 1228.92 1059.8 1237.39 1059.21C1245.25 1058.61 1251.9 1059.21 1256.14 1062.19C1260.98 1065.17 1263.4 1069.34 1264 1075.3C1264 1075.89 1264 1077.09 1264 1078.28C1264 1079.47 1264 1081.26 1264 1082.45L1259.16 1125.36C1259.16 1126.55 1259.16 1127.74 1259.16 1129.53C1259.16 1131.32 1259.16 1133.11 1259.16 1135.49L1242.83 1137.28L1244.04 1130.72ZM1245.86 1099.73C1244.65 1100.33 1242.83 1101.52 1240.41 1102.71C1229.53 1108.67 1224.69 1114.04 1225.29 1119.4C1225.29 1122.38 1226.5 1124.17 1227.71 1125.95C1228.92 1127.15 1231.34 1127.74 1233.76 1127.74C1237.39 1127.15 1240.41 1125.36 1242.23 1121.78C1244.04 1118.21 1245.25 1111.06 1245.86 1099.73Z" fill="white"/>
<path d="M1275 1134L1286.24 1029.81L1304 1028L1292.76 1132.19L1275 1134Z" fill="white"/>
<path d="M1351.48 1049.81L1369 1048L1359.94 1125.81L1343.62 1127.62L1344.83 1120.99C1341.81 1124 1339.4 1127.02 1336.37 1128.83C1333.35 1130.64 1330.33 1131.84 1327.31 1131.84C1322.48 1132.45 1318.85 1131.24 1315.83 1129.43C1312.81 1127.02 1311.6 1124 1311 1119.18C1311 1117.97 1311 1116.76 1311 1115.56C1311 1114.35 1311 1111.94 1311.6 1109.53L1318.25 1053.43L1335.77 1051.62L1329.73 1105.91C1329.73 1107.11 1329.73 1108.32 1329.73 1109.53C1329.73 1110.73 1329.73 1111.33 1329.73 1111.94C1329.73 1113.75 1330.33 1115.56 1331.54 1116.76C1332.75 1117.97 1334.56 1117.97 1336.37 1117.97C1339.4 1117.97 1341.21 1116.16 1343.02 1113.75C1344.83 1111.33 1345.44 1107.72 1346.04 1102.29L1351.48 1049.81Z" fill="white"/>
<path d="M1413.49 1095.01L1430.33 1093.21C1430.33 1102.82 1428.52 1110.03 1424.31 1114.84C1420.1 1119.64 1414.09 1122.65 1405.07 1123.85C1396.65 1124.45 1390.03 1123.25 1385.82 1120.25C1381.61 1116.64 1378.6 1111.23 1378 1104.03C1378 1102.22 1378 1100.42 1378 1098.62C1378 1096.22 1378 1094.41 1378 1092.01C1378 1085.4 1378.6 1080 1379.2 1075.19C1379.8 1070.38 1380.41 1066.18 1381.61 1063.18C1383.41 1056.57 1387.02 1051.76 1390.63 1048.16C1394.84 1045.15 1400.25 1042.75 1407.47 1042.15C1415.29 1041.55 1421.91 1042.75 1425.52 1045.75C1429.73 1048.76 1432.13 1054.16 1432.73 1061.37C1432.73 1064.38 1433.33 1067.38 1432.73 1070.99C1432.73 1074.59 1432.13 1078.79 1431.53 1083L1395.44 1086.6C1394.84 1090.21 1394.84 1093.81 1394.84 1096.22C1394.84 1099.22 1394.84 1101.02 1394.84 1102.82C1395.44 1105.83 1396.04 1108.23 1397.85 1109.43C1399.65 1110.63 1401.46 1111.23 1404.46 1111.23C1407.47 1110.63 1409.88 1109.43 1411.08 1107.03C1412.28 1104.03 1412.88 1100.42 1413.49 1095.01ZM1415.29 1071.59C1415.29 1069.18 1415.89 1067.38 1415.89 1065.58C1415.89 1063.78 1415.89 1062.58 1415.89 1061.37C1415.89 1058.97 1414.69 1057.17 1413.49 1055.97C1412.28 1054.77 1409.88 1054.16 1407.47 1054.77C1403.86 1055.37 1401.46 1056.57 1399.65 1059.57C1397.85 1062.58 1397.25 1067.38 1396.65 1073.99L1415.29 1071.59Z" fill="white"/>
<path d="M1453.43 1116.51L1443.49 1117.7L1445.35 1099.79L1464 1098L1461.51 1118.9C1460.89 1125.46 1459.03 1129.64 1455.92 1132.63C1452.81 1135.61 1447.84 1137.4 1441 1138L1441.62 1132.03C1445.35 1131.43 1448.46 1130.24 1450.32 1127.25C1452.81 1124.87 1453.43 1121.28 1453.43 1116.51Z" fill="white"/>
<path d="M1527.04 1109.19L1509 1111L1518.02 1033.2L1534.25 1031.39L1533.65 1038.03C1536.66 1035.01 1539.07 1032.6 1542.07 1030.79C1545.08 1028.98 1548.08 1027.78 1551.09 1027.78C1555.3 1027.17 1558.31 1027.78 1560.71 1028.98C1563.12 1030.19 1564.92 1032.6 1566.12 1035.62C1569.13 1032 1572.14 1028.98 1575.14 1027.17C1578.15 1025.36 1581.16 1024.16 1584.76 1024.16C1589.58 1023.55 1593.18 1024.76 1596.19 1026.57C1599.2 1028.98 1600.4 1032 1601 1036.82C1601 1038.03 1601 1039.23 1601 1041.04C1601 1042.85 1601 1044.66 1600.4 1046.47L1593.78 1102.56L1575.75 1104.37L1581.76 1050.09C1581.76 1048.28 1582.36 1047.07 1582.36 1045.87C1582.36 1045.26 1582.36 1044.06 1582.36 1043.46C1582.36 1041.65 1581.76 1039.84 1580.56 1038.63C1579.35 1037.42 1577.55 1037.42 1575.75 1037.42C1572.74 1037.42 1570.93 1039.23 1569.13 1041.65C1567.33 1044.06 1566.73 1047.68 1566.12 1052.5L1560.11 1105.57L1542.67 1107.38L1548.69 1053.1C1548.69 1051.3 1549.29 1050.09 1549.29 1048.88C1549.29 1048.28 1549.29 1047.07 1549.29 1046.47C1549.29 1044.66 1548.69 1042.85 1547.48 1041.65C1546.28 1040.44 1544.48 1040.44 1542.67 1040.44C1539.67 1040.44 1537.86 1042.25 1536.06 1044.66C1534.25 1047.07 1533.65 1050.69 1533.05 1055.52L1527.04 1109.19Z" fill="white"/>
<path d="M1613 1079.08C1613 1076.68 1613 1074.28 1613 1070.69C1613 1067.69 1613.6 1063.5 1613.6 1059.3C1614.2 1052.11 1615.4 1046.12 1616 1042.52C1617.19 1038.33 1618.39 1035.33 1619.59 1032.33C1621.39 1028.74 1624.39 1025.74 1627.98 1023.34C1631.58 1020.95 1635.77 1019.75 1641.17 1019.15C1649.56 1018.55 1656.15 1019.75 1660.94 1023.34C1665.74 1026.94 1668.13 1032.33 1668.73 1040.72C1668.73 1043.12 1669.33 1046.12 1668.73 1049.71C1668.73 1053.31 1668.13 1056.9 1668.13 1061.1C1667.54 1067.09 1666.34 1072.49 1665.74 1077.28C1664.54 1081.48 1663.34 1085.67 1661.54 1088.67C1659.74 1092.26 1656.75 1095.86 1653.15 1097.66C1649.56 1100.05 1644.76 1101.25 1639.97 1101.85C1631.58 1102.45 1624.99 1101.25 1620.79 1097.66C1616.6 1092.86 1613.6 1087.47 1613 1079.08ZM1642.37 1031.73C1639.37 1031.73 1637.57 1032.93 1636.37 1035.33C1635.17 1037.13 1633.98 1040.72 1632.78 1046.12C1631.58 1053.31 1630.98 1059.9 1630.38 1065.89C1629.78 1071.89 1629.78 1076.08 1629.78 1079.08C1630.38 1082.67 1630.98 1085.07 1632.78 1086.27C1633.98 1087.47 1636.37 1088.07 1639.37 1088.07C1642.37 1088.07 1644.16 1086.87 1645.96 1084.47C1647.16 1082.67 1648.36 1078.48 1649.56 1073.68C1650.76 1066.49 1651.35 1060.5 1651.95 1054.51C1652.55 1048.51 1652.55 1044.32 1652.55 1041.32C1651.95 1037.73 1651.35 1035.33 1649.56 1034.13C1647.76 1032.33 1645.36 1031.73 1642.37 1031.73Z" fill="white"/>
<path d="M1703.54 1015.61L1701.72 1028.24H1702.32C1704.15 1022.83 1705.97 1019.22 1709.01 1016.81C1712.05 1014.41 1715.7 1012.6 1719.96 1012C1720.57 1012 1721.18 1012 1721.78 1012C1722.39 1012 1722.39 1012 1723 1012L1721.18 1031.85C1720.57 1031.85 1719.35 1031.85 1718.74 1031.85C1718.14 1031.85 1716.92 1031.85 1716.31 1031.85C1711.45 1032.45 1707.8 1033.65 1705.97 1036.06C1703.54 1038.46 1702.32 1042.07 1701.72 1047.49L1696.24 1093.2L1678 1095L1687.12 1017.41L1703.54 1015.61Z" fill="white"/>
<path d="M1762.49 1061.01L1779.33 1059.21C1779.33 1068.82 1777.52 1076.03 1773.31 1080.84C1769.1 1085.64 1763.09 1088.65 1754.07 1089.85C1745.65 1090.45 1739.03 1089.25 1734.82 1086.25C1730.61 1082.64 1727.6 1077.23 1727 1070.03C1727 1068.22 1727 1066.42 1727 1064.62C1727 1062.22 1727 1060.41 1727 1058.01C1727 1051.4 1727.6 1046 1728.2 1041.19C1728.8 1036.38 1729.41 1032.18 1730.61 1029.18C1732.41 1022.57 1736.02 1017.76 1739.63 1014.16C1743.84 1011.15 1749.25 1008.75 1756.47 1008.15C1764.29 1007.55 1770.91 1008.75 1774.52 1011.75C1778.73 1014.76 1781.13 1020.16 1781.73 1027.37C1781.73 1030.38 1782.33 1033.38 1781.73 1036.99C1781.73 1040.59 1781.13 1044.79 1780.53 1049L1744.44 1052.6C1743.84 1056.21 1743.84 1059.81 1743.84 1062.22C1743.84 1065.22 1743.84 1067.02 1743.84 1068.82C1744.44 1071.83 1745.04 1074.23 1746.85 1075.43C1748.65 1076.63 1750.46 1077.23 1753.46 1077.23C1756.47 1076.63 1758.88 1075.43 1760.08 1073.03C1761.88 1070.03 1762.49 1066.42 1762.49 1061.01ZM1764.89 1038.19C1764.89 1035.78 1765.49 1033.98 1765.49 1032.18C1765.49 1030.38 1765.49 1029.18 1765.49 1027.97C1765.49 1025.57 1764.29 1023.77 1763.09 1022.57C1761.88 1021.37 1759.48 1020.77 1757.07 1021.37C1753.46 1021.97 1751.06 1023.17 1749.25 1026.17C1747.45 1029.18 1746.85 1033.98 1746.25 1040.59L1764.89 1038.19Z" fill="white"/>
<path d="M1827 1081L1834.08 1015.35L1827 1015.95L1828.18 1003.91L1835.26 1003.31L1836.44 990.659C1837.03 985.239 1838.8 981.625 1841.16 979.216C1843.52 976.807 1847.66 975.602 1852.97 975C1853.56 975 1854.74 975 1856.51 975C1858.28 975 1860.05 975 1863 975L1861.23 988.25C1860.64 988.25 1860.64 988.25 1860.05 988.25C1859.46 988.25 1858.87 988.25 1858.28 988.25C1856.51 988.25 1854.74 988.852 1854.15 990.057C1853.56 990.659 1852.97 992.466 1852.38 994.875L1851.2 1002.7L1858.87 1002.1L1857.69 1014.15L1850.61 1014.75L1843.52 1080.4L1827 1081Z" fill="white"/>
<path d="M1899.04 1067.6C1897.23 1070.61 1894.81 1073.03 1892.39 1074.84C1889.97 1076.65 1886.95 1077.25 1883.92 1077.85C1877.88 1078.46 1873.04 1077.25 1868.8 1073.63C1865.18 1070.61 1862.76 1065.18 1862.15 1059.15C1861.55 1051.91 1862.76 1046.48 1865.78 1041.66C1868.8 1036.83 1874.85 1033.21 1882.11 1030.8C1882.71 1030.8 1883.32 1030.2 1884.53 1030.2C1896.62 1025.97 1902.67 1020.55 1902.07 1014.51C1902.07 1012.1 1900.86 1010.29 1899.65 1009.08C1897.83 1007.88 1896.02 1007.27 1893.6 1007.88C1890.58 1008.48 1888.16 1009.08 1886.34 1011.5C1884.53 1013.31 1883.92 1016.32 1883.32 1020.55L1865.78 1022.36C1866.38 1013.91 1868.2 1007.88 1873.04 1003.05C1877.27 998.83 1883.92 995.813 1892.39 995.21C1900.25 994.607 1906.9 995.21 1911.14 998.226C1915.98 1001.24 1918.4 1005.46 1919 1011.5C1919 1012.1 1919 1013.31 1919 1014.51C1919 1015.72 1919 1017.53 1919 1018.74L1914.16 1062.17C1914.16 1063.37 1914.16 1064.58 1914.16 1066.39C1914.16 1068.2 1914.16 1070.01 1914.16 1072.42L1897.83 1074.23L1899.04 1067.6ZM1900.86 1036.23C1899.65 1036.83 1897.83 1038.04 1895.41 1039.25C1884.53 1045.28 1879.69 1050.71 1880.29 1056.14C1880.29 1059.15 1881.5 1060.96 1882.71 1062.77C1883.92 1063.98 1886.34 1064.58 1888.76 1064.58C1892.39 1063.98 1895.41 1062.17 1897.23 1058.55C1899.04 1054.93 1900.25 1047.09 1900.86 1036.23Z" fill="white"/>
<path d="M1927.82 1043.56L1942.99 1042.35C1942.99 1042.95 1942.99 1043.56 1942.99 1044.76C1942.99 1045.36 1942.99 1046.57 1942.99 1047.77C1943.6 1051.38 1944.2 1054.4 1946.02 1055.6C1947.84 1057.41 1949.66 1058.01 1953.3 1057.41C1956.34 1057.41 1958.16 1056.2 1959.37 1054.4C1960.58 1052.59 1961.19 1050.78 1960.58 1047.77C1959.98 1044.16 1956.94 1040.54 1950.27 1036.33L1949.66 1035.73C1942.99 1032.11 1938.74 1028.5 1936.31 1025.49C1933.89 1022.48 1932.67 1018.26 1932.07 1013.44C1931.46 1006.22 1933.28 1000.2 1936.92 995.98C1941.17 991.764 1947.24 989.355 1955.12 988.151C1962.4 987.548 1968.47 988.753 1972.72 991.764C1976.97 994.775 1979.39 1000.2 1980 1006.82C1980 1006.82 1980 1008.02 1980 1009.23C1980 1010.43 1980 1011.64 1980 1012.84L1964.22 1014.05V1011.64C1963.62 1006.82 1963.01 1003.81 1961.19 1002C1959.98 1000.2 1957.55 999.593 1953.91 1000.2C1951.48 1000.2 1949.66 1001.4 1948.45 1002.6C1947.24 1004.41 1946.63 1006.22 1947.24 1008.63C1947.84 1012.24 1950.88 1015.85 1956.34 1018.86C1958.16 1019.47 1958.76 1020.07 1959.98 1020.67C1965.44 1023.68 1969.08 1026.69 1972.11 1030.31C1974.54 1033.32 1976.36 1037.53 1976.36 1041.75C1976.97 1049.58 1975.15 1056.2 1971.51 1060.42C1967.26 1065.24 1961.19 1068.25 1952.7 1068.85C1944.81 1069.45 1938.13 1068.25 1933.89 1065.24C1929.64 1062.22 1927.21 1056.8 1926 1049.58C1926 1048.37 1926 1047.17 1926 1045.96C1927.82 1045.96 1927.82 1044.76 1927.82 1043.56Z" fill="white"/>
<path d="M2018.6 963L2016.2 985.194L2024 984.595L2022.8 996.592L2015 997.192L2009.6 1043.38V1043.98C2009.6 1044.58 2009.6 1045.18 2009.6 1045.18C2009.6 1046.38 2010.2 1047.58 2011.4 1048.18C2012.6 1048.78 2013.8 1048.78 2016.2 1048.78H2018L2016.2 1061.98C2014.4 1062.58 2013.2 1062.58 2011.4 1063.18C2010.2 1063.18 2008.4 1063.78 2007.2 1063.78C2002.4 1064.37 1998.8 1063.78 1996.4 1061.98C1993.4 1060.18 1992.2 1057.18 1991.6 1053.58C1991.6 1052.38 1991.6 1051.18 1991.6 1049.38C1991.6 1047.58 1991.6 1045.78 1992.2 1043.98L1997.6 998.991L1991 999.591L1992.2 987.594L1998.8 986.994L2001.2 964.8L2018.6 963Z" fill="white"/>
<path d="M2044.58 1059.18L2027 1061L2028.82 1042.82L2047 1041L2044.58 1059.18Z" fill="white"/>
<path d="M2079.18 1055.81L2061 1057L2063.42 1039.19L2081 1038L2079.18 1055.81Z" fill="white"/>
<path d="M1039 337L1117 788L1059.24 451.702L1039 337Z" fill="#FFDE12"/>
</svg>
