<svg width="102" height="30" viewBox="0 0 102 30" fill="none" xmlns="http://www.w3.org/2000/svg">
<rect width="102" height="30" rx="5" fill="black"/>
<path d="M20.3097 5C19.3286 5.06786 18.1818 5.6959 17.5135 6.51373C16.9038 7.25564 16.4023 8.35757 16.5979 9.42845C17.6699 9.46181 18.7776 8.81882 19.4194 7.98719C20.0198 7.21308 20.4742 6.11804 20.3097 5Z" fill="white"/>
<path d="M24.1874 11.1715C23.2454 9.99024 21.9214 9.30469 20.6711 9.30469C19.0205 9.30469 18.3223 10.0949 17.1755 10.0949C15.9931 10.0949 15.0947 9.30699 13.6673 9.30699C12.2651 9.30699 10.7721 10.1639 9.82545 11.6293C8.49461 13.6929 8.72236 17.5727 10.8791 20.8773C11.6509 22.0598 12.6815 23.3895 14.0296 23.401C15.2293 23.4125 15.5675 22.6315 17.1928 22.6234C18.8181 22.6142 19.1263 23.4113 20.3238 23.3987C21.673 23.3883 22.76 21.9148 23.5318 20.7324C24.0851 19.8847 24.291 19.4579 24.72 18.5009C21.5994 17.3127 21.099 12.8751 24.1874 11.1715Z" fill="white"/>
<path d="M34.709 9.82031V11.4492C34.6484 11.5293 34.5537 11.6172 34.4248 11.7129C34.2979 11.8066 34.1289 11.8877 33.918 11.9561C33.707 12.0244 33.4443 12.0586 33.1299 12.0586C32.8623 12.0586 32.6172 12.0137 32.3945 11.9238C32.1719 11.832 31.9795 11.6982 31.8174 11.5225C31.6572 11.3467 31.5332 11.1328 31.4453 10.8809C31.3574 10.627 31.3135 10.3379 31.3135 10.0137V9.71777C31.3135 9.39551 31.3535 9.1084 31.4336 8.85645C31.5156 8.60254 31.6328 8.3877 31.7852 8.21191C31.9375 8.03613 32.1211 7.90332 32.3359 7.81348C32.5527 7.72168 32.7979 7.67578 33.0713 7.67578C33.4209 7.67578 33.71 7.73438 33.9385 7.85156C34.1689 7.9668 34.3467 8.12695 34.4717 8.33203C34.5967 8.53711 34.6758 8.77148 34.709 9.03516H33.9883C33.9648 8.88672 33.9189 8.75391 33.8506 8.63672C33.7842 8.51953 33.6885 8.42773 33.5635 8.36133C33.4404 8.29297 33.2803 8.25879 33.083 8.25879C32.9131 8.25879 32.7637 8.29102 32.6348 8.35547C32.5059 8.41992 32.3984 8.51465 32.3125 8.63965C32.2285 8.76465 32.165 8.91699 32.1221 9.09668C32.0791 9.27637 32.0576 9.48145 32.0576 9.71191V10.0137C32.0576 10.248 32.082 10.4561 32.1309 10.6377C32.1816 10.8193 32.2539 10.9727 32.3477 11.0977C32.4434 11.2227 32.5596 11.3174 32.6963 11.3818C32.833 11.4443 32.9873 11.4756 33.1592 11.4756C33.3271 11.4756 33.4648 11.4619 33.5723 11.4346C33.6797 11.4053 33.7646 11.3711 33.8271 11.332C33.8916 11.291 33.9414 11.252 33.9766 11.2148V10.3682H33.0889V9.82031H34.709ZM38.3154 11.417V12H36.0508V11.417H38.3154ZM36.2588 7.73438V12H35.5234V7.73438H36.2588ZM38.0195 9.51562V10.0898H36.0508V9.51562H38.0195ZM38.3008 7.73438V8.32031H36.0508V7.73438H38.3008ZM40.7295 7.73438V12H40V7.73438H40.7295ZM42.0684 7.73438V8.32031H38.6729V7.73438H42.0684ZM44.7695 7.73438V12H44.0342V7.73438H44.7695ZM47.3506 7.73438V12H46.6211V7.73438H47.3506ZM48.6895 7.73438V8.32031H45.2939V7.73438H48.6895ZM54.0068 9.75V9.98438C54.0068 10.3066 53.9648 10.5957 53.8809 10.8516C53.7969 11.1074 53.6768 11.3252 53.5205 11.5049C53.3662 11.6846 53.1807 11.8223 52.9639 11.918C52.7471 12.0117 52.5068 12.0586 52.2432 12.0586C51.9814 12.0586 51.7422 12.0117 51.5254 11.918C51.3105 11.8223 51.124 11.6846 50.9658 11.5049C50.8076 11.3252 50.6846 11.1074 50.5967 10.8516C50.5107 10.5957 50.4678 10.3066 50.4678 9.98438V9.75C50.4678 9.42773 50.5107 9.13965 50.5967 8.88574C50.6826 8.62988 50.8037 8.41211 50.96 8.23242C51.1182 8.05078 51.3047 7.91309 51.5195 7.81934C51.7363 7.72363 51.9756 7.67578 52.2373 7.67578C52.501 7.67578 52.7412 7.72363 52.958 7.81934C53.1748 7.91309 53.3613 8.05078 53.5176 8.23242C53.6738 8.41211 53.7939 8.62988 53.8779 8.88574C53.9639 9.13965 54.0068 9.42773 54.0068 9.75ZM53.2715 9.98438V9.74414C53.2715 9.50586 53.248 9.2959 53.2012 9.11426C53.1562 8.93066 53.0889 8.77734 52.999 8.6543C52.9111 8.5293 52.8027 8.43555 52.6738 8.37305C52.5449 8.30859 52.3994 8.27637 52.2373 8.27637C52.0752 8.27637 51.9307 8.30859 51.8037 8.37305C51.6768 8.43555 51.5684 8.5293 51.4785 8.6543C51.3906 8.77734 51.3232 8.93066 51.2764 9.11426C51.2295 9.2959 51.2061 9.50586 51.2061 9.74414V9.98438C51.2061 10.2227 51.2295 10.4336 51.2764 10.6172C51.3232 10.8008 51.3916 10.9561 51.4814 11.083C51.5732 11.208 51.6826 11.3027 51.8096 11.3672C51.9365 11.4297 52.0811 11.4609 52.2432 11.4609C52.4072 11.4609 52.5527 11.4297 52.6797 11.3672C52.8066 11.3027 52.9141 11.208 53.002 11.083C53.0898 10.9561 53.1562 10.8008 53.2012 10.6172C53.248 10.4336 53.2715 10.2227 53.2715 9.98438ZM58.126 7.73438V12H57.3906L55.4775 8.94434V12H54.7422V7.73438H55.4775L57.3965 10.7959V7.73438H58.126ZM34.8564 15.3667L32.6274 22H31.0645L33.9863 14.1797H34.9854L34.8564 15.3667ZM36.7202 22L34.4805 15.3667L34.3462 14.1797H35.3506L38.2886 22H36.7202ZM36.6182 19.0942V20.2598H32.4233V19.0942H36.6182ZM40.2651 17.3057V24.2344H38.8418V16.1885H40.1577L40.2651 17.3057ZM43.998 19.0352V19.1479C43.998 19.5705 43.9479 19.9626 43.8477 20.3242C43.751 20.6823 43.6077 20.9956 43.418 21.2642C43.2282 21.5291 42.9919 21.7368 42.709 21.8872C42.4297 22.034 42.1074 22.1074 41.7422 22.1074C41.3841 22.1074 41.0726 22.0394 40.8076 21.9033C40.5426 21.7637 40.3188 21.5667 40.1362 21.3125C39.9536 21.0583 39.8068 20.7629 39.6958 20.4263C39.5884 20.0861 39.5078 19.7155 39.4541 19.3145V18.9546C39.5078 18.5285 39.5884 18.1418 39.6958 17.7944C39.8068 17.4435 39.9536 17.141 40.1362 16.8867C40.3188 16.6289 40.5409 16.4302 40.8022 16.2905C41.0672 16.1509 41.377 16.0811 41.7314 16.0811C42.1003 16.0811 42.4243 16.1509 42.7036 16.2905C42.9865 16.4302 43.2246 16.6307 43.418 16.8921C43.6113 17.1535 43.7563 17.465 43.853 17.8267C43.9497 18.1883 43.998 18.5911 43.998 19.0352ZM42.5747 19.1479V19.0352C42.5747 18.7773 42.5514 18.5392 42.5049 18.3208C42.4583 18.0988 42.3867 17.9054 42.29 17.7407C42.1934 17.5724 42.068 17.4417 41.9141 17.3486C41.7601 17.2555 41.5739 17.209 41.3555 17.209C41.137 17.209 40.9491 17.2448 40.7915 17.3164C40.634 17.388 40.505 17.4901 40.4048 17.6226C40.3045 17.755 40.2257 17.9126 40.1685 18.0952C40.1147 18.2743 40.0789 18.473 40.061 18.6914V19.583C40.0933 19.848 40.1559 20.0861 40.249 20.2974C40.3421 20.5086 40.4782 20.6769 40.6572 20.8022C40.8398 20.9276 41.0762 20.9902 41.3662 20.9902C41.5846 20.9902 41.7708 20.9419 41.9248 20.8452C42.0788 20.7485 42.2041 20.616 42.3008 20.4478C42.3975 20.2759 42.4673 20.0789 42.5103 19.8569C42.5532 19.6349 42.5747 19.3986 42.5747 19.1479ZM46.4526 17.3057V24.2344H45.0293V16.1885H46.3452L46.4526 17.3057ZM50.1855 19.0352V19.1479C50.1855 19.5705 50.1354 19.9626 50.0352 20.3242C49.9385 20.6823 49.7952 20.9956 49.6055 21.2642C49.4157 21.5291 49.1794 21.7368 48.8965 21.8872C48.6172 22.034 48.2949 22.1074 47.9297 22.1074C47.5716 22.1074 47.2601 22.0394 46.9951 21.9033C46.7301 21.7637 46.5063 21.5667 46.3237 21.3125C46.1411 21.0583 45.9943 20.7629 45.8833 20.4263C45.7759 20.0861 45.6953 19.7155 45.6416 19.3145V18.9546C45.6953 18.5285 45.7759 18.1418 45.8833 17.7944C45.9943 17.4435 46.1411 17.141 46.3237 16.8867C46.5063 16.6289 46.7284 16.4302 46.9897 16.2905C47.2547 16.1509 47.5645 16.0811 47.9189 16.0811C48.2878 16.0811 48.6118 16.1509 48.8911 16.2905C49.174 16.4302 49.4121 16.6307 49.6055 16.8921C49.7988 17.1535 49.9438 17.465 50.0405 17.8267C50.1372 18.1883 50.1855 18.5911 50.1855 19.0352ZM48.7622 19.1479V19.0352C48.7622 18.7773 48.7389 18.5392 48.6924 18.3208C48.6458 18.0988 48.5742 17.9054 48.4775 17.7407C48.3809 17.5724 48.2555 17.4417 48.1016 17.3486C47.9476 17.2555 47.7614 17.209 47.543 17.209C47.3245 17.209 47.1366 17.2448 46.979 17.3164C46.8215 17.388 46.6925 17.4901 46.5923 17.6226C46.492 17.755 46.4132 17.9126 46.356 18.0952C46.3022 18.2743 46.2664 18.473 46.2485 18.6914V19.583C46.2808 19.848 46.3434 20.0861 46.4365 20.2974C46.5296 20.5086 46.6657 20.6769 46.8447 20.8022C47.0273 20.9276 47.2637 20.9902 47.5537 20.9902C47.7721 20.9902 47.9583 20.9419 48.1123 20.8452C48.2663 20.7485 48.3916 20.616 48.4883 20.4478C48.585 20.2759 48.6548 20.0789 48.6978 19.8569C48.7407 19.6349 48.7622 19.3986 48.7622 19.1479ZM58.1616 19.9697C58.1616 19.8193 58.1383 19.6851 58.0918 19.5669C58.0488 19.4451 57.9683 19.3359 57.8501 19.2393C57.7355 19.139 57.5726 19.0423 57.3613 18.9492C57.1536 18.8525 56.8851 18.7523 56.5557 18.6484C56.1904 18.5339 55.8503 18.4049 55.5352 18.2617C55.2201 18.1185 54.9425 17.952 54.7026 17.7622C54.4663 17.5724 54.2819 17.354 54.1494 17.1069C54.0169 16.8563 53.9507 16.5662 53.9507 16.2368C53.9507 15.9146 54.0187 15.6209 54.1548 15.356C54.2944 15.091 54.4914 14.8636 54.7456 14.6738C54.9998 14.4805 55.2988 14.3319 55.6426 14.228C55.9899 14.1242 56.373 14.0723 56.792 14.0723C57.3721 14.0723 57.8734 14.1779 58.2959 14.3892C58.722 14.6004 59.0514 14.8869 59.2842 15.2485C59.5169 15.6102 59.6333 16.0166 59.6333 16.4678H58.1616C58.1616 16.2243 58.1097 16.0094 58.0059 15.8232C57.9056 15.637 57.7516 15.4902 57.5439 15.3828C57.3398 15.2754 57.082 15.2217 56.7705 15.2217C56.4697 15.2217 56.2191 15.2664 56.0186 15.356C55.8216 15.4455 55.673 15.5672 55.5728 15.7212C55.4761 15.8752 55.4277 16.047 55.4277 16.2368C55.4277 16.38 55.4618 16.509 55.5298 16.6235C55.5978 16.7345 55.6999 16.8402 55.8359 16.9404C55.972 17.0371 56.1403 17.1284 56.3408 17.2144C56.5449 17.2967 56.7812 17.3791 57.0498 17.4614C57.4795 17.5903 57.8555 17.7336 58.1777 17.8911C58.5036 18.0487 58.7739 18.2277 58.9888 18.4282C59.2072 18.6287 59.3701 18.8543 59.4775 19.105C59.5885 19.3556 59.644 19.6403 59.644 19.959C59.644 20.2956 59.5778 20.5964 59.4453 20.8613C59.3128 21.1263 59.123 21.3519 58.876 21.5381C58.6289 21.7243 58.3317 21.8657 57.9844 21.9624C57.6406 22.0591 57.2557 22.1074 56.8296 22.1074C56.45 22.1074 56.0741 22.0573 55.7017 21.957C55.3328 21.8532 54.998 21.6992 54.6973 21.4951C54.3965 21.2874 54.1566 21.026 53.9775 20.7109C53.7985 20.3923 53.709 20.0199 53.709 19.5938H55.1914C55.1914 19.8408 55.2308 20.0521 55.3096 20.2275C55.3919 20.3994 55.5065 20.5409 55.6533 20.6519C55.8037 20.7593 55.9792 20.8381 56.1797 20.8882C56.3802 20.9383 56.5968 20.9634 56.8296 20.9634C57.1304 20.9634 57.3774 20.9222 57.5708 20.8398C57.7677 20.7539 57.9146 20.6357 58.0112 20.4854C58.1115 20.335 58.1616 20.1631 58.1616 19.9697ZM63.4253 16.1885V17.209H60.0952V16.1885H63.4253ZM60.9868 14.7598H62.4102V20.3242C62.4102 20.4961 62.4334 20.6286 62.48 20.7217C62.5265 20.8148 62.5964 20.8774 62.6895 20.9097C62.7826 20.9419 62.8936 20.958 63.0225 20.958C63.1156 20.958 63.2015 20.9526 63.2803 20.9419C63.359 20.9312 63.4253 20.9204 63.479 20.9097L63.4844 21.9731C63.3662 22.0125 63.2319 22.0448 63.0815 22.0698C62.9347 22.0949 62.7682 22.1074 62.582 22.1074C62.2633 22.1074 61.984 22.0537 61.7441 21.9463C61.5042 21.8353 61.318 21.658 61.1855 21.4146C61.0531 21.1675 60.9868 20.8416 60.9868 20.437V14.7598ZM63.9785 19.1533V19.0405C63.9785 18.6144 64.0394 18.2223 64.1611 17.8643C64.2829 17.5026 64.4601 17.1893 64.6929 16.9243C64.9256 16.6593 65.2103 16.4535 65.5469 16.3066C65.8835 16.1562 66.2666 16.0811 66.6963 16.0811C67.1331 16.0811 67.5199 16.1562 67.8564 16.3066C68.1966 16.4535 68.4831 16.6593 68.7158 16.9243C68.9486 17.1893 69.1258 17.5026 69.2476 17.8643C69.3693 18.2223 69.4302 18.6144 69.4302 19.0405V19.1533C69.4302 19.5758 69.3693 19.9679 69.2476 20.3296C69.1258 20.6877 68.9486 21.001 68.7158 21.2695C68.4831 21.5345 68.1984 21.7404 67.8618 21.8872C67.5252 22.034 67.1403 22.1074 66.707 22.1074C66.2773 22.1074 65.8924 22.034 65.5522 21.8872C65.2121 21.7404 64.9256 21.5345 64.6929 21.2695C64.4601 21.001 64.2829 20.6877 64.1611 20.3296C64.0394 19.9679 63.9785 19.5758 63.9785 19.1533ZM65.3965 19.0405V19.1533C65.3965 19.4076 65.4215 19.6457 65.4717 19.8677C65.5218 20.0897 65.5988 20.2848 65.7026 20.4531C65.8065 20.6214 65.9408 20.7539 66.1055 20.8506C66.2738 20.9437 66.4743 20.9902 66.707 20.9902C66.9362 20.9902 67.1331 20.9437 67.2979 20.8506C67.4626 20.7539 67.5968 20.6214 67.7007 20.4531C67.8081 20.2848 67.8869 20.0897 67.937 19.8677C67.9871 19.6457 68.0122 19.4076 68.0122 19.1533V19.0405C68.0122 18.7899 67.9871 18.5553 67.937 18.3369C67.8869 18.1149 67.8081 17.9198 67.7007 17.7515C67.5968 17.5796 67.4608 17.4453 67.2925 17.3486C67.1278 17.2484 66.929 17.1982 66.6963 17.1982C66.4671 17.1982 66.2702 17.2484 66.1055 17.3486C65.9408 17.4453 65.8065 17.5796 65.7026 17.7515C65.5988 17.9198 65.5218 18.1149 65.4717 18.3369C65.4215 18.5553 65.3965 18.7899 65.3965 19.0405ZM71.8794 17.3755V22H70.4614V16.1885H71.8042L71.8794 17.3755ZM73.6465 16.1509L73.625 17.4722C73.5462 17.4578 73.4567 17.4471 73.3564 17.4399C73.2598 17.4328 73.1685 17.4292 73.0825 17.4292C72.8641 17.4292 72.6725 17.4596 72.5078 17.5205C72.3431 17.5778 72.2052 17.6619 72.0942 17.7729C71.9868 17.884 71.9045 18.02 71.8472 18.1812C71.7899 18.3387 71.7576 18.5177 71.7505 18.7183L71.4443 18.6807C71.4443 18.3118 71.4819 17.9699 71.5571 17.6548C71.6323 17.3397 71.7415 17.064 71.8848 16.8276C72.028 16.5913 72.207 16.4087 72.4219 16.2798C72.6403 16.1473 72.891 16.0811 73.1738 16.0811C73.2526 16.0811 73.3368 16.0882 73.4263 16.1025C73.5194 16.1133 73.5928 16.1294 73.6465 16.1509ZM76.9282 22.1074C76.4878 22.1074 76.0921 22.0358 75.7412 21.8926C75.3903 21.7493 75.0913 21.5506 74.8442 21.2964C74.6007 21.0386 74.4128 20.7396 74.2803 20.3994C74.1514 20.0557 74.0869 19.6868 74.0869 19.293V19.0781C74.0869 18.6305 74.1514 18.2241 74.2803 17.8589C74.4092 17.4901 74.5918 17.1732 74.8281 16.9082C75.0645 16.6432 75.3473 16.4391 75.6768 16.2959C76.0062 16.1527 76.3696 16.0811 76.7671 16.0811C77.1789 16.0811 77.5423 16.1509 77.8574 16.2905C78.1725 16.4266 78.4357 16.62 78.647 16.8706C78.8582 17.1213 79.0176 17.422 79.125 17.7729C79.2324 18.1203 79.2861 18.5052 79.2861 18.9277V19.5239H74.7314V18.5464H77.8896V18.439C77.8825 18.2134 77.8395 18.0075 77.7607 17.8213C77.682 17.6315 77.5602 17.4811 77.3955 17.3701C77.2308 17.2555 77.0177 17.1982 76.7563 17.1982C76.5451 17.1982 76.3607 17.2448 76.2031 17.3379C76.0492 17.4274 75.9202 17.5563 75.8164 17.7246C75.7161 17.8893 75.641 18.0863 75.5908 18.3154C75.5407 18.5446 75.5156 18.7988 75.5156 19.0781V19.293C75.5156 19.5365 75.5479 19.762 75.6123 19.9697C75.6803 20.1774 75.7788 20.3582 75.9077 20.5122C76.0402 20.6626 76.1978 20.7808 76.3804 20.8667C76.5666 20.9491 76.7778 20.9902 77.0142 20.9902C77.3114 20.9902 77.5799 20.9329 77.8198 20.8184C78.0633 20.7002 78.2746 20.5265 78.4536 20.2974L79.168 21.0386C79.0462 21.2176 78.8815 21.3895 78.6738 21.5542C78.4697 21.7189 78.2227 21.8532 77.9326 21.957C77.6426 22.0573 77.3078 22.1074 76.9282 22.1074Z" fill="white"/>
</svg>
