<svg width="65" height="65" viewBox="0 0 65 65" fill="none" xmlns="http://www.w3.org/2000/svg">
<circle cx="32.5" cy="32.5" r="32.5" fill="#FDF9F3"/>
<mask id="mask0_499_13" style="mask-type:alpha" maskUnits="userSpaceOnUse" x="0" y="0" width="65" height="65">
<circle cx="32.5" cy="32.5" r="32.5" fill="#FDF9F3"/>
</mask>
<g mask="url(#mask0_499_13)">
<path d="M33 18C26.3832 18 21 23.3832 21 30C21 36.6168 26.3832 42 33 42C39.6168 42 45 36.6168 45 30C45 23.3832 39.6168 18 33 18Z" fill="#717478"/>
<path d="M49.6781 51.0788C45.8522 47.194 40.7802 45.0547 35.3965 45.0547H29.1855C23.8019 45.0547 18.7298 47.194 14.9039 51.0788C11.0967 54.9445 9 60.0472 9 65.4473C9 66.3048 9.69521 67 10.5527 67H54.0293C54.8868 67 55.582 66.3048 55.582 65.4473C55.582 60.0472 53.4853 54.9445 49.6781 51.0788Z" fill="#717478"/>
</g>
</svg>
