<svg width="136" height="136" viewBox="0 0 136 136" fill="none" xmlns="http://www.w3.org/2000/svg">
<g filter="url(#filter0_d_7754_16943)">
<circle cx="68" cy="65" r="57" fill="#FF7E07" fill-opacity="0.1" shape-rendering="crispEdges"/>
<circle cx="68" cy="65" r="55.5" stroke="white" stroke-width="3" shape-rendering="crispEdges"/>
</g>
<path d="M48.4286 62.6925H69V66.1211H48.4286V62.6925ZM45 54.1211H62.1429V57.5497H45V54.1211Z" fill="#FF9900"/>
<path d="M92.8608 63.9567L87.7039 52.1851C87.5715 51.8826 87.3513 51.6247 87.0704 51.4435C86.7896 51.2624 86.4605 51.1659 86.1241 51.1661H80.9672V47.8027C80.9672 47.3567 80.7861 46.929 80.4637 46.6136C80.1414 46.2983 79.7041 46.1211 79.2482 46.1211H51.7447V49.4844H77.5293V70.5993C76.746 71.0442 76.0605 71.6365 75.5123 72.3419C74.9642 73.0473 74.5642 73.8519 74.3354 74.7092H63.5334C63.115 73.124 62.12 71.7425 60.7349 70.8236C59.3498 69.9047 57.6697 69.5116 56.0095 69.7179C54.3493 69.9242 52.823 70.7157 51.7167 71.9442C50.6104 73.1727 50 74.7537 50 76.3909C50 78.0281 50.6104 79.6091 51.7167 80.8376C52.823 82.066 54.3493 82.8576 56.0095 83.0639C57.6697 83.2702 59.3498 82.8771 60.7349 81.9582C62.12 81.0393 63.115 79.6578 63.5334 78.0726H74.3354C74.7094 79.5158 75.5645 80.7959 76.7657 81.7103C77.9668 82.6246 79.4453 83.1211 80.9672 83.1211C82.4891 83.1211 83.9676 82.6246 85.1688 81.7103C86.3699 80.7959 87.2251 79.5158 87.599 78.0726H91.281C91.7369 78.0726 92.1742 77.8954 92.4965 77.58C92.8189 77.2646 93 76.8369 93 76.3909V64.6193C93.0001 64.3915 92.9527 64.166 92.8608 63.9567ZM56.9016 79.7542C56.2217 79.7542 55.557 79.557 54.9916 79.1874C54.4263 78.8178 53.9856 78.2925 53.7254 77.678C53.4652 77.0634 53.3971 76.3872 53.5298 75.7347C53.6624 75.0823 53.9898 74.483 54.4706 74.0127C54.9514 73.5423 55.564 73.222 56.2309 73.0922C56.8978 72.9624 57.5891 73.029 58.2173 73.2836C58.8455 73.5382 59.3824 73.9692 59.7602 74.5223C60.1379 75.0754 60.3396 75.7257 60.3396 76.3909C60.3387 77.2826 59.9762 78.1376 59.3316 78.7681C58.6871 79.3987 57.8132 79.7533 56.9016 79.7542ZM80.9672 54.5294H84.9896L88.6751 62.9377H80.9672V54.5294ZM80.9672 79.7542C80.2873 79.7542 79.6226 79.557 79.0572 79.1874C78.4918 78.8178 78.0512 78.2925 77.791 77.678C77.5308 77.0634 77.4627 76.3872 77.5953 75.7347C77.728 75.0823 78.0554 74.483 78.5362 74.0127C79.017 73.5423 79.6296 73.222 80.2965 73.0922C80.9634 72.9624 81.6547 73.029 82.2829 73.2836C82.9111 73.5382 83.448 73.9692 83.8258 74.5223C84.2035 75.0754 84.4052 75.7257 84.4052 76.3909C84.4042 77.2826 84.0417 78.1376 83.3972 78.7681C82.7527 79.3987 81.8787 79.7533 80.9672 79.7542ZM89.5621 74.7092H87.599C87.2203 73.2688 86.3638 71.992 85.1636 71.079C83.9635 70.166 82.4875 69.6684 80.9672 69.6643V66.301H89.5621V74.7092Z" fill="#FF9900"/>
<defs>
<filter id="filter0_d_7754_16943" x="0" y="0" width="136" height="136" filterUnits="userSpaceOnUse" color-interpolation-filters="sRGB">
<feFlood flood-opacity="0" result="BackgroundImageFix"/>
<feColorMatrix in="SourceAlpha" type="matrix" values="0 0 0 0 0 0 0 0 0 0 0 0 0 0 0 0 0 0 127 0" result="hardAlpha"/>
<feOffset dy="3"/>
<feGaussianBlur stdDeviation="5.5"/>
<feComposite in2="hardAlpha" operator="out"/>
<feColorMatrix type="matrix" values="0 0 0 0 0 0 0 0 0 0 0 0 0 0 0 0 0 0 0.1 0"/>
<feBlend mode="normal" in2="BackgroundImageFix" result="effect1_dropShadow_7754_16943"/>
<feBlend mode="normal" in="SourceGraphic" in2="effect1_dropShadow_7754_16943" result="shape"/>
</filter>
</defs>
</svg>
