<svg width="136" height="136" viewBox="0 0 136 136" fill="none" xmlns="http://www.w3.org/2000/svg">
<g filter="url(#filter0_d_7754_16939)">
<circle cx="68" cy="65" r="57" fill="#FF7E07" fill-opacity="0.1" shape-rendering="crispEdges"/>
<circle cx="68" cy="65" r="55.5" stroke="white" stroke-width="3" shape-rendering="crispEdges"/>
</g>
<path d="M79.7497 46.1327C75.1383 46.2696 71.564 47.62 68.084 48.9261C64.3623 50.3209 60.8497 51.6361 55.9829 51.6898C52.7309 51.7453 49.4737 51.1385 46.2731 49.9435L44 49.0962V80.6959L45.1417 81.1343C48.1229 82.272 51.1709 82.9287 54.2051 83.0841C54.6869 83.1081 55.1583 83.1211 55.6211 83.1211C60.7863 83.1211 64.7411 81.6412 68.576 80.2131C72.6183 78.7036 76.4309 77.2773 81.6337 77.5419C84.3915 77.6947 87.1136 78.2831 89.7131 79.2881L92 80.1613V48.5487L90.872 48.1047C87.955 46.9583 84.8928 46.2996 81.7914 46.1512C81.1113 46.1187 80.4303 46.1125 79.7497 46.1327ZM79.8423 49.8066C80.4251 49.7881 81.0217 49.7881 81.6406 49.814C82.2817 49.8436 82.9229 49.9065 83.5623 49.9879C83.8231 51.1486 84.4907 52.155 85.4248 52.7956C86.359 53.4362 87.4868 53.6612 88.5714 53.4231V70.2607C88.0099 70.1374 87.431 70.1371 86.8694 70.2599C86.3077 70.3826 85.7746 70.6259 85.3017 70.9754C84.8289 71.3248 84.426 71.7732 84.1168 72.2939C83.8077 72.8147 83.5987 73.3971 83.5023 74.0067C82.9345 73.9437 82.3651 73.8981 81.7949 73.8698C75.9406 73.5924 71.624 75.1814 67.4514 76.7427C63.404 78.2559 59.5691 79.6859 54.3697 79.4195C53.7221 79.3829 53.076 79.3212 52.4326 79.2345C52.1695 78.077 51.5018 77.0742 50.569 76.4359C49.6363 75.7977 48.511 75.5735 47.4286 75.8104V58.9728C47.9935 59.0968 48.5759 59.0963 49.1406 58.9711C49.7053 58.846 50.2408 58.5988 50.7147 58.2445C51.1886 57.8902 51.5911 57.4361 51.8981 56.9096C52.2052 56.383 52.4103 55.7948 52.5011 55.1805C53.6754 55.3118 54.8497 55.3877 56.0206 55.3673C61.4463 55.3081 65.3909 53.8264 69.2086 52.3946C72.5703 51.1311 75.7743 49.9435 79.8423 49.8066ZM68 57.2172C68 59.8792 67.0383 60.917 64.5714 60.917V64.6167C65.9017 64.6167 67.0349 64.3374 68 63.8546V72.0163H71.4286V57.2172H68ZM80.8571 59.0671C80.1752 59.0671 79.5211 59.3594 79.0389 59.8798C78.5566 60.4002 78.2857 61.106 78.2857 61.8419C78.2857 62.5778 78.5566 63.2836 79.0389 63.804C79.5211 64.3244 80.1752 64.6167 80.8571 64.6167C81.5391 64.6167 82.1932 64.3244 82.6754 63.804C83.1577 63.2836 83.4286 62.5778 83.4286 61.8419C83.4286 61.106 83.1577 60.4002 82.6754 59.8798C82.1932 59.3594 81.5391 59.0671 80.8571 59.0671ZM55.1429 64.6167C54.4609 64.6167 53.8068 64.9091 53.3246 65.4295C52.8423 65.9498 52.5714 66.6556 52.5714 67.3916C52.5714 68.1275 52.8423 68.8333 53.3246 69.3537C53.8068 69.874 54.4609 70.1664 55.1429 70.1664C55.8248 70.1664 56.4789 69.874 56.9611 69.3537C57.4434 68.8333 57.7143 68.1275 57.7143 67.3916C57.7143 66.6556 57.4434 65.9498 56.9611 65.4295C56.4789 64.9091 55.8248 64.6167 55.1429 64.6167Z" fill="#FF9900"/>
<defs>
<filter id="filter0_d_7754_16939" x="0" y="0" width="136" height="136" filterUnits="userSpaceOnUse" color-interpolation-filters="sRGB">
<feFlood flood-opacity="0" result="BackgroundImageFix"/>
<feColorMatrix in="SourceAlpha" type="matrix" values="0 0 0 0 0 0 0 0 0 0 0 0 0 0 0 0 0 0 127 0" result="hardAlpha"/>
<feOffset dy="3"/>
<feGaussianBlur stdDeviation="5.5"/>
<feComposite in2="hardAlpha" operator="out"/>
<feColorMatrix type="matrix" values="0 0 0 0 0 0 0 0 0 0 0 0 0 0 0 0 0 0 0.1 0"/>
<feBlend mode="normal" in2="BackgroundImageFix" result="effect1_dropShadow_7754_16939"/>
<feBlend mode="normal" in="SourceGraphic" in2="effect1_dropShadow_7754_16939" result="shape"/>
</filter>
</defs>
</svg>
