<svg width="81" height="81" viewBox="0 0 81 81" fill="none" xmlns="http://www.w3.org/2000/svg">
<path d="M69.6681 40.56C69.614 56.5955 56.457 69.9835 40.5416 69.6616C22.2606 69.2928 11.2764 56.0364 11.3352 40.3815C11.3963 24.5668 22.6509 11.5642 40.678 11.3363C56.664 11.1319 69.7222 24.5739 69.6681 40.56Z" fill="#FF9900"/>
<path d="M43.5701 0.696209C52.7906 1.38704 60.8662 4.62474 67.7774 10.4807C68.1647 10.8077 68.3027 10.985 67.85 11.4018C66.3201 12.795 64.8314 14.2273 63.3523 15.6688C63.011 16.0027 62.8246 16.0396 62.4276 15.708C56.8599 11.0564 50.4014 8.44273 43.0084 7.95684C42.229 7.90618 42.0208 7.68282 42.0401 6.94593C42.1055 5.16589 42.1103 3.37663 42.0401 1.59659C42.0087 0.762991 42.212 0.422183 43.1101 0.663974C43.2621 0.68811 43.416 0.698898 43.5701 0.696209Z" fill="#FF9900"/>
<path d="M38.9371 4.24483C38.9371 5.16834 38.8718 6.09185 38.9565 7.01536C39.0243 7.76802 38.7144 7.91347 38.0097 7.95041C30.8388 8.40304 24.0289 11.1148 18.6503 15.6594C18.2217 16.0265 17.999 16.045 17.5873 15.6363C16.1344 14.2033 14.659 12.7965 13.1609 11.4159C12.7226 11.0165 12.8098 10.8364 13.2118 10.4924C20.3865 4.4203 28.7622 1.14415 38.3269 0.592348C38.8112 0.564643 38.9613 0.656996 38.9468 1.12799C38.9129 2.16693 38.9371 3.20819 38.9371 4.24483Z" fill="#FF9900"/>
<path d="M38.9395 76.4529C38.9395 77.5621 38.9249 78.6713 38.9395 79.7805C38.9395 80.2323 38.8934 80.443 38.3582 80.41C28.7611 79.7957 20.353 76.1914 13.1727 69.4752C12.7804 69.1097 12.7658 68.9219 13.1436 68.5361C14.662 66.9903 16.1659 65.4242 17.6334 63.8276C18.0306 63.3961 18.2316 63.4596 18.6263 63.8276C24.1768 68.9041 30.6234 71.7723 37.9829 72.3206C38.7215 72.3764 39.0387 72.5566 38.9516 73.4146C38.8692 74.4146 38.9395 75.4376 38.9395 76.4529Z" fill="#FF9900"/>
<path d="M42.069 76.3557C42.069 75.3713 42.1392 74.3817 42.0496 73.41C41.9673 72.5498 42.2917 72.3646 43.03 72.3164C47.9287 71.9951 52.6902 70.4902 56.9418 67.9194C58.8925 66.7705 60.7159 65.3988 62.3787 63.8294C62.7684 63.4564 62.9742 63.398 63.3712 63.8294C64.8397 65.4278 66.3357 66.9975 67.8592 68.5385C68.2392 68.9267 68.2199 69.117 67.8301 69.4823C61.4709 75.4271 54.0854 79.0021 45.6226 80.1032C44.6543 80.2301 43.686 80.2656 42.7347 80.395C42.2336 80.4635 42.0375 80.3569 42.0569 79.7785C42.0956 78.6392 42.069 77.4924 42.069 76.3557Z" fill="#FF9900"/>
<path d="M4.15441 38.9452C3.14642 38.9452 2.13844 38.9234 1.13045 38.9452C0.669126 38.9622 0.565325 38.8047 0.593004 38.3272C1.13736 28.7831 4.41506 20.4257 10.4261 13.2551C10.8159 12.7922 11.0258 12.7122 11.4687 13.1993C12.8411 14.7117 14.2551 16.1804 15.6805 17.637C16.0311 17.9932 16.015 18.1847 15.699 18.5652C11.0489 24.1395 8.43317 30.608 7.93956 38.0073C7.89343 38.7004 7.75734 39.0228 7.01692 38.9573C6.06198 38.8822 5.10704 38.9452 4.15441 38.9452Z" fill="#FF9900"/>
<path d="M76.7798 38.9379C75.8562 38.9379 74.9326 38.8798 74.009 38.9573C73.2863 39.0178 73.0854 38.7538 73.0554 38.0297C72.8404 34.1925 71.9528 30.4298 70.4369 26.9302C69.1647 23.9134 67.4507 21.1236 65.357 18.662C65.013 18.2575 64.916 18.0323 65.357 17.5988C66.7956 16.1456 68.1971 14.6756 69.5803 13.174C69.952 12.772 70.1321 12.7574 70.5039 13.1909C75.2745 18.7392 78.4859 25.5656 79.7816 32.9123C80.1025 34.6996 80.2434 36.5039 80.405 38.3106C80.4535 38.8749 80.2642 38.9621 79.8001 38.9476C78.7887 38.9185 77.7796 38.9379 76.7798 38.9379Z" fill="#FF9900"/>
<path d="M4.303 42.0625C5.16962 42.0625 6.03856 42.1206 6.90055 42.0455C7.66549 41.9777 7.91969 42.2345 7.96129 43.0459C8.41515 50.1884 11.1205 56.9703 15.6522 62.3259C16.059 62.8104 16.0243 63.038 15.6106 63.4571C14.1986 64.8837 12.812 66.3442 11.4509 67.8169C11.095 68.202 10.9147 68.2698 10.5265 67.8169C5.7649 62.2984 2.54929 55.5093 1.23403 48.1977C0.928096 46.3815 0.715178 44.5493 0.596197 42.7092C0.552289 42.1691 0.700191 42.0407 1.18781 42.0552C2.22313 42.0843 3.26306 42.0625 4.303 42.0625Z" fill="#FF9900"/>
<path d="M76.7918 40.5072C77.8299 40.5072 78.868 40.5241 79.9038 40.5072C80.3214 40.5072 80.4344 40.6138 80.409 41.0717C79.8646 50.6752 76.5818 59.0844 70.4892 66.2846C70.097 66.7498 69.9171 66.648 69.5664 66.2846C68.1823 64.7874 66.7758 63.3112 65.347 61.8559C64.9802 61.4804 64.9641 61.2818 65.3147 60.8626C69.9286 55.3147 72.5493 48.8679 73.0407 41.5053C73.0937 40.684 73.3521 40.4466 74.1065 40.5096C75.0085 40.5629 75.9059 40.5072 76.7918 40.5072Z" fill="#FF9900"/>
<rect x="40.6084" y="29.7539" width="15.3509" height="15.3509" transform="rotate(45 40.6084 29.7539)" fill="#FFF3E7"/>
</svg>
