<svg width="184" height="74" viewBox="0 0 184 74" fill="none" xmlns="http://www.w3.org/2000/svg">
<path d="M70.7422 11.5056L67.3415 14.0373L68.2106 22.2749L66.9259 13.9995L63.752 12.148L65.3011 21.179L66.5858 28.3963L70.251 49.5569L71.4223 56.2074L70.7422 11.5056Z" fill="#FBB042"/>
<path d="M32.0306 21.3078C32.1441 22.0253 32.8249 22.4784 33.5435 22.3651C34.2621 22.2518 34.7159 21.5721 34.6025 20.8547C34.5268 20.326 34.1108 19.9106 33.5813 19.7973C32.8249 13.8311 36.607 6.65639 42.5827 5.59907C48.5585 4.54175 54.5342 10.0549 55.8579 15.9079C55.4041 16.1723 55.1772 16.7009 55.2528 17.2296C55.3663 17.947 56.047 18.4002 56.7656 18.2869C57.4843 18.1736 57.9381 17.4939 57.8246 16.7764C57.749 16.2855 57.3708 15.9079 56.9169 15.7569C55.5176 9.29969 48.9745 3.40891 42.4314 4.54175C35.8506 5.67459 31.7281 13.4534 32.5979 19.9862C32.1441 20.326 31.9172 20.8169 32.0306 21.3078Z" fill="#FFDE12"/>
<path d="M9.42857 32.0946L15.1972 31.0078C16.1459 30.8204 16.7532 29.9209 16.5634 28.984C16.3736 28.0471 15.4628 27.4475 14.514 27.6348L8.74545 28.7217C7.83462 28.9091 7.2274 29.771 7.37921 30.6705V30.7079C7.56896 31.6449 8.47979 32.282 9.42857 32.0946Z" fill="#FFDE12"/>
<path d="M24.8306 57.3691L27.1438 56.9184C28.0919 56.7306 28.6987 55.8293 28.509 54.8903C28.3194 53.9514 27.4093 53.3505 26.4612 53.5382L24.148 53.9889C23.2378 54.1767 22.6311 55.0405 22.7828 55.9419V55.9795C22.9724 56.9184 23.8825 57.5569 24.8306 57.3691Z" fill="#FFDE12"/>
<path d="M23.1895 43.6107C24.1331 43.4217 24.737 42.5148 24.5483 41.57C24.3596 40.6253 23.4537 40.0206 22.5101 40.2096L17.037 41.2677C16.1311 41.4567 15.5272 42.3258 15.6782 43.2328V43.2706C15.8291 44.2153 16.735 44.8577 17.6787 44.6688L23.1895 43.6107Z" fill="#FFDE12"/>
<path d="M63.7489 12.1343L58.7215 13.0035C60.4603 26.0038 59.2885 43.577 46.7766 60.5455L55.2438 59.0338L71.4223 56.1994L70.2505 49.5481L65.2987 21.2043L63.7489 12.1343Z" fill="#FFDE12"/>
<path d="M58.715 13.0144L56.7485 13.3544C57.0132 14.0345 57.2401 14.7145 57.3914 15.3945C58.0343 15.7346 58.4503 16.3768 58.4124 17.1324C58.3746 17.888 57.9208 18.5681 57.2023 18.8325C56.03 19.2859 54.8198 18.5681 54.5929 17.3969C54.4795 16.7924 54.6686 16.1879 55.1224 15.7346C54.9333 15.0545 54.7064 14.4123 54.4039 13.7322L34.0962 17.2836C34.0584 18.0014 34.0584 18.7192 34.0962 19.3992C34.7769 19.7393 35.2307 20.4571 35.1551 21.2882C35.1172 22.0061 34.6256 22.6105 33.9827 22.875C32.8104 23.3284 31.6003 22.6105 31.3734 21.4394C31.2599 20.8349 31.449 20.2682 31.865 19.8148C31.7894 19.1348 31.7515 18.417 31.7894 17.6991L24.7932 18.9081C24.7932 18.9081 24.9823 20.0415 25.3227 21.9683L27.8564 21.4771C28.764 21.2882 29.6716 21.8172 29.9363 22.6861C30.2389 23.6684 29.596 24.6884 28.6127 24.8773L21.0494 26.3508C20.1418 26.5397 19.4989 27.333 19.5745 28.2398C19.688 29.2598 20.6334 29.9776 21.6166 29.7887L36.0627 26.993C36.9703 26.8041 37.8779 27.333 38.1426 28.202C38.4451 29.1843 37.8022 30.2043 36.819 30.3932L1.38457 37.2692C0.476968 37.4581 -0.128102 38.327 0.0231657 39.2338V39.2715C0.174433 40.216 1.08204 40.8583 2.02746 40.6694L32.2432 34.8135C33.1508 34.6246 34.0584 35.1535 34.3231 36.0225C34.6256 37.0047 33.9827 38.0248 32.9995 38.2137L28.9909 39.0071C28.0455 39.196 27.4404 40.1027 27.6295 41.0472C27.8186 41.9917 28.7262 42.5962 29.6716 42.4073L45.1387 39.4227C46.0463 39.2338 46.9539 39.7627 47.2186 40.6316C47.5212 41.6139 46.8783 42.634 45.8951 42.8229L10.8766 49.6233C9.96901 49.8122 9.36394 50.6811 9.51521 51.5878V51.6256C9.66647 52.5701 10.5741 53.2124 11.5195 53.0235L38.7098 47.7343C39.6174 47.5454 40.5251 48.0743 40.7898 48.9432C41.0923 49.9255 40.4494 50.9456 39.4662 51.1345L32.9995 52.3812C32.0919 52.5701 31.449 53.3635 31.5246 54.2702C31.6381 55.2903 32.5835 56.0081 33.5667 55.8192L34.5122 55.6303C35.4198 55.4414 36.3274 55.9703 36.5921 56.8393C36.8946 57.8215 36.2517 58.8416 35.2685 59.0305L25.3605 60.9573C24.4529 61.1462 23.8478 62.0151 23.9991 62.9219V62.9596C24.1503 63.9041 25.0579 64.5086 26.0034 64.3575L46.7648 60.6173C59.2822 43.5785 60.4546 26.0107 58.715 13.0144Z" fill="#FFDE12"/>
<path d="M138.929 35.3967L183.145 51.4926L30.6184 66.644L149.586 46.8452L138.929 35.3967Z" fill="#BCBEC0"/>
<path d="M99.5586 5.24416L102.303 4.71533L100.987 20.5423L105.499 19.7113L105.273 22.3554L98.0171 23.6397L99.5586 5.24416Z" fill="white"/>
<path d="M81.1605 8.41477L76.7034 27.5377L79.2719 27.0833L79.8007 24.7356L78.2898 23.6753L83.2758 22.7665V22.7286L83.4647 26.326L86.2599 25.8337L84.9378 7.73315L81.1605 8.41477ZM82.6337 11.3305H82.6715L83.1247 20.3051L80.6317 20.7595L82.6337 11.3305Z" fill="white"/>
<path d="M111.276 3.00778L106.819 22.1308L109.388 21.6764L109.916 19.3286L108.406 18.2683L113.392 17.3595V17.3216L113.58 20.919L116.376 20.4267L115.054 2.32617L111.276 3.00778ZM112.749 5.96143H112.787L113.24 14.936L110.747 15.3904L112.749 5.96143Z" fill="white"/>
<path d="M89.428 6.9575L87.8318 25.5259L90.6441 25.0343L91.2142 18.1893L89.504 16.9792L94.3686 16.1472L93.6465 24.5049L96.4588 23.9754L98.017 5.40698L95.2427 5.89861L94.5966 13.4621L91.5942 14.0294L92.2403 6.46587L89.428 6.9575Z" fill="white"/>
<path d="M119.555 1.55052L123.059 0.945439L124.867 10.9293L125.809 0.453811L128.258 0L126.714 18.5684L123.85 19.0979L121.514 7.56351L120.459 19.703L118.01 20.1189L119.555 1.55052Z" fill="white"/>
<path d="M97.5567 27.1865L91.7297 51.9948L95.0973 51.3906L95.7784 48.3698L93.773 46.9727L100.281 45.8022V45.7267L100.546 50.4089L104.178 49.767L102.476 26.2803L97.5567 27.1865ZM99.4486 31.0003H99.5243L100.13 42.6303L96.8757 43.1967L99.4486 31.0003Z" fill="white"/>
<path d="M108.424 25.2641L106.379 49.3543L110.015 48.7134L110.508 42.8322L110.886 38.3836L112.136 38.1574C112.97 38.0066 113.538 38.1197 113.841 38.4967C114.144 38.8737 114.257 39.6277 114.182 40.721L114.144 41.3996L114.068 42.229L113.576 48.1102L117.212 47.4693L117.704 41.5881L117.78 40.7587L117.818 40.3063C117.932 38.8737 117.856 37.7804 117.553 36.9887C117.288 36.197 116.719 35.7446 115.848 35.6315V35.5561C117.477 34.6136 118.424 32.8794 118.613 30.3913L118.727 28.921C118.878 27.036 118.575 25.7165 117.78 25.0002C116.985 24.2462 115.659 24.02 113.803 24.3593L108.424 25.2641ZM109.409 28.4686L113.462 27.7523C114.106 27.6392 114.56 27.7523 114.788 28.0916C115.053 28.4309 115.166 29.0341 115.091 29.9012L114.939 31.7484C114.863 32.6532 114.636 33.3695 114.22 33.8219C113.841 34.2743 113.273 34.5759 112.553 34.689L111.227 34.9152L111.644 29.9766L109.409 28.4686Z" fill="white"/>
<path d="M87.6816 28.2865C85.9366 28.5883 84.5711 29.3427 83.5469 30.5498C82.5606 31.7569 81.9916 33.2657 81.8019 35.1518L80.7019 48.0902C80.5502 49.9763 80.8536 51.3343 81.6882 52.2396C82.5227 53.1072 83.8124 53.3712 85.5573 53.0694C87.3022 52.7677 88.6678 52.0132 89.6541 50.8062C90.6783 49.5991 91.2473 48.0525 91.399 46.1664L91.7025 42.7715L88.2506 43.375L87.9471 47.0717C87.8333 48.5429 87.1505 49.3727 85.9366 49.5991C84.7228 49.8254 84.1917 49.1841 84.3055 47.713L85.4435 34.2465C85.4435 34.171 85.4435 34.0956 85.4815 34.0202L83.2055 32.4359L87.4919 31.6814C88.7058 31.4551 89.2368 32.0964 89.123 33.6052L88.8954 36.3966L92.3473 35.7931L92.5749 33.228C92.7266 31.3419 92.3853 29.984 91.5507 29.1164C90.7162 28.2488 89.4265 27.9847 87.6816 28.2865Z" fill="white"/>
<path d="M120.451 23.0643L120.148 26.5022L123.933 25.8222L122.192 46.5251L125.787 45.8828L127.377 27.1444L125.182 25.5955L131.351 24.4999L131.653 21.062L120.451 23.0643Z" fill="white"/>
<path d="M53.4435 73.8875L52.3093 74L52.8764 69.165L53.8971 69.0525L53.8593 69.4648C54.0484 69.2774 54.1996 69.1275 54.3886 69.0151C54.5776 68.9026 54.7667 68.8276 54.9557 68.8276C55.2203 68.7902 55.4094 68.8276 55.5606 68.9026C55.7118 68.9776 55.8252 69.1275 55.9008 69.3149C56.0898 69.09 56.2789 68.9026 56.4679 68.7902C56.6569 68.6777 56.846 68.6028 57.0728 68.6028C57.3752 68.5653 57.6021 68.6402 57.7911 68.7527C57.9801 68.9026 58.0557 69.09 58.0935 69.3899C58.0935 69.4648 58.0935 69.5398 58.0935 69.6522C58.0935 69.7647 58.0935 69.8771 58.0557 69.9896L57.6399 73.4753L56.5057 73.5877L56.8838 70.2144C56.8838 70.102 56.9216 70.027 56.9216 69.9521C56.9216 69.9146 56.9216 69.8396 56.9216 69.8021C56.9216 69.6897 56.8838 69.5773 56.8081 69.5023C56.7325 69.4273 56.6191 69.4273 56.5057 69.4273C56.3167 69.4273 56.2033 69.5398 56.0898 69.6897C55.9764 69.8396 55.9386 70.0645 55.9008 70.3644L55.5228 73.6627L54.4264 73.7751L54.8045 70.4018C54.8045 70.2894 54.8423 70.2144 54.8423 70.1395C54.8423 70.102 54.8423 70.027 54.8423 69.9896C54.8423 69.8771 54.8045 69.7647 54.7289 69.6897C54.6532 69.6147 54.5398 69.6147 54.4264 69.6147C54.2374 69.6147 54.124 69.7272 54.0106 69.8771C53.8971 70.027 53.8593 70.2519 53.8215 70.5518L53.4435 73.8875Z" fill="white"/>
<path d="M58.8481 71.9931C58.8481 71.8424 58.8481 71.6916 58.8481 71.4656C58.8481 71.2772 58.8858 71.0134 58.8858 70.7496C58.9235 70.2975 58.9989 69.9207 59.0365 69.6946C59.1119 69.4308 59.1873 69.2424 59.2626 69.054C59.3756 68.828 59.564 68.6396 59.7901 68.4888C60.0162 68.3381 60.2799 68.2628 60.619 68.2251C61.1465 68.1874 61.561 68.2628 61.8624 68.4888C62.1638 68.7149 62.3145 69.0917 62.3522 69.5816C62.3522 69.7323 62.3899 69.9207 62.3522 70.1468C62.3522 70.3728 62.3145 70.5989 62.3145 70.8627C62.2769 71.2395 62.2015 71.5786 62.1638 71.88C62.0885 72.1438 62.0131 72.4076 61.9001 72.596C61.787 72.822 61.5986 73.0481 61.3726 73.1612C61.1465 73.3119 60.8451 73.3872 60.5437 73.4249C60.0162 73.4626 59.6017 73.3872 59.338 73.1612C59.0742 72.8597 58.8858 72.4829 58.8481 71.9931ZM60.6944 69.0164C60.506 69.0164 60.393 69.0917 60.3176 69.2424C60.2422 69.3555 60.1669 69.5816 60.0915 69.9207C60.0162 70.3728 59.9785 70.7873 59.9408 71.1641C59.9031 71.5409 59.9031 71.8047 59.9031 71.9931C59.9408 72.2192 59.9785 72.3699 60.0915 72.4452C60.1669 72.5206 60.3176 72.5583 60.506 72.5583C60.6944 72.5583 60.8074 72.4829 60.9204 72.3322C61.0335 72.1815 61.0712 71.9554 61.1465 71.654C61.2219 71.2018 61.2595 70.825 61.2972 70.4482C61.3349 70.0714 61.3349 69.8076 61.3349 69.6192C61.2972 69.3932 61.2595 69.2424 61.1465 69.1671C61.0335 69.054 60.8828 69.0164 60.6944 69.0164Z" fill="white"/>
<path d="M64.5403 68.0025L64.4256 68.7966H64.4639C64.5786 68.4563 64.6933 68.2294 64.8844 68.0781C65.0756 67.9269 65.305 67.8134 65.5726 67.7756C65.6109 67.7756 65.6491 67.7756 65.6873 67.7756C65.7256 67.7756 65.7256 67.7756 65.7638 67.7756L65.6491 69.0235C65.6109 69.0235 65.5344 69.0235 65.4962 69.0235C65.4579 69.0235 65.3815 69.0235 65.3432 69.0235C65.0374 69.0613 64.808 69.1369 64.6933 69.2882C64.5403 69.4395 64.4639 69.6663 64.4256 70.0067L64.0816 72.8805L62.9346 72.994L63.5081 68.116L64.5403 68.0025Z" fill="white"/>
<path d="M68.3094 70.8573L69.3683 70.744C69.3683 71.3483 69.2548 71.8015 68.9901 72.1037C68.7254 72.4058 68.3473 72.5947 67.78 72.6702C67.2506 72.708 66.8347 72.6324 66.57 72.4436C66.3053 72.217 66.1162 71.8771 66.0784 71.4238C66.0784 71.3105 66.0784 71.1972 66.0784 71.0839C66.0784 70.9328 66.0784 70.8195 66.0784 70.6684C66.0784 70.253 66.1162 69.9131 66.154 69.6109C66.1918 69.3088 66.2296 69.0444 66.3053 68.8555C66.4187 68.4401 66.6456 68.1379 66.8725 67.9113C67.1372 67.7225 67.4775 67.5714 67.9313 67.5336C68.4229 67.4958 68.8388 67.5714 69.0657 67.7602C69.3304 67.9491 69.4817 68.289 69.5195 68.7422C69.5195 68.9311 69.5573 69.1199 69.5195 69.3465C69.5195 69.5731 69.4817 69.8375 69.4439 70.1019L67.175 70.3285C67.1372 70.5551 67.1372 70.7818 67.1372 70.9328C67.1372 71.1217 67.1372 71.235 67.1372 71.3483C67.175 71.5371 67.2128 71.6882 67.3263 71.7638C67.4397 71.8393 67.5531 71.8771 67.7422 71.8771C67.9313 71.8771 68.0826 71.7638 68.1582 71.6127C68.2716 71.4238 68.3094 71.1972 68.3094 70.8573ZM68.4607 69.4221C68.4607 69.271 68.4985 69.1577 68.4985 69.0444C68.4985 68.9311 68.4985 68.8555 68.4985 68.78C68.4985 68.6289 68.4229 68.5156 68.3473 68.4401C68.2716 68.3645 68.1204 68.3268 67.9691 68.3645C67.7422 68.4023 67.591 68.4778 67.4775 68.6667C67.3641 68.8555 67.3263 69.1577 67.2884 69.5731L68.4607 69.4221Z" fill="white"/>
<path d="M74.2964 71.8383L73.0095 71.9881L72.1768 67.27L73.3123 67.1576L73.7287 70.6401L74.7128 67.0078L75.8862 66.8955L74.2964 71.8383Z" fill="white"/>
<path d="M78.2152 71.0904C78.1011 71.2777 77.949 71.4276 77.7969 71.54C77.6448 71.6524 77.4547 71.6899 77.2646 71.7273C76.8843 71.7648 76.5802 71.6899 76.314 71.4651C76.0859 71.2777 75.9338 70.9405 75.8957 70.5658C75.8577 70.1162 75.9338 69.779 76.1239 69.4792C76.314 69.1795 76.6942 68.9546 77.1505 68.8048C77.1885 68.8048 77.2266 68.7673 77.3026 68.7673C78.0631 68.505 78.4433 68.1678 78.4053 67.7931C78.4053 67.6432 78.3292 67.5308 78.2532 67.4559C78.1391 67.381 78.025 67.3435 77.8729 67.381C77.6828 67.4184 77.5307 67.4559 77.4167 67.6058C77.3026 67.7182 77.2646 67.9055 77.2265 68.1678L76.1239 68.2802C76.1619 67.7556 76.276 67.381 76.5802 67.0812C76.8463 66.8189 77.2646 66.6316 77.7969 66.5941C78.2912 66.5566 78.7095 66.5941 78.9756 66.7815C79.2798 66.9688 79.4319 67.2311 79.4699 67.6058C79.4699 67.6432 79.4699 67.7182 79.4699 67.7931C79.4699 67.868 79.4699 67.9805 79.4699 68.0554L79.1657 70.7531C79.1657 70.8281 79.1657 70.903 79.1657 71.0154C79.1657 71.1278 79.1657 71.2402 79.1657 71.3901L78.1391 71.5025L78.2152 71.0904ZM78.3292 69.142C78.2532 69.1795 78.1391 69.2544 77.987 69.3293C77.3026 69.704 76.9984 70.0412 77.0364 70.3785C77.0364 70.5658 77.1125 70.6782 77.1885 70.7906C77.2646 70.8656 77.4167 70.903 77.5688 70.903C77.7969 70.8656 77.987 70.7531 78.1011 70.5283C78.2152 70.3035 78.2912 69.8539 78.3292 69.142Z" fill="white"/>
<path d="M80.1616 71.2965L80.8686 64.7457L81.9849 64.6321L81.2779 71.1829L80.1616 71.2965Z" fill="white"/>
<path d="M84.9698 66.0034L86.0714 65.8896L85.5016 70.7818L84.476 70.8955L84.552 70.4784C84.362 70.668 84.2101 70.8576 84.0202 70.9714C83.8302 71.0852 83.6403 71.161 83.4504 71.161C83.1465 71.1989 82.9186 71.1231 82.7287 71.0093C82.5388 70.8576 82.4628 70.668 82.4248 70.3646C82.4248 70.2888 82.4248 70.2129 82.4248 70.1371C82.4248 70.0612 82.4248 69.9095 82.4628 69.7578L82.8806 66.231L83.9822 66.1172L83.6023 69.5303C83.6023 69.6061 83.6023 69.682 83.6023 69.7578C83.6023 69.8337 83.6023 69.8716 83.6023 69.9095C83.6023 70.0233 83.6403 70.1371 83.7163 70.2129C83.7923 70.2888 83.9062 70.2888 84.0202 70.2888C84.2101 70.2888 84.324 70.175 84.438 70.0233C84.552 69.8716 84.5899 69.6441 84.6279 69.3028L84.9698 66.0034Z" fill="white"/>
<path d="M88.8683 68.8453L89.9271 68.732C89.9271 69.3363 89.8136 69.7896 89.5489 70.0917C89.2842 70.3939 88.9061 70.5827 88.3389 70.6582C87.8095 70.696 87.3935 70.6205 87.1288 70.4316C86.8641 70.205 86.675 69.8651 86.6372 69.4119C86.6372 69.2986 86.6372 69.1852 86.6372 69.0719C86.6372 68.9209 86.6372 68.8076 86.6372 68.6565C86.6372 68.241 86.675 67.9011 86.7128 67.5989C86.7507 67.2968 86.7885 67.0324 86.8641 66.8436C86.9775 66.4281 87.2044 66.126 87.4313 65.8993C87.696 65.7105 88.0364 65.5594 88.4901 65.5216C88.9817 65.4839 89.3977 65.5594 89.6246 65.7483C89.8893 65.9371 90.0405 66.277 90.0783 66.7303C90.0783 66.9191 90.1162 67.108 90.0783 67.3346C90.0783 67.5612 90.0405 67.8256 90.0027 68.0899L87.7338 68.3166C87.696 68.5432 87.696 68.7698 87.696 68.9209C87.696 69.1097 87.696 69.223 87.696 69.3363C87.7338 69.5252 87.7717 69.6762 87.8851 69.7518C87.9985 69.8273 88.112 69.8651 88.3011 69.8651C88.4901 69.8273 88.6414 69.7518 88.717 69.6007C88.7926 69.4119 88.8305 69.1853 88.8683 68.8453ZM88.9817 67.3723C88.9817 67.2213 89.0195 67.1079 89.0195 66.9946C89.0195 66.8813 89.0195 66.8058 89.0195 66.7303C89.0195 66.5792 88.9439 66.4659 88.8683 66.3903C88.7927 66.3148 88.6414 66.277 88.4901 66.3148C88.2632 66.3526 88.112 66.4281 87.9985 66.6169C87.8851 66.8058 87.8473 67.108 87.8095 67.5234L88.9817 67.3723Z" fill="white"/>
<path d="M91.3798 70.1968L90.7545 70.2719L90.8717 69.1458L92.0442 69.0332L91.8879 70.3469C91.8488 70.7598 91.7315 71.0226 91.5361 71.2103C91.3407 71.3979 91.028 71.5105 90.5981 71.5481L90.6372 71.1727C90.8717 71.1352 91.0671 71.0601 91.1844 70.8724C91.3407 70.7223 91.3798 70.4971 91.3798 70.1968Z" fill="white"/>
<path d="M96.0077 69.7367L94.8735 69.8505L95.4406 64.9592L96.4613 64.8455L96.4236 65.2626C96.6126 65.073 96.7638 64.9213 96.9528 64.8076C97.1418 64.6938 97.3309 64.618 97.5199 64.618C97.7845 64.5801 97.9736 64.618 98.1248 64.6938C98.276 64.7696 98.3894 64.9213 98.465 65.1109C98.6541 64.8834 98.8431 64.6938 99.0321 64.5801C99.2211 64.4663 99.4102 64.3905 99.637 64.3905C99.9394 64.3526 100.166 64.4284 100.355 64.5421C100.544 64.6938 100.62 64.8834 100.658 65.1867C100.658 65.2626 100.658 65.3384 100.658 65.4521C100.658 65.5659 100.658 65.6796 100.62 65.7934L100.204 69.3196L99.0699 69.4334L99.448 66.0209C99.448 65.9071 99.4858 65.8313 99.4858 65.7555C99.4858 65.7176 99.4858 65.6417 99.4858 65.6038C99.4858 65.4901 99.448 65.3763 99.3724 65.3005C99.2967 65.2246 99.1833 65.2246 99.0699 65.2246C98.8809 65.2246 98.7675 65.3384 98.6541 65.4901C98.5406 65.6417 98.5028 65.8692 98.465 66.1726L98.087 69.5092L96.9906 69.623L97.3687 66.2105C97.3687 66.0967 97.4065 66.0209 97.4065 65.9451C97.4065 65.9071 97.4065 65.8313 97.4065 65.7934C97.4065 65.6796 97.3687 65.5659 97.2931 65.4901C97.2175 65.4142 97.104 65.4142 96.9906 65.4142C96.8016 65.4142 96.6882 65.528 96.5748 65.6796C96.4614 65.8313 96.4236 66.0588 96.3857 66.3621L96.0077 69.7367Z" fill="white"/>
<path d="M101.412 67.8434C101.412 67.6927 101.412 67.542 101.412 67.3159C101.412 67.1275 101.45 66.8637 101.45 66.6C101.487 66.1478 101.563 65.771 101.6 65.5449C101.676 65.2812 101.751 65.0928 101.827 64.9044C101.94 64.6783 102.128 64.4899 102.354 64.3392C102.58 64.1885 102.844 64.1131 103.183 64.0754C103.71 64.0377 104.125 64.1131 104.426 64.3392C104.728 64.5653 104.879 64.9044 104.916 65.4319C104.916 65.5826 104.954 65.771 104.916 65.9971C104.916 66.2232 104.878 66.4493 104.878 66.713C104.841 67.0898 104.765 67.4289 104.728 67.7304C104.652 67.9941 104.577 68.2579 104.464 68.4463C104.351 68.6724 104.163 68.8985 103.937 69.0115C103.71 69.1622 103.409 69.2376 103.108 69.2753C102.58 69.3129 102.166 69.2376 101.902 69.0115C101.638 68.7101 101.45 68.3709 101.412 67.8434ZM103.258 64.8667C103.07 64.8667 102.957 64.9421 102.882 65.0928C102.806 65.2058 102.731 65.4319 102.655 65.771C102.58 66.2232 102.542 66.6377 102.505 67.0145C102.467 67.3913 102.467 67.655 102.467 67.8434C102.505 68.0695 102.542 68.2202 102.655 68.2956C102.731 68.3709 102.882 68.4086 103.07 68.4086C103.258 68.4086 103.371 68.3333 103.484 68.1825C103.56 68.0695 103.635 67.8057 103.71 67.5043C103.786 67.0521 103.824 66.6753 103.861 66.2985C103.899 65.9217 103.899 65.658 103.899 65.4696C103.861 65.2435 103.824 65.0928 103.71 65.0174C103.597 64.9044 103.447 64.8667 103.258 64.8667Z" fill="white"/>
<path d="M107.105 63.8531L106.99 64.6472H107.028C107.143 64.3069 107.257 64.08 107.449 63.9287C107.64 63.7775 107.869 63.664 108.137 63.6262C108.175 63.6262 108.213 63.6262 108.252 63.6262C108.29 63.6262 108.29 63.6262 108.328 63.6262L108.213 64.8741C108.175 64.8741 108.099 64.8741 108.06 64.8741C108.022 64.8741 107.946 64.8741 107.907 64.8741C107.602 64.9119 107.372 64.9875 107.257 65.1388C107.105 65.29 107.028 65.5169 106.99 65.8573L106.646 68.7311L105.499 68.8446L106.072 63.9665L107.105 63.8531Z" fill="white"/>
<path d="M110.811 66.7079L111.869 66.5946C111.869 67.1989 111.756 67.6521 111.491 67.9543C111.227 68.2564 110.848 68.4453 110.281 68.5208C109.752 68.5586 109.336 68.483 109.071 68.2942C108.806 68.0676 108.617 67.7276 108.58 67.2744C108.58 67.1611 108.58 67.0478 108.58 66.9345C108.58 66.7834 108.58 66.6701 108.58 66.519C108.58 66.1036 108.617 65.7637 108.655 65.4615C108.693 65.1593 108.731 64.895 108.806 64.7061C108.92 64.2907 109.147 63.9885 109.374 63.7619C109.638 63.573 109.979 63.422 110.433 63.3842C110.924 63.3464 111.34 63.422 111.567 63.6108C111.832 63.7997 111.983 64.1396 112.021 64.5928C112.021 64.7817 112.059 64.9705 112.021 65.1971C112.021 65.4237 111.983 65.6881 111.945 65.9525L109.676 66.1791C109.638 66.4057 109.638 66.6323 109.638 66.7834C109.638 66.9723 109.638 67.0856 109.638 67.1989C109.676 67.3877 109.714 67.5388 109.827 67.6143C109.941 67.6899 110.054 67.7276 110.243 67.7276C110.433 67.6899 110.584 67.6143 110.659 67.4633C110.773 67.2744 110.811 67.0478 110.811 66.7079ZM110.962 65.2727C110.962 65.1216 111 65.0083 111 64.895C111 64.7817 111 64.7061 111 64.6306C111 64.4795 110.924 64.3662 110.848 64.2907C110.773 64.2151 110.622 64.1773 110.47 64.2151C110.243 64.2529 110.092 64.3284 109.979 64.5173C109.865 64.7061 109.827 65.0083 109.79 65.4237L110.962 65.2727Z" fill="white"/>
<path d="M114.867 67.9642L115.312 63.8368L114.867 63.8747L114.941 63.1174L115.386 63.0795L115.46 62.2843C115.497 61.9435 115.609 61.7163 115.757 61.5649C115.906 61.4134 116.165 61.3377 116.499 61.2998C116.536 61.2998 116.611 61.2998 116.722 61.2998C116.833 61.2998 116.945 61.2998 117.13 61.2998L117.019 62.1329C116.982 62.1329 116.982 62.1329 116.945 62.1329C116.907 62.1329 116.87 62.1329 116.833 62.1329C116.722 62.1329 116.611 62.1707 116.574 62.2465C116.536 62.2843 116.499 62.3979 116.462 62.5494L116.388 63.0416L116.87 63.0038L116.796 63.7611L116.351 63.799L115.906 67.9263L114.867 67.9642Z" fill="white"/>
<path d="M119.396 67.1217C119.282 67.3113 119.13 67.463 118.978 67.5768C118.826 67.6906 118.636 67.7285 118.445 67.7664C118.065 67.8043 117.761 67.7285 117.495 67.5009C117.267 67.3113 117.115 66.97 117.077 66.5907C117.039 66.1356 117.115 65.7943 117.305 65.4909C117.495 65.1875 117.875 64.9599 118.331 64.8082C118.369 64.8082 118.407 64.7703 118.484 64.7703C119.244 64.5048 119.624 64.1635 119.586 63.7842C119.586 63.6325 119.51 63.5187 119.434 63.4429C119.32 63.367 119.206 63.3291 119.054 63.367C118.864 63.405 118.712 63.4429 118.598 63.5946C118.483 63.7084 118.445 63.898 118.407 64.1635L117.305 64.2772C117.343 63.7463 117.457 63.367 117.761 63.0636C118.027 62.7981 118.445 62.6085 118.978 62.5706C119.472 62.5327 119.89 62.5706 120.157 62.7602C120.461 62.9498 120.613 63.2153 120.651 63.5946C120.651 63.6325 120.651 63.7084 120.651 63.7842C120.651 63.8601 120.651 63.9738 120.651 64.0497L120.347 66.7803C120.347 66.8562 120.347 66.932 120.347 67.0458C120.347 67.1596 120.347 67.2734 120.347 67.4251L119.32 67.5389L119.396 67.1217ZM119.51 65.1495C119.434 65.1875 119.32 65.2633 119.168 65.3392C118.483 65.7184 118.179 66.0598 118.217 66.4011C118.217 66.5907 118.293 66.7045 118.369 66.8183C118.445 66.8941 118.598 66.932 118.75 66.932C118.978 66.8941 119.168 66.7803 119.282 66.5528C119.396 66.3252 119.472 65.8322 119.51 65.1495Z" fill="white"/>
<path d="M121.206 65.6101L122.159 65.5343C122.159 65.5722 122.159 65.6101 122.159 65.6858C122.159 65.7237 122.159 65.7994 122.159 65.8751C122.197 66.1023 122.235 66.2916 122.35 66.3673C122.464 66.4809 122.579 66.5188 122.808 66.4809C122.998 66.4809 123.113 66.4052 123.189 66.2916C123.265 66.178 123.304 66.0644 123.265 65.8751C123.227 65.6479 123.037 65.4208 122.617 65.1557L122.579 65.1178C122.159 64.8907 121.892 64.6635 121.74 64.4742C121.587 64.2849 121.511 64.0198 121.473 63.7169C121.434 63.2626 121.549 62.8839 121.778 62.6189C122.045 62.3538 122.426 62.2024 122.922 62.1267C123.38 62.0888 123.761 62.1645 124.028 62.3538C124.295 62.5432 124.448 62.8839 124.486 63.3004C124.486 63.3004 124.486 63.3761 124.486 63.4519C124.486 63.5276 124.486 63.6033 124.486 63.679L123.494 63.7548V63.6033C123.456 63.3004 123.418 63.1111 123.304 62.9975C123.227 62.8839 123.075 62.8461 122.846 62.8839C122.693 62.8839 122.579 62.9596 122.503 63.0354C122.426 63.149 122.388 63.2625 122.426 63.414C122.464 63.6412 122.655 63.8684 122.998 64.0577C123.113 64.0955 123.151 64.1334 123.227 64.1713C123.571 64.3606 123.799 64.5499 123.99 64.7771C124.143 64.9664 124.257 65.2314 124.257 65.4965C124.295 65.9887 124.181 66.4052 123.952 66.6702C123.685 66.9732 123.304 67.1625 122.77 67.2003C122.274 67.2382 121.854 67.1625 121.587 66.9732C121.32 66.7838 121.167 66.4431 121.091 65.9887C121.091 65.913 121.091 65.8373 121.091 65.7615C121.206 65.7615 121.206 65.6858 121.206 65.6101Z" fill="white"/>
<path d="M126.913 60.5454L126.762 61.9408L127.253 61.9031L127.177 62.6574L126.687 62.6951L126.347 65.599V65.6368C126.347 65.6745 126.347 65.7122 126.347 65.7122C126.347 65.7876 126.385 65.863 126.46 65.9008C126.536 65.9385 126.611 65.9385 126.762 65.9385H126.875L126.762 66.7682C126.649 66.8059 126.573 66.8059 126.46 66.8436C126.385 66.8436 126.272 66.8813 126.196 66.8813C125.894 66.919 125.668 66.8813 125.517 66.7682C125.329 66.655 125.253 66.4665 125.215 66.2402C125.215 66.1647 125.215 66.0893 125.215 65.9762C125.215 65.863 125.215 65.7499 125.253 65.6368L125.593 62.8082L125.178 62.8459L125.253 62.0917L125.668 62.054L125.819 60.6586L126.913 60.5454Z" fill="white"/>
<path d="M128.546 66.5926L127.441 66.7069L127.555 65.5638L128.699 65.4495L128.546 66.5926Z" fill="white"/>
<path d="M130.722 66.3806L129.579 66.4553L129.731 65.3354L130.836 65.2607L130.722 66.3806Z" fill="white"/>
<path d="M65.3237 21.1877L70.2277 49.5429L66.5965 28.3992L65.3237 21.1877Z" fill="#FFDE12"/>
</svg>
