<svg width="440" height="127" viewBox="0 0 440 127" fill="none" xmlns="http://www.w3.org/2000/svg">
<rect width="440" height="126" transform="matrix(1 0 0 -1 0 126)" fill="#D8DCDF"/>
<path d="M34.127 30.4609V35.3477C33.9453 35.5879 33.6611 35.8516 33.2744 36.1387C32.8936 36.4199 32.3867 36.6631 31.7539 36.8682C31.1211 37.0732 30.333 37.1758 29.3896 37.1758C28.5869 37.1758 27.8516 37.041 27.1836 36.7715C26.5156 36.4961 25.9385 36.0947 25.4521 35.5674C24.9717 35.04 24.5996 34.3984 24.3359 33.6426C24.0723 32.8809 23.9404 32.0137 23.9404 31.041V30.1533C23.9404 29.1865 24.0605 28.3252 24.3008 27.5693C24.5469 26.8076 24.8984 26.1631 25.3555 25.6357C25.8125 25.1084 26.3633 24.71 27.0078 24.4404C27.6582 24.165 28.3936 24.0273 29.2139 24.0273C30.2627 24.0273 31.1299 24.2031 31.8154 24.5547C32.5068 24.9004 33.04 25.3809 33.415 25.9961C33.79 26.6113 34.0273 27.3145 34.127 28.1055H31.9648C31.8945 27.6602 31.7568 27.2617 31.5518 26.9102C31.3525 26.5586 31.0654 26.2832 30.6904 26.084C30.3213 25.8789 29.8408 25.7764 29.249 25.7764C28.7393 25.7764 28.291 25.873 27.9043 26.0664C27.5176 26.2598 27.1953 26.5439 26.9375 26.9189C26.6855 27.2939 26.4951 27.751 26.3662 28.29C26.2373 28.8291 26.1729 29.4443 26.1729 30.1357V31.041C26.1729 31.7441 26.2461 32.3682 26.3926 32.9131C26.5449 33.458 26.7617 33.918 27.043 34.293C27.3301 34.668 27.6787 34.9521 28.0889 35.1455C28.499 35.333 28.9619 35.4268 29.4775 35.4268C29.9814 35.4268 30.3945 35.3857 30.7168 35.3037C31.0391 35.2158 31.2939 35.1133 31.4814 34.9961C31.6748 34.873 31.8242 34.7559 31.9297 34.6445V32.1045H29.2666V30.4609H34.127ZM40.5518 37.1758C39.8486 37.1758 39.2129 37.0615 38.6445 36.833C38.082 36.5986 37.6016 36.2734 37.2031 35.8574C36.8105 35.4414 36.5088 34.9521 36.2979 34.3896C36.0869 33.8271 35.9814 33.2207 35.9814 32.5703V32.2188C35.9814 31.4746 36.0898 30.8008 36.3066 30.1973C36.5234 29.5938 36.8252 29.0781 37.2119 28.6504C37.5986 28.2168 38.0557 27.8857 38.583 27.6572C39.1104 27.4287 39.6816 27.3145 40.2969 27.3145C40.9766 27.3145 41.5713 27.4287 42.0811 27.6572C42.5908 27.8857 43.0127 28.208 43.3467 28.624C43.6865 29.0342 43.9385 29.5234 44.1025 30.0918C44.2725 30.6602 44.3574 31.2871 44.3574 31.9727V32.8779H37.0098V31.3574H42.2656V31.1904C42.2539 30.8096 42.1777 30.4521 42.0371 30.1182C41.9023 29.7842 41.6943 29.5146 41.4131 29.3096C41.1318 29.1045 40.7568 29.002 40.2881 29.002C39.9365 29.002 39.623 29.0781 39.3477 29.2305C39.0781 29.377 38.8525 29.5908 38.6709 29.8721C38.4893 30.1533 38.3486 30.4932 38.249 30.8916C38.1553 31.2842 38.1084 31.7266 38.1084 32.2188V32.5703C38.1084 32.9863 38.1641 33.373 38.2754 33.7305C38.3926 34.082 38.5625 34.3896 38.7852 34.6533C39.0078 34.917 39.2773 35.125 39.5938 35.2773C39.9102 35.4238 40.2705 35.4971 40.6748 35.4971C41.1846 35.4971 41.6387 35.3945 42.0371 35.1895C42.4355 34.9844 42.7812 34.6943 43.0742 34.3193L44.1904 35.4004C43.9854 35.6992 43.7188 35.9863 43.3906 36.2617C43.0625 36.5312 42.6611 36.751 42.1865 36.9209C41.7178 37.0908 41.1729 37.1758 40.5518 37.1758ZM50.3691 27.4902V29.0371H45.0078V27.4902H50.3691ZM46.5547 25.1611H48.6729V34.3721C48.6729 34.665 48.7139 34.8906 48.7959 35.0488C48.8838 35.2012 49.0039 35.3037 49.1562 35.3564C49.3086 35.4092 49.4873 35.4355 49.6924 35.4355C49.8389 35.4355 49.9795 35.4268 50.1143 35.4092C50.249 35.3916 50.3574 35.374 50.4395 35.3564L50.4482 36.9736C50.2725 37.0264 50.0674 37.0732 49.833 37.1143C49.6045 37.1553 49.3408 37.1758 49.042 37.1758C48.5557 37.1758 48.125 37.0908 47.75 36.9209C47.375 36.7451 47.082 36.4609 46.8711 36.0684C46.6602 35.6758 46.5547 35.1543 46.5547 34.5039V25.1611ZM62.1465 24.1592V37H60.0283V26.6729L56.8906 27.7363V25.9873L61.8916 24.1592H62.1465ZM68.8174 31.0498L67.1299 30.6367L67.8242 24.2031H74.7236V25.9961H69.582L69.2305 29.1338C69.4297 29.0166 69.7051 28.9023 70.0566 28.791C70.4082 28.6738 70.8096 28.6152 71.2607 28.6152C71.8643 28.6152 72.4033 28.7148 72.8779 28.9141C73.3584 29.1074 73.7656 29.3916 74.0996 29.7666C74.4336 30.1357 74.6885 30.5869 74.8643 31.1201C75.04 31.6475 75.1279 32.2422 75.1279 32.9043C75.1279 33.4961 75.04 34.0498 74.8643 34.5654C74.6943 35.0811 74.4365 35.5352 74.0908 35.9277C73.7451 36.3203 73.3086 36.6279 72.7812 36.8506C72.2598 37.0674 71.6416 37.1758 70.9268 37.1758C70.3936 37.1758 69.8809 37.0996 69.3887 36.9473C68.9023 36.7891 68.4658 36.5576 68.0791 36.2529C67.6924 35.9424 67.3818 35.5615 67.1475 35.1104C66.9131 34.6533 66.7783 34.1289 66.7432 33.5371H68.8174C68.8701 33.9531 68.9844 34.3076 69.1602 34.6006C69.3418 34.8877 69.582 35.1074 69.8809 35.2598C70.1797 35.4121 70.5254 35.4883 70.918 35.4883C71.2754 35.4883 71.583 35.4268 71.8408 35.3037C72.0986 35.1748 72.3125 34.9932 72.4824 34.7588C72.6582 34.5186 72.7871 34.2373 72.8691 33.915C72.957 33.5928 73.001 33.2354 73.001 32.8428C73.001 32.4678 72.9512 32.125 72.8516 31.8145C72.7578 31.5039 72.6143 31.2344 72.4209 31.0059C72.2334 30.7773 71.9961 30.6016 71.709 30.4785C71.4219 30.3496 71.0908 30.2852 70.7158 30.2852C70.2119 30.2852 69.8252 30.3584 69.5557 30.5049C69.292 30.6514 69.0459 30.833 68.8174 31.0498ZM76.7363 27.3408V26.6641C76.7363 26.1777 76.8418 25.7354 77.0527 25.3369C77.2637 24.9385 77.5713 24.6191 77.9756 24.3789C78.3799 24.1387 78.8662 24.0186 79.4346 24.0186C80.0205 24.0186 80.5127 24.1387 80.9111 24.3789C81.3154 24.6191 81.623 24.9385 81.834 25.3369C82.0449 25.7354 82.1504 26.1777 82.1504 26.6641V27.3408C82.1504 27.8154 82.0449 28.252 81.834 28.6504C81.6289 29.0488 81.3242 29.3682 80.9199 29.6084C80.5215 29.8486 80.0322 29.9688 79.4521 29.9688C78.8779 29.9688 78.3857 29.8486 77.9756 29.6084C77.5713 29.3682 77.2637 29.0488 77.0527 28.6504C76.8418 28.252 76.7363 27.8154 76.7363 27.3408ZM78.2041 26.6641V27.3408C78.2041 27.5752 78.248 27.7979 78.3359 28.0088C78.4297 28.2197 78.5703 28.3896 78.7578 28.5186C78.9453 28.6475 79.1768 28.7119 79.4521 28.7119C79.7334 28.7119 79.9619 28.6475 80.1377 28.5186C80.3193 28.3896 80.4541 28.2197 80.542 28.0088C80.6299 27.7979 80.6738 27.5752 80.6738 27.3408V26.6641C80.6738 26.4238 80.627 26.1982 80.5332 25.9873C80.4453 25.7705 80.3105 25.5977 80.1289 25.4688C79.9473 25.3398 79.7158 25.2754 79.4346 25.2754C79.165 25.2754 78.9365 25.3398 78.749 25.4688C78.5674 25.5977 78.4297 25.7705 78.3359 25.9873C78.248 26.1982 78.2041 26.4238 78.2041 26.6641ZM82.9062 34.5479V33.8623C82.9062 33.3818 83.0117 32.9424 83.2227 32.5439C83.4395 32.1455 83.75 31.8262 84.1543 31.5859C84.5586 31.3457 85.0449 31.2256 85.6133 31.2256C86.1992 31.2256 86.6914 31.3457 87.0898 31.5859C87.4941 31.8262 87.7988 32.1455 88.0039 32.5439C88.2148 32.9424 88.3203 33.3818 88.3203 33.8623V34.5479C88.3203 35.0283 88.2148 35.4678 88.0039 35.8662C87.7988 36.2646 87.4971 36.584 87.0986 36.8242C86.7002 37.0645 86.2139 37.1846 85.6396 37.1846C85.0596 37.1846 84.5645 37.0645 84.1543 36.8242C83.75 36.584 83.4395 36.2646 83.2227 35.8662C83.0117 35.4678 82.9062 35.0283 82.9062 34.5479ZM84.3828 33.8623V34.5479C84.3828 34.7822 84.4297 35.0049 84.5234 35.2158C84.623 35.4268 84.7666 35.5996 84.9541 35.7344C85.1416 35.8633 85.3672 35.9277 85.6309 35.9277C85.9297 35.9277 86.1699 35.8633 86.3516 35.7344C86.5332 35.5996 86.6621 35.4297 86.7383 35.2246C86.8203 35.0137 86.8613 34.7881 86.8613 34.5479V33.8623C86.8613 33.6221 86.8145 33.3965 86.7207 33.1855C86.6328 32.9746 86.4951 32.8047 86.3076 32.6758C86.126 32.5469 85.8945 32.4824 85.6133 32.4824C85.3379 32.4824 85.1094 32.5469 84.9277 32.6758C84.7461 32.8047 84.6084 32.9746 84.5146 33.1855C84.4268 33.3965 84.3828 33.6221 84.3828 33.8623ZM86.1406 26.0312L79.8916 36.0332L78.8105 35.4092L85.0596 25.4072L86.1406 26.0312ZM94.2793 32.3506V32.1484C94.2793 31.4629 94.3789 30.8271 94.5781 30.2412C94.7773 29.6494 95.0645 29.1367 95.4395 28.7031C95.8203 28.2637 96.2832 27.9238 96.8281 27.6836C97.3789 27.4375 98 27.3145 98.6914 27.3145C99.3887 27.3145 100.01 27.4375 100.555 27.6836C101.105 27.9238 101.571 28.2637 101.952 28.7031C102.333 29.1367 102.623 29.6494 102.822 30.2412C103.021 30.8271 103.121 31.4629 103.121 32.1484V32.3506C103.121 33.0361 103.021 33.6719 102.822 34.2578C102.623 34.8438 102.333 35.3564 101.952 35.7959C101.571 36.2295 101.108 36.5693 100.563 36.8154C100.019 37.0557 99.4004 37.1758 98.709 37.1758C98.0117 37.1758 97.3877 37.0557 96.8369 36.8154C96.292 36.5693 95.8291 36.2295 95.4482 35.7959C95.0674 35.3564 94.7773 34.8438 94.5781 34.2578C94.3789 33.6719 94.2793 33.0361 94.2793 32.3506ZM96.3975 32.1484V32.3506C96.3975 32.7783 96.4414 33.1826 96.5293 33.5635C96.6172 33.9443 96.7549 34.2783 96.9424 34.5654C97.1299 34.8525 97.3701 35.0781 97.6631 35.2422C97.9561 35.4062 98.3047 35.4883 98.709 35.4883C99.1016 35.4883 99.4414 35.4062 99.7285 35.2422C100.021 35.0781 100.262 34.8525 100.449 34.5654C100.637 34.2783 100.774 33.9443 100.862 33.5635C100.956 33.1826 101.003 32.7783 101.003 32.3506V32.1484C101.003 31.7266 100.956 31.3281 100.862 30.9531C100.774 30.5723 100.634 30.2354 100.44 29.9424C100.253 29.6494 100.013 29.4209 99.7197 29.2568C99.4326 29.0869 99.0898 29.002 98.6914 29.002C98.293 29.002 97.9473 29.0869 97.6543 29.2568C97.3672 29.4209 97.1299 29.6494 96.9424 29.9424C96.7549 30.2354 96.6172 30.5723 96.5293 30.9531C96.4414 31.3281 96.3975 31.7266 96.3975 32.1484ZM107.762 37H105.644V26.5762C105.644 25.8672 105.775 25.2725 106.039 24.792C106.309 24.3057 106.692 23.9395 107.19 23.6934C107.688 23.4414 108.277 23.3154 108.957 23.3154C109.168 23.3154 109.376 23.3301 109.581 23.3594C109.786 23.3828 109.985 23.4209 110.179 23.4736L110.126 25.1084C110.009 25.0791 109.88 25.0586 109.739 25.0469C109.604 25.0352 109.458 25.0293 109.3 25.0293C108.978 25.0293 108.699 25.0908 108.465 25.2139C108.236 25.3311 108.061 25.5039 107.938 25.7324C107.82 25.9609 107.762 26.2422 107.762 26.5762V37ZM109.722 27.4902V29.0371H104.185V27.4902H109.722ZM114.125 37H112.007V26.5762C112.007 25.8672 112.139 25.2725 112.402 24.792C112.672 24.3057 113.056 23.9395 113.554 23.6934C114.052 23.4414 114.641 23.3154 115.32 23.3154C115.531 23.3154 115.739 23.3301 115.944 23.3594C116.149 23.3828 116.349 23.4209 116.542 23.4736L116.489 25.1084C116.372 25.0791 116.243 25.0586 116.103 25.0469C115.968 25.0352 115.821 25.0293 115.663 25.0293C115.341 25.0293 115.062 25.0908 114.828 25.2139C114.6 25.3311 114.424 25.5039 114.301 25.7324C114.184 25.9609 114.125 26.2422 114.125 26.5762V37ZM116.085 27.4902V29.0371H110.548V27.4902H116.085Z" fill="black"/>
<path d="M30.3828 57.125C30.3828 56.8594 30.3411 56.625 30.2578 56.4219C30.1797 56.2135 30.0391 56.026 29.8359 55.8594C29.638 55.6927 29.362 55.5339 29.0078 55.3828C28.6589 55.2318 28.2161 55.0781 27.6797 54.9219C27.1172 54.7552 26.6094 54.5703 26.1562 54.3672C25.7031 54.1589 25.3151 53.9219 24.9922 53.6562C24.6693 53.3906 24.4219 53.0859 24.25 52.7422C24.0781 52.3984 23.9922 52.0052 23.9922 51.5625C23.9922 51.1198 24.0833 50.7109 24.2656 50.3359C24.4479 49.9609 24.7083 49.6354 25.0469 49.3594C25.3906 49.0781 25.7995 48.8594 26.2734 48.7031C26.7474 48.5469 27.276 48.4688 27.8594 48.4688C28.7135 48.4688 29.4375 48.6328 30.0312 48.9609C30.6302 49.2839 31.0859 49.7083 31.3984 50.2344C31.7109 50.7552 31.8672 51.3125 31.8672 51.9062H30.3672C30.3672 51.4792 30.276 51.1016 30.0938 50.7734C29.9115 50.4401 29.6354 50.1797 29.2656 49.9922C28.8958 49.7995 28.4271 49.7031 27.8594 49.7031C27.3229 49.7031 26.8802 49.7839 26.5312 49.9453C26.1823 50.1068 25.9219 50.3255 25.75 50.6016C25.5833 50.8776 25.5 51.1927 25.5 51.5469C25.5 51.7865 25.5495 52.0052 25.6484 52.2031C25.7526 52.3958 25.9115 52.5755 26.125 52.7422C26.3438 52.9089 26.6198 53.0625 26.9531 53.2031C27.2917 53.3438 27.6953 53.4792 28.1641 53.6094C28.8099 53.7917 29.3672 53.9948 29.8359 54.2188C30.3047 54.4427 30.6901 54.6953 30.9922 54.9766C31.2995 55.2526 31.526 55.5677 31.6719 55.9219C31.8229 56.2708 31.8984 56.6667 31.8984 57.1094C31.8984 57.5729 31.8047 57.9922 31.6172 58.3672C31.4297 58.7422 31.1615 59.0625 30.8125 59.3281C30.4635 59.5938 30.0443 59.7995 29.5547 59.9453C29.0703 60.0859 28.5286 60.1562 27.9297 60.1562C27.4036 60.1562 26.8854 60.0833 26.375 59.9375C25.8698 59.7917 25.4089 59.5729 24.9922 59.2812C24.5807 58.9896 24.25 58.6302 24 58.2031C23.7552 57.7708 23.6328 57.2708 23.6328 56.7031H25.1328C25.1328 57.0938 25.2083 57.4297 25.3594 57.7109C25.5104 57.987 25.7161 58.2161 25.9766 58.3984C26.2422 58.5807 26.5417 58.7161 26.875 58.8047C27.2135 58.888 27.5651 58.9297 27.9297 58.9297C28.4557 58.9297 28.901 58.8568 29.2656 58.7109C29.6302 58.5651 29.9062 58.3568 30.0938 58.0859C30.2865 57.8151 30.3828 57.4948 30.3828 57.125ZM38.5859 58.5547V54.2031C38.5859 53.8698 38.5182 53.5807 38.3828 53.3359C38.2526 53.0859 38.0547 52.8932 37.7891 52.7578C37.5234 52.6224 37.1953 52.5547 36.8047 52.5547C36.4401 52.5547 36.1198 52.6172 35.8438 52.7422C35.5729 52.8672 35.3594 53.0312 35.2031 53.2344C35.0521 53.4375 34.9766 53.6562 34.9766 53.8906H33.5312C33.5312 53.5885 33.6094 53.2891 33.7656 52.9922C33.9219 52.6953 34.1458 52.4271 34.4375 52.1875C34.7344 51.9427 35.0885 51.75 35.5 51.6094C35.9167 51.4635 36.3802 51.3906 36.8906 51.3906C37.5052 51.3906 38.0469 51.4948 38.5156 51.7031C38.9896 51.9115 39.3594 52.2266 39.625 52.6484C39.8958 53.0651 40.0312 53.5885 40.0312 54.2188V58.1562C40.0312 58.4375 40.0547 58.737 40.1016 59.0547C40.1536 59.3724 40.2292 59.6458 40.3281 59.875V60H38.8203C38.7474 59.8333 38.6901 59.612 38.6484 59.3359C38.6068 59.0547 38.5859 58.7943 38.5859 58.5547ZM38.8359 54.875L38.8516 55.8906H37.3906C36.9792 55.8906 36.612 55.9245 36.2891 55.9922C35.9661 56.0547 35.6953 56.151 35.4766 56.2812C35.2578 56.4115 35.0911 56.5755 34.9766 56.7734C34.862 56.9661 34.8047 57.1927 34.8047 57.4531C34.8047 57.7188 34.8646 57.9609 34.9844 58.1797C35.1042 58.3984 35.2839 58.5729 35.5234 58.7031C35.7682 58.8281 36.0677 58.8906 36.4219 58.8906C36.8646 58.8906 37.2552 58.7969 37.5938 58.6094C37.9323 58.4219 38.2005 58.1927 38.3984 57.9219C38.6016 57.651 38.7109 57.388 38.7266 57.1328L39.3438 57.8281C39.3073 58.0469 39.2083 58.2891 39.0469 58.5547C38.8854 58.8203 38.6693 59.0755 38.3984 59.3203C38.1328 59.5599 37.8151 59.7604 37.4453 59.9219C37.0807 60.0781 36.6693 60.1562 36.2109 60.1562C35.638 60.1562 35.1354 60.0443 34.7031 59.8203C34.276 59.5964 33.9427 59.2969 33.7031 58.9219C33.4688 58.5417 33.3516 58.1172 33.3516 57.6484C33.3516 57.1953 33.4401 56.7969 33.6172 56.4531C33.7943 56.1042 34.0495 55.8151 34.3828 55.5859C34.7161 55.3516 35.1172 55.1745 35.5859 55.0547C36.0547 54.9349 36.5781 54.875 37.1562 54.875H38.8359ZM44.875 58.6953L47.1875 51.5469H48.6641L45.625 60H44.6562L44.875 58.6953ZM42.9453 51.5469L45.3281 58.7344L45.4922 60H44.5234L41.4609 51.5469H42.9453ZM53.5625 60.1562C52.974 60.1562 52.4401 60.0573 51.9609 59.8594C51.487 59.6562 51.0781 59.3724 50.7344 59.0078C50.3958 58.6432 50.1354 58.2109 49.9531 57.7109C49.7708 57.2109 49.6797 56.6641 49.6797 56.0703V55.7422C49.6797 55.0547 49.7812 54.4427 49.9844 53.9062C50.1875 53.3646 50.4635 52.9062 50.8125 52.5312C51.1615 52.1562 51.5573 51.8724 52 51.6797C52.4427 51.487 52.901 51.3906 53.375 51.3906C53.9792 51.3906 54.5 51.4948 54.9375 51.7031C55.3802 51.9115 55.7422 52.2031 56.0234 52.5781C56.3047 52.9479 56.513 53.3854 56.6484 53.8906C56.7839 54.3906 56.8516 54.9375 56.8516 55.5312V56.1797H50.5391V55H55.4062V54.8906C55.3854 54.5156 55.3073 54.151 55.1719 53.7969C55.0417 53.4427 54.8333 53.151 54.5469 52.9219C54.2604 52.6927 53.8698 52.5781 53.375 52.5781C53.0469 52.5781 52.7448 52.6484 52.4688 52.7891C52.1927 52.9245 51.9557 53.1276 51.7578 53.3984C51.5599 53.6693 51.4062 54 51.2969 54.3906C51.1875 54.7812 51.1328 55.2318 51.1328 55.7422V56.0703C51.1328 56.4714 51.1875 56.849 51.2969 57.2031C51.4115 57.5521 51.5755 57.8594 51.7891 58.125C52.0078 58.3906 52.2708 58.599 52.5781 58.75C52.8906 58.901 53.2448 58.9766 53.6406 58.9766C54.151 58.9766 54.5833 58.8724 54.9375 58.6641C55.2917 58.4557 55.6016 58.1771 55.8672 57.8281L56.7422 58.5234C56.5599 58.7995 56.3281 59.0625 56.0469 59.3125C55.7656 59.5625 55.4193 59.7656 55.0078 59.9219C54.6016 60.0781 54.1198 60.1562 53.5625 60.1562ZM63.9453 53.2266V60H62.4922V51.5469H63.8672L63.9453 53.2266ZM63.6484 55.4531L62.9766 55.4297C62.9818 54.8516 63.0573 54.3177 63.2031 53.8281C63.349 53.3333 63.5651 52.9036 63.8516 52.5391C64.138 52.1745 64.4948 51.8932 64.9219 51.6953C65.349 51.4922 65.8438 51.3906 66.4062 51.3906C66.8021 51.3906 67.1667 51.4479 67.5 51.5625C67.8333 51.6719 68.1224 51.8464 68.3672 52.0859C68.612 52.3255 68.8021 52.6328 68.9375 53.0078C69.0729 53.3828 69.1406 53.8359 69.1406 54.3672V60H67.6953V54.4375C67.6953 53.9948 67.6198 53.6406 67.4688 53.375C67.3229 53.1094 67.1146 52.9167 66.8438 52.7969C66.5729 52.6719 66.2552 52.6094 65.8906 52.6094C65.4635 52.6094 65.1068 52.6849 64.8203 52.8359C64.5339 52.987 64.3047 53.1953 64.1328 53.4609C63.9609 53.7266 63.8359 54.0312 63.7578 54.375C63.6849 54.7135 63.6484 55.0729 63.6484 55.4531ZM69.125 54.6562L68.1562 54.9531C68.1615 54.4896 68.237 54.0443 68.3828 53.6172C68.5339 53.1901 68.75 52.8099 69.0312 52.4766C69.3177 52.1432 69.6693 51.8802 70.0859 51.6875C70.5026 51.4896 70.9792 51.3906 71.5156 51.3906C71.9688 51.3906 72.3698 51.4505 72.7188 51.5703C73.0729 51.6901 73.3698 51.875 73.6094 52.125C73.8542 52.3698 74.0391 52.6849 74.1641 53.0703C74.2891 53.4557 74.3516 53.9141 74.3516 54.4453V60H72.8984V54.4297C72.8984 53.9557 72.8229 53.5885 72.6719 53.3281C72.526 53.0625 72.3177 52.8776 72.0469 52.7734C71.7812 52.6641 71.4635 52.6094 71.0938 52.6094C70.776 52.6094 70.4948 52.6641 70.25 52.7734C70.0052 52.8828 69.7995 53.0339 69.6328 53.2266C69.4661 53.4141 69.3385 53.6302 69.25 53.875C69.1667 54.1198 69.125 54.3802 69.125 54.6562ZM76.1562 55.8672V55.6875C76.1562 55.0781 76.2448 54.513 76.4219 53.9922C76.599 53.4661 76.8542 53.0104 77.1875 52.625C77.5208 52.2344 77.9245 51.9323 78.3984 51.7188C78.8724 51.5 79.4036 51.3906 79.9922 51.3906C80.5859 51.3906 81.1198 51.5 81.5938 51.7188C82.0729 51.9323 82.4792 52.2344 82.8125 52.625C83.151 53.0104 83.4089 53.4661 83.5859 53.9922C83.763 54.513 83.8516 55.0781 83.8516 55.6875V55.8672C83.8516 56.4766 83.763 57.0417 83.5859 57.5625C83.4089 58.0833 83.151 58.5391 82.8125 58.9297C82.4792 59.3151 82.0755 59.6172 81.6016 59.8359C81.1328 60.0495 80.6016 60.1562 80.0078 60.1562C79.4141 60.1562 78.8802 60.0495 78.4062 59.8359C77.9323 59.6172 77.526 59.3151 77.1875 58.9297C76.8542 58.5391 76.599 58.0833 76.4219 57.5625C76.2448 57.0417 76.1562 56.4766 76.1562 55.8672ZM77.6016 55.6875V55.8672C77.6016 56.2891 77.651 56.6875 77.75 57.0625C77.849 57.4323 77.9974 57.7604 78.1953 58.0469C78.3984 58.3333 78.651 58.5599 78.9531 58.7266C79.2552 58.888 79.6068 58.9688 80.0078 58.9688C80.4036 58.9688 80.75 58.888 81.0469 58.7266C81.349 58.5599 81.599 58.3333 81.7969 58.0469C81.9948 57.7604 82.1432 57.4323 82.2422 57.0625C82.3464 56.6875 82.3984 56.2891 82.3984 55.8672V55.6875C82.3984 55.2708 82.3464 54.8776 82.2422 54.5078C82.1432 54.1328 81.9922 53.8021 81.7891 53.5156C81.5911 53.224 81.3411 52.9948 81.0391 52.8281C80.7422 52.6615 80.3932 52.5781 79.9922 52.5781C79.5964 52.5781 79.2474 52.6615 78.9453 52.8281C78.6484 52.9948 78.3984 53.224 78.1953 53.5156C77.9974 53.8021 77.849 54.1328 77.75 54.5078C77.651 54.8776 77.6016 55.2708 77.6016 55.6875ZM87.1094 52.875V60H85.6641V51.5469H87.0703L87.1094 52.875ZM89.75 51.5L89.7422 52.8438C89.6224 52.8177 89.5078 52.8021 89.3984 52.7969C89.2943 52.7865 89.1745 52.7812 89.0391 52.7812C88.7057 52.7812 88.4115 52.8333 88.1562 52.9375C87.901 53.0417 87.6849 53.1875 87.5078 53.375C87.3307 53.5625 87.1901 53.7865 87.0859 54.0469C86.987 54.3021 86.9219 54.5833 86.8906 54.8906L86.4844 55.125C86.4844 54.6146 86.5339 54.1354 86.6328 53.6875C86.737 53.2396 86.8958 52.8438 87.1094 52.5C87.3229 52.151 87.5938 51.8802 87.9219 51.6875C88.2552 51.4896 88.651 51.3906 89.1094 51.3906C89.2135 51.3906 89.3333 51.4036 89.4688 51.4297C89.6042 51.4505 89.6979 51.474 89.75 51.5ZM94.5938 60.1562C94.0052 60.1562 93.4714 60.0573 92.9922 59.8594C92.5182 59.6562 92.1094 59.3724 91.7656 59.0078C91.4271 58.6432 91.1667 58.2109 90.9844 57.7109C90.8021 57.2109 90.7109 56.6641 90.7109 56.0703V55.7422C90.7109 55.0547 90.8125 54.4427 91.0156 53.9062C91.2188 53.3646 91.4948 52.9062 91.8438 52.5312C92.1927 52.1562 92.5885 51.8724 93.0312 51.6797C93.474 51.487 93.9323 51.3906 94.4062 51.3906C95.0104 51.3906 95.5312 51.4948 95.9688 51.7031C96.4115 51.9115 96.7734 52.2031 97.0547 52.5781C97.3359 52.9479 97.5443 53.3854 97.6797 53.8906C97.8151 54.3906 97.8828 54.9375 97.8828 55.5312V56.1797H91.5703V55H96.4375V54.8906C96.4167 54.5156 96.3385 54.151 96.2031 53.7969C96.0729 53.4427 95.8646 53.151 95.5781 52.9219C95.2917 52.6927 94.901 52.5781 94.4062 52.5781C94.0781 52.5781 93.776 52.6484 93.5 52.7891C93.224 52.9245 92.987 53.1276 92.7891 53.3984C92.5911 53.6693 92.4375 54 92.3281 54.3906C92.2188 54.7812 92.1641 55.2318 92.1641 55.7422V56.0703C92.1641 56.4714 92.2188 56.849 92.3281 57.2031C92.4427 57.5521 92.6068 57.8594 92.8203 58.125C93.0391 58.3906 93.3021 58.599 93.6094 58.75C93.9219 58.901 94.276 58.9766 94.6719 58.9766C95.1823 58.9766 95.6146 58.8724 95.9688 58.6641C96.3229 58.4557 96.6328 58.1771 96.8984 57.8281L97.7734 58.5234C97.5911 58.7995 97.3594 59.0625 97.0781 59.3125C96.7969 59.5625 96.4505 59.7656 96.0391 59.9219C95.6328 60.0781 95.151 60.1562 94.5938 60.1562ZM103.156 55.8672V55.6875C103.156 55.0781 103.245 54.513 103.422 53.9922C103.599 53.4661 103.854 53.0104 104.188 52.625C104.521 52.2344 104.924 51.9323 105.398 51.7188C105.872 51.5 106.404 51.3906 106.992 51.3906C107.586 51.3906 108.12 51.5 108.594 51.7188C109.073 51.9323 109.479 52.2344 109.812 52.625C110.151 53.0104 110.409 53.4661 110.586 53.9922C110.763 54.513 110.852 55.0781 110.852 55.6875V55.8672C110.852 56.4766 110.763 57.0417 110.586 57.5625C110.409 58.0833 110.151 58.5391 109.812 58.9297C109.479 59.3151 109.076 59.6172 108.602 59.8359C108.133 60.0495 107.602 60.1562 107.008 60.1562C106.414 60.1562 105.88 60.0495 105.406 59.8359C104.932 59.6172 104.526 59.3151 104.188 58.9297C103.854 58.5391 103.599 58.0833 103.422 57.5625C103.245 57.0417 103.156 56.4766 103.156 55.8672ZM104.602 55.6875V55.8672C104.602 56.2891 104.651 56.6875 104.75 57.0625C104.849 57.4323 104.997 57.7604 105.195 58.0469C105.398 58.3333 105.651 58.5599 105.953 58.7266C106.255 58.888 106.607 58.9688 107.008 58.9688C107.404 58.9688 107.75 58.888 108.047 58.7266C108.349 58.5599 108.599 58.3333 108.797 58.0469C108.995 57.7604 109.143 57.4323 109.242 57.0625C109.346 56.6875 109.398 56.2891 109.398 55.8672V55.6875C109.398 55.2708 109.346 54.8776 109.242 54.5078C109.143 54.1328 108.992 53.8021 108.789 53.5156C108.591 53.224 108.341 52.9948 108.039 52.8281C107.742 52.6615 107.393 52.5781 106.992 52.5781C106.596 52.5781 106.247 52.6615 105.945 52.8281C105.648 52.9948 105.398 53.224 105.195 53.5156C104.997 53.8021 104.849 54.1328 104.75 54.5078C104.651 54.8776 104.602 55.2708 104.602 55.6875ZM114.109 53.3516V60H112.664V51.5469H114.031L114.109 53.3516ZM113.766 55.4531L113.164 55.4297C113.169 54.8516 113.255 54.3177 113.422 53.8281C113.589 53.3333 113.823 52.9036 114.125 52.5391C114.427 52.1745 114.786 51.8932 115.203 51.6953C115.625 51.4922 116.091 51.3906 116.602 51.3906C117.018 51.3906 117.393 51.4479 117.727 51.5625C118.06 51.6719 118.344 51.849 118.578 52.0938C118.818 52.3385 119 52.6562 119.125 53.0469C119.25 53.4323 119.312 53.9036 119.312 54.4609V60H117.859V54.4453C117.859 54.0026 117.794 53.6484 117.664 53.3828C117.534 53.112 117.344 52.9167 117.094 52.7969C116.844 52.6719 116.536 52.6094 116.172 52.6094C115.812 52.6094 115.484 52.6849 115.188 52.8359C114.896 52.987 114.643 53.1953 114.43 53.4609C114.221 53.7266 114.057 54.0312 113.938 54.375C113.823 54.7135 113.766 55.0729 113.766 55.4531ZM128.984 60.1562C128.396 60.1562 127.862 60.0573 127.383 59.8594C126.909 59.6562 126.5 59.3724 126.156 59.0078C125.818 58.6432 125.557 58.2109 125.375 57.7109C125.193 57.2109 125.102 56.6641 125.102 56.0703V55.7422C125.102 55.0547 125.203 54.4427 125.406 53.9062C125.609 53.3646 125.885 52.9062 126.234 52.5312C126.583 52.1562 126.979 51.8724 127.422 51.6797C127.865 51.487 128.323 51.3906 128.797 51.3906C129.401 51.3906 129.922 51.4948 130.359 51.7031C130.802 51.9115 131.164 52.2031 131.445 52.5781C131.727 52.9479 131.935 53.3854 132.07 53.8906C132.206 54.3906 132.273 54.9375 132.273 55.5312V56.1797H125.961V55H130.828V54.8906C130.807 54.5156 130.729 54.151 130.594 53.7969C130.464 53.4427 130.255 53.151 129.969 52.9219C129.682 52.6927 129.292 52.5781 128.797 52.5781C128.469 52.5781 128.167 52.6484 127.891 52.7891C127.615 52.9245 127.378 53.1276 127.18 53.3984C126.982 53.6693 126.828 54 126.719 54.3906C126.609 54.7812 126.555 55.2318 126.555 55.7422V56.0703C126.555 56.4714 126.609 56.849 126.719 57.2031C126.833 57.5521 126.997 57.8594 127.211 58.125C127.43 58.3906 127.693 58.599 128 58.75C128.312 58.901 128.667 58.9766 129.062 58.9766C129.573 58.9766 130.005 58.8724 130.359 58.6641C130.714 58.4557 131.023 58.1771 131.289 57.8281L132.164 58.5234C131.982 58.7995 131.75 59.0625 131.469 59.3125C131.188 59.5625 130.841 59.7656 130.43 59.9219C130.023 60.0781 129.542 60.1562 128.984 60.1562ZM136.531 58.6953L138.844 51.5469H140.32L137.281 60H136.312L136.531 58.6953ZM134.602 51.5469L136.984 58.7344L137.148 60H136.18L133.117 51.5469H134.602ZM145.219 60.1562C144.63 60.1562 144.096 60.0573 143.617 59.8594C143.143 59.6562 142.734 59.3724 142.391 59.0078C142.052 58.6432 141.792 58.2109 141.609 57.7109C141.427 57.2109 141.336 56.6641 141.336 56.0703V55.7422C141.336 55.0547 141.438 54.4427 141.641 53.9062C141.844 53.3646 142.12 52.9062 142.469 52.5312C142.818 52.1562 143.214 51.8724 143.656 51.6797C144.099 51.487 144.557 51.3906 145.031 51.3906C145.635 51.3906 146.156 51.4948 146.594 51.7031C147.036 51.9115 147.398 52.2031 147.68 52.5781C147.961 52.9479 148.169 53.3854 148.305 53.8906C148.44 54.3906 148.508 54.9375 148.508 55.5312V56.1797H142.195V55H147.062V54.8906C147.042 54.5156 146.964 54.151 146.828 53.7969C146.698 53.4427 146.49 53.151 146.203 52.9219C145.917 52.6927 145.526 52.5781 145.031 52.5781C144.703 52.5781 144.401 52.6484 144.125 52.7891C143.849 52.9245 143.612 53.1276 143.414 53.3984C143.216 53.6693 143.062 54 142.953 54.3906C142.844 54.7812 142.789 55.2318 142.789 55.7422V56.0703C142.789 56.4714 142.844 56.849 142.953 57.2031C143.068 57.5521 143.232 57.8594 143.445 58.125C143.664 58.3906 143.927 58.599 144.234 58.75C144.547 58.901 144.901 58.9766 145.297 58.9766C145.807 58.9766 146.24 58.8724 146.594 58.6641C146.948 58.4557 147.258 58.1771 147.523 57.8281L148.398 58.5234C148.216 58.7995 147.984 59.0625 147.703 59.3125C147.422 59.5625 147.076 59.7656 146.664 59.9219C146.258 60.0781 145.776 60.1562 145.219 60.1562ZM151.641 52.875V60H150.195V51.5469H151.602L151.641 52.875ZM154.281 51.5L154.273 52.8438C154.154 52.8177 154.039 52.8021 153.93 52.7969C153.826 52.7865 153.706 52.7812 153.57 52.7812C153.237 52.7812 152.943 52.8333 152.688 52.9375C152.432 53.0417 152.216 53.1875 152.039 53.375C151.862 53.5625 151.721 53.7865 151.617 54.0469C151.518 54.3021 151.453 54.5833 151.422 54.8906L151.016 55.125C151.016 54.6146 151.065 54.1354 151.164 53.6875C151.268 53.2396 151.427 52.8438 151.641 52.5C151.854 52.151 152.125 51.8802 152.453 51.6875C152.786 51.4896 153.182 51.3906 153.641 51.3906C153.745 51.3906 153.865 51.4036 154 51.4297C154.135 51.4505 154.229 51.474 154.281 51.5ZM157.992 59.125L160.344 51.5469H161.891L158.5 61.3047C158.422 61.513 158.318 61.737 158.188 61.9766C158.062 62.2214 157.901 62.4531 157.703 62.6719C157.505 62.8906 157.266 63.0677 156.984 63.2031C156.708 63.3438 156.378 63.4141 155.992 63.4141C155.878 63.4141 155.732 63.3984 155.555 63.3672C155.378 63.3359 155.253 63.3099 155.18 63.2891L155.172 62.1172C155.214 62.1224 155.279 62.1276 155.367 62.1328C155.461 62.1432 155.526 62.1484 155.562 62.1484C155.891 62.1484 156.169 62.1042 156.398 62.0156C156.628 61.9323 156.82 61.7891 156.977 61.5859C157.138 61.388 157.276 61.1146 157.391 60.7656L157.992 59.125ZM156.266 51.5469L158.461 58.1094L158.836 59.6328L157.797 60.1641L154.688 51.5469H156.266ZM166.781 55.8672V55.6875C166.781 55.0781 166.87 54.513 167.047 53.9922C167.224 53.4661 167.479 53.0104 167.812 52.625C168.146 52.2344 168.549 51.9323 169.023 51.7188C169.497 51.5 170.029 51.3906 170.617 51.3906C171.211 51.3906 171.745 51.5 172.219 51.7188C172.698 51.9323 173.104 52.2344 173.438 52.625C173.776 53.0104 174.034 53.4661 174.211 53.9922C174.388 54.513 174.477 55.0781 174.477 55.6875V55.8672C174.477 56.4766 174.388 57.0417 174.211 57.5625C174.034 58.0833 173.776 58.5391 173.438 58.9297C173.104 59.3151 172.701 59.6172 172.227 59.8359C171.758 60.0495 171.227 60.1562 170.633 60.1562C170.039 60.1562 169.505 60.0495 169.031 59.8359C168.557 59.6172 168.151 59.3151 167.812 58.9297C167.479 58.5391 167.224 58.0833 167.047 57.5625C166.87 57.0417 166.781 56.4766 166.781 55.8672ZM168.227 55.6875V55.8672C168.227 56.2891 168.276 56.6875 168.375 57.0625C168.474 57.4323 168.622 57.7604 168.82 58.0469C169.023 58.3333 169.276 58.5599 169.578 58.7266C169.88 58.888 170.232 58.9688 170.633 58.9688C171.029 58.9688 171.375 58.888 171.672 58.7266C171.974 58.5599 172.224 58.3333 172.422 58.0469C172.62 57.7604 172.768 57.4323 172.867 57.0625C172.971 56.6875 173.023 56.2891 173.023 55.8672V55.6875C173.023 55.2708 172.971 54.8776 172.867 54.5078C172.768 54.1328 172.617 53.8021 172.414 53.5156C172.216 53.224 171.966 52.9948 171.664 52.8281C171.367 52.6615 171.018 52.5781 170.617 52.5781C170.221 52.5781 169.872 52.6615 169.57 52.8281C169.273 52.9948 169.023 53.224 168.82 53.5156C168.622 53.8021 168.474 54.1328 168.375 54.5078C168.276 54.8776 168.227 55.2708 168.227 55.6875ZM177.734 52.875V60H176.289V51.5469H177.695L177.734 52.875ZM180.375 51.5L180.367 52.8438C180.247 52.8177 180.133 52.8021 180.023 52.7969C179.919 52.7865 179.799 52.7812 179.664 52.7812C179.331 52.7812 179.036 52.8333 178.781 52.9375C178.526 53.0417 178.31 53.1875 178.133 53.375C177.956 53.5625 177.815 53.7865 177.711 54.0469C177.612 54.3021 177.547 54.5833 177.516 54.8906L177.109 55.125C177.109 54.6146 177.159 54.1354 177.258 53.6875C177.362 53.2396 177.521 52.8438 177.734 52.5C177.948 52.151 178.219 51.8802 178.547 51.6875C178.88 51.4896 179.276 51.3906 179.734 51.3906C179.839 51.3906 179.958 51.4036 180.094 51.4297C180.229 51.4505 180.323 51.474 180.375 51.5ZM187.039 58.3594V48H188.492V60H187.164L187.039 58.3594ZM181.352 55.8672V55.7031C181.352 55.0573 181.43 54.4714 181.586 53.9453C181.747 53.4141 181.974 52.9583 182.266 52.5781C182.562 52.1979 182.914 51.9062 183.32 51.7031C183.732 51.4948 184.19 51.3906 184.695 51.3906C185.227 51.3906 185.69 51.4844 186.086 51.6719C186.487 51.8542 186.826 52.1224 187.102 52.4766C187.383 52.8255 187.604 53.2474 187.766 53.7422C187.927 54.237 188.039 54.7969 188.102 55.4219V56.1406C188.044 56.7604 187.932 57.3177 187.766 57.8125C187.604 58.3073 187.383 58.7292 187.102 59.0781C186.826 59.4271 186.487 59.6953 186.086 59.8828C185.685 60.0651 185.216 60.1562 184.68 60.1562C184.185 60.1562 183.732 60.0495 183.32 59.8359C182.914 59.6224 182.562 59.3229 182.266 58.9375C181.974 58.5521 181.747 58.099 181.586 57.5781C181.43 57.0521 181.352 56.4818 181.352 55.8672ZM182.805 55.7031V55.8672C182.805 56.2891 182.846 56.6849 182.93 57.0547C183.018 57.4245 183.154 57.75 183.336 58.0312C183.518 58.3125 183.75 58.5339 184.031 58.6953C184.312 58.8516 184.648 58.9297 185.039 58.9297C185.518 58.9297 185.911 58.8281 186.219 58.625C186.531 58.4219 186.781 58.1536 186.969 57.8203C187.156 57.487 187.302 57.125 187.406 56.7344V54.8516C187.344 54.5651 187.253 54.2891 187.133 54.0234C187.018 53.7526 186.867 53.513 186.68 53.3047C186.497 53.0911 186.271 52.9219 186 52.7969C185.734 52.6719 185.419 52.6094 185.055 52.6094C184.659 52.6094 184.318 52.6927 184.031 52.8594C183.75 53.0208 183.518 53.2448 183.336 53.5312C183.154 53.8125 183.018 54.1406 182.93 54.5156C182.846 54.8854 182.805 55.2812 182.805 55.7031ZM194.25 60.1562C193.661 60.1562 193.128 60.0573 192.648 59.8594C192.174 59.6562 191.766 59.3724 191.422 59.0078C191.083 58.6432 190.823 58.2109 190.641 57.7109C190.458 57.2109 190.367 56.6641 190.367 56.0703V55.7422C190.367 55.0547 190.469 54.4427 190.672 53.9062C190.875 53.3646 191.151 52.9062 191.5 52.5312C191.849 52.1562 192.245 51.8724 192.688 51.6797C193.13 51.487 193.589 51.3906 194.062 51.3906C194.667 51.3906 195.188 51.4948 195.625 51.7031C196.068 51.9115 196.43 52.2031 196.711 52.5781C196.992 52.9479 197.201 53.3854 197.336 53.8906C197.471 54.3906 197.539 54.9375 197.539 55.5312V56.1797H191.227V55H196.094V54.8906C196.073 54.5156 195.995 54.151 195.859 53.7969C195.729 53.4427 195.521 53.151 195.234 52.9219C194.948 52.6927 194.557 52.5781 194.062 52.5781C193.734 52.5781 193.432 52.6484 193.156 52.7891C192.88 52.9245 192.643 53.1276 192.445 53.3984C192.247 53.6693 192.094 54 191.984 54.3906C191.875 54.7812 191.82 55.2318 191.82 55.7422V56.0703C191.82 56.4714 191.875 56.849 191.984 57.2031C192.099 57.5521 192.263 57.8594 192.477 58.125C192.695 58.3906 192.958 58.599 193.266 58.75C193.578 58.901 193.932 58.9766 194.328 58.9766C194.839 58.9766 195.271 58.8724 195.625 58.6641C195.979 58.4557 196.289 58.1771 196.555 57.8281L197.43 58.5234C197.247 58.7995 197.016 59.0625 196.734 59.3125C196.453 59.5625 196.107 59.7656 195.695 59.9219C195.289 60.0781 194.807 60.1562 194.25 60.1562ZM200.672 52.875V60H199.227V51.5469H200.633L200.672 52.875ZM203.312 51.5L203.305 52.8438C203.185 52.8177 203.07 52.8021 202.961 52.7969C202.857 52.7865 202.737 52.7812 202.602 52.7812C202.268 52.7812 201.974 52.8333 201.719 52.9375C201.464 53.0417 201.247 53.1875 201.07 53.375C200.893 53.5625 200.753 53.7865 200.648 54.0469C200.549 54.3021 200.484 54.5833 200.453 54.8906L200.047 55.125C200.047 54.6146 200.096 54.1354 200.195 53.6875C200.299 53.2396 200.458 52.8438 200.672 52.5C200.885 52.151 201.156 51.8802 201.484 51.6875C201.818 51.4896 202.214 51.3906 202.672 51.3906C202.776 51.3906 202.896 51.4036 203.031 51.4297C203.167 51.4505 203.26 51.474 203.312 51.5ZM210.758 58.5L212.93 51.5469H213.883L213.695 52.9297L211.484 60H210.555L210.758 58.5ZM209.297 51.5469L211.148 58.5781L211.281 60H210.305L207.852 51.5469H209.297ZM215.961 58.5234L217.727 51.5469H219.164L216.711 60H215.742L215.961 58.5234ZM214.094 51.5469L216.219 58.3828L216.461 60H215.539L213.266 52.9141L213.078 51.5469H214.094ZM222.219 51.5469V60H220.766V51.5469H222.219ZM220.656 49.3047C220.656 49.0703 220.727 48.8724 220.867 48.7109C221.013 48.5495 221.227 48.4688 221.508 48.4688C221.784 48.4688 221.995 48.5495 222.141 48.7109C222.292 48.8724 222.367 49.0703 222.367 49.3047C222.367 49.5286 222.292 49.7214 222.141 49.8828C221.995 50.0391 221.784 50.1172 221.508 50.1172C221.227 50.1172 221.013 50.0391 220.867 49.8828C220.727 49.7214 220.656 49.5286 220.656 49.3047ZM228.078 51.5469V52.6562H223.508V51.5469H228.078ZM225.055 49.4922H226.5V57.9062C226.5 58.1927 226.544 58.4089 226.633 58.5547C226.721 58.7005 226.836 58.7969 226.977 58.8438C227.117 58.8906 227.268 58.9141 227.43 58.9141C227.549 58.9141 227.674 58.9036 227.805 58.8828C227.94 58.8568 228.042 58.8359 228.109 58.8203L228.117 60C228.003 60.0365 227.852 60.0703 227.664 60.1016C227.482 60.138 227.26 60.1562 227 60.1562C226.646 60.1562 226.32 60.0859 226.023 59.9453C225.727 59.8047 225.49 59.5703 225.312 59.2422C225.141 58.9089 225.055 58.4609 225.055 57.8984V49.4922ZM231.219 48V60H229.773V48H231.219ZM230.875 55.4531L230.273 55.4297C230.279 54.8516 230.365 54.3177 230.531 53.8281C230.698 53.3333 230.932 52.9036 231.234 52.5391C231.536 52.1745 231.896 51.8932 232.312 51.6953C232.734 51.4922 233.201 51.3906 233.711 51.3906C234.128 51.3906 234.503 51.4479 234.836 51.5625C235.169 51.6719 235.453 51.849 235.688 52.0938C235.927 52.3385 236.109 52.6562 236.234 53.0469C236.359 53.4323 236.422 53.9036 236.422 54.4609V60H234.969V54.4453C234.969 54.0026 234.904 53.6484 234.773 53.3828C234.643 53.112 234.453 52.9167 234.203 52.7969C233.953 52.6719 233.646 52.6094 233.281 52.6094C232.922 52.6094 232.594 52.6849 232.297 52.8359C232.005 52.987 231.753 53.1953 231.539 53.4609C231.331 53.7266 231.167 54.0312 231.047 54.375C230.932 54.7135 230.875 55.0729 230.875 55.4531ZM245.938 58.9688C246.281 58.9688 246.599 58.8984 246.891 58.7578C247.182 58.6172 247.422 58.4245 247.609 58.1797C247.797 57.9297 247.904 57.6458 247.93 57.3281H249.305C249.279 57.8281 249.109 58.2943 248.797 58.7266C248.49 59.1536 248.086 59.5 247.586 59.7656C247.086 60.026 246.536 60.1562 245.938 60.1562C245.302 60.1562 244.747 60.0443 244.273 59.8203C243.805 59.5964 243.414 59.2891 243.102 58.8984C242.794 58.5078 242.562 58.0599 242.406 57.5547C242.255 57.0443 242.18 56.5052 242.18 55.9375V55.6094C242.18 55.0417 242.255 54.5052 242.406 54C242.562 53.4896 242.794 53.0391 243.102 52.6484C243.414 52.2578 243.805 51.9505 244.273 51.7266C244.747 51.5026 245.302 51.3906 245.938 51.3906C246.599 51.3906 247.177 51.526 247.672 51.7969C248.167 52.0625 248.555 52.4271 248.836 52.8906C249.122 53.349 249.279 53.8698 249.305 54.4531H247.93C247.904 54.1042 247.805 53.7891 247.633 53.5078C247.466 53.2266 247.237 53.0026 246.945 52.8359C246.659 52.6641 246.323 52.5781 245.938 52.5781C245.495 52.5781 245.122 52.6667 244.82 52.8438C244.523 53.0156 244.286 53.25 244.109 53.5469C243.938 53.8385 243.812 54.1641 243.734 54.5234C243.661 54.8776 243.625 55.2396 243.625 55.6094V55.9375C243.625 56.3073 243.661 56.6719 243.734 57.0312C243.807 57.3906 243.93 57.7161 244.102 58.0078C244.279 58.2995 244.516 58.5339 244.812 58.7109C245.115 58.8828 245.49 58.9688 245.938 58.9688ZM250.547 55.8672V55.6875C250.547 55.0781 250.635 54.513 250.812 53.9922C250.99 53.4661 251.245 53.0104 251.578 52.625C251.911 52.2344 252.315 51.9323 252.789 51.7188C253.263 51.5 253.794 51.3906 254.383 51.3906C254.977 51.3906 255.51 51.5 255.984 51.7188C256.464 51.9323 256.87 52.2344 257.203 52.625C257.542 53.0104 257.799 53.4661 257.977 53.9922C258.154 54.513 258.242 55.0781 258.242 55.6875V55.8672C258.242 56.4766 258.154 57.0417 257.977 57.5625C257.799 58.0833 257.542 58.5391 257.203 58.9297C256.87 59.3151 256.466 59.6172 255.992 59.8359C255.523 60.0495 254.992 60.1562 254.398 60.1562C253.805 60.1562 253.271 60.0495 252.797 59.8359C252.323 59.6172 251.917 59.3151 251.578 58.9297C251.245 58.5391 250.99 58.0833 250.812 57.5625C250.635 57.0417 250.547 56.4766 250.547 55.8672ZM251.992 55.6875V55.8672C251.992 56.2891 252.042 56.6875 252.141 57.0625C252.24 57.4323 252.388 57.7604 252.586 58.0469C252.789 58.3333 253.042 58.5599 253.344 58.7266C253.646 58.888 253.997 58.9688 254.398 58.9688C254.794 58.9688 255.141 58.888 255.438 58.7266C255.74 58.5599 255.99 58.3333 256.188 58.0469C256.385 57.7604 256.534 57.4323 256.633 57.0625C256.737 56.6875 256.789 56.2891 256.789 55.8672V55.6875C256.789 55.2708 256.737 54.8776 256.633 54.5078C256.534 54.1328 256.383 53.8021 256.18 53.5156C255.982 53.224 255.732 52.9948 255.43 52.8281C255.133 52.6615 254.784 52.5781 254.383 52.5781C253.987 52.5781 253.638 52.6615 253.336 52.8281C253.039 52.9948 252.789 53.224 252.586 53.5156C252.388 53.8021 252.24 54.1328 252.141 54.5078C252.042 54.8776 251.992 55.2708 251.992 55.6875ZM265.227 58.0469V51.5469H266.68V60H265.297L265.227 58.0469ZM265.5 56.2656L266.102 56.25C266.102 56.8125 266.042 57.3333 265.922 57.8125C265.807 58.2865 265.62 58.6979 265.359 59.0469C265.099 59.3958 264.758 59.6693 264.336 59.8672C263.914 60.0599 263.401 60.1562 262.797 60.1562C262.385 60.1562 262.008 60.0964 261.664 59.9766C261.326 59.8568 261.034 59.6719 260.789 59.4219C260.544 59.1719 260.354 58.8464 260.219 58.4453C260.089 58.0443 260.023 57.5625 260.023 57V51.5469H261.469V57.0156C261.469 57.3958 261.51 57.7109 261.594 57.9609C261.682 58.2057 261.799 58.401 261.945 58.5469C262.096 58.6875 262.263 58.7865 262.445 58.8438C262.633 58.901 262.826 58.9297 263.023 58.9297C263.638 58.9297 264.125 58.8125 264.484 58.5781C264.844 58.3385 265.102 58.0182 265.258 57.6172C265.419 57.2109 265.5 56.7604 265.5 56.2656ZM270.328 53.1719V63.25H268.875V51.5469H270.203L270.328 53.1719ZM276.023 55.7031V55.8672C276.023 56.4818 275.951 57.0521 275.805 57.5781C275.659 58.099 275.445 58.5521 275.164 58.9375C274.888 59.3229 274.547 59.6224 274.141 59.8359C273.734 60.0495 273.268 60.1562 272.742 60.1562C272.206 60.1562 271.732 60.0677 271.32 59.8906C270.909 59.7135 270.56 59.4557 270.273 59.1172C269.987 58.7786 269.758 58.3724 269.586 57.8984C269.419 57.4245 269.305 56.8906 269.242 56.2969V55.4219C269.305 54.7969 269.422 54.237 269.594 53.7422C269.766 53.2474 269.992 52.8255 270.273 52.4766C270.56 52.1224 270.906 51.8542 271.312 51.6719C271.719 51.4844 272.188 51.3906 272.719 51.3906C273.25 51.3906 273.721 51.4948 274.133 51.7031C274.544 51.9062 274.891 52.1979 275.172 52.5781C275.453 52.9583 275.664 53.4141 275.805 53.9453C275.951 54.4714 276.023 55.0573 276.023 55.7031ZM274.57 55.8672V55.7031C274.57 55.2812 274.526 54.8854 274.438 54.5156C274.349 54.1406 274.211 53.8125 274.023 53.5312C273.841 53.2448 273.607 53.0208 273.32 52.8594C273.034 52.6927 272.693 52.6094 272.297 52.6094C271.932 52.6094 271.615 52.6719 271.344 52.7969C271.078 52.9219 270.852 53.0911 270.664 53.3047C270.477 53.513 270.323 53.7526 270.203 54.0234C270.089 54.2891 270.003 54.5651 269.945 54.8516V56.875C270.049 57.2396 270.195 57.5833 270.383 57.9062C270.57 58.224 270.82 58.4818 271.133 58.6797C271.445 58.8724 271.839 58.9688 272.312 58.9688C272.703 58.9688 273.039 58.888 273.32 58.7266C273.607 58.5599 273.841 58.3333 274.023 58.0469C274.211 57.7604 274.349 57.4323 274.438 57.0625C274.526 56.6875 274.57 56.2891 274.57 55.8672ZM277.484 55.8672V55.6875C277.484 55.0781 277.573 54.513 277.75 53.9922C277.927 53.4661 278.182 53.0104 278.516 52.625C278.849 52.2344 279.253 51.9323 279.727 51.7188C280.201 51.5 280.732 51.3906 281.32 51.3906C281.914 51.3906 282.448 51.5 282.922 51.7188C283.401 51.9323 283.807 52.2344 284.141 52.625C284.479 53.0104 284.737 53.4661 284.914 53.9922C285.091 54.513 285.18 55.0781 285.18 55.6875V55.8672C285.18 56.4766 285.091 57.0417 284.914 57.5625C284.737 58.0833 284.479 58.5391 284.141 58.9297C283.807 59.3151 283.404 59.6172 282.93 59.8359C282.461 60.0495 281.93 60.1562 281.336 60.1562C280.742 60.1562 280.208 60.0495 279.734 59.8359C279.26 59.6172 278.854 59.3151 278.516 58.9297C278.182 58.5391 277.927 58.0833 277.75 57.5625C277.573 57.0417 277.484 56.4766 277.484 55.8672ZM278.93 55.6875V55.8672C278.93 56.2891 278.979 56.6875 279.078 57.0625C279.177 57.4323 279.326 57.7604 279.523 58.0469C279.727 58.3333 279.979 58.5599 280.281 58.7266C280.583 58.888 280.935 58.9688 281.336 58.9688C281.732 58.9688 282.078 58.888 282.375 58.7266C282.677 58.5599 282.927 58.3333 283.125 58.0469C283.323 57.7604 283.471 57.4323 283.57 57.0625C283.674 56.6875 283.727 56.2891 283.727 55.8672V55.6875C283.727 55.2708 283.674 54.8776 283.57 54.5078C283.471 54.1328 283.32 53.8021 283.117 53.5156C282.919 53.224 282.669 52.9948 282.367 52.8281C282.07 52.6615 281.721 52.5781 281.32 52.5781C280.924 52.5781 280.576 52.6615 280.273 52.8281C279.977 52.9948 279.727 53.224 279.523 53.5156C279.326 53.8021 279.177 54.1328 279.078 54.5078C278.979 54.8776 278.93 55.2708 278.93 55.6875ZM288.438 53.3516V60H286.992V51.5469H288.359L288.438 53.3516ZM288.094 55.4531L287.492 55.4297C287.497 54.8516 287.583 54.3177 287.75 53.8281C287.917 53.3333 288.151 52.9036 288.453 52.5391C288.755 52.1745 289.115 51.8932 289.531 51.6953C289.953 51.4922 290.419 51.3906 290.93 51.3906C291.346 51.3906 291.721 51.4479 292.055 51.5625C292.388 51.6719 292.672 51.849 292.906 52.0938C293.146 52.3385 293.328 52.6562 293.453 53.0469C293.578 53.4323 293.641 53.9036 293.641 54.4609V60H292.188V54.4453C292.188 54.0026 292.122 53.6484 291.992 53.3828C291.862 53.112 291.672 52.9167 291.422 52.7969C291.172 52.6719 290.865 52.6094 290.5 52.6094C290.141 52.6094 289.812 52.6849 289.516 52.8359C289.224 52.987 288.971 53.1953 288.758 53.4609C288.549 53.7266 288.385 54.0312 288.266 54.375C288.151 54.7135 288.094 55.0729 288.094 55.4531ZM300.758 57.7578C300.758 57.5495 300.711 57.3568 300.617 57.1797C300.529 56.9974 300.344 56.8333 300.062 56.6875C299.786 56.5365 299.37 56.4062 298.812 56.2969C298.344 56.1979 297.919 56.0807 297.539 55.9453C297.164 55.8099 296.844 55.6458 296.578 55.4531C296.318 55.2604 296.117 55.0339 295.977 54.7734C295.836 54.513 295.766 54.2083 295.766 53.8594C295.766 53.526 295.839 53.2109 295.984 52.9141C296.135 52.6172 296.346 52.3542 296.617 52.125C296.893 51.8958 297.224 51.7161 297.609 51.5859C297.995 51.4557 298.424 51.3906 298.898 51.3906C299.576 51.3906 300.154 51.5104 300.633 51.75C301.112 51.9896 301.479 52.3099 301.734 52.7109C301.99 53.1068 302.117 53.5469 302.117 54.0312H300.672C300.672 53.7969 300.602 53.5703 300.461 53.3516C300.326 53.1276 300.125 52.9427 299.859 52.7969C299.599 52.651 299.279 52.5781 298.898 52.5781C298.497 52.5781 298.172 52.6406 297.922 52.7656C297.677 52.8854 297.497 53.0391 297.383 53.2266C297.273 53.4141 297.219 53.612 297.219 53.8203C297.219 53.9766 297.245 54.1172 297.297 54.2422C297.354 54.362 297.453 54.474 297.594 54.5781C297.734 54.6771 297.932 54.7708 298.188 54.8594C298.443 54.9479 298.768 55.0365 299.164 55.125C299.857 55.2812 300.427 55.4688 300.875 55.6875C301.323 55.9062 301.656 56.1745 301.875 56.4922C302.094 56.8099 302.203 57.1953 302.203 57.6484C302.203 58.0182 302.125 58.3568 301.969 58.6641C301.818 58.9714 301.596 59.237 301.305 59.4609C301.018 59.6797 300.674 59.8516 300.273 59.9766C299.878 60.0964 299.432 60.1562 298.938 60.1562C298.193 60.1562 297.562 60.0234 297.047 59.7578C296.531 59.4922 296.141 59.1484 295.875 58.7266C295.609 58.3047 295.477 57.8594 295.477 57.3906H296.93C296.951 57.7865 297.065 58.1016 297.273 58.3359C297.482 58.5651 297.737 58.7292 298.039 58.8281C298.341 58.9219 298.641 58.9688 298.938 58.9688C299.333 58.9688 299.664 58.9167 299.93 58.8125C300.201 58.7083 300.406 58.5651 300.547 58.3828C300.688 58.2005 300.758 57.9922 300.758 57.7578Z" fill="#3D3C3C"/>
<path d="M27.9355 82.749L25.2285 91H23.0479L26.7461 81.0469H28.1338L27.9355 82.749ZM30.1846 91L27.4707 82.749L27.252 81.0469H28.6533L32.3721 91H30.1846ZM30.0615 87.2949V88.9014H24.8047V87.2949H30.0615ZM36.3506 91H34.1836L34.1973 89.4004H36.3506C36.8883 89.4004 37.3418 89.2796 37.7109 89.0381C38.0801 88.792 38.3581 88.4342 38.5449 87.9648C38.7363 87.4954 38.832 86.9281 38.832 86.2627V85.7773C38.832 85.2669 38.7773 84.818 38.668 84.4307C38.5632 84.0433 38.4059 83.7174 38.1963 83.4531C37.9867 83.1888 37.7292 82.9906 37.4238 82.8584C37.1185 82.7217 36.7676 82.6533 36.3711 82.6533H34.1426V81.0469H36.3711C37.0365 81.0469 37.6449 81.1608 38.1963 81.3887C38.7523 81.612 39.2331 81.9333 39.6387 82.3525C40.0443 82.7718 40.3564 83.2731 40.5752 83.8564C40.7985 84.4352 40.9102 85.0801 40.9102 85.791V86.2627C40.9102 86.9691 40.7985 87.6139 40.5752 88.1973C40.3564 88.7806 40.0443 89.2819 39.6387 89.7012C39.2376 90.1159 38.7568 90.4372 38.1963 90.665C37.6403 90.8883 37.0251 91 36.3506 91ZM35.3457 81.0469V91H33.2949V81.0469H35.3457ZM45.4561 91H43.2891L43.3027 89.4004H45.4561C45.9938 89.4004 46.4473 89.2796 46.8164 89.0381C47.1855 88.792 47.4635 88.4342 47.6504 87.9648C47.8418 87.4954 47.9375 86.9281 47.9375 86.2627V85.7773C47.9375 85.2669 47.8828 84.818 47.7734 84.4307C47.6686 84.0433 47.5114 83.7174 47.3018 83.4531C47.0921 83.1888 46.8346 82.9906 46.5293 82.8584C46.224 82.7217 45.873 82.6533 45.4766 82.6533H43.248V81.0469H45.4766C46.1419 81.0469 46.7503 81.1608 47.3018 81.3887C47.8577 81.612 48.3385 81.9333 48.7441 82.3525C49.1497 82.7718 49.4619 83.2731 49.6807 83.8564C49.904 84.4352 50.0156 85.0801 50.0156 85.791V86.2627C50.0156 86.9691 49.904 87.6139 49.6807 88.1973C49.4619 88.7806 49.1497 89.2819 48.7441 89.7012C48.3431 90.1159 47.8623 90.4372 47.3018 90.665C46.7458 90.8883 46.1305 91 45.4561 91ZM44.4512 81.0469V91H42.4004V81.0469H44.4512ZM56.3594 81.0469L58.4375 85.5859L60.5156 81.0469H62.751L59.4766 87.377V91H57.3984V87.377L54.1172 81.0469H56.3594ZM71.8359 85.791V86.2627C71.8359 87.0192 71.7334 87.6982 71.5283 88.2998C71.3232 88.9014 71.0339 89.4141 70.6602 89.8379C70.2865 90.2572 69.8398 90.5785 69.3203 90.8018C68.8053 91.0251 68.2334 91.1367 67.6045 91.1367C66.9801 91.1367 66.4082 91.0251 65.8887 90.8018C65.3737 90.5785 64.9271 90.2572 64.5488 89.8379C64.1706 89.4141 63.8766 88.9014 63.667 88.2998C63.4619 87.6982 63.3594 87.0192 63.3594 86.2627V85.791C63.3594 85.0299 63.4619 84.3509 63.667 83.7539C63.8721 83.1523 64.1615 82.6396 64.5352 82.2158C64.9134 81.792 65.36 81.4684 65.875 81.2451C66.3945 81.0218 66.9665 80.9102 67.5908 80.9102C68.2197 80.9102 68.7917 81.0218 69.3066 81.2451C69.8262 81.4684 70.2728 81.792 70.6465 82.2158C71.0247 82.6396 71.3164 83.1523 71.5215 83.7539C71.7311 84.3509 71.8359 85.0299 71.8359 85.791ZM69.7646 86.2627V85.7773C69.7646 85.2487 69.7168 84.7839 69.6211 84.3828C69.5254 83.9818 69.3841 83.6445 69.1973 83.3711C69.0104 83.0977 68.7826 82.8926 68.5137 82.7559C68.2448 82.6146 67.9372 82.5439 67.5908 82.5439C67.2445 82.5439 66.9368 82.6146 66.668 82.7559C66.4036 82.8926 66.1781 83.0977 65.9912 83.3711C65.8089 83.6445 65.6699 83.9818 65.5742 84.3828C65.4785 84.7839 65.4307 85.2487 65.4307 85.7773V86.2627C65.4307 86.7868 65.4785 87.2516 65.5742 87.6572C65.6699 88.0583 65.8112 88.3978 65.998 88.6758C66.1849 88.9492 66.4128 89.1566 66.6816 89.2979C66.9505 89.4391 67.2581 89.5098 67.6045 89.5098C67.9508 89.5098 68.2585 89.4391 68.5273 89.2979C68.7962 89.1566 69.0218 88.9492 69.2041 88.6758C69.3864 88.3978 69.5254 88.0583 69.6211 87.6572C69.7168 87.2516 69.7646 86.7868 69.7646 86.2627ZM78.8086 81.0469H80.8525V87.623C80.8525 88.3887 80.6885 89.0335 80.3604 89.5576C80.0368 90.0817 79.5879 90.4759 79.0137 90.7402C78.444 91.0046 77.7878 91.1367 77.0449 91.1367C76.3021 91.1367 75.6413 91.0046 75.0625 90.7402C74.4883 90.4759 74.0371 90.0817 73.709 89.5576C73.3854 89.0335 73.2236 88.3887 73.2236 87.623V81.0469H75.2744V87.623C75.2744 88.0697 75.3451 88.4342 75.4863 88.7168C75.6276 88.9993 75.8304 89.2067 76.0947 89.3389C76.3636 89.471 76.6803 89.5371 77.0449 89.5371C77.4186 89.5371 77.7354 89.471 77.9951 89.3389C78.2594 89.2067 78.46 88.9993 78.5967 88.7168C78.738 88.4342 78.8086 88.0697 78.8086 87.623V81.0469ZM82.541 81.0469H86.2529C87.014 81.0469 87.668 81.1608 88.2148 81.3887C88.7663 81.6165 89.1901 81.9538 89.4863 82.4004C89.7826 82.847 89.9307 83.3962 89.9307 84.0479C89.9307 84.5811 89.8395 85.0391 89.6572 85.4219C89.4795 85.8001 89.2266 86.1169 88.8984 86.3721C88.5749 86.6227 88.1943 86.8232 87.7568 86.9736L87.1074 87.3154H83.8809L83.8672 85.7158H86.2666C86.6266 85.7158 86.9251 85.652 87.1621 85.5244C87.3991 85.3968 87.5768 85.2191 87.6953 84.9912C87.8184 84.7633 87.8799 84.499 87.8799 84.1982C87.8799 83.8792 87.8206 83.6035 87.7021 83.3711C87.5837 83.1387 87.4036 82.9609 87.1621 82.8379C86.9206 82.7148 86.6175 82.6533 86.2529 82.6533H84.5918V91H82.541V81.0469ZM88.1055 91L85.8359 86.5635L88.0029 86.5498L90.2998 90.9043V91H88.1055ZM97.0469 81.0469V91H94.9961V81.0469H97.0469ZM101.012 85.2988V86.8984H96.4863V85.2988H101.012ZM101.49 81.0469V82.6533H96.4863V81.0469H101.49ZM104.86 81.0469V91H102.816V81.0469H104.86ZM106.781 81.0469H110.493C111.254 81.0469 111.908 81.1608 112.455 81.3887C113.007 81.6165 113.43 81.9538 113.727 82.4004C114.023 82.847 114.171 83.3962 114.171 84.0479C114.171 84.5811 114.08 85.0391 113.897 85.4219C113.72 85.8001 113.467 86.1169 113.139 86.3721C112.815 86.6227 112.435 86.8232 111.997 86.9736L111.348 87.3154H108.121L108.107 85.7158H110.507C110.867 85.7158 111.165 85.652 111.402 85.5244C111.639 85.3968 111.817 85.2191 111.936 84.9912C112.059 84.7633 112.12 84.499 112.12 84.1982C112.12 83.8792 112.061 83.6035 111.942 83.3711C111.824 83.1387 111.644 82.9609 111.402 82.8379C111.161 82.7148 110.858 82.6533 110.493 82.6533H108.832V91H106.781V81.0469ZM112.346 91L110.076 86.5635L112.243 86.5498L114.54 90.9043V91H112.346ZM120.932 88.3955C120.932 88.2178 120.904 88.0583 120.85 87.917C120.799 87.7712 120.704 87.639 120.562 87.5205C120.421 87.3975 120.223 87.2767 119.968 87.1582C119.713 87.0397 119.382 86.9167 118.977 86.7891C118.525 86.6432 118.097 86.4792 117.691 86.2969C117.29 86.1146 116.935 85.9027 116.625 85.6611C116.32 85.415 116.078 85.1302 115.9 84.8066C115.727 84.4831 115.641 84.1071 115.641 83.6787C115.641 83.264 115.732 82.888 115.914 82.5508C116.096 82.209 116.352 81.9173 116.68 81.6758C117.008 81.4297 117.395 81.2406 117.842 81.1084C118.293 80.9762 118.787 80.9102 119.325 80.9102C120.059 80.9102 120.699 81.0423 121.246 81.3066C121.793 81.571 122.217 81.9333 122.518 82.3936C122.823 82.8538 122.976 83.3802 122.976 83.9727H120.938C120.938 83.681 120.877 83.4258 120.754 83.207C120.635 82.9837 120.453 82.8083 120.207 82.6807C119.965 82.5531 119.66 82.4893 119.291 82.4893C118.936 82.4893 118.639 82.5439 118.402 82.6533C118.165 82.7581 117.988 82.9017 117.869 83.084C117.751 83.2617 117.691 83.4622 117.691 83.6855C117.691 83.8542 117.732 84.0068 117.814 84.1436C117.901 84.2803 118.029 84.4079 118.197 84.5264C118.366 84.6449 118.573 84.7565 118.819 84.8613C119.065 84.9661 119.35 85.0687 119.674 85.1689C120.216 85.333 120.692 85.5176 121.103 85.7227C121.517 85.9277 121.864 86.1579 122.142 86.4131C122.42 86.6683 122.629 86.9577 122.771 87.2812C122.912 87.6048 122.982 87.9717 122.982 88.3818C122.982 88.8148 122.898 89.2021 122.729 89.5439C122.561 89.8857 122.317 90.1751 121.998 90.4121C121.679 90.6491 121.299 90.8291 120.856 90.9521C120.414 91.0752 119.92 91.1367 119.373 91.1367C118.881 91.1367 118.396 91.0729 117.917 90.9453C117.438 90.8132 117.003 90.6149 116.611 90.3506C116.224 90.0863 115.914 89.749 115.682 89.3389C115.449 88.9287 115.333 88.4434 115.333 87.8828H117.391C117.391 88.1927 117.438 88.4548 117.534 88.6689C117.63 88.8831 117.764 89.0563 117.938 89.1885C118.115 89.3206 118.325 89.4163 118.566 89.4756C118.812 89.5348 119.081 89.5645 119.373 89.5645C119.729 89.5645 120.02 89.5143 120.248 89.4141C120.48 89.3138 120.651 89.1748 120.761 88.9971C120.875 88.8193 120.932 88.6188 120.932 88.3955ZM128.827 81.0469V91H126.783V81.0469H128.827ZM131.89 81.0469V82.6533H123.769V81.0469H131.89ZM142.314 87.6982H144.358C144.317 88.3682 144.133 88.9629 143.805 89.4824C143.481 90.002 143.028 90.4076 142.444 90.6992C141.866 90.9909 141.168 91.1367 140.353 91.1367C139.715 91.1367 139.143 91.0273 138.637 90.8086C138.131 90.5853 137.698 90.2663 137.338 89.8516C136.982 89.4368 136.711 88.9355 136.524 88.3477C136.338 87.7598 136.244 87.1012 136.244 86.3721V85.6816C136.244 84.9525 136.34 84.2939 136.531 83.7061C136.727 83.1136 137.005 82.61 137.365 82.1953C137.73 81.7806 138.165 81.4616 138.671 81.2383C139.177 81.015 139.742 80.9033 140.366 80.9033C141.196 80.9033 141.895 81.0537 142.465 81.3545C143.039 81.6553 143.483 82.07 143.798 82.5986C144.117 83.1273 144.308 83.7288 144.372 84.4033H142.321C142.299 84.0023 142.219 83.6628 142.082 83.3848C141.945 83.1022 141.738 82.8903 141.46 82.749C141.187 82.6032 140.822 82.5303 140.366 82.5303C140.024 82.5303 139.726 82.5941 139.471 82.7217C139.215 82.8493 139.001 83.043 138.828 83.3027C138.655 83.5625 138.525 83.8906 138.438 84.2871C138.356 84.679 138.315 85.1393 138.315 85.668V86.3721C138.315 86.887 138.354 87.3405 138.432 87.7324C138.509 88.1198 138.628 88.4479 138.787 88.7168C138.951 88.9811 139.161 89.1816 139.416 89.3184C139.676 89.4505 139.988 89.5166 140.353 89.5166C140.781 89.5166 141.134 89.4482 141.412 89.3115C141.69 89.1748 141.902 88.972 142.048 88.7031C142.198 88.4342 142.287 88.0993 142.314 87.6982ZM153.881 85.791V86.2627C153.881 87.0192 153.778 87.6982 153.573 88.2998C153.368 88.9014 153.079 89.4141 152.705 89.8379C152.331 90.2572 151.885 90.5785 151.365 90.8018C150.85 91.0251 150.278 91.1367 149.649 91.1367C149.025 91.1367 148.453 91.0251 147.934 90.8018C147.419 90.5785 146.972 90.2572 146.594 89.8379C146.215 89.4141 145.922 88.9014 145.712 88.2998C145.507 87.6982 145.404 87.0192 145.404 86.2627V85.791C145.404 85.0299 145.507 84.3509 145.712 83.7539C145.917 83.1523 146.206 82.6396 146.58 82.2158C146.958 81.792 147.405 81.4684 147.92 81.2451C148.439 81.0218 149.011 80.9102 149.636 80.9102C150.265 80.9102 150.837 81.0218 151.352 81.2451C151.871 81.4684 152.318 81.792 152.691 82.2158C153.07 82.6396 153.361 83.1523 153.566 83.7539C153.776 84.3509 153.881 85.0299 153.881 85.791ZM151.81 86.2627V85.7773C151.81 85.2487 151.762 84.7839 151.666 84.3828C151.57 83.9818 151.429 83.6445 151.242 83.3711C151.055 83.0977 150.827 82.8926 150.559 82.7559C150.29 82.6146 149.982 82.5439 149.636 82.5439C149.289 82.5439 148.982 82.6146 148.713 82.7559C148.449 82.8926 148.223 83.0977 148.036 83.3711C147.854 83.6445 147.715 83.9818 147.619 84.3828C147.523 84.7839 147.476 85.2487 147.476 85.7773V86.2627C147.476 86.7868 147.523 87.2516 147.619 87.6572C147.715 88.0583 147.856 88.3978 148.043 88.6758C148.23 88.9492 148.458 89.1566 148.727 89.2979C148.995 89.4391 149.303 89.5098 149.649 89.5098C149.996 89.5098 150.303 89.4391 150.572 89.2979C150.841 89.1566 151.067 88.9492 151.249 88.6758C151.431 88.3978 151.57 88.0583 151.666 87.6572C151.762 87.2516 151.81 86.7868 151.81 86.2627ZM160.854 81.0469H162.897V87.623C162.897 88.3887 162.733 89.0335 162.405 89.5576C162.082 90.0817 161.633 90.4759 161.059 90.7402C160.489 91.0046 159.833 91.1367 159.09 91.1367C158.347 91.1367 157.686 91.0046 157.107 90.7402C156.533 90.4759 156.082 90.0817 155.754 89.5576C155.43 89.0335 155.269 88.3887 155.269 87.623V81.0469H157.319V87.623C157.319 88.0697 157.39 88.4342 157.531 88.7168C157.673 88.9993 157.875 89.2067 158.14 89.3389C158.409 89.471 158.725 89.5371 159.09 89.5371C159.464 89.5371 159.78 89.471 160.04 89.3389C160.304 89.2067 160.505 88.9993 160.642 88.7168C160.783 88.4342 160.854 88.0697 160.854 87.623V81.0469ZM168.462 87.4521H165.926V85.8525H168.462C168.854 85.8525 169.173 85.7887 169.419 85.6611C169.665 85.529 169.845 85.3467 169.959 85.1143C170.073 84.8818 170.13 84.6198 170.13 84.3281C170.13 84.0319 170.073 83.7562 169.959 83.501C169.845 83.2458 169.665 83.0407 169.419 82.8857C169.173 82.7308 168.854 82.6533 168.462 82.6533H166.637V91H164.586V81.0469H168.462C169.241 81.0469 169.909 81.1882 170.465 81.4707C171.025 81.7487 171.454 82.1338 171.75 82.626C172.046 83.1182 172.194 83.681 172.194 84.3145C172.194 84.957 172.046 85.513 171.75 85.9824C171.454 86.4518 171.025 86.8141 170.465 87.0693C169.909 87.3245 169.241 87.4521 168.462 87.4521ZM181.785 85.791V86.2627C181.785 87.0192 181.683 87.6982 181.478 88.2998C181.272 88.9014 180.983 89.4141 180.609 89.8379C180.236 90.2572 179.789 90.5785 179.27 90.8018C178.755 91.0251 178.183 91.1367 177.554 91.1367C176.929 91.1367 176.357 91.0251 175.838 90.8018C175.323 90.5785 174.876 90.2572 174.498 89.8379C174.12 89.4141 173.826 88.9014 173.616 88.2998C173.411 87.6982 173.309 87.0192 173.309 86.2627V85.791C173.309 85.0299 173.411 84.3509 173.616 83.7539C173.821 83.1523 174.111 82.6396 174.484 82.2158C174.863 81.792 175.309 81.4684 175.824 81.2451C176.344 81.0218 176.916 80.9102 177.54 80.9102C178.169 80.9102 178.741 81.0218 179.256 81.2451C179.775 81.4684 180.222 81.792 180.596 82.2158C180.974 82.6396 181.266 83.1523 181.471 83.7539C181.68 84.3509 181.785 85.0299 181.785 85.791ZM179.714 86.2627V85.7773C179.714 85.2487 179.666 84.7839 179.57 84.3828C179.475 83.9818 179.333 83.6445 179.146 83.3711C178.96 83.0977 178.732 82.8926 178.463 82.7559C178.194 82.6146 177.886 82.5439 177.54 82.5439C177.194 82.5439 176.886 82.6146 176.617 82.7559C176.353 82.8926 176.127 83.0977 175.94 83.3711C175.758 83.6445 175.619 83.9818 175.523 84.3828C175.428 84.7839 175.38 85.2487 175.38 85.7773V86.2627C175.38 86.7868 175.428 87.2516 175.523 87.6572C175.619 88.0583 175.76 88.3978 175.947 88.6758C176.134 88.9492 176.362 89.1566 176.631 89.2979C176.9 89.4391 177.207 89.5098 177.554 89.5098C177.9 89.5098 178.208 89.4391 178.477 89.2979C178.745 89.1566 178.971 88.9492 179.153 88.6758C179.336 88.3978 179.475 88.0583 179.57 87.6572C179.666 87.2516 179.714 86.7868 179.714 86.2627ZM191.362 81.0469V91H189.312L185.312 84.3281V91H183.262V81.0469H185.312L189.318 87.7256V81.0469H191.362Z" fill="#1B1B1F"/>
<g clip-path="url(#clip0_5766_10911)">
<path fill-rule="evenodd" clip-rule="evenodd" d="M217.445 85.9599C217.539 86.0537 217.592 86.1809 217.592 86.3135C217.592 86.4461 217.539 86.5733 217.445 86.667L213.203 90.9097C213.109 91.0034 212.982 91.0561 212.849 91.0561C212.717 91.0561 212.589 91.0034 212.496 90.9097C212.402 90.8159 212.349 90.6887 212.349 90.5561C212.349 90.4235 212.402 90.2963 212.496 90.2026L215.885 86.8134L201.536 86.8141C201.47 86.8141 201.405 86.8012 201.344 86.776C201.283 86.7508 201.228 86.714 201.182 86.6675C201.135 86.621 201.098 86.5658 201.073 86.5051C201.048 86.4443 201.035 86.3792 201.035 86.3135C201.035 86.2477 201.048 86.1826 201.073 86.1219C201.098 86.0612 201.135 86.006 201.182 85.9595C201.228 85.913 201.283 85.8761 201.344 85.851C201.405 85.8258 201.47 85.8128 201.536 85.8128L215.885 85.8136L212.496 82.4244C212.402 82.3306 212.349 82.2034 212.349 82.0708C212.349 81.9382 212.402 81.8111 212.496 81.7173C212.589 81.6235 212.717 81.5708 212.849 81.5708C212.982 81.5708 213.109 81.6235 213.203 81.7173L217.445 85.9599Z" fill="#1B1B1F"/>
</g>
<path d="M27.9355 82.749L25.2285 91H23.0479L26.7461 81.0469H28.1338L27.9355 82.749ZM30.1846 91L27.4707 82.749L27.252 81.0469H28.6533L32.3721 91H30.1846ZM30.0615 87.2949V88.9014H24.8047V87.2949H30.0615ZM36.3506 91H34.1836L34.1973 89.4004H36.3506C36.8883 89.4004 37.3418 89.2796 37.7109 89.0381C38.0801 88.792 38.3581 88.4342 38.5449 87.9648C38.7363 87.4954 38.832 86.9281 38.832 86.2627V85.7773C38.832 85.2669 38.7773 84.818 38.668 84.4307C38.5632 84.0433 38.4059 83.7174 38.1963 83.4531C37.9867 83.1888 37.7292 82.9906 37.4238 82.8584C37.1185 82.7217 36.7676 82.6533 36.3711 82.6533H34.1426V81.0469H36.3711C37.0365 81.0469 37.6449 81.1608 38.1963 81.3887C38.7523 81.612 39.2331 81.9333 39.6387 82.3525C40.0443 82.7718 40.3564 83.2731 40.5752 83.8564C40.7985 84.4352 40.9102 85.0801 40.9102 85.791V86.2627C40.9102 86.9691 40.7985 87.6139 40.5752 88.1973C40.3564 88.7806 40.0443 89.2819 39.6387 89.7012C39.2376 90.1159 38.7568 90.4372 38.1963 90.665C37.6403 90.8883 37.0251 91 36.3506 91ZM35.3457 81.0469V91H33.2949V81.0469H35.3457ZM45.4561 91H43.2891L43.3027 89.4004H45.4561C45.9938 89.4004 46.4473 89.2796 46.8164 89.0381C47.1855 88.792 47.4635 88.4342 47.6504 87.9648C47.8418 87.4954 47.9375 86.9281 47.9375 86.2627V85.7773C47.9375 85.2669 47.8828 84.818 47.7734 84.4307C47.6686 84.0433 47.5114 83.7174 47.3018 83.4531C47.0921 83.1888 46.8346 82.9906 46.5293 82.8584C46.224 82.7217 45.873 82.6533 45.4766 82.6533H43.248V81.0469H45.4766C46.1419 81.0469 46.7503 81.1608 47.3018 81.3887C47.8577 81.612 48.3385 81.9333 48.7441 82.3525C49.1497 82.7718 49.4619 83.2731 49.6807 83.8564C49.904 84.4352 50.0156 85.0801 50.0156 85.791V86.2627C50.0156 86.9691 49.904 87.6139 49.6807 88.1973C49.4619 88.7806 49.1497 89.2819 48.7441 89.7012C48.3431 90.1159 47.8623 90.4372 47.3018 90.665C46.7458 90.8883 46.1305 91 45.4561 91ZM44.4512 81.0469V91H42.4004V81.0469H44.4512ZM56.3594 81.0469L58.4375 85.5859L60.5156 81.0469H62.751L59.4766 87.377V91H57.3984V87.377L54.1172 81.0469H56.3594ZM71.8359 85.791V86.2627C71.8359 87.0192 71.7334 87.6982 71.5283 88.2998C71.3232 88.9014 71.0339 89.4141 70.6602 89.8379C70.2865 90.2572 69.8398 90.5785 69.3203 90.8018C68.8053 91.0251 68.2334 91.1367 67.6045 91.1367C66.9801 91.1367 66.4082 91.0251 65.8887 90.8018C65.3737 90.5785 64.9271 90.2572 64.5488 89.8379C64.1706 89.4141 63.8766 88.9014 63.667 88.2998C63.4619 87.6982 63.3594 87.0192 63.3594 86.2627V85.791C63.3594 85.0299 63.4619 84.3509 63.667 83.7539C63.8721 83.1523 64.1615 82.6396 64.5352 82.2158C64.9134 81.792 65.36 81.4684 65.875 81.2451C66.3945 81.0218 66.9665 80.9102 67.5908 80.9102C68.2197 80.9102 68.7917 81.0218 69.3066 81.2451C69.8262 81.4684 70.2728 81.792 70.6465 82.2158C71.0247 82.6396 71.3164 83.1523 71.5215 83.7539C71.7311 84.3509 71.8359 85.0299 71.8359 85.791ZM69.7646 86.2627V85.7773C69.7646 85.2487 69.7168 84.7839 69.6211 84.3828C69.5254 83.9818 69.3841 83.6445 69.1973 83.3711C69.0104 83.0977 68.7826 82.8926 68.5137 82.7559C68.2448 82.6146 67.9372 82.5439 67.5908 82.5439C67.2445 82.5439 66.9368 82.6146 66.668 82.7559C66.4036 82.8926 66.1781 83.0977 65.9912 83.3711C65.8089 83.6445 65.6699 83.9818 65.5742 84.3828C65.4785 84.7839 65.4307 85.2487 65.4307 85.7773V86.2627C65.4307 86.7868 65.4785 87.2516 65.5742 87.6572C65.6699 88.0583 65.8112 88.3978 65.998 88.6758C66.1849 88.9492 66.4128 89.1566 66.6816 89.2979C66.9505 89.4391 67.2581 89.5098 67.6045 89.5098C67.9508 89.5098 68.2585 89.4391 68.5273 89.2979C68.7962 89.1566 69.0218 88.9492 69.2041 88.6758C69.3864 88.3978 69.5254 88.0583 69.6211 87.6572C69.7168 87.2516 69.7646 86.7868 69.7646 86.2627ZM78.8086 81.0469H80.8525V87.623C80.8525 88.3887 80.6885 89.0335 80.3604 89.5576C80.0368 90.0817 79.5879 90.4759 79.0137 90.7402C78.444 91.0046 77.7878 91.1367 77.0449 91.1367C76.3021 91.1367 75.6413 91.0046 75.0625 90.7402C74.4883 90.4759 74.0371 90.0817 73.709 89.5576C73.3854 89.0335 73.2236 88.3887 73.2236 87.623V81.0469H75.2744V87.623C75.2744 88.0697 75.3451 88.4342 75.4863 88.7168C75.6276 88.9993 75.8304 89.2067 76.0947 89.3389C76.3636 89.471 76.6803 89.5371 77.0449 89.5371C77.4186 89.5371 77.7354 89.471 77.9951 89.3389C78.2594 89.2067 78.46 88.9993 78.5967 88.7168C78.738 88.4342 78.8086 88.0697 78.8086 87.623V81.0469ZM82.541 81.0469H86.2529C87.014 81.0469 87.668 81.1608 88.2148 81.3887C88.7663 81.6165 89.1901 81.9538 89.4863 82.4004C89.7826 82.847 89.9307 83.3962 89.9307 84.0479C89.9307 84.5811 89.8395 85.0391 89.6572 85.4219C89.4795 85.8001 89.2266 86.1169 88.8984 86.3721C88.5749 86.6227 88.1943 86.8232 87.7568 86.9736L87.1074 87.3154H83.8809L83.8672 85.7158H86.2666C86.6266 85.7158 86.9251 85.652 87.1621 85.5244C87.3991 85.3968 87.5768 85.2191 87.6953 84.9912C87.8184 84.7633 87.8799 84.499 87.8799 84.1982C87.8799 83.8792 87.8206 83.6035 87.7021 83.3711C87.5837 83.1387 87.4036 82.9609 87.1621 82.8379C86.9206 82.7148 86.6175 82.6533 86.2529 82.6533H84.5918V91H82.541V81.0469ZM88.1055 91L85.8359 86.5635L88.0029 86.5498L90.2998 90.9043V91H88.1055ZM97.0469 81.0469V91H94.9961V81.0469H97.0469ZM101.012 85.2988V86.8984H96.4863V85.2988H101.012ZM101.49 81.0469V82.6533H96.4863V81.0469H101.49ZM104.86 81.0469V91H102.816V81.0469H104.86ZM106.781 81.0469H110.493C111.254 81.0469 111.908 81.1608 112.455 81.3887C113.007 81.6165 113.43 81.9538 113.727 82.4004C114.023 82.847 114.171 83.3962 114.171 84.0479C114.171 84.5811 114.08 85.0391 113.897 85.4219C113.72 85.8001 113.467 86.1169 113.139 86.3721C112.815 86.6227 112.435 86.8232 111.997 86.9736L111.348 87.3154H108.121L108.107 85.7158H110.507C110.867 85.7158 111.165 85.652 111.402 85.5244C111.639 85.3968 111.817 85.2191 111.936 84.9912C112.059 84.7633 112.12 84.499 112.12 84.1982C112.12 83.8792 112.061 83.6035 111.942 83.3711C111.824 83.1387 111.644 82.9609 111.402 82.8379C111.161 82.7148 110.858 82.6533 110.493 82.6533H108.832V91H106.781V81.0469ZM112.346 91L110.076 86.5635L112.243 86.5498L114.54 90.9043V91H112.346ZM120.932 88.3955C120.932 88.2178 120.904 88.0583 120.85 87.917C120.799 87.7712 120.704 87.639 120.562 87.5205C120.421 87.3975 120.223 87.2767 119.968 87.1582C119.713 87.0397 119.382 86.9167 118.977 86.7891C118.525 86.6432 118.097 86.4792 117.691 86.2969C117.29 86.1146 116.935 85.9027 116.625 85.6611C116.32 85.415 116.078 85.1302 115.9 84.8066C115.727 84.4831 115.641 84.1071 115.641 83.6787C115.641 83.264 115.732 82.888 115.914 82.5508C116.096 82.209 116.352 81.9173 116.68 81.6758C117.008 81.4297 117.395 81.2406 117.842 81.1084C118.293 80.9762 118.787 80.9102 119.325 80.9102C120.059 80.9102 120.699 81.0423 121.246 81.3066C121.793 81.571 122.217 81.9333 122.518 82.3936C122.823 82.8538 122.976 83.3802 122.976 83.9727H120.938C120.938 83.681 120.877 83.4258 120.754 83.207C120.635 82.9837 120.453 82.8083 120.207 82.6807C119.965 82.5531 119.66 82.4893 119.291 82.4893C118.936 82.4893 118.639 82.5439 118.402 82.6533C118.165 82.7581 117.988 82.9017 117.869 83.084C117.751 83.2617 117.691 83.4622 117.691 83.6855C117.691 83.8542 117.732 84.0068 117.814 84.1436C117.901 84.2803 118.029 84.4079 118.197 84.5264C118.366 84.6449 118.573 84.7565 118.819 84.8613C119.065 84.9661 119.35 85.0687 119.674 85.1689C120.216 85.333 120.692 85.5176 121.103 85.7227C121.517 85.9277 121.864 86.1579 122.142 86.4131C122.42 86.6683 122.629 86.9577 122.771 87.2812C122.912 87.6048 122.982 87.9717 122.982 88.3818C122.982 88.8148 122.898 89.2021 122.729 89.5439C122.561 89.8857 122.317 90.1751 121.998 90.4121C121.679 90.6491 121.299 90.8291 120.856 90.9521C120.414 91.0752 119.92 91.1367 119.373 91.1367C118.881 91.1367 118.396 91.0729 117.917 90.9453C117.438 90.8132 117.003 90.6149 116.611 90.3506C116.224 90.0863 115.914 89.749 115.682 89.3389C115.449 88.9287 115.333 88.4434 115.333 87.8828H117.391C117.391 88.1927 117.438 88.4548 117.534 88.6689C117.63 88.8831 117.764 89.0563 117.938 89.1885C118.115 89.3206 118.325 89.4163 118.566 89.4756C118.812 89.5348 119.081 89.5645 119.373 89.5645C119.729 89.5645 120.02 89.5143 120.248 89.4141C120.48 89.3138 120.651 89.1748 120.761 88.9971C120.875 88.8193 120.932 88.6188 120.932 88.3955ZM128.827 81.0469V91H126.783V81.0469H128.827ZM131.89 81.0469V82.6533H123.769V81.0469H131.89ZM142.314 87.6982H144.358C144.317 88.3682 144.133 88.9629 143.805 89.4824C143.481 90.002 143.028 90.4076 142.444 90.6992C141.866 90.9909 141.168 91.1367 140.353 91.1367C139.715 91.1367 139.143 91.0273 138.637 90.8086C138.131 90.5853 137.698 90.2663 137.338 89.8516C136.982 89.4368 136.711 88.9355 136.524 88.3477C136.338 87.7598 136.244 87.1012 136.244 86.3721V85.6816C136.244 84.9525 136.34 84.2939 136.531 83.7061C136.727 83.1136 137.005 82.61 137.365 82.1953C137.73 81.7806 138.165 81.4616 138.671 81.2383C139.177 81.015 139.742 80.9033 140.366 80.9033C141.196 80.9033 141.895 81.0537 142.465 81.3545C143.039 81.6553 143.483 82.07 143.798 82.5986C144.117 83.1273 144.308 83.7288 144.372 84.4033H142.321C142.299 84.0023 142.219 83.6628 142.082 83.3848C141.945 83.1022 141.738 82.8903 141.46 82.749C141.187 82.6032 140.822 82.5303 140.366 82.5303C140.024 82.5303 139.726 82.5941 139.471 82.7217C139.215 82.8493 139.001 83.043 138.828 83.3027C138.655 83.5625 138.525 83.8906 138.438 84.2871C138.356 84.679 138.315 85.1393 138.315 85.668V86.3721C138.315 86.887 138.354 87.3405 138.432 87.7324C138.509 88.1198 138.628 88.4479 138.787 88.7168C138.951 88.9811 139.161 89.1816 139.416 89.3184C139.676 89.4505 139.988 89.5166 140.353 89.5166C140.781 89.5166 141.134 89.4482 141.412 89.3115C141.69 89.1748 141.902 88.972 142.048 88.7031C142.198 88.4342 142.287 88.0993 142.314 87.6982ZM153.881 85.791V86.2627C153.881 87.0192 153.778 87.6982 153.573 88.2998C153.368 88.9014 153.079 89.4141 152.705 89.8379C152.331 90.2572 151.885 90.5785 151.365 90.8018C150.85 91.0251 150.278 91.1367 149.649 91.1367C149.025 91.1367 148.453 91.0251 147.934 90.8018C147.419 90.5785 146.972 90.2572 146.594 89.8379C146.215 89.4141 145.922 88.9014 145.712 88.2998C145.507 87.6982 145.404 87.0192 145.404 86.2627V85.791C145.404 85.0299 145.507 84.3509 145.712 83.7539C145.917 83.1523 146.206 82.6396 146.58 82.2158C146.958 81.792 147.405 81.4684 147.92 81.2451C148.439 81.0218 149.011 80.9102 149.636 80.9102C150.265 80.9102 150.837 81.0218 151.352 81.2451C151.871 81.4684 152.318 81.792 152.691 82.2158C153.07 82.6396 153.361 83.1523 153.566 83.7539C153.776 84.3509 153.881 85.0299 153.881 85.791ZM151.81 86.2627V85.7773C151.81 85.2487 151.762 84.7839 151.666 84.3828C151.57 83.9818 151.429 83.6445 151.242 83.3711C151.055 83.0977 150.827 82.8926 150.559 82.7559C150.29 82.6146 149.982 82.5439 149.636 82.5439C149.289 82.5439 148.982 82.6146 148.713 82.7559C148.449 82.8926 148.223 83.0977 148.036 83.3711C147.854 83.6445 147.715 83.9818 147.619 84.3828C147.523 84.7839 147.476 85.2487 147.476 85.7773V86.2627C147.476 86.7868 147.523 87.2516 147.619 87.6572C147.715 88.0583 147.856 88.3978 148.043 88.6758C148.23 88.9492 148.458 89.1566 148.727 89.2979C148.995 89.4391 149.303 89.5098 149.649 89.5098C149.996 89.5098 150.303 89.4391 150.572 89.2979C150.841 89.1566 151.067 88.9492 151.249 88.6758C151.431 88.3978 151.57 88.0583 151.666 87.6572C151.762 87.2516 151.81 86.7868 151.81 86.2627ZM160.854 81.0469H162.897V87.623C162.897 88.3887 162.733 89.0335 162.405 89.5576C162.082 90.0817 161.633 90.4759 161.059 90.7402C160.489 91.0046 159.833 91.1367 159.09 91.1367C158.347 91.1367 157.686 91.0046 157.107 90.7402C156.533 90.4759 156.082 90.0817 155.754 89.5576C155.43 89.0335 155.269 88.3887 155.269 87.623V81.0469H157.319V87.623C157.319 88.0697 157.39 88.4342 157.531 88.7168C157.673 88.9993 157.875 89.2067 158.14 89.3389C158.409 89.471 158.725 89.5371 159.09 89.5371C159.464 89.5371 159.78 89.471 160.04 89.3389C160.304 89.2067 160.505 88.9993 160.642 88.7168C160.783 88.4342 160.854 88.0697 160.854 87.623V81.0469ZM168.462 87.4521H165.926V85.8525H168.462C168.854 85.8525 169.173 85.7887 169.419 85.6611C169.665 85.529 169.845 85.3467 169.959 85.1143C170.073 84.8818 170.13 84.6198 170.13 84.3281C170.13 84.0319 170.073 83.7562 169.959 83.501C169.845 83.2458 169.665 83.0407 169.419 82.8857C169.173 82.7308 168.854 82.6533 168.462 82.6533H166.637V91H164.586V81.0469H168.462C169.241 81.0469 169.909 81.1882 170.465 81.4707C171.025 81.7487 171.454 82.1338 171.75 82.626C172.046 83.1182 172.194 83.681 172.194 84.3145C172.194 84.957 172.046 85.513 171.75 85.9824C171.454 86.4518 171.025 86.8141 170.465 87.0693C169.909 87.3245 169.241 87.4521 168.462 87.4521ZM181.785 85.791V86.2627C181.785 87.0192 181.683 87.6982 181.478 88.2998C181.272 88.9014 180.983 89.4141 180.609 89.8379C180.236 90.2572 179.789 90.5785 179.27 90.8018C178.755 91.0251 178.183 91.1367 177.554 91.1367C176.929 91.1367 176.357 91.0251 175.838 90.8018C175.323 90.5785 174.876 90.2572 174.498 89.8379C174.12 89.4141 173.826 88.9014 173.616 88.2998C173.411 87.6982 173.309 87.0192 173.309 86.2627V85.791C173.309 85.0299 173.411 84.3509 173.616 83.7539C173.821 83.1523 174.111 82.6396 174.484 82.2158C174.863 81.792 175.309 81.4684 175.824 81.2451C176.344 81.0218 176.916 80.9102 177.54 80.9102C178.169 80.9102 178.741 81.0218 179.256 81.2451C179.775 81.4684 180.222 81.792 180.596 82.2158C180.974 82.6396 181.266 83.1523 181.471 83.7539C181.68 84.3509 181.785 85.0299 181.785 85.791ZM179.714 86.2627V85.7773C179.714 85.2487 179.666 84.7839 179.57 84.3828C179.475 83.9818 179.333 83.6445 179.146 83.3711C178.96 83.0977 178.732 82.8926 178.463 82.7559C178.194 82.6146 177.886 82.5439 177.54 82.5439C177.194 82.5439 176.886 82.6146 176.617 82.7559C176.353 82.8926 176.127 83.0977 175.94 83.3711C175.758 83.6445 175.619 83.9818 175.523 84.3828C175.428 84.7839 175.38 85.2487 175.38 85.7773V86.2627C175.38 86.7868 175.428 87.2516 175.523 87.6572C175.619 88.0583 175.76 88.3978 175.947 88.6758C176.134 88.9492 176.362 89.1566 176.631 89.2979C176.9 89.4391 177.207 89.5098 177.554 89.5098C177.9 89.5098 178.208 89.4391 178.477 89.2979C178.745 89.1566 178.971 88.9492 179.153 88.6758C179.336 88.3978 179.475 88.0583 179.57 87.6572C179.666 87.2516 179.714 86.7868 179.714 86.2627ZM191.362 81.0469V91H189.312L185.312 84.3281V91H183.262V81.0469H185.312L189.318 87.7256V81.0469H191.362Z" fill="#1B1B1F"/>
<g clip-path="url(#clip1_5766_10911)">
<path fill-rule="evenodd" clip-rule="evenodd" d="M217.445 85.9599C217.539 86.0537 217.592 86.1809 217.592 86.3135C217.592 86.4461 217.539 86.5733 217.445 86.667L213.203 90.9097C213.109 91.0034 212.982 91.0561 212.849 91.0561C212.717 91.0561 212.589 91.0034 212.496 90.9097C212.402 90.8159 212.349 90.6887 212.349 90.5561C212.349 90.4235 212.402 90.2963 212.496 90.2026L215.885 86.8134L201.536 86.8141C201.47 86.8141 201.405 86.8012 201.344 86.776C201.283 86.7508 201.228 86.714 201.182 86.6675C201.135 86.621 201.098 86.5658 201.073 86.5051C201.048 86.4443 201.035 86.3792 201.035 86.3135C201.035 86.2477 201.048 86.1826 201.073 86.1219C201.098 86.0612 201.135 86.006 201.182 85.9595C201.228 85.913 201.283 85.8761 201.344 85.851C201.405 85.8258 201.47 85.8128 201.536 85.8128L215.885 85.8136L212.496 82.4244C212.402 82.3306 212.349 82.2034 212.349 82.0708C212.349 81.9382 212.402 81.8111 212.496 81.7173C212.589 81.6235 212.717 81.5708 212.849 81.5708C212.982 81.5708 213.109 81.6235 213.203 81.7173L217.445 85.9599Z" fill="#1B1B1F"/>
</g>
<path d="M0 113L329.5 93.5L418 113V126H0V113Z" fill="#6CBAE6"/>
<ellipse cx="369.5" cy="114" rx="29.5" ry="4" fill="url(#paint0_radial_5766_10911)" fill-opacity="0.5"/>
<g clip-path="url(#clip2_5766_10911)">
<path d="M407.966 46.245C405.126 44.6925 402.226 43.251 399.386 41.6985C397.93 40.9078 396.647 40.913 395.149 41.642C390.26 44.0747 384.914 41.2229 384.023 35.7293C383.74 34.0614 382.954 33.0011 381.501 32.2453C378.67 30.7979 375.868 29.2774 373.034 27.795C370.237 26.3445 368.483 26.9194 367.057 29.6871C360.454 42.7749 353.779 55.8338 347.141 68.9246C347.285 68.9827 347.431 69.0758 347.544 69.1718C349.015 70.1376 349.431 72.1465 348.451 73.6417C347.533 75.0609 345.663 75.5047 344.201 74.6439C341.979 79.0319 339.757 83.4198 337.535 87.8078C336.05 90.6864 336.62 92.4705 339.492 93.9849C351.053 100.107 362.61 106.194 374.203 112.278C377.04 113.795 378.791 113.185 380.276 110.307C382.533 105.916 384.755 101.528 387.008 97.102C385.996 96.6255 385.216 95.6352 385.11 94.4103C384.956 92.6255 386.243 91.0685 387.999 90.9166C388.688 90.857 389.363 91.0454 389.913 91.3857C391.635 88.0283 393.322 84.6738 395.043 81.3164C399.997 71.615 404.948 61.8786 409.867 52.1801C411.161 49.4943 410.622 47.6723 407.966 46.245ZM353.336 78.7898C351.58 78.9417 350.045 77.629 349.89 75.8442C349.736 74.0594 351.023 72.5024 352.779 72.3505C354.535 72.1986 356.071 73.5113 356.226 75.2961C356.38 77.0809 355.092 78.6378 353.336 78.7898ZM360.463 82.5804C358.707 82.7323 357.172 81.4196 357.017 79.6348C356.905 78.34 357.566 77.1546 358.622 76.5343C359.02 76.3236 359.424 76.1828 359.906 76.1411C360.354 76.1024 360.811 76.1687 361.239 76.3079C362.383 76.7025 363.238 77.7569 363.353 79.0867C363.507 80.8715 362.219 82.4285 360.463 82.5804ZM367.694 86.3622C365.938 86.5141 364.402 85.2014 364.247 83.4166C364.093 81.6318 365.381 80.0748 367.137 79.9229C368.893 79.771 370.428 81.0837 370.583 82.8685C370.737 84.6533 369.415 86.2132 367.694 86.3622ZM374.674 90.0598C372.918 90.2117 371.382 88.899 371.228 87.1142C371.073 85.3294 372.361 83.7724 374.117 83.6205C375.873 83.4685 377.409 84.7813 377.563 86.5661C377.715 88.3159 376.43 89.9078 374.674 90.0598ZM381.692 93.7894C379.936 93.9413 378.4 92.6286 378.245 90.8438C378.091 89.059 379.379 87.502 381.135 87.3501C382.891 87.1982 384.426 88.5109 384.581 90.2957C384.735 92.0805 383.448 93.6374 381.692 93.7894Z" fill="#0098ED"/>
<path d="M379.081 55.1966C376.346 58.4654 371.648 58.6955 369.545 55.6337C368.158 53.6382 368.389 50.6919 370.123 48.2853C372.819 44.5615 378.246 44.3388 380.182 47.8734C381.406 49.9888 380.94 53.026 379.081 55.1966ZM376.64 53.0454C377.837 51.6374 378.036 49.9278 377.096 49.0924C376.154 48.2219 374.081 48.7186 372.916 50.0887C371.685 51.4997 371.504 53.4193 372.475 54.2167C373.515 55.0082 375.413 54.4915 376.64 53.0454Z" fill="white"/>
<path d="M385.357 76.4077C385.131 76.6035 384.688 77.1002 384.167 77.4978C381.358 79.5038 377.716 79.1136 376.118 76.6781C374.283 73.9104 375.375 69.6908 378.485 67.553C381.072 65.7778 384.417 65.9468 386.11 67.8805C387.932 70.0852 387.743 73.5216 385.357 76.4077ZM383.148 74.1307C384.316 72.7956 384.49 70.8061 383.554 70.0056C382.58 69.1732 380.576 69.6639 379.373 71.002C378.205 72.337 377.993 74.2946 378.967 75.127C379.941 75.9595 382.014 75.4628 383.148 74.1307Z" fill="white"/>
<path d="M390.976 59.5622C390.236 59.8377 389.804 60.0514 389.331 60.1981C382.18 62.5444 374.991 64.8587 367.843 67.24C366.697 67.6212 365.848 67.8357 365.33 66.2586C364.852 64.7486 365.545 64.3361 366.761 63.9489C373.984 61.6316 381.201 59.2443 388.458 56.9241C388.997 56.7364 390.013 56.86 390.288 57.2241C390.755 57.8183 390.765 58.7342 390.976 59.5622Z" fill="white"/>
</g>
<path d="M341.047 81.0293L383.917 103.601L379.416 112.15C378.644 113.616 376.83 114.179 375.364 113.407L337.803 93.6303C336.337 92.8584 335.774 91.0442 336.546 89.5781L341.047 81.0293Z" fill="#6755B0"/>
<defs>
<radialGradient id="paint0_radial_5766_10911" cx="0" cy="0" r="1" gradientUnits="userSpaceOnUse" gradientTransform="translate(369.5 114) rotate(90) scale(4 29.5)">
<stop stop-color="#585858"/>
<stop offset="1" stop-color="#D9D9D9" stop-opacity="0"/>
</radialGradient>
<clipPath id="clip0_5766_10911">
<rect width="16" height="16" fill="white" transform="translate(198 86.3135) rotate(-45)"/>
</clipPath>
<clipPath id="clip1_5766_10911">
<rect width="16" height="16" fill="white" transform="translate(198 86.3135) rotate(-45)"/>
</clipPath>
<clipPath id="clip2_5766_10911">
<rect width="77.0692" height="86.2715" fill="white" transform="translate(331.528 30.3994) rotate(-4.94455)"/>
</clipPath>
</defs>
</svg>
