<?xml version="1.0" encoding="utf-8"?>
<!-- Generator: Adobe Illustrator 24.0.1, SVG Export Plug-In . SVG Version: 6.00 Build 0)  -->
<svg version="1.1" id="Layer_1" xmlns="http://www.w3.org/2000/svg" xmlns:xlink="http://www.w3.org/1999/xlink" x="0px" y="0px"
	 viewBox="0 0 43 43" style="enable-background:new 0 0 43 43;" xml:space="preserve">
<style type="text/css">
	.st0{fill:#FBDF00;}
	.st1{fill:#126FB7;}
	.st2{fill:#FFFFFF;}
</style>
<path d="M15.4,19.2c0-0.2,0-0.4,0-0.5c0-3.8,0-7.5,0-11.3c0-0.3,0.1-0.5,0.3-0.8c0.9-0.9,1.8-1.9,2.7-2.8c0.2-0.2,0.5-0.4,0.8-0.3
	c5.3,0,10.6,0,16,0c0.6,0,0.7,0.1,0.7,0.7c0,4.8,0,9.7,0,14.5c0,0.2,0,0.3,0,0.5c0.9,0,1.8,0,2.7,0c0.6,0,0.7,0.1,0.7,0.7
	c0,5.1,0,10.2,0,15.2c0,0.2-0.1,0.5-0.3,0.7c-0.9,1-1.8,1.9-2.7,2.8c-0.2,0.2-0.4,0.3-0.7,0.3c-10.9,0-21.7,0-32.6,0
	c-0.5,0-0.6-0.1-0.6-0.7c0-5.1,0-10.1,0-15.2c0-0.3,0.1-0.5,0.3-0.8c0.9-0.9,1.8-1.9,2.7-2.8c0.2-0.2,0.4-0.3,0.8-0.3
	c3,0,5.9,0,8.9,0C15.1,19.2,15.2,19.2,15.4,19.2z M19.7,37.9c1.8,0,3.5,0,5.2,0c0-0.2,0-0.3,0-0.4c0-1,0-2.1,0-3.1
	c0-0.3,0-0.5,0.3-0.7c0.3-0.1,0.4,0.1,0.6,0.3c0.1,0.1,0.2,0.2,0.2,0.2c0.3-0.2,0.5-0.5,0.8-0.5c0.3,0,0.5,0.3,0.8,0.5
	c0.7-0.6,0.7-0.6,1.5,0.1c0.1-0.1,0.1-0.2,0.2-0.3c0.2-0.2,0.3-0.4,0.6-0.3c0.3,0.1,0.3,0.4,0.3,0.6c0,1,0,2.1,0,3.1
	c0,0.1,0,0.3,0,0.4c1.7,0,3.4,0,5.1,0c0-4.9,0-9.8,0-14.6c-1.7,0-3.3,0-4.9,0c0,0.8,0,1.5,0,2.3c0,0.5-0.2,0.6-0.6,0.6
	c-1.4,0-2.9,0-4.3,0c-0.4,0-0.6-0.2-0.6-0.6c0-0.7,0-1.3,0-2c0-0.1,0-0.2,0-0.3c-1.7,0-3.3,0-5,0c0,0.2,0,0.3,0,0.4
	c0,0.7,0,1.4,0,2.1c0,0.4-0.2,0.6-0.5,0.6c-0.3,0-0.4-0.2-0.4-0.6c0-0.1,0-0.3,0-0.4c0-0.7,0-1.5,0-2.2c-1.7,0-3.4,0-5,0
	c0,0.1,0,0.1,0,0.1c0,0.7,0,1.4,0,2.1c0,0.5-0.2,0.7-0.7,0.7c-1.4,0-2.8,0-4.1,0c-0.6,0-0.8-0.1-0.8-0.8c0-0.7,0-1.4,0-2.1
	c-1.7,0-3.3,0-5,0c0,4.9,0,9.8,0,14.6c1.7,0,3.4,0,5.1,0c0-0.1,0-0.2,0-0.3c0-1.1,0-2.2,0-3.3c0-0.2,0.1-0.5,0.3-0.6
	c0.2-0.2,0.5,0,0.6,0.2c0.1,0.1,0.1,0.2,0.2,0.3c0.3-0.2,0.6-0.5,0.8-0.5c0.3,0,0.5,0.3,0.7,0.5c0.2-0.2,0.5-0.5,0.7-0.5
	c0.3,0,0.5,0.3,0.8,0.5c0.1-0.1,0.1-0.2,0.2-0.3c0.2-0.1,0.4-0.2,0.6-0.2c0.1,0.1,0.3,0.3,0.3,0.5c0,0.6,0,1.2,0,1.7
	c0,0.6,0,1.2,0,1.8c1.8,0,3.5,0,5.2,0c0-0.2,0-0.3,0-0.4c0-2.7,0-5.4,0-8.1c0-0.1,0-0.3,0-0.4c0.1-0.2,0.3-0.4,0.4-0.4
	c0.2,0,0.3,0.2,0.5,0.4c0.1,0.1,0,0.2,0,0.3c0,2.1,0,4.2,0,6.2C19.7,36.3,19.7,37.1,19.7,37.9z M31.9,22.3c0-4.9,0-9.8,0-14.7
	c-1.7,0-3.3,0-5,0c0,0.7,0,1.5,0,2.2c0,0.5-0.1,0.6-0.6,0.6c-1.4,0-2.8,0-4.3,0c-0.5,0-0.6-0.1-0.6-0.6c0-0.7,0-1.5,0-2.2
	c-1.7,0-3.4,0-5,0c0,4.9,0,9.8,0,14.7c1.7,0,3.4,0,5.2,0c0-0.1,0-0.3,0-0.4c0-1.1,0-2.1,0-3.2c0-0.3,0-0.5,0.3-0.7
	c0.3-0.1,0.5,0.1,0.6,0.3c0.1,0.1,0.2,0.2,0.2,0.2c0.7-0.6,0.7-0.6,1.4,0c0.3-0.2,0.5-0.5,0.7-0.5c0.3,0,0.5,0.3,0.8,0.5
	c0.1-0.1,0.1-0.2,0.2-0.3c0.2-0.1,0.4-0.3,0.5-0.2c0.2,0.1,0.3,0.3,0.3,0.5c0,0.6,0,1.1,0,1.7c0,0.7,0,1.4,0,2.1
	C28.4,22.3,30.1,22.3,31.9,22.3z M38.3,20.9c0,0-0.1-0.1-0.1-0.1c-0.6,0.7-1.2,1.3-1.8,2c-0.1,0.1-0.2,0.4-0.2,0.6c0,4.5,0,9,0,13.6
	c0,0.1,0,0.2,0,0.3c0,0,0.1,0.1,0.1,0.1c0.6-0.6,1.2-1.3,1.8-1.9c0.2-0.2,0.3-0.4,0.3-0.7c0-4,0-7.9,0-11.9
	C38.3,22.2,38.3,21.5,38.3,20.9z M34.9,5.2C34.3,5.8,33.6,6.4,33,7c-0.1,0.1-0.2,0.4-0.2,0.5c0,4.5,0,9.1,0,13.6c0,0.1,0,0.2,0,0.3
	c0,0,0-0.1-0.1-0.1c0.6-0.6,1.2-1.1,1.8-1.7c0.2-0.2,0.3-0.4,0.3-0.8c0-4.5,0-8.9,0-13.4C34.9,5.4,34.9,5.3,34.9,5.2z M34.2,4.5
	C34.2,4.5,34.2,4.4,34.2,4.5c-2.3-0.1-4.5-0.1-6.7-0.1c-0.1,0-0.3,0.1-0.3,0.2c-0.6,0.6-1.1,1.1-1.7,1.7c-0.1,0.1-0.2,0.2-0.3,0.4
	c2.3,0,4.5,0,6.8,0c0.1,0,0.2,0,0.3-0.1C32.9,5.9,33.6,5.2,34.2,4.5z M12.9,20.2C12.9,20.2,12.8,20.1,12.9,20.2
	c-2.3-0.1-4.5-0.1-6.7-0.1c-0.1,0-0.3,0.1-0.3,0.2c-0.5,0.5-1,1-1.4,1.5c-0.2,0.2-0.3,0.4-0.6,0.6c2.3,0,4.6,0,6.8,0
	c0.1,0,0.2,0,0.2-0.1C11.5,21.6,12.2,20.9,12.9,20.2z M26,4.5C26,4.4,25.9,4.4,26,4.5c-2.3-0.1-4.5-0.1-6.7-0.1
	c-0.1,0-0.2,0-0.2,0.1c-0.7,0.7-1.3,1.4-2,2.1c0.1,0,0.1,0,0.1,0c2.2,0,4.4,0,6.5,0c0.1,0,0.2,0,0.3-0.1C24.7,5.8,25.3,5.2,26,4.5z
	 M25.8,22.3c0-0.9,0-1.8,0-2.7c-0.5,0.2-0.6-0.3-0.9-0.5c-0.3,0.2-0.5,0.5-0.8,0.5c-0.3,0-0.5-0.3-0.7-0.4c-0.3,0.2-0.6,0.4-1,0.6
	c0,0.7,0,1.6,0,2.5C23.5,22.3,24.6,22.3,25.8,22.3z M12.7,38c0-0.9,0-1.7,0-2.6c-0.5,0.2-0.7-0.3-1-0.5c-0.7,0.6-0.7,0.6-1.5,0
	c-0.3,0.2-0.5,0.7-1,0.5c0,0.9,0,1.7,0,2.6C10.4,38,11.5,38,12.7,38z M29.2,37.9c0-0.9,0-1.7,0-2.6c-0.5,0.2-0.7-0.3-1-0.5
	c-0.8,0.7-0.7,0.7-1.5,0c-0.3,0.2-0.4,0.7-0.9,0.5c0,0.9,0,1.7,0,2.5C26.9,37.9,28,37.9,29.2,37.9z M12.8,25.3c0-0.7,0-1.3,0-2
	c-1.3,0-2.5,0-3.7,0c0,0.7,0,1.3,0,2C10.3,25.3,11.6,25.3,12.8,25.3z M29.3,23.3c-1.2,0-2.4,0-3.6,0c0,0.7,0,1.3,0,2
	c1.2,0,2.4,0,3.6,0C29.3,24.6,29.3,24,29.3,23.3z M22.3,9.5c1.2,0,2.4,0,3.7,0c0-0.6,0-1.3,0-1.9c-1.2,0-2.4,0-3.7,0
	C22.3,8.2,22.3,8.8,22.3,9.5z M15.4,20.1c-0.3,0-0.5,0-0.7,0c-0.3,0-0.6,0.1-0.8,0.3c-0.5,0.6-1.1,1.1-1.6,1.7
	c-0.1,0.1-0.1,0.1-0.2,0.2c1.1,0,2.2,0,3.3,0C15.4,21.6,15.4,20.9,15.4,20.1z M33.4,22.3c0.4,0,0.9,0,1.4,0c0.5,0,0.8-0.1,1.2-0.5
	c0.5-0.6,1.1-1.1,1.7-1.8c-0.7,0-1.4,0-2,0c-0.1,0-0.2,0-0.2,0.1C34.7,20.9,34.1,21.6,33.4,22.3z"/>
<path class="st1" d="M38.3,20.9c0,0.6,0,1.3,0,1.9c0,4,0,7.9,0,11.9c0,0.3-0.1,0.5-0.3,0.7c-0.6,0.6-1.2,1.3-1.8,1.9
	c0,0-0.1-0.1-0.1-0.1c0-0.1,0-0.2,0-0.3c0-4.5,0-9,0-13.6c0-0.2,0.1-0.4,0.2-0.6c0.6-0.7,1.2-1.3,1.8-2
	C38.2,20.8,38.3,20.9,38.3,20.9z"/>
<path class="st0" d="M29.3,23.3c0,0.7,0,1.3,0,2c-1.2,0-2.4,0-3.6,0c0-0.6,0-1.3,0-2C26.9,23.3,28.1,23.3,29.3,23.3z"/>
<path class="st1" d="M33.4,22.3c0.6-0.7,1.3-1.4,2-2.1c0.1-0.1,0.2-0.1,0.2-0.1c0.6,0,1.3,0,2,0c-0.6,0.6-1.2,1.2-1.7,1.8
	c-0.3,0.4-0.7,0.5-1.2,0.5C34.3,22.3,33.9,22.3,33.4,22.3z"/>
<path d="M5.2,29.3c0,0.8,0,1.6,0,2.4c0,0.4-0.2,0.6-0.4,0.6c-0.3,0-0.5-0.2-0.5-0.6c0-1.6,0-3.2,0-4.8c0-0.4,0.2-0.6,0.5-0.6
	c0.3,0,0.4,0.3,0.4,0.6C5.2,27.7,5.2,28.5,5.2,29.3z"/>
<path d="M5.3,25c-0.1,0.2-0.1,0.4-0.2,0.6c-0.2,0.2-0.4,0.2-0.6,0c-0.2-0.2-0.2-0.9,0-1.1c0.2-0.2,0.4-0.2,0.6,0
	C5.2,24.6,5.2,24.8,5.3,25z"/>
</svg>
