<svg width="25" height="21" viewBox="0 0 25 21" fill="none" xmlns="http://www.w3.org/2000/svg">
<path d="M22.6852 3.23077H18.75L17.8125 0.611539C17.7477 0.432312 17.629 0.27739 17.4726 0.167935C17.3162 0.0584809 17.1297 -0.000168063 16.9387 3.61739e-07H8.06134C7.67072 3.61739e-07 7.3206 0.245193 7.19039 0.611539L6.25 3.23077H2.31481C1.03588 3.23077 0 4.26346 0 5.53846V18.6923C0 19.9673 1.03588 21 2.31481 21H22.6852C23.9641 21 25 19.9673 25 18.6923V5.53846C25 4.26346 23.9641 3.23077 22.6852 3.23077ZM12.5 16.3846C9.94213 16.3846 7.87037 14.3192 7.87037 11.7692C7.87037 9.21923 9.94213 7.15385 12.5 7.15385C15.0579 7.15385 17.1296 9.21923 17.1296 11.7692C17.1296 14.3192 15.0579 16.3846 12.5 16.3846ZM9.72222 11.7692C9.72222 12.5037 10.0149 13.208 10.5358 13.7274C11.0567 14.2467 11.7633 14.5385 12.5 14.5385C13.2367 14.5385 13.9433 14.2467 14.4642 13.7274C14.9851 13.208 15.2778 12.5037 15.2778 11.7692C15.2778 11.0348 14.9851 10.3304 14.4642 9.81109C13.9433 9.29176 13.2367 9 12.5 9C11.7633 9 11.0567 9.29176 10.5358 9.81109C10.0149 10.3304 9.72222 11.0348 9.72222 11.7692Z" fill="#A9A8A8"/>
</svg>
