<svg width="27" height="27" viewBox="0 0 27 27" fill="none" xmlns="http://www.w3.org/2000/svg">
<circle cx="13.4957" cy="13.4997" r="9.14516" fill="white"/>
<path d="M13.5 0C17.0804 0 20.5142 1.42232 23.0459 3.95406C25.5777 6.4858 27 9.91958 27 13.5C27 17.0804 25.5777 20.5142 23.0459 23.0459C20.5142 25.5777 17.0804 27 13.5 27C9.91958 27 6.4858 25.5777 3.95406 23.0459C1.42232 20.5142 0 17.0804 0 13.5C0 9.91958 1.42232 6.4858 3.95406 3.95406C6.4858 1.42232 9.91958 0 13.5 0ZM13.5 11.8626L10.3641 8.72679C10.147 8.50966 9.85253 8.38768 9.54546 8.38768C9.2384 8.38768 8.94391 8.50966 8.72679 8.72679C8.50966 8.94391 8.38768 9.2384 8.38768 9.54546C8.38768 9.85253 8.50966 10.147 8.72679 10.3641L11.8626 13.5L8.72679 16.6359C8.61928 16.7434 8.53399 16.871 8.47581 17.0115C8.41763 17.1519 8.38768 17.3025 8.38768 17.4545C8.38768 17.6066 8.41763 17.7571 8.47581 17.8976C8.53399 18.0381 8.61928 18.1657 8.72679 18.2732C8.8343 18.3807 8.96193 18.466 9.1024 18.5242C9.24287 18.5824 9.39342 18.6123 9.54546 18.6123C9.69751 18.6123 9.84806 18.5824 9.98853 18.5242C10.129 18.466 10.2566 18.3807 10.3641 18.2732L13.5 15.1374L16.6359 18.2732C16.7434 18.3807 16.871 18.466 17.0115 18.5242C17.1519 18.5824 17.3025 18.6123 17.4545 18.6123C17.6066 18.6123 17.7571 18.5824 17.8976 18.5242C18.0381 18.466 18.1657 18.3807 18.2732 18.2732C18.3807 18.1657 18.466 18.0381 18.5242 17.8976C18.5824 17.7571 18.6123 17.6066 18.6123 17.4545C18.6123 17.3025 18.5824 17.1519 18.5242 17.0115C18.466 16.871 18.3807 16.7434 18.2732 16.6359L15.1374 13.5L18.2732 10.3641C18.3807 10.2566 18.466 10.129 18.5242 9.98853C18.5824 9.84806 18.6123 9.69751 18.6123 9.54546C18.6123 9.39342 18.5824 9.24287 18.5242 9.1024C18.466 8.96193 18.3807 8.8343 18.2732 8.72679C18.1657 8.61928 18.0381 8.53399 17.8976 8.47581C17.7571 8.41763 17.6066 8.38768 17.4545 8.38768C17.3025 8.38768 17.1519 8.41763 17.0115 8.47581C16.871 8.53399 16.7434 8.61928 16.6359 8.72679L13.5 11.8626Z" fill="black"/>
</svg>
