<svg width="75" height="43" viewBox="0 0 75 43" fill="none" xmlns="http://www.w3.org/2000/svg">
<path d="M71.7188 1H3.28125C2.02135 1 1 2.10136 1 3.45995V39.5401C1 40.8986 2.02135 42 3.28125 42H71.7188C72.9787 42 74 40.8986 74 39.5401V3.45995C74 2.10136 72.9787 1 71.7188 1Z" fill="white" stroke="#E0E0E0" stroke-opacity="0.5"/>
<path d="M29.4572 32.3155C35.7156 32.3155 40.789 27.3078 40.789 21.1304C40.789 14.9531 35.7156 9.94531 29.4572 9.94531C23.1989 9.94531 18.1255 14.9531 18.1255 21.1304C18.1255 27.3078 23.1989 32.3155 29.4572 32.3155Z" fill="#CC0000"/>
<path d="M45.3239 32.3155C51.5823 32.3155 56.6557 27.3078 56.6557 21.1304C56.6557 14.9531 51.5823 9.94531 45.3239 9.94531C39.0656 9.94531 33.9922 14.9531 33.9922 21.1304C33.9922 27.3078 39.0656 32.3155 45.3239 32.3155Z" fill="#FF9900"/>
<path fill-rule="evenodd" clip-rule="evenodd" d="M37.3913 29.1365C37.3913 29.1365 40.7926 25.5505 40.7926 21.1278C40.7926 16.7052 37.389 13.1191 37.389 13.1191C37.389 13.1191 33.9922 15.8595 33.9922 21.1278C33.9922 26.3961 37.3913 29.1365 37.3913 29.1365Z" fill="#F16D27"/>
</svg>
