<svg width="74" height="43" viewBox="0 0 74 43" fill="none" xmlns="http://www.w3.org/2000/svg">
<path d="M70.75 1H3.25C2.00736 1 1 2.10136 1 3.45995V39.5401C1 40.8986 2.00736 42 3.25 42H70.75C71.9926 42 73 40.8986 73 39.5401V3.45995C73 2.10136 71.9926 1 70.75 1Z" fill="white" stroke="#E0E0E0" stroke-opacity="0.5"/>
<path d="M29.3943 32.4271C35.3106 32.4271 40.1067 27.6663 40.1067 21.7936C40.1067 15.9209 35.3106 11.1602 29.3943 11.1602C23.478 11.1602 18.6819 15.9209 18.6819 21.7936C18.6819 27.6663 23.478 32.4271 29.3943 32.4271Z" fill="#007BDB"/>
<path d="M44.3916 32.4271C50.3079 32.4271 55.104 27.6663 55.104 21.7936C55.104 15.9209 50.3079 11.1602 44.3916 11.1602C38.4753 11.1602 33.6792 15.9209 33.6792 21.7936C33.6792 27.6663 38.4753 32.4271 44.3916 32.4271Z" fill="#E42B00"/>
<path fill-rule="evenodd" clip-rule="evenodd" d="M36.8925 29.4052C36.8925 29.4052 40.1079 25.996 40.1079 21.7914C40.1079 17.5869 36.8904 14.1777 36.8904 14.1777C36.8904 14.1777 33.6792 16.783 33.6792 21.7914C33.6792 26.7999 36.8925 29.4052 36.8925 29.4052Z" fill="#1740CE"/>
</svg>
