<svg width="75" height="43" viewBox="0 0 75 43" fill="none" xmlns="http://www.w3.org/2000/svg">
<path d="M71.7188 1H3.28125C2.02135 1 1 2.10136 1 3.45995V39.5401C1 40.8986 2.02135 42 3.28125 42H71.7188C72.9787 42 74 40.8986 74 39.5401V3.45995C74 2.10136 72.9787 1 71.7188 1Z" fill="white" stroke="#E0E0E0" stroke-opacity="0.5"/>
<path fill-rule="evenodd" clip-rule="evenodd" d="M27.2083 27.7559L30.0812 11.2857H34.6792L31.8039 27.7559H27.2058H27.2083ZM48.4832 11.6909C47.1663 11.2268 45.7692 10.9926 44.3615 11.0002C39.8177 11.0002 36.6166 13.2337 36.592 16.4342C36.5623 18.8013 38.8749 20.1229 40.6174 20.9104C42.4092 21.7163 43.0114 22.2321 43.004 22.9528C42.9917 24.058 41.5725 24.5623 40.2521 24.5623C38.4109 24.5623 37.4336 24.3136 35.9206 23.6988L35.3283 23.4363L34.6866 27.1204C35.7602 27.5809 37.747 27.9793 39.8103 28C44.6404 28 47.7798 25.7918 47.8168 22.3748C47.8341 20.4983 46.6074 19.0753 43.9542 17.8987C42.3475 17.1365 41.3628 16.6299 41.3726 15.8563C41.3726 15.1724 42.2068 14.4402 44.0061 14.4402C45.5116 14.4172 46.5976 14.7395 47.4466 15.0734L47.8612 15.2599L48.4832 11.6909ZM54.6065 21.9166C54.9866 20.9703 56.4378 17.3115 56.4378 17.3115C56.4106 17.3576 56.8154 16.3582 57.0474 15.7412L57.3584 17.1618L58.4221 21.9166H54.6065V21.9166ZM60.2781 11.3018H56.7241C55.6233 11.3018 54.799 11.5942 54.3152 12.6672L47.4861 27.7628H52.3161C52.3161 27.7628 53.1059 25.732 53.2836 25.2853L59.1724 25.2945C59.3082 25.8701 59.7302 27.7628 59.7302 27.7628H64L60.2781 11.3041V11.3018ZM23.3507 11.2995L18.8514 22.5291L18.3676 20.245C17.5285 17.6154 14.9197 14.7649 12 13.3373L16.1168 27.7421L20.9813 27.7398L28.2227 11.2995H23.3507" fill="#191975"/>
</svg>
