<svg width="36" height="29" viewBox="0 0 36 29" fill="none" xmlns="http://www.w3.org/2000/svg">
<path d="M14.9229 28.7342C16.2138 28.7342 17.2602 27.6878 17.2602 26.3969C17.2602 25.106 16.2138 24.0596 14.9229 24.0596C13.632 24.0596 12.5856 25.106 12.5856 26.3969C12.5856 27.6878 13.632 28.7342 14.9229 28.7342Z" fill="black"/>
<path d="M27.5083 28.7342C28.7992 28.7342 29.8457 27.6878 29.8457 26.3969C29.8457 25.106 28.7992 24.0596 27.5083 24.0596C26.2175 24.0596 25.171 25.106 25.171 26.3969C25.171 27.6878 26.2175 28.7342 27.5083 28.7342Z" fill="black"/>
<path d="M19.7773 10.7631H23.3731V6.72524H28.749V4.02434H23.3731V0H19.7773V4.02434H14.4014V6.72524H19.7773V10.7631Z" fill="#FF9502"/>
<path d="M14.3835 22.709H28.767C29.1291 22.7082 29.4826 22.6253 29.7809 22.4711C30.0793 22.3168 30.3087 22.0985 30.439 21.8447L35.5272 11.9054H31.6796L27.5264 20.0081H15.5881L7.51537 5.46379C7.24166 4.97096 6.7796 4.55013 6.18757 4.25448C5.59554 3.95883 4.90012 3.80163 4.18919 3.80274H0V6.50364H4.18919L12.7294 21.8717C12.8643 22.1184 13.0933 22.3295 13.3877 22.4785C13.682 22.6275 14.0285 22.7077 14.3835 22.709Z" fill="black"/>
</svg>
