<svg width="29" height="30" viewBox="0 0 29 30" fill="none" xmlns="http://www.w3.org/2000/svg">
<path d="M9.71703 29.6089C11.4732 29.6089 12.8969 28.1852 12.8969 26.4289C12.8969 24.6727 11.4732 23.249 9.71703 23.249C7.96081 23.249 6.53711 24.6727 6.53711 26.4289C6.53711 28.1852 7.96081 29.6089 9.71703 29.6089Z" fill="black"/>
<path d="M23.1428 29.6089C24.899 29.6089 26.3227 28.1852 26.3227 26.4289C26.3227 24.6727 24.899 23.249 23.1428 23.249C21.3866 23.249 19.9629 24.6727 19.9629 26.4289C19.9629 28.1852 21.3866 29.6089 23.1428 29.6089Z" fill="black"/>
<path d="M7.2079 5.5472L6.11258 2.22594C5.67658 0.912924 4.45729 0.0197477 3.07394 0H0.706656C0.316369 0 0 0.316369 0 0.706656C0 1.09694 0.316369 1.41331 0.706656 1.41331H3.07394C3.84227 1.43029 4.51884 1.92364 4.76994 2.64998L9.22189 16.1824L8.9039 16.995C8.51645 18.0081 8.62087 19.1435 9.18659 20.069C9.77462 20.9667 10.7639 21.5207 11.8366 21.553H25.6163C26.0066 21.553 26.323 21.2366 26.323 20.8463C26.323 20.456 26.0066 20.1396 25.6163 20.1396H11.8365C11.2416 20.1191 10.697 19.8004 10.3879 19.2916C10.0543 18.7896 9.98833 18.1558 10.2112 17.5956L10.6352 16.5356C10.6989 16.3663 10.7112 16.1819 10.6705 16.0056L10.4585 15.4756L24.8389 13.9916C25.8859 13.8974 26.7546 13.1426 26.9942 12.119L28.4782 5.86513L7.2079 5.5472Z" fill="black"/>
</svg>
