<svg width="24" height="24" viewBox="0 0 24 24" fill="none" xmlns="http://www.w3.org/2000/svg">
<path d="M9.96645 17.1664C10.1617 17.3617 10.4783 17.3617 10.6736 17.1664L17.94 9.9C18.4039 9.43608 18.4039 8.68392 17.94 8.22C17.4761 7.75608 16.7239 7.75608 16.26 8.22L10.6309 13.8491C10.4592 14.0208 10.1808 14.0208 10.0091 13.8491L7.74 11.58C7.27608 11.1161 6.52392 11.1161 6.06 11.58C5.59608 12.0439 5.59608 12.7961 6.06 13.26L9.96645 17.1664ZM12 24C10.34 24 8.78 23.6848 7.32 23.0544C5.86 22.4248 4.59 21.57 3.51 20.49C2.43 19.41 1.5752 18.14 0.9456 16.68C0.3152 15.22 0 13.66 0 12C0 10.34 0.3152 8.78 0.9456 7.32C1.5752 5.86 2.43 4.59 3.51 3.51C4.59 2.43 5.86 1.5748 7.32 0.9444C8.78 0.3148 10.34 0 12 0C13.66 0 15.22 0.3148 16.68 0.9444C18.14 1.5748 19.41 2.43 20.49 3.51C21.57 4.59 22.4248 5.86 23.0544 7.32C23.6848 8.78 24 10.34 24 12C24 13.66 23.6848 15.22 23.0544 16.68C22.4248 18.14 21.57 19.41 20.49 20.49C19.41 21.57 18.14 22.4248 16.68 23.0544C15.22 23.6848 13.66 24 12 24Z" fill="url(#paint0_linear_9283_12557)"/>
<defs>
<linearGradient id="paint0_linear_9283_12557" x1="12" y1="0" x2="12" y2="24" gradientUnits="userSpaceOnUse">
<stop stop-color="#FF9900"/>
<stop offset="1" stop-color="#FF7E07"/>
</linearGradient>
</defs>
</svg>
