<svg width="20" height="24" viewBox="0 0 20 24" fill="none" xmlns="http://www.w3.org/2000/svg">
<path d="M2 24V21.8182H18V24H2ZM2 2.18182V0H18V2.18182H2ZM10 13.0909C10.8333 13.0909 11.5417 12.7727 12.125 12.1364C12.7083 11.5 13 10.7273 13 9.81818C13 8.90909 12.7083 8.13636 12.125 7.5C11.5417 6.86364 10.8333 6.54545 10 6.54545C9.16667 6.54545 8.45833 6.86364 7.875 7.5C7.29167 8.13636 7 8.90909 7 9.81818C7 10.7273 7.29167 11.5 7.875 12.1364C8.45833 12.7727 9.16667 13.0909 10 13.0909ZM2 20.7273C1.45 20.7273 0.979333 20.5138 0.588 20.0869C0.196 19.6593 0 19.1455 0 18.5455V5.45455C0 4.85455 0.196 4.34109 0.588 3.91418C0.979333 3.48655 1.45 3.27273 2 3.27273H18C18.55 3.27273 19.021 3.48655 19.413 3.91418C19.8043 4.34109 20 4.85455 20 5.45455V18.5455C20 19.1455 19.8043 19.6593 19.413 20.0869C19.021 20.5138 18.55 20.7273 18 20.7273H2ZM3.75 18.5455H16.25C15.5 17.5273 14.5917 16.7273 13.525 16.1455C12.4583 15.5636 11.2833 15.2727 10 15.2727C8.71667 15.2727 7.54167 15.5636 6.475 16.1455C5.40833 16.7273 4.5 17.5273 3.75 18.5455Z" fill="#FF9900"/>
</svg>
