<svg width="114" height="114" viewBox="0 0 114 114" fill="none" xmlns="http://www.w3.org/2000/svg">
<circle cx="57" cy="57" r="57" fill="#FF7E07" fill-opacity="0.1"/>
<path d="M77.8235 68.8312C77.0592 66.5369 76.2819 64.2468 75.4916 61.9609C75.4449 61.8377 75.4242 61.7058 75.4309 61.574C75.4376 61.4421 75.4716 61.3131 75.5306 61.1954C77.222 57.4277 77.6361 53.5197 76.7729 49.4712C74.7231 39.8692 65.3545 33.5313 55.8291 35.2943C47.3532 36.8638 41.1303 44.1982 40.8881 52.9095C40.8902 53.0129 40.8667 53.1151 40.8198 53.2068C40.7729 53.2985 40.7041 53.3768 40.6197 53.4345C39.2446 54.5186 38.1027 55.8772 37.2645 57.4267C35.4022 60.8715 35.1158 64.4702 36.2465 68.2144C36.4212 68.796 36.9171 69.3027 36.7644 69.9538C36.6192 70.5718 36.3823 71.1673 36.1686 71.7714C35.7706 72.8844 35.4558 74.0273 35 75.1189V76.0576C35.0189 76.0779 35.0474 76.095 35.0547 76.1185C35.5695 77.7223 36.7981 78.3531 38.3636 77.8078C39.828 77.2989 41.2945 76.7942 42.7547 76.2714C42.8743 76.2211 43.0028 76.1966 43.1322 76.1993C43.2616 76.2021 43.389 76.2321 43.5064 76.2875C45.7751 77.2957 48.1491 77.6592 50.5978 77.3096C54.1773 76.7985 57.0934 75.0644 59.3211 72.1627C59.3801 72.0767 59.4589 72.0067 59.5506 71.9588C59.6424 71.9109 59.7443 71.8866 59.8475 71.8879C62.2281 71.7992 64.566 71.2194 66.7189 70.1837C66.8168 70.1352 66.9236 70.1082 67.0324 70.1043C67.1412 70.1004 67.2496 70.1198 67.3506 70.1613C69.5909 70.9503 71.8354 71.7276 74.0788 72.5134C74.3656 72.6249 74.6659 72.6968 74.9716 72.7272C77.0876 72.8534 78.5162 70.9097 77.8235 68.8312ZM50.5494 74.6805C48.3397 75.06 46.0684 74.7092 44.0696 73.6798C43.8289 73.5522 43.5638 73.4793 43.2926 73.466C43.0214 73.4527 42.7506 73.4994 42.4989 73.6028C40.926 74.1759 39.3406 74.7158 37.6919 75.2921C38.0488 74.2229 38.3868 73.2147 38.7268 72.2033C38.9437 71.5618 39.1479 70.9118 39.3858 70.2789C39.473 70.0622 39.512 69.8286 39.5002 69.5949C39.4884 69.3611 39.426 69.1329 39.3174 68.9264C38.7922 67.8747 38.4367 66.7441 38.2646 65.5778C37.9109 63.2408 38.33 60.8507 39.4564 58.7813C39.8963 57.9515 40.4492 57.1888 41.0987 56.5158C42.3167 64.3024 48.8471 70.6488 56.2965 71.7179C54.6436 73.3291 52.7497 74.3213 50.5494 74.6784V74.6805ZM75.3643 70.0618C75.2042 70.2169 75.021 70.0832 74.8537 70.0255C72.4375 69.1851 70.0193 68.3512 67.6085 67.498C67.3683 67.4036 67.1109 67.3629 66.8538 67.3788C66.5967 67.3947 66.346 67.4667 66.1188 67.59C63.3816 68.9991 60.4728 69.5604 57.4198 69.2236C54.2535 68.8934 51.2666 67.5719 48.8723 65.4421C46.7439 63.5956 45.1487 61.197 44.257 58.5022C43.4682 56.1527 43.2451 53.6454 43.6064 51.1904C44.0928 47.7445 45.5593 44.7755 47.9638 42.3165C50.4978 39.7217 53.5709 38.1896 57.1576 37.7384C57.7998 37.6571 58.442 37.6657 59.0842 37.6261C61.3022 37.6219 63.4941 38.1109 65.5061 39.0588C68.6223 40.5289 71.0205 42.8008 72.6997 45.8414C73.6299 47.5279 74.2371 49.3781 74.4894 51.2941C74.9431 54.4653 74.4178 57.7015 72.986 60.5571C72.8478 60.8177 72.7673 61.1059 72.7503 61.4013C72.7332 61.6968 72.7799 61.9925 72.8871 62.2678C73.723 64.6733 74.5262 67.0896 75.34 69.5027C75.4032 69.6866 75.5401 69.8886 75.3643 70.0597V70.0618Z" fill="#FF9900"/>
<path d="M66.5438 52.0076C64.027 52.0027 61.5096 52.0027 58.9915 52.0076H53.8591C53.0241 52.0076 52.1901 51.9905 51.3562 52.0076C50.3488 52.0334 49.7234 53.1031 50.1212 54.1029C50.3999 54.8026 50.9232 55.0011 51.5508 54.9998C56.5148 54.9949 61.4788 54.9949 66.4427 54.9998C66.6261 55.002 66.8093 54.9831 66.9895 54.9435C67.2753 54.8761 67.5321 54.6969 67.7163 54.4363C67.9005 54.1757 68.0008 53.8496 68 53.5135C68 52.6227 67.4181 52.0088 66.5438 52.0076Z" fill="#FF9900"/>
<path d="M66.4108 47C61.4754 47.006 56.5404 47.0074 51.6057 47.0041C51.4361 47.002 51.2666 47.0094 51.0984 47.0262C50.8647 47.0464 50.6438 47.1186 50.4626 47.2341C50.2814 47.3496 50.1479 47.5033 50.0783 47.6765C49.772 48.3513 50.3974 48.995 51.376 48.9974C53.9064 49.0032 56.4379 48.9974 58.9694 48.9974H60.7936C62.7443 48.9974 64.6962 49.0032 66.6437 48.9974C67.6436 48.9933 68.2775 48.2701 67.8797 47.5986C67.5968 47.114 67.0511 46.9992 66.4108 47Z" fill="#FF9900"/>
<path d="M60.7159 57.0055C59.1402 56.9931 57.5634 57.0055 55.9877 57.0055C54.4955 57.0055 53.0038 57.0055 51.5123 57.0055C51.3158 56.9895 51.1183 57.0095 50.9271 57.0649C50.6349 57.1662 50.3825 57.3848 50.2145 57.6822C50.0465 57.9796 49.9736 58.3368 50.0086 58.6908C50.1038 59.4692 50.6118 59.9926 51.3282 59.9938C54.438 60.0021 57.5482 60.0021 60.6588 59.9938C60.8277 60.0022 60.9965 59.9732 61.1562 59.9084C61.4363 59.7898 61.6722 59.5607 61.8233 59.2605C61.9743 58.9603 62.0311 58.6078 61.9837 58.2639C61.9399 57.9095 61.7869 57.586 61.5534 57.3543C61.32 57.1225 61.0221 56.9985 60.7159 57.0055Z" fill="#FF9900"/>
</svg>
