<svg width="26" height="26" viewBox="0 0 26 26" fill="none" xmlns="http://www.w3.org/2000/svg">
<circle cx="13" cy="13" r="12" fill="white" stroke="black" stroke-opacity="0.07"/>
<path d="M9.1 17.1667C8.7975 17.1667 8.53863 17.0546 8.3234 16.8304C8.1078 16.6058 8 16.3359 8 16.0208V9.14583C8 8.83073 8.1078 8.56108 8.3234 8.33687C8.53863 8.11229 8.7975 8 9.1 8H17.9C18.2025 8 18.4616 8.11229 18.6772 8.33687C18.8924 8.56108 19 8.83073 19 9.14583V16.0208C19 16.3359 18.8924 16.6058 18.6772 16.8304C18.4616 17.0546 18.2025 17.1667 17.9 17.1667H9.1ZM13.5 13.1563L17.9 10.2917V9.14583L13.5 12.0104L9.1 9.14583V10.2917L13.5 13.1563Z" fill="#1C1B1F"/>
</svg>
