<svg width="23" height="18" viewBox="0 0 23 18" fill="none" xmlns="http://www.w3.org/2000/svg">
<path d="M2.13953 17.25C1.55116 17.25 1.04766 17.039 0.629023 16.6171C0.209674 16.1945 0 15.6867 0 15.0938V2.15625C0 1.56328 0.209674 1.05584 0.629023 0.633937C1.04766 0.211312 1.55116 0 2.13953 0H8.55814L10.6977 2.15625H19.2558C19.8442 2.15625 20.348 2.36756 20.7674 2.79019C21.186 3.21209 21.3953 3.71953 21.3953 4.3125H2.13953V15.0938L4.70698 6.46875H23L20.2453 15.7137C20.1027 16.1809 19.8399 16.5539 19.4569 16.8328C19.0732 17.1109 18.6496 17.25 18.186 17.25H2.13953Z" fill="#FF9900"/>
</svg>
