<?xml version="1.0" encoding="utf-8"?>
<!-- Generator: Adobe Illustrator 24.0.1, SVG Export Plug-In . SVG Version: 6.00 Build 0)  -->
<svg version="1.1" id="Layer_1" xmlns="http://www.w3.org/2000/svg" xmlns:xlink="http://www.w3.org/1999/xlink" x="0px" y="0px"
	 viewBox="0 0 43 43" style="enable-background:new 0 0 43 43;" xml:space="preserve">
<style type="text/css">
	.st0{fill:#FBDF00;}
	.st1{fill:#126FB7;}
	.st2{fill:#FFFFFF;}
</style>
<path d="M10.1,40.6c-0.3-0.1-0.6-0.2-0.9-0.4c-0.7-0.4-1.2-1.1-1.4-1.9C7.1,34.7,6.3,31,5.4,27.3c0-0.1-0.1-0.2-0.1-0.4
	c-0.4,0-0.8,0-1.2,0c-0.8,0-1.3-0.5-1.3-1.3c0-0.5,0-1,0-1.6c0-0.7,0.5-1.2,1.2-1.2c1,0,2,0,3,0c-0.1-0.1-0.1-0.3-0.2-0.4
	c-0.5-0.9-1-1.9-1.5-2.8c-1.2-2.1-0.2-4.4,1.9-5c0.1,0,0.1,0,0.2-0.1c-0.9-1.6-1.6-3.2-3.2-4.1C3.9,10.3,3.8,10,3.9,9.7
	c0.2-0.3,0.5-0.4,0.9-0.2c1,0.5,1.7,1.3,2.3,2.2c0.2,0.3,0.4,0.7,0.7,1c-0.3-0.9-0.6-1.8-0.9-2.8c-0.2-0.5-0.4-1-0.5-1.5
	C6.2,8,6.3,7.6,6.6,7.5C7,7.4,7.3,7.6,7.4,8C8,9.5,8.5,11.1,9,12.6c0,0.1,0.1,0.2,0.1,0.3c0.1-1,0.1-2,0.2-2.9
	c0-0.5,0.3-0.7,0.7-0.6c0.4,0.1,0.5,0.3,0.5,0.8c-0.1,1.1-0.2,2.3,0,3.4c0.8-0.3,1.5-0.4,2.3-0.2c1.3,0.4,2.1,1.3,2.4,2.6
	c0.2,1.2,0.4,2.4,0.7,3.7c0-0.1,0-0.3,0-0.4c0-1.3,0-2.6,0-3.9c0-1.4,0.4-2.6,1.3-3.6c0.8-0.9,1.3-2,1.2-3.2c0-0.1,0-0.2,0-0.2
	c-0.4-0.6-0.2-1.2-0.2-1.8c0-1.4,0-2.8,0-4.1c0-0.8,0.3-1,1-1c1,0,2,0,3,0c0.7,0,1,0.3,1,1c0,1.7,0,3.5,0,5.2c0,0.2-0.2,0.4-0.2,0.7
	c0,0.5-0.1,1.1,0.1,1.6c0.2,0.6,0.5,1.1,0.8,1.7c0.3,0.4,0.6,0.8,1,1.3c0-0.2,0-0.4,0-0.6c0-0.8,0.5-1.3,1.3-1.3c2.6,0,5.2,0,7.8,0
	c0.8,0,1.2,0.5,1.2,1.2c0,0.2,0,0.3,0,0.5c0,0.8-0.1,1-0.9,1.4c0.3,0.5,0.5,1.1,0.9,1.6c0.4,0.7,0.6,1.5,0.6,2.3c0,1.5,0,2.9,0,4.4
	c0,0.2,0,0.3,0,0.5c0.5,0,1,0,1.5,0c0.5,0,1,0,1.5,0c0.7,0,1.2,0.5,1.2,1.2c0,0.6,0,1.1,0,1.7c0,0.7-0.5,1.2-1.2,1.2
	c-0.4,0-0.8,0-1.3,0c-0.2,0.8-0.4,1.6-0.5,2.5c-0.7,3-1.3,5.9-2,8.9c-0.3,1.2-0.9,2-2.2,2.3c0,0-0.1,0-0.1,0.1
	C25,40.6,17.6,40.6,10.1,40.6z M36.1,27c-9.9,0-19.7,0-29.5,0c0,0.2,0.1,0.3,0.1,0.4c0.8,3.5,1.6,7,2.3,10.5
	c0.3,1.2,0.8,1.6,1.9,1.6c6.9,0,13.9,0,20.8,0c1.2,0,1.7-0.4,1.9-1.6c0.5-2.4,1-4.7,1.6-7.1C35.5,29.5,35.8,28.3,36.1,27z M38.6,24
	C27.1,24,15.5,24,4,24c0,0.6,0,1.2,0,1.7c11.6,0,23.1,0,34.6,0C38.6,25.2,38.6,24.6,38.6,24z M24.2,16.7c0.2-1.7-0.1-3.2-1.3-4.5
	c-0.4-0.4-0.7-1-0.9-1.6c-0.2-0.7-0.3-1.4-0.4-2.1c-0.6,0-1.4,0-2.1,0c0,0.1,0,0.1,0,0.1c0,1.5-0.5,2.8-1.5,3.9
	c-0.8,0.8-1.1,1.9-1.1,3c0,2.3,0,4.6,0,6.9c0,0.1,0,0.3,0,0.4c0.6,0,1.2,0,1.8,0c0-1.6,0-3.1,0-4.7c0-1,0.4-1.4,1.4-1.4
	C21.5,16.7,22.8,16.7,24.2,16.7z M6.8,19.8c0.6-0.2,1.2-0.4,1.8-0.6c0.6-0.2,1.2-0.4,1.8-0.6c0.5-0.2,1,0.2,0.8,0.6
	c-0.1,0.2-0.3,0.4-0.5,0.5C10,20,9.3,20.2,8.6,20.4c-0.4,0.1-0.8,0.3-1.3,0.4c0.3,0.5,0.5,1,0.8,1.4c0.8-0.3,1.7-0.6,2.5-0.8
	c0.4-0.1,0.7,0,0.8,0.3c0.1,0.3,0,0.6-0.5,0.8c-0.2,0.1-0.5,0.2-0.8,0.3c1.7,0,3.3,0,5,0c-0.1-0.3-0.1-0.7-0.2-1
	c-0.3-1.8-0.6-3.6-0.9-5.5c-0.3-1.5-1.5-2.3-2.9-1.8c-1.2,0.4-2.4,0.8-3.6,1.2c-0.9,0.3-1.5,1.1-1.5,2C6,18.6,6.4,19.2,6.8,19.8z
	 M34.4,22.8c0-0.1,0-0.1,0-0.2c0-1.8,0-3.6,0-5.4c0-0.2-0.1-0.4-0.2-0.5c-0.4-0.8-0.8-1.6-1.2-2.4C33,14.1,32.9,14,32.6,14
	c-1.8,0-3.6,0-5.4,0c-0.2,0-0.3,0.1-0.4,0.3c-0.4,0.8-0.8,1.6-1.2,2.4c-0.1,0.2-0.2,0.4-0.2,0.7c0,1.7,0,3.4,0,5.1
	c0,0.1,0,0.2,0,0.4c0.3,0,0.6,0,0.9,0c0-0.1,0-0.3,0-0.4c0-1.1,0-2.2,0-3.3c0-0.8,0.3-1.1,1.1-1.1c1.7,0,3.4,0,5.1,0
	c0.8,0,1.1,0.3,1.1,1.1c0,1.1,0,2.1,0,3.2c0,0.1,0,0.3,0,0.4C33.9,22.8,34.1,22.8,34.4,22.8z M19.9,22.8c1.5,0,2.9,0,4.3,0
	c0-1.7,0-3.3,0-4.9c-1.5,0-2.9,0-4.3,0C19.9,19.6,19.9,21.2,19.9,22.8z M32.4,22.8c0-1.2,0-2.4,0-3.6c-1.7,0-3.3,0-4.9,0
	c0,1.2,0,2.4,0,3.6C29.1,22.8,30.7,22.8,32.4,22.8z M19.3,7.3c0.9,0,1.8,0,2.7,0c0-1.6,0-3.2,0-4.8c-0.9,0-1.8,0-2.7,0
	C19.3,4.2,19.3,5.7,19.3,7.3z M26,12.9c2.7,0,5.3,0,7.9,0c0-0.3,0-0.5,0-0.8c-2.7,0-5.3,0-7.9,0C26,12.3,26,12.6,26,12.9z
	 M25.2,13.8c0.1,0.3,0.1,0.5,0.2,0.8c0.1-0.2,0.2-0.4,0.3-0.6C25.5,13.9,25.3,13.9,25.2,13.8z"/>
<path class="st1" d="M34.4,22.8c-0.3,0-0.6,0-0.9,0c0-0.2,0-0.3,0-0.4c0-1.1,0-2.1,0-3.2c0-0.8-0.3-1.1-1.1-1.1c-1.7,0-3.4,0-5.1,0
	c-0.8,0-1.1,0.3-1.1,1.1c0,1.1,0,2.2,0,3.3c0,0.1,0,0.3,0,0.4c-0.3,0-0.6,0-0.9,0c0-0.1,0-0.2,0-0.4c0-1.7,0-3.4,0-5.1
	c0-0.2,0.1-0.5,0.2-0.7c0.4-0.8,0.8-1.6,1.2-2.4c0.1-0.2,0.2-0.3,0.4-0.3c1.8,0,3.6,0,5.4,0c0.2,0,0.3,0.1,0.4,0.3
	c0.4,0.8,0.8,1.6,1.2,2.4c0.1,0.2,0.1,0.4,0.2,0.5c0,1.8,0,3.6,0,5.4C34.5,22.7,34.4,22.8,34.4,22.8z"/>
<path class="st0" d="M26,12.9c0-0.3,0-0.5,0-0.8c2.6,0,5.3,0,7.9,0c0,0.3,0,0.5,0,0.8C31.2,12.9,28.6,12.9,26,12.9z"/>
<path d="M31.1,29.6c-0.1,0.6-0.3,1.3-0.4,2c-0.3,1.6-0.7,3.1-1,4.7c0,0.1,0,0.1,0,0.2c-0.1,0.4-0.4,0.6-0.7,0.5
	c-0.3-0.1-0.5-0.4-0.4-0.8c0.3-1.4,0.6-2.9,0.9-4.3c0.2-0.8,0.3-1.6,0.5-2.4c0.1-0.5,0.4-0.7,0.7-0.6C30.9,29.1,31.1,29.3,31.1,29.6
	z"/>
<path d="M19.3,36.3c0,0.4-0.2,0.7-0.5,0.7c-0.4,0-0.6-0.2-0.6-0.7c-0.2-2.2-0.3-4.4-0.5-6.6c0-0.1,0-0.2,0-0.3
	c0-0.3,0.2-0.5,0.5-0.5c0.3,0,0.5,0.1,0.6,0.4c0.1,0.4,0.1,0.8,0.1,1.3C19,32.5,19.2,34.4,19.3,36.3z"/>
<path d="M14.2,36.5c0,0.4-0.2,0.6-0.5,0.7c-0.3,0.1-0.6-0.1-0.7-0.5c-0.2-0.8-0.4-1.7-0.5-2.5c-0.1-0.3-0.2-0.7-0.2-1
	c0-0.3,0.1-0.6,0.4-0.6c0.3-0.1,0.6,0,0.7,0.3C13.7,34.1,13.9,35.3,14.2,36.5z"/>
<path d="M25.5,29.7c-0.1,0.9-0.1,1.8-0.2,2.7c0,0.4-0.3,0.7-0.6,0.6c-0.4,0-0.6-0.3-0.5-0.7c0.1-0.9,0.1-1.8,0.2-2.6
	c0-0.4,0.3-0.7,0.6-0.7C25.3,29,25.5,29.3,25.5,29.7z"/>
<path d="M25.1,35.8c0,0.3,0,0.6-0.1,0.8c-0.1,0.3-0.3,0.5-0.6,0.5c-0.3,0-0.5-0.2-0.5-0.6c0-0.5,0-1,0.1-1.5c0-0.3,0.3-0.5,0.6-0.5
	c0.3,0,0.5,0.2,0.5,0.5C25.1,35.3,25.1,35.6,25.1,35.8C25.1,35.8,25.1,35.8,25.1,35.8z"/>
<path d="M12.3,29.1c0.1,0.1,0.3,0.2,0.4,0.4c0.1,0.3,0.2,0.6,0.2,0.9c0,0.3-0.1,0.5-0.4,0.6c-0.3,0.1-0.5-0.1-0.6-0.4
	c-0.1-0.3-0.2-0.6-0.2-1C11.5,29.3,11.8,29.1,12.3,29.1z"/>
</svg>
