<?xml version="1.0" encoding="utf-8"?>
<!-- Generator: Adobe Illustrator 24.0.1, SVG Export Plug-In . SVG Version: 6.00 Build 0)  -->
<svg version="1.1" id="Layer_1" xmlns="http://www.w3.org/2000/svg" xmlns:xlink="http://www.w3.org/1999/xlink" x="0px" y="0px"
	 viewBox="0 0 43 43" style="enable-background:new 0 0 43 43;" xml:space="preserve">
<style type="text/css">
	.st0{fill:#FBDF00;}
	.st1{fill:#126FB7;}
	.st2{fill:#FFFFFF;}
</style>
<polygon class="st0" points="31.2,13.4 30.2,11.4 27.2,9.4 29.2,8.4 31.2,5.4 33.2,8.4 35.2,9.4 33.2,11.4 31.2,13.4 "/>
<path d="M2.5,25.1c0.1-0.2,0.2-0.4,0.3-0.6c0.4-0.6,0.9-0.9,1.6-1c1.1,0,2.2,0,3.3,0c0.4,0,0.8,0.2,1.2,0.3c0-1.1,0-2.3,0-3.6
	c-0.1,0-0.3,0-0.4,0c-0.9,0-1.8,0-2.7,0c-0.7,0-1-0.5-0.6-1.1c2.1-3.4,4.2-6.7,6.3-10.1c0.2-0.3,0.4-0.4,0.8-0.4c3.5,0,7.1,0,10.6,0
	c0.5,0,0.8,0.2,0.8,0.6c0,0.4-0.3,0.7-0.8,0.7c-3,0-6.1,0-9.1,0c-0.1,0-0.3,0-0.5,0c0.1,0.1,0.1,0.2,0.2,0.3
	c1.8,2.8,3.5,5.6,5.3,8.4c0.1,0.2,0.2,0.3,0.4,0.3c5.8,0,11.6,0,17.3,0c0,0,0.1,0,0.2,0c-0.1-0.1-0.1-0.2-0.2-0.4
	c-0.9-1.4-1.8-2.8-2.6-4.2c-0.2-0.4-0.2-0.8,0.1-1c0.3-0.2,0.7-0.1,1,0.3c0.5,0.7,0.9,1.4,1.3,2.1c0.7,1.1,1.4,2.2,2.1,3.3
	c0.2,0.3,0.3,0.5,0.1,0.8c-0.2,0.3-0.4,0.3-0.7,0.3c-0.6,0-1.1,0-1.7,0c0,2.7,0,5.4,0,8.2c0.6-0.2,1.1-0.3,1.7-0.6
	c1.6-0.6,3.1,0.3,3.4,1.7c0,0,0,0,0,0.1c0,0.3,0,0.6,0,0.8c-0.2,0.9-0.8,1.5-1.7,2c-3.7,2.2-7.5,4.5-11.2,6.8c-1.1,0.7-2.2,1-3.5,1
	c-5.1,0-10.2,0-15.3,0c-0.2,0-0.3,0-0.5,0.1c-0.3,0.2-0.7,0.4-1,0.6c-1.3,0-2.6,0-3.9,0c-0.8-0.2-1.4-0.8-1.6-1.6
	C2.5,34.6,2.5,29.9,2.5,25.1z M9.7,26.2c0,4.3,0,8.5,0,12.8c0.2,0,0.3,0,0.5,0c4.9,0,9.8,0,14.8,0c1,0,1.9-0.2,2.7-0.8
	c2.9-1.8,5.8-3.6,8.8-5.3c1-0.6,2-1.2,2.9-1.8c0.4-0.3,0.6-0.7,0.5-1.1c-0.1-0.5-0.4-0.8-0.8-0.9c-0.3,0-0.6,0-0.8,0.1
	c-3.7,1.2-7.4,2.5-11.1,3.7c-0.7,0.3-1.5,0.4-2.3,0.4c-1.6,0-3.3,0-4.9,0c-1,0-1.8,0.2-2.7,0.7c-0.3,0.2-0.5,0.4-0.8,0.5
	c-0.3,0.2-0.7,0.1-0.9-0.2c-0.2-0.3-0.1-0.6,0.2-0.9c1.1-0.8,2.3-1.3,3.6-1.4c1.3,0,2.5,0,3.8,0c0.6,0,0.8-0.1,0.8-0.8
	c0-0.3,0-0.7-0.2-1c-0.4-0.9-1.2-1.4-2.2-1.5c-1.1,0-2.2,0-3.4,0c-1.5,0-2.9-0.4-4.1-1.4C12.8,26.3,11.3,26,9.7,26.2z M25.2,32
	c0.4-0.1,0.7-0.1,1.1-0.2c2.7-0.9,5.5-1.8,8.2-2.7c0.3-0.1,0.4-0.2,0.3-0.5c0-2.6,0-5.2,0-7.8c0-0.1,0-0.2,0-0.4
	c-4.1,0-8.1,0-12.2,0c0,0.1,0,0.1,0,0.2c0,2.2,0,4.5,0,6.7c0,0.3,0.1,0.3,0.3,0.4c1.6,0.6,2.6,2.1,2.4,3.6
	C25.3,31.5,25.2,31.7,25.2,32z M10.3,24.8c0.1,0,0.1,0,0.2,0c1.8-0.1,3.3,0.5,4.7,1.6c0.7,0.5,1.5,0.8,2.3,0.9
	c1.2,0.1,2.3,0,3.5,0.1c0.1,0,0.2,0,0.2-0.1c0-2.4,0-4.7,0-7c-0.8,0-1.5,0-2.3,0c-0.4,0-0.7-0.1-1-0.5c-1.2-1.9-2.4-3.8-3.6-5.8
	c-0.1-0.1-0.1-0.2-0.2-0.3c-1.3,2-2.5,4-3.8,6.1c-0.1,0.1-0.1,0.3-0.1,0.4c0,1,0,2.1,0,3.1C10.3,23.8,10.3,24.3,10.3,24.8z
	 M3.8,32.3c0,2.2,0,4.4,0,6.6c0,0.6,0.2,0.8,0.8,0.8c1,0,1.9,0,2.9,0c0.6,0,0.8-0.2,0.8-0.8c0-4.4,0-8.8,0-13.2
	c0-0.5-0.2-0.8-0.8-0.8c-1,0-1.9,0-2.9,0c-0.7,0-0.9,0.2-0.9,0.9C3.8,27.9,3.8,30.1,3.8,32.3z M12.2,10.6c-1.8,2.8-3.5,5.6-5.3,8.5
	c0.8,0,1.5,0,2.2,0c0.1,0,0.2-0.1,0.3-0.2c1.3-2.1,2.6-4.1,3.9-6.2c0.1-0.1,0.1-0.3,0-0.3C13,11.8,12.6,11.2,12.2,10.6z"/>
<path d="M31.8,2.3c0.3,0.2,0.4,0.5,0.4,0.9c0,1,0.3,2,0.8,3c0.8,1.7,2.2,2.5,4.1,2.6c0.1,0,0.3,0,0.4,0C37.8,8.8,38,9.1,38,9.5
	c0,0.4-0.2,0.5-0.6,0.6c-0.5,0.1-1,0.1-1.4,0.2c-1.8,0.4-2.8,1.6-3.3,3.3c-0.2,0.8-0.3,1.6-0.4,2.4c-0.1,0.5-0.4,0.8-0.8,0.7
	c-0.4-0.1-0.5-0.4-0.5-0.8c-0.1-0.8-0.2-1.7-0.5-2.5c-0.7-2-2.2-3-4.3-3.2c-0.1,0-0.3,0-0.4,0c-0.4,0-0.6-0.3-0.6-0.6
	c0-0.3,0.2-0.6,0.6-0.7c0.3,0,0.6,0,0.9-0.1c1.9-0.3,3.2-1.4,3.8-3.2c0.3-0.7,0.4-1.5,0.5-2.3c0.1-0.4,0.1-0.7,0.5-0.9
	C31.5,2.3,31.6,2.3,31.8,2.3z M28.7,9.4c1.3,0.7,2.3,1.8,2.9,3.2c0.6-1.4,1.5-2.5,2.9-3.2c-1.3-0.7-2.3-1.8-2.9-3.2
	C30.9,7.6,30,8.7,28.7,9.4z"/>
<path class="st1" d="M9.7,26.2c1.7-0.2,3.2,0.1,4.5,1.2c1.2,0.9,2.6,1.4,4.1,1.4c1.1,0,2.2,0,3.4,0c1,0,1.8,0.5,2.2,1.5
	c0.1,0.3,0.2,0.7,0.2,1c0,0.6-0.2,0.8-0.8,0.8c-1.3,0-2.5,0-3.8,0c-1.4,0-2.6,0.6-3.6,1.4c-0.3,0.2-0.4,0.6-0.2,0.9
	c0.2,0.3,0.6,0.4,0.9,0.2c0.3-0.2,0.5-0.4,0.8-0.5c0.8-0.5,1.7-0.7,2.7-0.7c1.6,0,3.3,0,4.9,0c0.8,0,1.5-0.1,2.3-0.4
	c3.7-1.2,7.4-2.5,11.1-3.7c0.3-0.1,0.5-0.1,0.8-0.1c0.5,0.1,0.8,0.4,0.8,0.9c0.1,0.5-0.1,0.9-0.5,1.1c-1,0.6-2,1.2-2.9,1.8
	c-2.9,1.8-5.8,3.5-8.8,5.3c-0.9,0.5-1.7,0.8-2.7,0.8c-4.9,0-9.8,0-14.8,0c-0.2,0-0.3,0-0.5,0C9.7,34.7,9.7,30.5,9.7,26.2z"/>
<path class="st2" d="M3.8,32.3c0-2.2,0-4.3,0-6.5c0-0.7,0.2-0.9,0.9-0.9c1,0,1.9,0,2.9,0c0.6,0,0.8,0.2,0.8,0.8c0,4.4,0,8.8,0,13.2
	c0,0.6-0.2,0.8-0.8,0.8c-1,0-1.9,0-2.9,0c-0.6,0-0.8-0.2-0.8-0.8C3.8,36.7,3.8,34.5,3.8,32.3z"/>
<path d="M33.5,25.5c0,0.6,0,1.2,0,1.8c0,0.4-0.2,0.7-0.6,0.8c-1.2,0.4-2.4,0.8-3.6,1.2c-0.5,0.1-0.8,0-0.9-0.4
	c-0.1-0.4,0.1-0.7,0.5-0.8c1-0.3,2-0.7,3-1c0.3-0.1,0.4-0.2,0.4-0.5c0-1,0-2,0-2.9c0-0.6,0.6-0.9,1-0.6c0.2,0.1,0.3,0.4,0.3,0.6
	C33.5,24.3,33.5,24.9,33.5,25.5z"/>
</svg>
