<svg width="38" height="38" viewBox="0 0 38 38" fill="none" xmlns="http://www.w3.org/2000/svg">
<g filter="url(#filter0_d_5059_18976)">
<circle cx="19" cy="18" r="15" fill="white"/>
<path d="M29.4709 19.0354C29.3627 19.2764 29.378 19.5439 29.3173 19.7956C28.9334 21.4057 28.095 22.6852 26.7087 23.553C25.6834 24.2052 24.4619 24.451 23.2729 24.2444C22.1029 24.0572 21.1236 23.4935 20.3033 22.6264C20.0088 22.3151 19.9145 21.9465 20.0451 21.5341C20.0926 21.357 20.1915 21.1989 20.3287 21.081C20.4659 20.9632 20.6348 20.891 20.8129 20.8743C21.1298 20.8313 21.3895 20.9582 21.608 21.187C21.9695 21.573 22.4095 21.8723 22.8966 22.0634C23.5447 22.3103 24.2506 22.3482 24.9202 22.1723C25.5898 21.9964 26.1913 21.6149 26.6445 21.0787C27.954 19.5009 27.9533 17.2977 26.6445 15.7242C25.3126 14.1241 22.854 14.1263 21.5166 15.7242C20.8869 16.4587 20.5381 17.4032 20.5351 18.3821C20.5156 19.7246 20.1763 20.964 19.3784 22.0397C18.0947 23.7675 16.4054 24.5736 14.2826 24.2293C12.6708 23.9668 11.4716 23.0338 10.622 21.6266C9.91562 20.4576 9.61964 19.1681 9.7788 17.804C10.058 15.3935 11.2398 13.6242 13.5036 12.7887C15.1964 12.1633 16.8019 12.4896 18.2504 13.5841C18.4928 13.7695 18.7189 13.9763 18.9261 14.2023C19.0606 14.3368 19.1554 14.5076 19.1995 14.695C19.2435 14.8824 19.2352 15.0788 19.1753 15.2616C19.1346 15.4259 19.0499 15.5751 18.9306 15.6923C18.8114 15.8094 18.6625 15.8898 18.501 15.9243C18.1575 16.006 17.8678 15.8927 17.6256 15.6417C17.3086 15.3042 16.9341 15.0292 16.5206 14.8305C15.8569 14.5238 15.1147 14.4443 14.4037 14.6039C13.6927 14.7635 13.0504 15.1537 12.5717 15.717C11.2531 17.2948 11.2531 19.5124 12.5717 21.0866C13.9092 22.6823 16.3663 22.6745 17.7003 21.0766C18.3256 20.3464 18.6727 19.4084 18.6776 18.4359C18.6936 17.2719 18.9463 16.1703 19.5599 15.1855C20.7243 13.3209 22.3766 12.344 24.5594 12.5219C26.1286 12.6503 27.3683 13.4593 28.3086 14.7452C28.9359 15.6113 29.3248 16.6349 29.4346 17.7086C29.4388 17.7445 29.422 17.7911 29.4737 17.8076V17.9266C29.4478 17.9503 29.4548 17.9819 29.4534 18.0113V18.083C29.4534 18.1124 29.4485 18.144 29.4737 18.1676V18.6431C29.4478 18.6668 29.4548 18.6983 29.4534 18.7278V18.7959C29.4534 18.8253 29.4485 18.8568 29.4737 18.8805L29.4709 19.0354Z" fill="url(#paint0_linear_5059_18976)"/>
</g>
<defs>
<filter id="filter0_d_5059_18976" x="0" y="0" width="38" height="38" filterUnits="userSpaceOnUse" color-interpolation-filters="sRGB">
<feFlood flood-opacity="0" result="BackgroundImageFix"/>
<feColorMatrix in="SourceAlpha" type="matrix" values="0 0 0 0 0 0 0 0 0 0 0 0 0 0 0 0 0 0 127 0" result="hardAlpha"/>
<feOffset dy="1"/>
<feGaussianBlur stdDeviation="2"/>
<feComposite in2="hardAlpha" operator="out"/>
<feColorMatrix type="matrix" values="0 0 0 0 0 0 0 0 0 0 0 0 0 0 0 0 0 0 0.04 0"/>
<feBlend mode="normal" in2="BackgroundImageFix" result="effect1_dropShadow_5059_18976"/>
<feBlend mode="normal" in="SourceGraphic" in2="effect1_dropShadow_5059_18976" result="shape"/>
</filter>
<linearGradient id="paint0_linear_5059_18976" x1="19.6052" y1="12.4736" x2="19.6052" y2="24.3157" gradientUnits="userSpaceOnUse">
<stop stop-color="#FF9900"/>
<stop offset="1" stop-color="#FF7E07"/>
</linearGradient>
</defs>
</svg>
