<svg width="16" height="22" viewBox="0 0 16 22" fill="none" xmlns="http://www.w3.org/2000/svg">
<path d="M8 13.8283C7.04762 13.8283 6.2381 13.4922 5.57143 12.8199C4.90476 12.1477 4.57143 11.3315 4.57143 10.3712V3.45706C4.57143 2.49677 4.90476 1.68052 5.57143 1.00831C6.2381 0.336103 7.04762 0 8 0C8.95238 0 9.76191 0.336103 10.4286 1.00831C11.0952 1.68052 11.4286 2.49677 11.4286 3.45706V10.3712C11.4286 11.3315 11.0952 12.1477 10.4286 12.8199C9.76191 13.4922 8.95238 13.8283 8 13.8283ZM6.85714 21.8947V18.3512C4.87619 18.0824 3.2381 17.1893 1.94286 15.672C0.647619 14.1548 0 12.3878 0 10.3712H2.28571C2.28571 11.9653 2.84305 13.3239 3.95771 14.4471C5.07162 15.571 6.41905 16.133 8 16.133C9.58095 16.133 10.9288 15.571 12.0434 14.4471C13.1573 13.3239 13.7143 11.9653 13.7143 10.3712H16C16 12.3878 15.3524 14.1548 14.0571 15.672C12.7619 17.1893 11.1238 18.0824 9.14286 18.3512V21.8947H6.85714Z" fill="#FF9900"/>
</svg>
