<svg width="26" height="26" viewBox="0 0 26 26" fill="none" xmlns="http://www.w3.org/2000/svg">
<circle cx="13" cy="13" r="12" fill="white" stroke="black" stroke-opacity="0.07"/>
<path d="M10.0588 18.8C9.76765 18.8 9.51829 18.6943 9.31076 18.483C9.10359 18.2713 9 18.017 9 17.72V10.16H10.0588V17.72H15.8824V18.8H10.0588ZM12.1765 16.64C11.8853 16.64 11.6361 16.5343 11.4289 16.323C11.2214 16.1113 11.1176 15.857 11.1176 15.56V9.08C11.1176 8.783 11.2214 8.52866 11.4289 8.31698C11.6361 8.10566 11.8853 8 12.1765 8H16.9412C17.2324 8 17.4817 8.10566 17.6892 8.31698C17.8964 8.52866 18 8.783 18 9.08V15.56C18 15.857 17.8964 16.1113 17.6892 16.323C17.4817 16.5343 17.2324 16.64 16.9412 16.64H12.1765Z" fill="#1C1B1F"/>
</svg>
