<svg width="17" height="22" viewBox="0 0 17 22" fill="none" xmlns="http://www.w3.org/2000/svg">
<path d="M8.5 10.625C9.08438 10.625 9.58481 10.4167 10.0013 10.0002C10.4171 9.58446 10.625 9.08438 10.625 8.5C10.625 7.91563 10.4171 7.41519 10.0013 6.99869C9.58481 6.5829 9.08438 6.375 8.5 6.375C7.91563 6.375 7.41554 6.5829 6.99975 6.99869C6.58325 7.41519 6.375 7.91563 6.375 8.5C6.375 9.08438 6.58325 9.58446 6.99975 10.0002C7.41554 10.4167 7.91563 10.625 8.5 10.625ZM8.5 21.25C5.64896 18.824 3.51971 16.5704 2.11225 14.4893C0.704083 12.4089 0 10.4833 0 8.7125C0 6.05625 0.854604 3.9401 2.56381 2.36406C4.27231 0.788021 6.25104 0 8.5 0C10.749 0 12.7277 0.788021 14.4362 2.36406C16.1454 3.9401 17 6.05625 17 8.7125C17 10.4833 16.2963 12.4089 14.8888 14.4893C13.4806 16.5704 11.351 18.824 8.5 21.25Z" fill="white"/>
</svg>
