<svg width="31" height="30" viewBox="0 0 31 30" fill="none" xmlns="http://www.w3.org/2000/svg">
<path d="M2.35448 0.162608L30.0644 13.5064C30.3445 13.6411 30.581 13.8528 30.7466 14.1171C30.9121 14.3815 31 14.6876 31 15.0001C31 15.3126 30.9121 15.6187 30.7466 15.8831C30.581 16.1474 30.3445 16.3591 30.0644 16.4938L2.35448 29.8376C2.07041 29.9746 1.75324 30.0265 1.4407 29.9873C1.12815 29.948 0.833394 29.8191 0.591496 29.616C0.349597 29.4129 0.17074 29.1441 0.0762051 28.8416C-0.0183296 28.5391 -0.0245621 28.2156 0.0582491 27.9096L2.83056 17.6763C2.8645 17.5509 2.93435 17.4383 3.0314 17.3526C3.12846 17.2669 3.24842 17.2118 3.37634 17.1943L16.8039 15.3576C16.86 15.3496 16.9131 15.3271 16.9581 15.2923C17.003 15.2575 17.0382 15.2116 17.0604 15.159L17.084 15.0769C17.0944 15.003 17.0796 14.9277 17.0422 14.8633C17.0047 14.7988 16.9467 14.7491 16.8776 14.722L16.8052 14.7022L3.39081 12.8655C3.26313 12.8477 3.14345 12.7926 3.04664 12.7069C2.94984 12.6212 2.88019 12.5087 2.84634 12.3835L0.0582491 2.09195C-0.0248975 1.78588 -0.0189186 1.4622 0.0754736 1.15945C0.169866 0.856712 0.348693 0.587667 0.590656 0.384365C0.832619 0.181063 1.12752 0.0520719 1.44023 0.0127559C1.75295 -0.0265602 2.0703 0.0254556 2.35448 0.162608Z" fill="white"/>
</svg>
