<svg width="55" height="55" viewBox="0 0 55 55" fill="none" xmlns="http://www.w3.org/2000/svg">
<rect width="55" height="55" rx="27.5" fill="url(#paint0_linear_7754_11759)"/>
<path d="M19.3545 13.1626L47.0644 26.5064C47.3445 26.6411 47.581 26.8528 47.7466 27.1171C47.9121 27.3815 48 27.6876 48 28.0001C48 28.3126 47.9121 28.6187 47.7466 28.8831C47.581 29.1474 47.3445 29.3591 47.0644 29.4938L19.3545 42.8376C19.0704 42.9746 18.7532 43.0265 18.4407 42.9873C18.1282 42.948 17.8334 42.8191 17.5915 42.616C17.3496 42.4129 17.1707 42.1441 17.0762 41.8416C16.9817 41.5391 16.9754 41.2156 17.0582 40.9096L19.8306 30.6763C19.8645 30.5509 19.9343 30.4383 20.0314 30.3526C20.1285 30.2669 20.2484 30.2118 20.3763 30.1943L33.8039 28.3576C33.86 28.3496 33.9131 28.3271 33.9581 28.2923C34.003 28.2575 34.0382 28.2116 34.0604 28.159L34.084 28.0769C34.0944 28.003 34.0796 27.9277 34.0422 27.8633C34.0047 27.7988 33.9467 27.7491 33.8776 27.722L33.8052 27.7022L20.3908 25.8655C20.2631 25.8477 20.1434 25.7926 20.0466 25.7069C19.9498 25.6212 19.8802 25.5087 19.8463 25.3835L17.0582 15.0919C16.9751 14.7859 16.9811 14.4622 17.0755 14.1595C17.1699 13.8567 17.3487 13.5877 17.5907 13.3844C17.8326 13.1811 18.1275 13.0521 18.4402 13.0128C18.7529 12.9734 19.0703 13.0255 19.3545 13.1626Z" fill="white"/>
<defs>
<linearGradient id="paint0_linear_7754_11759" x1="27.5" y1="0" x2="27.5" y2="55" gradientUnits="userSpaceOnUse">
<stop stop-color="#FF9900"/>
<stop offset="1" stop-color="#FF7E07"/>
</linearGradient>
</defs>
</svg>
