<svg width="265" height="222" viewBox="0 0 265 222" fill="none" xmlns="http://www.w3.org/2000/svg">
<path d="M261.915 26.2589L249.336 35.6213L252.55 66.0843L247.798 35.4816L236.058 28.6344L241.788 62.0319L246.54 88.7219L260.098 166.975L264.431 191.569L261.915 26.2589Z" fill="#E7F1F8"/>
<path d="M118.498 62.5642C118.917 65.2192 121.433 66.8961 124.089 66.4769C126.744 66.0577 128.422 63.5424 128.002 60.8874C127.723 58.931 126.185 57.3939 124.228 56.9747C121.433 34.896 135.41 8.34575 157.493 4.43308C179.577 0.520405 201.66 20.9222 206.552 42.5816C204.875 43.5598 204.036 45.5161 204.316 47.4725C204.735 50.1275 207.251 51.8044 209.907 51.3852C212.562 50.9659 214.24 48.4506 213.82 45.7956C213.541 43.979 212.143 42.5816 210.466 42.0227C205.294 18.1274 181.114 -3.67175 156.934 0.520401C132.615 4.71255 117.38 33.4986 120.594 57.6734C118.917 58.931 118.079 60.7476 118.498 62.5642Z" fill="#E7F1F8"/>
<path d="M34.9246 102.528L56.1695 98.4759C59.6637 97.7772 61.9 94.4235 61.2012 90.9301C60.5023 87.4366 57.1479 85.2008 53.6537 85.8995L32.4088 89.9519C29.0543 90.6506 26.818 93.8646 27.3771 97.2183V97.358C28.076 100.851 31.4304 103.227 34.9246 102.528Z" fill="#E7F1F8"/>
<path d="M91.7742 196.019L100.3 194.342C103.794 193.643 106.031 190.289 105.332 186.796C104.633 183.302 101.279 181.067 97.7843 181.765L89.2584 183.442C85.9039 184.141 83.6677 187.355 84.2267 190.708V190.848C84.9256 194.342 88.28 196.717 91.7742 196.019Z" fill="#E7F1F8"/>
<path d="M85.7443 144.995C89.2385 144.297 91.4748 140.943 90.776 137.449C90.0772 133.956 86.7227 131.72 83.2285 132.419L62.962 136.332C59.6076 137.03 57.3713 140.244 57.9303 143.598V143.738C58.4894 147.231 61.8439 149.607 65.3381 148.908L85.7443 144.995Z" fill="#E7F1F8"/>
<path d="M235.73 28.651L217.141 31.865C223.57 79.935 219.238 144.913 172.974 207.656L204.282 202.066L264.103 191.586L259.771 166.992L241.461 62.1882L235.73 28.651Z" fill="#E7F1F8"/>
<path d="M217.007 31.8224L209.739 33.08C210.717 35.5953 211.556 38.1106 212.115 40.6259C214.491 41.8835 216.028 44.2591 215.889 47.0539C215.749 49.8486 214.072 52.3639 211.416 53.3421C207.083 55.0189 202.611 52.3639 201.772 48.032C201.353 45.7962 202.052 43.5604 203.729 41.8835C203.03 39.3682 202.191 36.9927 201.073 34.4774L126.017 47.6128C125.878 50.2678 125.878 52.9229 126.017 55.4382C128.533 56.6958 130.21 59.3508 129.931 62.4251C129.791 65.0801 127.974 67.3159 125.598 68.2941C121.265 69.9709 116.793 67.3159 115.954 62.984C115.535 60.7482 116.233 58.6521 117.771 56.9753C117.491 54.46 117.352 51.805 117.491 49.1499L91.6342 53.6216C91.6342 53.6216 92.333 57.8137 93.591 64.9403L102.955 63.1238C106.31 62.4251 109.664 64.3814 110.643 67.5954C111.761 71.2286 109.385 75.0015 105.751 75.7002L77.7971 81.15C74.4426 81.8487 72.0666 84.7832 72.3461 88.1369C72.7654 91.9098 76.2596 94.5649 79.8936 93.8662L133.285 83.5255C136.64 82.8269 139.994 84.7832 140.973 87.9972C142.091 91.6304 139.715 95.4033 136.081 96.102L5.11729 121.534C1.76284 122.233 -0.473456 125.447 0.0856189 128.801V128.94C0.644694 132.434 3.99915 134.809 7.49337 134.111L119.169 112.451C122.523 111.753 125.878 113.709 126.856 116.923C127.974 120.556 125.598 124.329 121.964 125.028L107.149 127.962C103.654 128.661 101.418 132.015 102.117 135.508C102.816 139.002 106.17 141.237 109.664 140.539L166.83 129.499C170.184 128.801 173.539 130.757 174.517 133.971C175.635 137.604 173.259 141.377 169.625 142.076L40.1993 167.229C36.8448 167.927 34.6085 171.141 35.1676 174.495V174.635C35.7267 178.128 39.0811 180.504 42.5753 179.805L143.069 160.242C146.424 159.543 149.778 161.499 150.756 164.713C151.875 168.347 149.498 172.12 145.864 172.818L121.964 177.43C118.61 178.128 116.233 181.063 116.513 184.417C116.932 188.189 120.427 190.845 124.061 190.146L127.555 189.447C130.909 188.748 134.264 190.705 135.242 193.919C136.36 197.552 133.984 201.325 130.35 202.024L93.7307 209.15C90.3763 209.849 88.14 213.063 88.699 216.417V216.556C89.2581 220.05 92.6126 222.286 96.1068 221.727L172.84 207.893C219.103 144.871 223.436 79.8924 217.007 31.8224Z" fill="#E7F1F8"/>
<path d="M241.458 62.0137L259.768 166.957L246.21 88.7037L241.458 62.0137Z" fill="#E7F1F8"/>
</svg>
