<svg width="20" height="18" viewBox="0 0 20 18" fill="none" xmlns="http://www.w3.org/2000/svg">
<path d="M10 14.0972C11.25 14.0972 12.3127 13.672 13.188 12.8217C14.0627 11.9706 14.5 10.9375 14.5 9.72222C14.5 8.50694 14.0627 7.4738 13.188 6.62278C12.3127 5.77241 11.25 5.34722 10 5.34722C8.75 5.34722 7.68733 5.77241 6.812 6.62278C5.93733 7.4738 5.5 8.50694 5.5 9.72222C5.5 10.9375 5.93733 11.9706 6.812 12.8217C7.68733 13.672 8.75 14.0972 10 14.0972ZM2 17.5C1.45 17.5 0.979333 17.3098 0.588 16.9293C0.196 16.5482 0 16.0903 0 15.5556V3.88889C0 3.35417 0.196 2.89657 0.588 2.51611C0.979333 2.135 1.45 1.94444 2 1.94444H5.15L7 0H13L14.85 1.94444H18C18.55 1.94444 19.021 2.135 19.413 2.51611C19.8043 2.89657 20 3.35417 20 3.88889V15.5556C20 16.0903 19.8043 16.5482 19.413 16.9293C19.021 17.3098 18.55 17.5 18 17.5H2Z" fill="#FF9900"/>
</svg>
