<svg width="22" height="22" viewBox="0 0 22 22" fill="none" xmlns="http://www.w3.org/2000/svg">
<path fill-rule="evenodd" clip-rule="evenodd" d="M1.83333 11.9167C1.83333 13.4355 3.06455 14.6667 4.58333 14.6667C6.10211 14.6667 7.33333 13.4355 7.33333 11.9167C7.33333 10.3978 6.10211 9.16667 4.58333 9.16667C3.06455 9.16667 1.83333 10.3978 1.83333 11.9167ZM9.00546 10.7074C9.11056 11.0927 9.16667 11.4981 9.16667 11.9167C9.16667 12.3192 9.11477 12.7096 9.01732 13.0816L13.5157 15.0094C14.3233 13.7034 15.7683 12.8333 17.4167 12.8333C19.948 12.8333 22 14.8854 22 17.4167C22 19.948 19.948 22 17.4167 22C14.8854 22 12.8333 19.948 12.8333 17.4167C12.8333 17.1845 12.8506 16.9562 12.8839 16.7333L8.20383 14.7275C7.36526 15.8061 6.05534 16.5 4.58333 16.5C2.05203 16.5 0 14.448 0 11.9167C0 9.38538 2.05203 7.33333 4.58333 7.33333C6.03898 7.33333 7.33614 8.01192 8.17571 9.07001L13.1394 6.23361C12.9417 5.72156 12.8333 5.16511 12.8333 4.58333C12.8333 2.05203 14.8854 0 17.4167 0C19.948 0 22 2.05203 22 4.58333C22 7.11463 19.948 9.16667 17.4167 9.16667C16.128 9.16667 14.9635 8.63482 14.1308 7.77865L9.00546 10.7074ZM17.4167 1.83333C15.8978 1.83333 14.6667 3.06455 14.6667 4.58333C14.6667 6.10211 15.8978 7.33333 17.4167 7.33333C18.9355 7.33333 20.1667 6.10211 20.1667 4.58333C20.1667 3.06455 18.9355 1.83333 17.4167 1.83333ZM17.4167 14.6667C15.8978 14.6667 14.6667 15.8978 14.6667 17.4167C14.6667 18.9355 15.8978 20.1667 17.4167 20.1667C18.9355 20.1667 20.1667 18.9355 20.1667 17.4167C20.1667 15.8978 18.9355 14.6667 17.4167 14.6667Z" fill="#BEBEBE"/>
</svg>
