<svg width="87" height="30" viewBox="0 0 87 30" fill="none" xmlns="http://www.w3.org/2000/svg">
<path d="M10.336 29.238C8.74933 29.238 7.32133 28.966 6.052 28.422C4.78267 27.8553 3.78533 27.062 3.06 26.042C2.33467 25.022 1.972 23.832 1.972 22.472H6.12C6.21067 23.492 6.60733 24.3307 7.31 24.988C8.03533 25.6453 9.044 25.974 10.336 25.974C11.6733 25.974 12.716 25.6567 13.464 25.022C14.212 24.3647 14.586 23.526 14.586 22.506C14.586 21.7127 14.348 21.0667 13.872 20.568C13.4187 20.0693 12.8407 19.684 12.138 19.412C11.458 19.14 10.506 18.8453 9.282 18.528C7.74067 18.12 6.48267 17.712 5.508 17.304C4.556 16.8733 3.74 16.216 3.06 15.332C2.38 14.448 2.04 13.2693 2.04 11.796C2.04 10.436 2.38 9.246 3.06 8.226C3.74 7.206 4.692 6.424 5.916 5.88C7.14 5.336 8.55667 5.064 10.166 5.064C12.4553 5.064 14.3253 5.642 15.776 6.798C17.2493 7.93133 18.0653 9.49533 18.224 11.49H13.94C13.872 10.6287 13.464 9.892 12.716 9.28C11.968 8.668 10.982 8.362 9.758 8.362C8.64733 8.362 7.74067 8.64533 7.038 9.212C6.33533 9.77867 5.984 10.5947 5.984 11.66C5.984 12.3853 6.19933 12.986 6.63 13.462C7.08333 13.9153 7.65 14.278 8.33 14.55C9.01 14.822 9.93933 15.1167 11.118 15.434C12.682 15.8647 13.9513 16.2953 14.926 16.726C15.9233 17.1567 16.762 17.8253 17.442 18.732C18.1447 19.616 18.496 20.806 18.496 22.302C18.496 23.5033 18.1673 24.6367 17.51 25.702C16.8753 26.7673 15.9347 27.6287 14.688 28.286C13.464 28.9207 12.0133 29.238 10.336 29.238ZM24.0415 7.784C23.3389 7.784 22.7495 7.546 22.2735 7.07C21.7975 6.594 21.5595 6.00467 21.5595 5.302C21.5595 4.59933 21.7975 4.01 22.2735 3.534C22.7495 3.058 23.3389 2.82 24.0415 2.82C24.7215 2.82 25.2995 3.058 25.7755 3.534C26.2515 4.01 26.4895 4.59933 26.4895 5.302C26.4895 6.00467 26.2515 6.594 25.7755 7.07C25.2995 7.546 24.7215 7.784 24.0415 7.784ZM25.9455 10.266V29H22.0695V10.266H25.9455ZM28.7424 19.548C28.7424 17.6667 29.1277 16.0007 29.8984 14.55C30.6917 13.0993 31.757 11.9773 33.0944 11.184C34.4544 10.368 35.9617 9.96 37.6164 9.96C38.8404 9.96 40.0417 10.232 41.2204 10.776C42.4217 11.2973 43.3737 12 44.0764 12.884V3.84H47.9864V29H44.0764V26.178C43.4417 27.0847 42.5577 27.8327 41.4244 28.422C40.3137 29.0113 39.033 29.306 37.5824 29.306C35.9504 29.306 34.4544 28.898 33.0944 28.082C31.757 27.2433 30.6917 26.0873 29.8984 24.614C29.1277 23.118 28.7424 21.4293 28.7424 19.548ZM44.0764 19.616C44.0764 18.324 43.8044 17.202 43.2604 16.25C42.739 15.298 42.0477 14.5727 41.1864 14.074C40.325 13.5753 39.3957 13.326 38.3984 13.326C37.401 13.326 36.4717 13.5753 35.6104 14.074C34.749 14.55 34.0464 15.264 33.5024 16.216C32.981 17.1453 32.7204 18.256 32.7204 19.548C32.7204 20.84 32.981 21.9733 33.5024 22.948C34.0464 23.9227 34.749 24.6707 35.6104 25.192C36.4944 25.6907 37.4237 25.94 38.3984 25.94C39.3957 25.94 40.325 25.6907 41.1864 25.192C42.0477 24.6933 42.739 23.968 43.2604 23.016C43.8044 22.0413 44.0764 20.908 44.0764 19.616ZM55.9533 12.986C56.52 12.034 57.268 11.2973 58.1973 10.776C59.1493 10.232 60.2713 9.96 61.5633 9.96V13.972H60.5773C59.0587 13.972 57.9027 14.3573 57.1093 15.128C56.3387 15.8987 55.9533 17.236 55.9533 19.14V29H52.0773V10.266H55.9533V12.986ZM62.8342 19.548C62.8342 17.6667 63.2195 16.0007 63.9902 14.55C64.7835 13.0993 65.8488 11.9773 67.1862 11.184C68.5462 10.368 70.0422 9.96 71.6742 9.96C73.1475 9.96 74.4282 10.2547 75.5162 10.844C76.6268 11.4107 77.5108 12.1247 78.1682 12.986V10.266H82.0782V29H78.1682V26.212C77.5108 27.096 76.6155 27.8327 75.4822 28.422C74.3488 29.0113 73.0568 29.306 71.6062 29.306C69.9968 29.306 68.5235 28.898 67.1862 28.082C65.8488 27.2433 64.7835 26.0873 63.9902 24.614C63.2195 23.118 62.8342 21.4293 62.8342 19.548ZM78.1682 19.616C78.1682 18.324 77.8962 17.202 77.3522 16.25C76.8308 15.298 76.1395 14.5727 75.2782 14.074C74.4168 13.5753 73.4875 13.326 72.4902 13.326C71.4928 13.326 70.5635 13.5753 69.7022 14.074C68.8408 14.55 68.1382 15.264 67.5942 16.216C67.0728 17.1453 66.8122 18.256 66.8122 19.548C66.8122 20.84 67.0728 21.9733 67.5942 22.948C68.1382 23.9227 68.8408 24.6707 69.7022 25.192C70.5862 25.6907 71.5155 25.94 72.4902 25.94C73.4875 25.94 74.4168 25.6907 75.2782 25.192C76.1395 24.6933 76.8308 23.968 77.3522 23.016C77.8962 22.0413 78.1682 20.908 78.1682 19.616Z" fill="#2C2C2C"/>
<circle cx="24" cy="4" r="4" fill="url(#paint0_linear_5020_17026)"/>
<defs>
<linearGradient id="paint0_linear_5020_17026" x1="24" y1="0" x2="24" y2="8" gradientUnits="userSpaceOnUse">
<stop stop-color="#FF9900"/>
<stop offset="1" stop-color="#FF7E07"/>
</linearGradient>
</defs>
</svg>
