<?xml version="1.0" encoding="utf-8"?>
<!-- Generator: Adobe Illustrator 24.0.1, SVG Export Plug-In . SVG Version: 6.00 Build 0)  -->
<svg version="1.1" id="Layer_1" xmlns="http://www.w3.org/2000/svg" xmlns:xlink="http://www.w3.org/1999/xlink" x="0px" y="0px"
	 viewBox="0 0 648 377" style="enable-background:new 0 0 648 377;" xml:space="preserve">
<style type="text/css">
	.st0{fill:#F9EC4E;}
	.st1{fill:url(#SVGID_1_);}
	.st2{fill:#FFFFFF;}
	.st3{fill:#FF7E07;}
	.st4{fill:#6D6D6D;}
	.st5{fill:#4D4D4D;}
	.st6{fill:none;stroke:#FFFFFF;stroke-width:8;stroke-miterlimit:10;}
	.st7{fill:none;stroke:#FFFFFF;stroke-width:7;stroke-miterlimit:10;}
	.st8{fill:#606060;}
	.st9{opacity:0.8;fill:#FF9900;}
	.st10{fill:#FF7E07;stroke:#FFFFFF;stroke-width:3;stroke-miterlimit:10;}
	.st11{fill:#4C4C4C;}
	.st12{fill:#FF9900;}
	.st13{fill:url(#SVGID_2_);}
	.st14{fill:url(#SVGID_3_);}
	.st15{fill:url(#SVGID_4_);}
	.st16{fill:url(#SVGID_5_);}
	.st17{fill:url(#SVGID_6_);}
	.st18{fill:url(#SVGID_7_);}
	.st19{fill:none;stroke:#231F20;}
	.st20{fill:#FFF4E9;}
	.st21{opacity:0.1;fill:#FF9900;}
	.st22{fill:none;stroke:#FF0000;stroke-width:0.1;stroke-miterlimit:10;}
	.st23{opacity:0.13;fill:#FC890D;}
	.st24{opacity:0.8;}
	.st25{fill:none;stroke:#FF0000;stroke-width:6;stroke-miterlimit:10;}
	.st26{fill:none;stroke:#FF0000;stroke-width:3;stroke-miterlimit:10;}
	.st27{fill:#FC890D;}
	.st28{fill:#3A3A3A;}
	.st29{fill:url(#SVGID_8_);}
	.st30{fill:url(#SVGID_9_);}
	.st31{fill:url(#SVGID_10_);}
	.st32{fill:#25C7D6;}
	.st33{fill:none;}
	.st34{fill:url(#SVGID_11_);}
	.st35{opacity:0.3;fill:#FFFFFF;}
	.st36{fill:url(#SVGID_12_);}
	.st37{fill:url(#SVGID_13_);}
	.st38{fill:url(#SVGID_14_);}
	.st39{fill:url(#SVGID_15_);}
	.st40{fill:url(#SVGID_16_);}
	.st41{fill:url(#SVGID_17_);}
	.st42{opacity:0.2;fill:#FFFFFF;}
	.st43{fill:url(#SVGID_18_);}
	.st44{fill:#161616;}
	.st45{fill:url(#SVGID_19_);}
	.st46{fill:url(#SVGID_20_);}
	.st47{fill:url(#SVGID_21_);}
	.st48{fill:url(#SVGID_22_);}
	.st49{opacity:0.2;fill:#606060;stroke:#000000;stroke-miterlimit:10;}
	.st50{fill:url(#SVGID_23_);}
	.st51{fill:url(#SVGID_24_);}
	.st52{fill:url(#SVGID_25_);}
	.st53{fill:url(#SVGID_26_);}
	.st54{font-family:'Poppins-Medium';}
	.st55{font-size:122.4394px;}
	.st56{letter-spacing:-2;}
	.st57{font-family:'Poppins-Light';}
	.st58{font-family:'Poppins-Italic';}
	.st59{font-size:30.3154px;}
</style>
<path class="st2" d="M319.37,241.15c-0.15,69.32-56.59,125.68-125.95,125.68c-56.64,0-104.67-37.59-120.45-89.13l0,0
	c-0.93-3.04-1.75-6.13-2.45-9.26c-1.99-8.87-3.05-18.1-3.05-27.56c0-69.45,56.5-125.95,125.95-125.95c0.09,0,0.18,0,0.27,0v-8.18
	c-0.09,0-0.18,0-0.27,0c-35.83,0-69.51,13.95-94.84,39.28S59.3,205.05,59.3,240.87c0,8.3,0.76,16.48,2.22,24.47
	c0.59,3.22,1.3,6.4,2.11,9.55c0,0,0,0,0,0c5.94,22.8,17.84,43.72,34.95,60.82C123.92,361.05,157.6,375,193.43,375
	s69.51-13.95,94.84-39.28c25.27-25.27,39.21-58.85,39.28-94.57H319.37z M71.66,277.33c-1.49-0.4-2.96-0.83-4.43-1.28
	C68.69,276.5,70.17,276.92,71.66,277.33z"/>
<path class="st2" d="M201.85,53.07C176.51,27.73,142.83,13.78,107,13.78c-35.74,0-69.34,13.88-94.65,39.09l5.78,5.78
	C67.26,9.75,147.02,9.81,196.06,58.85c49.11,49.11,49.11,129.01,0,178.12c-33.92,33.92-82.53,44.4-125.54,31.47
	c-3.03-0.91-6.03-1.94-9-3.09c-15.89-6.13-30.78-15.58-43.58-28.38c-0.06-0.06-0.13-0.13-0.19-0.2l-5.78,5.78
	c0.06,0.06,0.13,0.13,0.19,0.2c14.74,14.74,32.31,25.62,51.48,32.14c3.07,1.05,6.19,1.98,9.34,2.8c10.98,2.86,22.39,4.34,34.03,4.34
	c35.83,0,69.51-13.95,94.84-39.28c25.33-25.33,39.28-59.02,39.28-94.84C241.13,112.08,227.18,78.4,201.85,53.07z"/>
<text transform="matrix(1 0 0 1 317.7437 107.4316)"><tspan x="0" y="0" class="st2 st54 st55 st56">Sidra</tspan><tspan x="0" y="104.82" class="st2 st57 st55 st56">Bazar</tspan></text>
<text transform="matrix(1 0 0 1 379.1318 261.2827)" class="st2 st58 st59">infinite shopping</text>
<circle class="st2" cx="9.55" cy="61.49" r="4.55"/>
<circle class="st2" cx="323.31" cy="232.77" r="4.55"/>
</svg>
