<svg id="Layer_1" data-name="Layer 1" xmlns="http://www.w3.org/2000/svg" xmlns:xlink="http://www.w3.org/1999/xlink" viewBox="0 0 648 377"><defs><style>.cls-1{fill:#ff7e07;}.cls-2{fill:url(#linear-gradient);}.cls-3{fill:url(#linear-gradient-2);}.cls-4{fill:url(#linear-gradient-3);}.cls-5{fill:url(#linear-gradient-4);}</style><linearGradient id="linear-gradient" x1="59.3" y1="240.87" x2="327.55" y2="240.87" gradientUnits="userSpaceOnUse"><stop offset="0" stop-color="#e88707"/><stop offset="1" stop-color="#d8670b"/></linearGradient><linearGradient id="linear-gradient-2" x1="11.97" y1="147.91" x2="241.13" y2="147.91" xlink:href="#linear-gradient"/><linearGradient id="linear-gradient-3" x1="5" y1="61.49" x2="14.09" y2="61.49" xlink:href="#linear-gradient"/><linearGradient id="linear-gradient-4" x1="318.76" y1="232.77" x2="327.86" y2="232.77" xlink:href="#linear-gradient"/></defs><title>new sidra_</title><path class="cls-1" d="M339.54,105.29a25.35,25.35,0,0,1-10.78-8.51,21.62,21.62,0,0,1-3.91-12.86h14.93A13.48,13.48,0,0,0,344.13,93Q348,96.54,355,96.53q7.21,0,11.26-3.49a11.33,11.33,0,0,0,4-9,9.83,9.83,0,0,0-2.51-7,16.79,16.79,0,0,0-6.24-4.17,94.24,94.24,0,0,0-10.35-3.18,97.11,97.11,0,0,1-13.53-4.47,22.4,22.4,0,0,1-8.88-7q-3.67-4.77-3.67-12.73a22.62,22.62,0,0,1,3.67-12.86,23.5,23.5,0,0,1,10.29-8.45,37.36,37.36,0,0,1,15.3-2.94q12.38,0,20.27,6.19t8.75,17H367.94a11.14,11.14,0,0,0-4.4-8q-4.05-3.31-10.66-3.31a15.1,15.1,0,0,0-9.79,3.06q-3.79,3.06-3.8,8.82a9,9,0,0,0,2.39,6.43,16.88,16.88,0,0,0,6.06,4,96.24,96.24,0,0,0,10,3.18,105.56,105.56,0,0,1,13.78,4.65,23,23,0,0,1,9.06,7.16q3.74,4.85,3.73,12.92a23.21,23.21,0,0,1-3.49,12.25,25.24,25.24,0,0,1-10.16,9.24A33.48,33.48,0,0,1,355,108.29,38.1,38.1,0,0,1,339.54,105.29Z"/><path class="cls-1" d="M399.16,28.46a8.68,8.68,0,0,1-2.57-6.37,8.78,8.78,0,0,1,8.94-8.94,8.54,8.54,0,0,1,6.25,2.57,8.68,8.68,0,0,1,2.57,6.37,8.68,8.68,0,0,1-2.57,6.37A8.54,8.54,0,0,1,405.53,31,8.68,8.68,0,0,1,399.16,28.46ZM412.39,40v67.46h-14V40Z"/><path class="cls-1" d="M427.88,55.4a30.72,30.72,0,0,1,27.73-16.53,31.77,31.77,0,0,1,13,2.87,26.67,26.67,0,0,1,10.22,7.66V16.83H493v90.6H478.87V97.27a26.12,26.12,0,0,1-9.49,8.08,29.45,29.45,0,0,1-13.89,3.18,30.13,30.13,0,0,1-16.11-4.47,31.48,31.48,0,0,1-11.5-12.48,38.4,38.4,0,0,1-4.23-18.19A37.26,37.26,0,0,1,427.88,55.4ZM476,61.52a20.11,20.11,0,0,0-7.53-7.84,19.73,19.73,0,0,0-10-2.69,19.79,19.79,0,0,0-17.57,10.34A24.18,24.18,0,0,0,438,73.39a25.22,25.22,0,0,0,2.87,12.25,20.3,20.3,0,0,0,7.6,8,19.49,19.49,0,0,0,10,2.75,19.73,19.73,0,0,0,10-2.69,20,20,0,0,0,7.53-7.9,24.76,24.76,0,0,0,2.88-12.18A24.42,24.42,0,0,0,476,61.52Z"/><path class="cls-1" d="M531,41.74A24.15,24.15,0,0,1,543,38.87V53.31h-3.55q-8.21,0-12.43,4.17t-4.22,14.44v35.51h-14V40h14v9.79A21.89,21.89,0,0,1,531,41.74Z"/><path class="cls-1" d="M553,55.4a30.74,30.74,0,0,1,27.61-16.53A29.46,29.46,0,0,1,594.51,42,28.21,28.21,0,0,1,604,49.76V40h14.08v67.46H604v-10a27.66,27.66,0,0,1-9.67,8,31.32,31.32,0,0,1-29.88-1.29A31.63,31.63,0,0,1,553,91.58a38.4,38.4,0,0,1-4.23-18.19A37.26,37.26,0,0,1,553,55.4Zm48.12,6.12a20.25,20.25,0,0,0-7.53-7.84,19.78,19.78,0,0,0-10-2.69A19.82,19.82,0,0,0,566,61.33a24.18,24.18,0,0,0-2.87,12.06A25.22,25.22,0,0,0,566,85.64a20.3,20.3,0,0,0,7.6,8,19.5,19.5,0,0,0,10,2.75,19.78,19.78,0,0,0,10-2.69,20.15,20.15,0,0,0,7.53-7.9A24.86,24.86,0,0,0,604,73.64,24.52,24.52,0,0,0,601.13,61.52Z"/><path class="cls-1" d="M379.82,175.4a21.08,21.08,0,0,1,5,14,21.68,21.68,0,0,1-3.24,11.69,22.16,22.16,0,0,1-9.49,8.2,34.26,34.26,0,0,1-14.94,3H327.54V126.67h28.77q13,0,19.78,6a19.77,19.77,0,0,1,6.79,15.55q0,8-4.28,12.91a22.49,22.49,0,0,1-11,6.92A20.56,20.56,0,0,1,379.82,175.4Zm-43.71-10.9h20q8.69,0,13.4-4.1t4.72-11.33q0-7.09-4.72-11.14t-13.77-4H336.11Zm35,36.12q5.19-4.41,5.2-12.12a15.3,15.3,0,0,0-5.45-12.31q-5.44-4.59-14.63-4.59H336.11V205h20.45Q365.86,205,371.07,200.62Z"/><path class="cls-1" d="M398.37,160.65a29.3,29.3,0,0,1,11.38-12,32.21,32.21,0,0,1,16.47-4.23,30,30,0,0,1,16.47,4.41,25.67,25.67,0,0,1,10,11.26V145.4h8.57v66.85h-8.57V197.44a26.78,26.78,0,0,1-10.1,11.32,29.67,29.67,0,0,1-16.47,4.47A31.62,31.62,0,0,1,409.75,209a29.74,29.74,0,0,1-11.38-12.12,38.48,38.48,0,0,1-4.1-18.12A38.07,38.07,0,0,1,398.37,160.65Zm51,4a23.5,23.5,0,0,0-9-9.42,24.45,24.45,0,0,0-12.55-3.31,25.43,25.43,0,0,0-12.73,3.18,22.71,22.71,0,0,0-8.88,9.25A30.12,30.12,0,0,0,403,178.71a30.55,30.55,0,0,0,3.24,14.38,22.88,22.88,0,0,0,8.88,9.43,25.06,25.06,0,0,0,12.73,3.24,24.54,24.54,0,0,0,12.55-3.3,23.59,23.59,0,0,0,9-9.43,32.14,32.14,0,0,0,0-28.41Z"/><path class="cls-1" d="M482.91,205.15h35v7.1H473.12v-7.1l34.4-52.65H473.73v-7.1h43.59v7.1Z"/><path class="cls-1" d="M530.11,160.65a29.26,29.26,0,0,1,11.39-12A32.16,32.16,0,0,1,558,144.42a30,30,0,0,1,16.46,4.41,25.67,25.67,0,0,1,10,11.26V145.4H593v66.85h-8.57V197.44a26.78,26.78,0,0,1-10.1,11.32,29.67,29.67,0,0,1-16.47,4.47A31.56,31.56,0,0,1,541.5,209a29.69,29.69,0,0,1-11.39-12.12,38.6,38.6,0,0,1-4.1-18.12A38.18,38.18,0,0,1,530.11,160.65Zm51,4a23.63,23.63,0,0,0-9-9.42,24.5,24.5,0,0,0-12.55-3.31,25.47,25.47,0,0,0-12.74,3.18,22.63,22.63,0,0,0-8.87,9.25,30,30,0,0,0-3.25,14.39A30.44,30.44,0,0,0,538,193.09a22.8,22.8,0,0,0,8.87,9.43,25.09,25.09,0,0,0,12.74,3.24,24.59,24.59,0,0,0,12.55-3.3,23.72,23.72,0,0,0,9-9.43,32.22,32.22,0,0,0,0-28.41Z"/><path class="cls-1" d="M627.33,147.61q5.8-3.44,14.26-3.43v8.94h-2.33q-9.3,0-14.93,5t-5.64,16.77v37.34h-8.57V145.4h8.57v11.88A20.94,20.94,0,0,1,627.33,147.61Z"/><path d="M385.62,244.67l-2.94,16.61h-2.76l2.94-16.61Zm-2-3.14a1.5,1.5,0,0,1-.44-1.1,2.15,2.15,0,0,1,.67-1.57,2.17,2.17,0,0,1,1.55-.65,1.49,1.49,0,0,1,1.12.43,1.51,1.51,0,0,1,.42,1.12,2.1,2.1,0,0,1-.66,1.56,2.17,2.17,0,0,1-1.55.65A1.5,1.5,0,0,1,383.63,241.53Z"/><path d="M402,245.75a5.09,5.09,0,0,1,1.55,4,8.86,8.86,0,0,1-.16,1.73l-1.72,9.79h-2.73l1.66-9.4a6.32,6.32,0,0,0,.13-1.33,3.72,3.72,0,0,0-1-2.82,3.92,3.92,0,0,0-2.83-1,5.39,5.39,0,0,0-3.72,1.37,6.62,6.62,0,0,0-2,4V252l-1.64,9.24h-2.76l2.94-16.61h2.76l-.42,2.39a6.86,6.86,0,0,1,2.57-2,7.87,7.87,0,0,1,3.25-.69A6,6,0,0,1,402,245.75Z"/><path d="M413.13,241.14a3.73,3.73,0,0,0-1.14,2.35l-.21,1.18h3.49l-.4,2.27h-3.48l-2.55,14.34h-2.76l2.52-14.34h-2.12l.39-2.27H409l.21-1.18a6.43,6.43,0,0,1,2.19-4.08,7.81,7.81,0,0,1,4.85-1.29l-.4,2.31A4.2,4.2,0,0,0,413.13,241.14Z"/><path d="M420.63,244.67l-2.94,16.61h-2.76l2.94-16.61Zm-2-3.14a1.46,1.46,0,0,1-.44-1.1,2.14,2.14,0,0,1,.66-1.57,2.17,2.17,0,0,1,1.55-.65,1.47,1.47,0,0,1,1.55,1.55,2.11,2.11,0,0,1-.67,1.56,2.17,2.17,0,0,1-1.55.65A1.46,1.46,0,0,1,418.65,241.53Z"/><path d="M437,245.75a5.09,5.09,0,0,1,1.55,4,8.92,8.92,0,0,1-.15,1.73l-1.73,9.79h-2.73l1.67-9.4a7.07,7.07,0,0,0,.12-1.33,3.72,3.72,0,0,0-1-2.82,3.9,3.9,0,0,0-2.83-1,5.37,5.37,0,0,0-3.71,1.37,6.63,6.63,0,0,0-2,4V252l-1.64,9.24h-2.76l3-16.61h2.75l-.42,2.39a7,7,0,0,1,2.58-2,7.86,7.86,0,0,1,3.24-.69A6,6,0,0,1,437,245.75Z"/><path d="M446.28,244.67l-2.94,16.61h-2.76l2.94-16.61Zm-2-3.14a1.5,1.5,0,0,1-.44-1.1,2.15,2.15,0,0,1,.67-1.57,2.17,2.17,0,0,1,1.55-.65,1.49,1.49,0,0,1,1.12.43,1.51,1.51,0,0,1,.42,1.12,2.1,2.1,0,0,1-.66,1.56,2.17,2.17,0,0,1-1.55.65A1.5,1.5,0,0,1,444.29,241.53Z"/><path d="M451.61,256.74a4.06,4.06,0,0,0-.09.78,1.24,1.24,0,0,0,.47,1.09,2.66,2.66,0,0,0,1.53.34h2l-.43,2.33h-2.48a4.78,4.78,0,0,1-3-.76,2.92,2.92,0,0,1-1-2.48,6.16,6.16,0,0,1,.13-1.3l1.72-9.8h-2.12l.4-2.27H451l.73-4.18h2.78l-.72,4.18h4.3l-.39,2.27h-4.34Z"/><path d="M471.64,245.2a5.54,5.54,0,0,1,2.33,2.24,6.6,6.6,0,0,1,.81,3.29,9.93,9.93,0,0,1-.16,1.55,11.06,11.06,0,0,1-.39,1.64H461c0,.4-.06.69-.06.88a4.2,4.2,0,0,0,1.26,3.25,4.63,4.63,0,0,0,3.29,1.17,5.91,5.91,0,0,0,3.14-.83,5.41,5.41,0,0,0,2-2.23h3a9.22,9.22,0,0,1-8.58,5.4,7,7,0,0,1-5-1.81,6.44,6.44,0,0,1-1.9-4.92,10.55,10.55,0,0,1,.18-1.88,10.92,10.92,0,0,1,1.85-4.52,9.48,9.48,0,0,1,7.89-4A7.76,7.76,0,0,1,471.64,245.2Zm.29,5.59a3.76,3.76,0,0,0-1.23-3,4.72,4.72,0,0,0-3.2-1.06,6,6,0,0,0-3.85,1.38,6.8,6.8,0,0,0-2.33,3.81h10.51A6.66,6.66,0,0,0,471.93,250.79Z"/><path d="M486.05,260.31a4,4,0,0,1-1.67-3.33,2.77,2.77,0,0,1,0-.58h2.69a2.4,2.4,0,0,0,.78,2.12,3.68,3.68,0,0,0,2.59.82,5.08,5.08,0,0,0,2.74-.65,2,2,0,0,0,1-1.83,1.82,1.82,0,0,0-.85-1.58,13.43,13.43,0,0,0-2.61-1.24,25.25,25.25,0,0,1-2.54-1.09,5,5,0,0,1-1.7-1.44,3.77,3.77,0,0,1-.7-2.35,4.14,4.14,0,0,1,.8-2.49,5.11,5.11,0,0,1,2.25-1.68,8.47,8.47,0,0,1,3.29-.59,6.61,6.61,0,0,1,4.18,1.27A4,4,0,0,1,498,249a4.6,4.6,0,0,1,0,.61h-2.64l0-.36a2.31,2.31,0,0,0-.93-1.93,3.91,3.91,0,0,0-2.44-.71,4.14,4.14,0,0,0-2.44.67,2.08,2.08,0,0,0-.95,1.79,1.9,1.9,0,0,0,.88,1.66,13.78,13.78,0,0,0,2.73,1.34,23.72,23.72,0,0,1,2.48,1.1,5.06,5.06,0,0,1,1.61,1.38,3.62,3.62,0,0,1,.67,2.22,4,4,0,0,1-.87,2.54,5.32,5.32,0,0,1-2.38,1.67,9.65,9.65,0,0,1-3.42.58A7,7,0,0,1,486.05,260.31Z"/><path d="M514.94,245.75a5.1,5.1,0,0,1,1.52,4,9.39,9.39,0,0,1-.15,1.76l-1.73,9.79h-2.73l1.67-9.4a7.07,7.07,0,0,0,.12-1.33,3.72,3.72,0,0,0-1-2.82,3.9,3.9,0,0,0-2.83-1,5.37,5.37,0,0,0-3.71,1.37,6.58,6.58,0,0,0-2,4V252l-1.64,9.24h-2.76l4-22.43h2.75L505,247.06a7,7,0,0,1,2.62-2,8,8,0,0,1,3.35-.71A5.7,5.7,0,0,1,514.94,245.75Z"/><path d="M522.11,260.69a6.12,6.12,0,0,1-2.47-2.42,7.33,7.33,0,0,1-.88-3.63,10.42,10.42,0,0,1,1.31-5.16,9.65,9.65,0,0,1,3.59-3.72,9.77,9.77,0,0,1,5.11-1.36,7.84,7.84,0,0,1,3.71.86,6.27,6.27,0,0,1,2.52,2.43,7.26,7.26,0,0,1,.89,3.65,10.16,10.16,0,0,1-1.33,5.15,10,10,0,0,1-3.64,3.7,9.89,9.89,0,0,1-5.12,1.37A7.57,7.57,0,0,1,522.11,260.69Zm7.57-2.54a7.51,7.51,0,0,0,2.47-2.85,8.44,8.44,0,0,0,.89-3.81,4.56,4.56,0,0,0-1.33-3.53,4.74,4.74,0,0,0-3.34-1.23,6,6,0,0,0-3.51,1.08,7.07,7.07,0,0,0-2.4,2.86,8.85,8.85,0,0,0-.85,3.85,4.59,4.59,0,0,0,1.28,3.47,4.44,4.44,0,0,0,3.24,1.23A6.23,6.23,0,0,0,529.68,258.15Z"/><path d="M545.32,245.35a8.22,8.22,0,0,1,3.91-.95,7.25,7.25,0,0,1,3.44.8,5.65,5.65,0,0,1,2.32,2.3,7.35,7.35,0,0,1,.82,3.54,10.73,10.73,0,0,1-.18,1.88,11.28,11.28,0,0,1-1.84,4.48,9.79,9.79,0,0,1-3.36,3.06,8.61,8.61,0,0,1-4.2,1.1,6.26,6.26,0,0,1-3.56-1,5.56,5.56,0,0,1-2.08-2.38l-1.91,10.94h-2.76l4.31-24.49H543l-.54,3.06A8.84,8.84,0,0,1,545.32,245.35Zm7.61,6.17a4.42,4.42,0,0,0-4.67-4.73,6.35,6.35,0,0,0-2.94.74,7,7,0,0,0-2.44,2.16,7.79,7.79,0,0,0-1.35,3.26,7.5,7.5,0,0,0-.12,1.39,4.66,4.66,0,0,0,1.32,3.5,4.58,4.58,0,0,0,3.35,1.29,6.29,6.29,0,0,0,2.95-.74,7.19,7.19,0,0,0,2.43-2.15,8.14,8.14,0,0,0,1.35-3.32A7.61,7.61,0,0,0,552.93,251.52Z"/><path d="M565.21,245.35a8.22,8.22,0,0,1,3.91-.95,7.25,7.25,0,0,1,3.44.8,5.65,5.65,0,0,1,2.32,2.3,7.34,7.34,0,0,1,.81,3.54,10.73,10.73,0,0,1-.18,1.88,11.12,11.12,0,0,1-1.83,4.48,9.73,9.73,0,0,1-3.37,3.06,8.55,8.55,0,0,1-4.2,1.1,6.29,6.29,0,0,1-3.56-1,5.54,5.54,0,0,1-2.07-2.38l-1.91,10.94h-2.76l4.3-24.49h2.76l-.54,3.06A8.63,8.63,0,0,1,565.21,245.35Zm7.6,6.17a4.41,4.41,0,0,0-4.66-4.73,6.29,6.29,0,0,0-2.94.74,7,7,0,0,0-2.45,2.16,7.9,7.9,0,0,0-1.34,3.26,6.7,6.7,0,0,0-.13,1.39,4.66,4.66,0,0,0,1.32,3.5,4.6,4.6,0,0,0,3.35,1.29,6.33,6.33,0,0,0,3-.74,7.07,7.07,0,0,0,2.42-2.15,7.88,7.88,0,0,0,1.35-3.32A7.61,7.61,0,0,0,572.81,251.52Z"/><path d="M582.76,244.67l-2.94,16.61h-2.76L580,244.67Zm-2-3.14a1.5,1.5,0,0,1-.44-1.1,2.11,2.11,0,0,1,.67-1.57,2.16,2.16,0,0,1,1.55-.65,1.46,1.46,0,0,1,1.54,1.55,2.07,2.07,0,0,1-.67,1.56,2.15,2.15,0,0,1-1.54.65A1.47,1.47,0,0,1,580.77,241.53Z"/><path d="M599.13,245.75a5.08,5.08,0,0,1,1.54,4,8.92,8.92,0,0,1-.15,1.73l-1.73,9.79h-2.72l1.66-9.4a7.07,7.07,0,0,0,.12-1.33,3.71,3.71,0,0,0-1-2.82,3.93,3.93,0,0,0-2.84-1,5.39,5.39,0,0,0-3.71,1.37,6.62,6.62,0,0,0-2,4V252l-1.64,9.24h-2.76l2.94-16.61h2.76l-.43,2.39a7,7,0,0,1,2.58-2,7.86,7.86,0,0,1,3.24-.69A6,6,0,0,1,599.13,245.75Z"/><path d="M616.16,245.34a4.73,4.73,0,0,1,2,2.36l.54-3h2.79l-3,17a9.5,9.5,0,0,1-1.68,4,9,9,0,0,1-3.26,2.78,9.62,9.62,0,0,1-4.37,1,7.94,7.94,0,0,1-5.18-1.56,5,5,0,0,1-1.85-4.2h2.76a3.42,3.42,0,0,0,1.44,2.44,5.4,5.4,0,0,0,3.26.92,6,6,0,0,0,4-1.42,6.49,6.49,0,0,0,2.15-4l.61-3.49a8.91,8.91,0,0,1-2.87,2.43,8.1,8.1,0,0,1-3.92,1,6.84,6.84,0,0,1-3.43-.84,5.85,5.85,0,0,1-2.32-2.38,7.35,7.35,0,0,1-.83-3.57,9.74,9.74,0,0,1,.18-1.85,10.84,10.84,0,0,1,1.83-4.48,9.79,9.79,0,0,1,3.37-3,8.79,8.79,0,0,1,4.23-1.06A6.47,6.47,0,0,1,616.16,245.34Zm1.19,6.24a4.67,4.67,0,0,0-1.32-3.5,4.6,4.6,0,0,0-3.35-1.29,6.32,6.32,0,0,0-3,.73,6.75,6.75,0,0,0-2.41,2.12,8,8,0,0,0-1.33,3.28,7.5,7.5,0,0,0-.12,1.39,4.73,4.73,0,0,0,1.3,3.53,4.55,4.55,0,0,0,3.34,1.29,6.29,6.29,0,0,0,3-.74,7.19,7.19,0,0,0,2.43-2.15,8.13,8.13,0,0,0,1.35-3.29A7.43,7.43,0,0,0,617.35,251.58Z"/><path class="cls-2" d="M319.37,241.15A126,126,0,0,1,73,277.7h0q-1.39-4.56-2.45-9.27A126,126,0,0,1,193.43,114.92h.27v-8.18h-.27A134.11,134.11,0,0,0,59.3,240.87a136.25,136.25,0,0,0,2.22,24.48c.59,3.21,1.3,6.4,2.12,9.55h0a134.15,134.15,0,0,0,263.91-33.75ZM71.66,277.33c-1.49-.41-3-.83-4.44-1.29C68.69,276.5,70.17,276.92,71.66,277.33Z"/><path class="cls-3" d="M201.85,53.07a134.11,134.11,0,0,0-189.49-.19l5.78,5.78A125.95,125.95,0,1,1,70.52,268.43q-4.55-1.37-9-3.08A125.25,125.25,0,0,1,17.94,237l-.19-.2L12,242.56l.19.19A133.63,133.63,0,0,0,63.64,274.9q4.6,1.56,9.33,2.8A135.32,135.32,0,0,0,107,282a134.13,134.13,0,0,0,94.85-229Z"/><circle class="cls-4" cx="9.55" cy="61.49" r="4.55"/><circle class="cls-5" cx="323.31" cy="232.77" r="4.55"/></svg>