<?xml version="1.0" encoding="utf-8"?>
<!-- Generator: Adobe Illustrator 24.0.1, SVG Export Plug-In . SVG Version: 6.00 Build 0)  -->
<svg version="1.1" id="Layer_1" xmlns="http://www.w3.org/2000/svg" xmlns:xlink="http://www.w3.org/1999/xlink" x="0px" y="0px"
	 viewBox="0 0 43 43" style="enable-background:new 0 0 43 43;" xml:space="preserve">
<style type="text/css">
	.st0{fill:#FBDF00;}
	.st1{fill:#126FB7;}
	.st2{fill:#FFFFFF;}
</style>
<path d="M7.8,2.4c8.2,0,16.5,0,24.7,0c1.2,0.4,1.6,1.3,1.6,2.6c0,2.2,0,4.4,0,6.5c0,0.1,0,0.3,0,0.5c0.2,0,0.3,0,0.4,0
	c1.2,0,2.4,0,3.5,0c0.2,0,0.3,0,0.5,0c0.8,0.2,1.3,0.8,1.6,1.5c0,8.1,0,16.2,0,24.3c-0.4,1.2-1.2,1.6-2.5,1.6c-7.2,0-14.3,0-21.5,0
	c-0.1,0-0.2,0-0.4,0c-0.3,0-0.5-0.3-0.5-0.6c0-0.3,0.3-0.5,0.7-0.5c2.4,0,4.9,0,7.3,0c0.1,0,0.2,0,0.3,0c0-1.1,0-2.2,0-3.2
	c-4.1,0-8.1,0-12.1,0c-0.2,1.1-0.4,2.1-0.5,3.2c0.8,0,1.6,0,2.4,0c0.2,0,0.4,0.1,0.5,0.3c0.3,0.4,0,0.8-0.6,0.8c-2.3,0-4.7,0-7,0
	c-0.9,0-1.3-0.4-1.5-1.3c-0.1-0.9-0.3-1.8-0.5-2.8C4.3,35.2,4.2,35,4,35c-0.6-0.2-0.8-0.6-0.8-1.2c0-2.5,0-5,0-7.5
	c0-0.6,0.3-1,0.8-1.2c0.2-0.1,0.3-0.2,0.3-0.4c0.1-0.9,0.3-1.8,0.4-2.7c0.1-0.8,0.6-1.4,1.5-1.4c0,0,0,0,0.1-0.1c0-0.1,0-0.3,0-0.5
	c0-5.2,0-10.3,0-15.5c0-0.7,0.2-1.4,0.8-1.8C7.3,2.6,7.6,2.5,7.8,2.4z M33,11.9c0-0.2,0-0.3,0-0.4c0-2.3,0-4.6,0-6.8
	c0-0.9-0.3-1.2-1.2-1.2c-7.8,0-15.5,0-23.3,0c-0.9,0-1.2,0.3-1.2,1.2c0,5.2,0,10.4,0,15.5c0,0.1,0,0.3,0,0.4c0.4,0,0.7,0,1.1,0
	c0-0.2,0-0.3,0-0.5c0-4.9,0-9.8,0-14.7c0-0.6,0.2-0.8,0.8-0.8c3.8,0,7.7,0,11.5,0c0.1,0,0.2,0,0.3,0c0.3,0,0.6,0.3,0.5,0.7
	c-0.1,0.3-0.3,0.4-0.7,0.4c-3.6,0-7.2,0-10.8,0c-0.1,0-0.3,0-0.4,0c0,5,0,10,0,14.9c0.9,0.1,1.2,0.5,1.4,1.4
	c0.1,0.9,0.3,1.8,0.5,2.7c0,0.1,0.1,0.3,0.3,0.4c0.6,0.3,0.9,0.6,0.9,1.3c0,0.9,0,1.8,0,2.7c0,0.4-0.2,0.7-0.6,0.7
	c-0.3,0-0.5-0.3-0.5-0.7c0-0.9,0-1.7,0-2.6c0-0.3-0.1-0.4-0.4-0.4c-2.2,0-4.3,0-6.5,0c-0.3,0-0.4,0.1-0.4,0.4c0,2.4,0,4.8,0,7.2
	c0,0.3,0.1,0.4,0.4,0.4c2.1,0,4.3,0,6.4,0c0.3,0,0.4-0.1,0.4-0.4c0-0.6,0-1.2,0-1.8c0-0.2,0.1-0.4,0.3-0.5c0.4-0.2,0.8,0.1,0.8,0.5
	c0,0.7,0,1.4,0,2.2c3.7,0,7.3,0,11,0c0-3.2,0-6.3,0-9.5c-0.1,0.1-0.2,0.1-0.2,0.1c-2.2,1.4-5,1.2-6.9-0.6c-1.5-1.4-2.1-3.1-1.8-5.2
	c0.1-0.4,0.3-0.6,0.6-0.5c0.3,0.1,0.5,0.3,0.5,0.7c0,0.3-0.1,0.7-0.1,1c0.1,1.9,1.1,3.3,2.9,4c1.8,0.7,3.4,0.4,4.8-0.9
	c0.1-0.1,0.2-0.3,0.2-0.4c0-1.9,0-3.9,0-5.8c0-0.1-0.1-0.3-0.2-0.4c-1.1-1-2.4-1.4-3.9-1.2c-1.1,0.2-2,0.7-2.7,1.6
	c-0.3,0.3-0.6,0.4-0.8,0.1c-0.3-0.2-0.3-0.5,0-0.9c1.8-2.1,5-2.6,7.3-1.1c0.1,0.1,0.2,0.1,0.3,0.2c0-0.4,0-0.8,0-1.2
	c0-1.2,0.8-2.1,2.1-2.1c1.6,0,3.2,0,4.8,0c0.1,0,0.3,0,0.4,0c0-2.1,0-4.2,0-6.3c-0.2,0-0.3,0-0.4,0c-2.2,0-4.4,0-6.6,0
	c-0.1,0-0.2,0-0.3,0c-0.3,0-0.5-0.3-0.5-0.6c0-0.3,0.2-0.5,0.5-0.5c0.1,0,0.2,0,0.3,0c2.5,0,4.9,0,7.4,0c0.7,0,0.8,0.1,0.9,0.8
	c0,2,0,4,0,6.1c0,0.1,0,0.3,0,0.4C32.3,11.9,32.6,11.9,33,11.9z M39.1,25.7c0-3.8,0-7.7,0-11.5c0-0.9-0.3-1.2-1.2-1.2
	c-4,0-8,0-12.1,0c-0.9,0-1.2,0.3-1.2,1.2c0,7.6,0,15.3,0,22.9c0,0.9,0.3,1.2,1.2,1.2c4,0,8,0,12.1,0c0.9,0,1.2-0.3,1.2-1.2
	C39.1,33.3,39.1,29.5,39.1,25.7z M10.3,24.9c0-0.1,0-0.1,0-0.2c-0.2-0.9-0.3-1.8-0.5-2.8c0-0.2-0.2-0.3-0.4-0.3c-1,0-2,0-3,0
	c-0.5,0-0.5,0-0.6,0.5c0,0.2-0.1,0.4-0.1,0.6c-0.1,0.7-0.2,1.4-0.3,2.1C7,24.9,8.7,24.9,10.3,24.9z M5.4,35.1c0,0.1,0,0.1,0,0.2
	c0.2,0.9,0.3,1.8,0.5,2.8c0,0.2,0.2,0.3,0.4,0.3c1,0,2.1,0,3.1,0c0.4,0,0.5-0.1,0.6-0.5c0-0.2,0.1-0.4,0.1-0.6
	c0.1-0.7,0.2-1.4,0.4-2.1C8.7,35.1,7,35.1,5.4,35.1z"/>
<path class="st1" d="M39.1,25.7c0,3.8,0,7.6,0,11.4c0,0.9-0.3,1.2-1.2,1.2c-4,0-8,0-12.1,0c-0.9,0-1.2-0.3-1.2-1.2
	c0-7.6,0-15.3,0-22.9c0-0.9,0.3-1.2,1.2-1.2c4,0,8,0,12.1,0c0.9,0,1.2,0.3,1.2,1.2C39.1,18,39.1,21.9,39.1,25.7z M31.8,28.7
	c2.1,0,3.8-1.7,3.8-3.8c0-2.1-1.7-3.8-3.8-3.8c-2.1,0-3.8,1.7-3.8,3.8C28,27,29.8,28.7,31.8,28.7z M31.8,29.8c-0.6,0-1.1,0-1.7,0
	c-0.4,0-0.7,0.2-0.7,0.6c0,0.3,0.3,0.5,0.7,0.5c1.1,0,2.2,0,3.4,0c0.4,0,0.7-0.2,0.7-0.5c0-0.3-0.3-0.6-0.7-0.6
	C32.9,29.8,32.4,29.8,31.8,29.8z M31.8,15.2c0.5,0,0.9,0,1.4,0c0.4,0,0.6-0.2,0.6-0.6c0-0.3-0.2-0.5-0.6-0.5c-0.9,0-1.9,0-2.8,0
	c-0.4,0-0.6,0.2-0.6,0.5c0,0.3,0.2,0.5,0.6,0.5C30.9,15.2,31.4,15.2,31.8,15.2z M35.9,14.6c0-0.3-0.3-0.5-0.6-0.5
	c-0.3,0-0.5,0.2-0.5,0.5c0,0.3,0.2,0.6,0.5,0.6C35.7,15.2,35.9,14.9,35.9,14.6z"/>
<path d="M19.7,36.7c0-0.3,0.3-0.5,0.6-0.5c0.3,0,0.5,0.3,0.5,0.5c0,0.3-0.3,0.5-0.6,0.5C19.9,37.2,19.6,37,19.7,36.7z"/>
<path d="M7.9,32.4c-1.3,0-2.4-1-2.4-2.4c0-1.3,1-2.3,2.3-2.3c1.3,0,2.4,1,2.4,2.4C10.2,31.3,9.2,32.4,7.9,32.4z M7.9,31.3
	c0.7,0,1.3-0.6,1.3-1.3c0-0.7-0.6-1.3-1.3-1.3c-0.7,0-1.3,0.6-1.3,1.3C6.6,30.7,7.2,31.3,7.9,31.3z"/>
<path class="st0" d="M31.8,28.7c-2.1,0-3.8-1.7-3.8-3.8c0-2.1,1.7-3.8,3.8-3.8c2.1,0,3.8,1.7,3.8,3.8C35.6,27,33.9,28.7,31.8,28.7z
	 M34.5,24.9c0-1.5-1.2-2.7-2.7-2.7c-1.5,0-2.7,1.2-2.7,2.7c0,1.5,1.2,2.7,2.7,2.7C33.3,27.6,34.5,26.5,34.5,24.9z"/>
<path class="st2" d="M31.8,29.8c0.6,0,1.1,0,1.7,0c0.4,0,0.7,0.2,0.7,0.6c0,0.3-0.3,0.5-0.7,0.5c-1.1,0-2.2,0-3.4,0
	c-0.4,0-0.7-0.2-0.7-0.5c0-0.3,0.3-0.6,0.7-0.6C30.7,29.8,31.3,29.8,31.8,29.8z"/>
<path class="st2" d="M31.8,15.2c-0.5,0-0.9,0-1.4,0c-0.4,0-0.6-0.2-0.6-0.5c0-0.3,0.2-0.5,0.6-0.5c0.9,0,1.9,0,2.8,0
	c0.3,0,0.6,0.2,0.6,0.5c0,0.3-0.2,0.6-0.6,0.6C32.8,15.2,32.3,15.2,31.8,15.2z"/>
<path class="st2" d="M35.9,14.6c0,0.3-0.3,0.5-0.6,0.5c-0.3,0-0.5-0.2-0.5-0.6c0-0.3,0.2-0.5,0.5-0.5C35.7,14.1,35.9,14.3,35.9,14.6
	z"/>
<path d="M7.9,23.8c-0.3,0-0.5-0.3-0.5-0.6c0-0.3,0.3-0.5,0.6-0.5c0.3,0,0.5,0.2,0.5,0.5C8.4,23.6,8.2,23.9,7.9,23.8z"/>
<path d="M7.9,36.1c0.3,0,0.5,0.2,0.5,0.6c0,0.3-0.2,0.5-0.5,0.5c-0.3,0-0.6-0.2-0.6-0.5C7.3,36.4,7.6,36.1,7.9,36.1z"/>
<path class="st1" d="M34.5,24.9c0,1.5-1.2,2.7-2.7,2.7c-1.5,0-2.7-1.2-2.7-2.7c0-1.5,1.2-2.7,2.7-2.7C33.3,22.2,34.5,23.4,34.5,24.9
	z"/>
</svg>
