<svg width="15" height="24" viewBox="0 0 15 24" fill="none" xmlns="http://www.w3.org/2000/svg">
<path d="M2.14286 24C1.55357 24 1.04929 23.7865 0.63 23.3596C0.21 22.932 0 22.4182 0 21.8182V2.18182C0 1.58182 0.21 1.068 0.63 0.640364C1.04929 0.213455 1.55357 0 2.14286 0H12.8571C13.4464 0 13.9511 0.213455 14.3711 0.640364C14.7904 1.068 15 1.58182 15 2.18182V21.8182C15 22.4182 14.7904 22.932 14.3711 23.3596C13.9511 23.7865 13.4464 24 12.8571 24H2.14286ZM2.14286 18.5455H12.8571V5.45455H2.14286V18.5455Z" fill="#FF9900"/>
</svg>
