<svg width="32" height="32" viewBox="0 0 32 32" fill="none" xmlns="http://www.w3.org/2000/svg">
<rect width="32" height="32" rx="16" fill="#D9D9D9"/>
<path fill-rule="evenodd" clip-rule="evenodd" d="M25.365 11.1986C25.365 11.6652 25.1815 12.1036 24.866 12.4085L14.8355 22.1251C14.4832 22.4472 14.0225 22.6326 13.5598 22.6326C13.0926 22.6326 12.6358 22.4442 12.3108 22.1301L7.2822 17.2693C6.96677 16.9644 6.7832 16.526 6.7832 16.0594C6.7832 15.6178 6.96978 15.1933 7.30389 14.8497C7.64656 14.5387 8.0841 14.3652 8.56279 14.347C9.02965 14.3494 9.46334 14.5194 9.80711 14.8338L13.5598 18.4612L22.3411 9.97296C22.6849 9.65861 23.1186 9.48863 23.5854 9.48624C24.0674 9.50453 24.5035 9.67998 24.8444 10.0095C25.1736 10.3277 25.365 10.7507 25.365 11.1986Z" fill="#FCFCFC"/>
</svg>
