<svg width="32" height="32" viewBox="0 0 32 32" fill="none" xmlns="http://www.w3.org/2000/svg">
<rect width="32" height="32" rx="16" fill="url(#paint0_linear_8965_11566)"/>
<path fill-rule="evenodd" clip-rule="evenodd" d="M25.3631 11.1989C25.3631 11.6655 25.1795 12.1039 24.8641 12.4088L14.8336 22.1254C14.4812 22.4475 14.0206 22.6328 13.5579 22.6328C13.0906 22.6328 12.6338 22.4445 12.3089 22.1304L7.28025 17.2696C6.96482 16.9647 6.78125 16.5263 6.78125 16.0597C6.78125 15.6181 6.96783 15.1935 7.30194 14.8499C7.64461 14.539 8.08215 14.3655 8.56084 14.3473C9.0277 14.3497 9.46139 14.5197 9.80516 14.834L13.5579 18.4615L22.3392 9.97323C22.6829 9.65888 23.1166 9.48891 23.5835 9.48651C24.0654 9.5048 24.5016 9.68025 24.8425 10.0098C25.1716 10.328 25.3631 10.751 25.3631 11.1989Z" fill="#FCFCFC"/>
<defs>
<linearGradient id="paint0_linear_8965_11566" x1="16" y1="0" x2="16" y2="32" gradientUnits="userSpaceOnUse">
<stop stop-color="#FF9900"/>
<stop offset="1" stop-color="#FF7E07"/>
</linearGradient>
</defs>
</svg>
