<svg width="34" height="26" viewBox="0 0 34 26" fill="none" xmlns="http://www.w3.org/2000/svg">
<path fill-rule="evenodd" clip-rule="evenodd" d="M21.0618 5.32821H27.802C27.9203 5.32645 28.0372 5.35273 28.1434 5.4049C28.2495 5.45706 28.3418 5.53362 28.4126 5.6283L33.447 12.1533C33.5532 12.2872 33.6099 12.4536 33.6076 12.6245V19.8858C33.6073 20.0903 33.5259 20.2863 33.3814 20.4308C33.2368 20.5754 33.0408 20.6568 32.8364 20.6571H31.1176C31.1176 19.5516 30.6784 18.4913 29.8967 17.7096C29.1149 16.9278 28.0547 16.4887 26.9491 16.4887C25.8436 16.4887 24.7833 16.9278 24.0016 17.7096C23.2199 18.4913 22.7807 19.5516 22.7807 20.6571H21.0618V5.32821Z" fill="url(#paint0_linear_13145_11595)"/>
<path fill-rule="evenodd" clip-rule="evenodd" d="M30.0376 7.73242L33.4473 12.1518H25.4691C25.2369 12.1511 25.0145 12.0586 24.8504 11.8944C24.6862 11.7303 24.5937 11.5079 24.593 11.2757V8.60846C24.5937 8.37632 24.6862 8.15388 24.8503 7.98974C25.0145 7.82559 25.2369 7.73308 25.4691 7.73242H30.0376Z" fill="#E5ECF1"/>
<path fill-rule="evenodd" clip-rule="evenodd" d="M0.771215 18.1338H21.0617V20.6575H0.771215C0.566728 20.6572 0.370713 20.5758 0.226144 20.4312C0.0815755 20.2866 0.00025087 20.0905 0 19.8861V18.9051C0.00030463 18.7006 0.0816531 18.5046 0.226216 18.3601C0.370779 18.2155 0.566763 18.1341 0.771215 18.1338Z" fill="#685E68"/>
<path d="M31.0884 21.1197C31.3393 18.8313 29.6877 16.7728 27.3993 16.5219C25.1109 16.2709 23.0524 17.9226 22.8014 20.211C22.5505 22.4994 24.2021 24.5579 26.4905 24.8089C28.7789 25.0598 30.8375 23.4081 31.0884 21.1197Z" fill="#837683"/>
<path d="M17.5015 0H2.17145C1.42497 0 0.819824 0.577638 0.819824 1.29019V15.9235C0.819824 16.636 1.42497 17.2136 2.17145 17.2136H17.5015C18.248 17.2136 18.8532 16.636 18.8532 15.9235V1.29019C18.8532 0.577638 18.248 0 17.5015 0Z" fill="url(#paint1_linear_13145_11595)"/>
<path fill-rule="evenodd" clip-rule="evenodd" d="M3.91767 14.1879C3.7482 14.1879 3.58567 14.1314 3.46584 14.0308C3.34601 13.9303 3.27869 13.7938 3.27869 13.6516C3.27869 13.5093 3.34601 13.3729 3.46584 13.2723C3.58567 13.1717 3.7482 13.1152 3.91767 13.1152H6.5411C6.71057 13.1152 6.8731 13.1717 6.99293 13.2723C7.11277 13.3729 7.18009 13.5093 7.18009 13.6516C7.18009 13.7938 7.11277 13.9303 6.99293 14.0308C6.8731 14.1314 6.71057 14.1879 6.5411 14.1879H3.91767ZM3.91767 15.5743C3.7482 15.5743 3.58567 15.5178 3.46584 15.4172C3.34601 15.3166 3.27869 15.1802 3.27869 15.038C3.27869 14.8957 3.34601 14.7593 3.46584 14.6587C3.58567 14.5581 3.7482 14.5016 3.91767 14.5016H9.19728C9.36675 14.5016 9.52928 14.5581 9.64911 14.6587C9.76895 14.7593 9.83627 14.8957 9.83627 15.038C9.83627 15.1802 9.76895 15.3166 9.64911 15.4172C9.52928 15.5178 9.36675 15.5743 9.19728 15.5743H3.91767Z" fill="#E5ECF1"/>
<path d="M13.9652 21.1197C14.2162 18.8313 12.5645 16.7728 10.2761 16.5219C7.98771 16.2709 5.92918 17.9226 5.67824 20.211C5.4273 22.4994 7.07898 24.5579 9.36737 24.8089C11.6558 25.0598 13.7143 23.4081 13.9652 21.1197Z" fill="#837683"/>
<defs>
<linearGradient id="paint0_linear_13145_11595" x1="27.3347" y1="5.32812" x2="27.3347" y2="20.6571" gradientUnits="userSpaceOnUse">
<stop stop-color="#FF9900"/>
<stop offset="1" stop-color="#FF7E07"/>
</linearGradient>
<linearGradient id="paint1_linear_13145_11595" x1="9.8365" y1="0" x2="9.8365" y2="17.2136" gradientUnits="userSpaceOnUse">
<stop stop-color="#FF9900"/>
<stop offset="1" stop-color="#FF7E07"/>
</linearGradient>
</defs>
</svg>
