<svg width="24" height="24" viewBox="0 0 24 24" fill="none" xmlns="http://www.w3.org/2000/svg">
<circle cx="12" cy="12" r="12" fill="#33CCFF"/>
<path d="M18.8974 8.78551C18.4966 8.95799 18.0753 9.0781 17.6438 9.14286C17.8455 9.10828 18.1423 8.74516 18.2605 8.59818C18.44 8.37648 18.5768 8.12339 18.664 7.85177C18.664 7.8316 18.6841 7.80278 18.664 7.78837C18.6538 7.78282 18.6424 7.77991 18.6308 7.77991C18.6192 7.77991 18.6078 7.78282 18.5977 7.78837C18.1291 8.0421 17.6305 8.23575 17.1135 8.36475C17.0955 8.37025 17.0763 8.37075 17.058 8.36618C17.0397 8.36161 17.0231 8.35215 17.0097 8.33881C16.9695 8.29089 16.9262 8.24565 16.8801 8.20336C16.6692 8.01444 16.43 7.85981 16.1711 7.74514C15.8217 7.60179 15.4443 7.5397 15.0673 7.56358C14.7016 7.58668 14.3445 7.68477 14.0183 7.85177C13.6971 8.02783 13.4148 8.26702 13.1883 8.55496C12.9501 8.85132 12.7782 9.19525 12.684 9.56362C12.6064 9.91402 12.5975 10.2762 12.6581 10.6299C12.6581 10.6904 12.6581 10.6991 12.6062 10.6904C10.5514 10.3878 8.86548 9.65873 7.48793 8.09385C7.42741 8.02469 7.39571 8.02469 7.34672 8.09385C6.74728 9.00453 7.03835 10.4455 7.78765 11.1573C7.88851 11.2524 7.99226 11.3446 8.10178 11.4311C7.75823 11.4067 7.42307 11.3136 7.11616 11.1573C7.05853 11.1199 7.02683 11.14 7.02394 11.2092C7.01577 11.3051 7.01577 11.4015 7.02394 11.4974C7.08408 11.9569 7.26518 12.3923 7.54874 12.7589C7.8323 13.1255 8.20813 13.4102 8.63781 13.5839C8.74256 13.6287 8.8517 13.6626 8.96347 13.6847C8.64543 13.7474 8.31924 13.7571 7.99803 13.7136C7.92886 13.6992 7.90292 13.7366 7.92886 13.8029C8.3525 14.9557 9.27183 15.3073 9.9462 15.5032C10.0384 15.5176 10.1306 15.5176 10.2344 15.5407C10.2344 15.5407 10.2344 15.5407 10.2171 15.558C10.0182 15.9211 9.21419 16.1661 8.84531 16.2929C8.172 16.5347 7.45413 16.6272 6.74152 16.5638C6.62912 16.5465 6.60318 16.5494 6.57437 16.5638C6.54555 16.5782 6.57437 16.6099 6.60607 16.6387C6.75016 16.7338 6.89426 16.8174 7.04412 16.8981C7.49025 17.1414 7.9619 17.3347 8.45049 17.4745C10.9808 18.1719 13.8281 17.6589 15.7273 15.7712C17.2201 14.2899 17.7446 12.2467 17.7446 10.2005C17.7446 10.1227 17.8397 10.0766 17.8945 10.0363C18.2722 9.74198 18.6051 9.39445 18.883 9.00453C18.9311 8.94641 18.9558 8.87241 18.9522 8.79704V8.79704C18.9522 8.75381 18.9522 8.76245 18.8974 8.78551Z" fill="white"/>
</svg>
