<svg width="24" height="24" viewBox="0 0 24 24" fill="none" xmlns="http://www.w3.org/2000/svg">
<circle cx="12" cy="12" r="12" fill="#00D95F"/>
<path d="M5.55859 17.9992L6.47771 14.5875C5.73647 13.2585 5.50097 11.7076 5.81442 10.2195C6.12788 8.73142 6.96926 7.40588 8.18419 6.48614C9.39911 5.56641 10.9061 5.11418 12.4285 5.21243C13.951 5.31069 15.3869 5.95284 16.4726 7.02105C17.5584 8.08926 18.2212 9.51188 18.3395 11.0279C18.4578 12.5438 18.0236 14.0515 17.1165 15.2741C16.2095 16.4968 14.8905 17.3524 13.4016 17.6841C11.9127 18.0157 10.3537 17.8011 9.01069 17.0796L5.55859 17.9992ZM9.17715 15.8029L9.39064 15.9291C10.3634 16.5038 11.4995 16.7416 12.622 16.6055C13.7445 16.4693 14.7903 15.967 15.5965 15.1767C16.4026 14.3863 16.9237 13.3524 17.0787 12.2361C17.2337 11.1197 17.0139 9.98363 16.4533 9.00483C15.8928 8.02603 15.0232 7.25952 13.98 6.82473C12.9367 6.38995 11.7785 6.31132 10.6857 6.6011C9.59298 6.89089 8.6271 7.5328 7.9386 8.42681C7.25011 9.32082 6.87769 10.4167 6.87937 11.5437C6.87845 12.4782 7.13775 13.3945 7.62841 14.1908L7.76229 14.4108L7.24846 16.315L9.17715 15.8029Z" fill="white"/>
<path fill-rule="evenodd" clip-rule="evenodd" d="M14.5462 12.2C14.4079 12.0931 14.2461 12.018 14.0729 11.9801C13.8998 11.9423 13.7199 11.9428 13.547 11.9817C13.2873 12.0851 13.1194 12.4757 12.9515 12.671C12.9162 12.7179 12.8641 12.7507 12.8053 12.7634C12.7464 12.7761 12.6847 12.7678 12.6318 12.74C11.6808 12.383 10.8836 11.7285 10.3698 10.8826C10.326 10.8298 10.3052 10.7627 10.3119 10.6956C10.3187 10.6285 10.3523 10.5664 10.4058 10.5226C10.593 10.345 10.7304 10.125 10.8054 9.883C10.8221 9.61607 10.7583 9.35018 10.6216 9.11705C10.5159 8.7902 10.3148 8.49917 10.0421 8.27834C9.90141 8.21771 9.74543 8.19738 9.59297 8.2198C9.44051 8.24223 9.29807 8.30645 9.18284 8.40472C8.9828 8.5701 8.82403 8.77638 8.7182 9.00836C8.61238 9.24033 8.56221 9.4921 8.57138 9.74513C8.57199 9.88721 8.59078 10.0287 8.62733 10.1664C8.72013 10.4972 8.86284 10.8133 9.05096 11.1047C9.18668 11.3278 9.33476 11.5439 9.49457 11.7519C10.0139 12.4351 10.6668 13.0152 11.4169 13.46C11.7933 13.686 12.1956 13.8697 12.6158 14.0076C13.0524 14.1972 13.5344 14.27 14.0106 14.2183C14.282 14.1789 14.5391 14.0762 14.7593 13.9193C14.9795 13.7624 15.1561 13.556 15.2735 13.3183C15.3425 13.1747 15.3635 13.0141 15.3335 12.8587C15.2615 12.5408 14.8179 12.3532 14.5462 12.2Z" fill="white"/>
</svg>
