<svg width="114" height="114" viewBox="0 0 114 114" fill="none" xmlns="http://www.w3.org/2000/svg">
<circle cx="57" cy="57" r="57" fill="#FF7E07" fill-opacity="0.1"/>
<path d="M57.5 82L53.9475 78.812C49.8233 75.0926 46.4138 71.8842 43.7188 69.1866C41.0238 66.4891 38.88 64.067 37.2875 61.9204C35.695 59.7755 34.5827 57.8038 33.9506 56.0054C33.3169 54.2071 33 52.3678 33 50.4877C33 46.6458 34.2863 43.4373 36.8588 40.8624C39.4313 38.2875 42.6367 37 46.475 37C48.5983 37 50.6196 37.4496 52.5388 38.3488C54.4579 39.248 56.1117 40.515 57.5 42.1499C58.8883 40.515 60.5421 39.248 62.4613 38.3488C64.3804 37.4496 66.4017 37 68.525 37C72.3633 37 75.5687 38.2875 78.1413 40.8624C80.7137 43.4373 82 46.6458 82 50.4877C82 52.3678 81.684 54.2071 81.0519 56.0054C80.4181 57.8038 79.305 59.7755 77.7125 61.9204C76.12 64.067 73.9762 66.4891 71.2812 69.1866C68.5863 71.8842 65.1767 75.0926 61.0525 78.812L57.5 82Z" fill="#FF9900"/>
</svg>
